<svg width="38" height="9" viewBox="0 0 38 9" fill="none" xmlns="http://www.w3.org/2000/svg">
<g clip-path="url(#clip0_34_467)">
<path fill-rule="evenodd" clip-rule="evenodd" d="M1.21461 0.892033H2.43458C4.31632 0.892033 5.84128 1.75522 5.84128 4.35052C5.84128 6.94583 4.26453 7.9126 1.87638 7.9126H1.16282V0.892033H1.21461ZM0.397461 8.62041H1.87063C4.66735 8.62041 6.69871 7.45223 6.69871 4.40232C6.69871 1.3524 5.48449 0.178467 2.48637 0.178467H0.397461V8.62041Z" fill="white"/>
<path d="M8.43066 8.62041H9.24206V0.178467H8.43066V8.62041Z" fill="white"/>
<path fill-rule="evenodd" clip-rule="evenodd" d="M10.3125 8.62041H11.1239L12.0389 6.33009H16.3088L17.2237 8.62041H18.0869L14.7378 0.178467H13.771L10.3125 8.62041ZM16.0613 5.62228H12.4014L14.2314 0.943824L16.0613 5.62228Z" fill="white"/>
<path d="M19.2139 8.62041H23.4838V7.90684H20.0771V0.178467H19.2139V8.62041ZM30.1936 2.41699H28.565V5.46691C28.565 6.2783 28.3118 7.55006 27.1437 7.55006C25.9755 7.55006 26.0733 6.5315 26.0733 5.7719V2.41699H24.4448V6.33009C24.4448 7.75147 25.1065 8.77003 26.5797 8.77003C28.0529 8.77003 28.1565 8.36145 28.6111 7.75147V8.61466H30.136V2.3652L30.1878 2.41699H30.1936ZM33.2953 5.36333L31.1603 8.62041H32.9385L34.3138 6.28406L35.7352 8.62041H37.6687L35.5856 5.36333L37.4155 2.41124H35.6892L34.521 4.4426L33.301 2.41124H31.3675L33.301 5.36333H33.2953Z" fill="white"/>
</g>
<defs>
<clipPath id="clip0_34_467">
<rect width="37.6924" height="8.91957" fill="white"/>
</clipPath>
</defs>
</svg>
