<svg width="128" height="6" viewBox="0 0 128 6" fill="none" xmlns="http://www.w3.org/2000/svg">
<path d="M127.722 2.88672L122.722 -3.26633e-05V5.77347L127.722 2.88672ZM0 2.88672V3.38672H0.997826V2.88672V2.38672H0V2.88672ZM2.99348 2.88672V3.38672H4.98913V2.88672V2.38672H2.99348V2.88672ZM6.98478 2.88672V3.38672H8.98043V2.88672V2.38672H6.98478V2.88672ZM10.9761 2.88672V3.38672H12.9717V2.88672V2.38672H10.9761V2.88672ZM14.9674 2.88672V3.38672H16.963V2.88672V2.38672H14.9674V2.88672ZM18.9587 2.88672V3.38672H20.9543V2.88672V2.38672H18.9587V2.88672ZM22.95 2.88672V3.38672H24.9456V2.88672V2.38672H22.95V2.88672ZM26.9413 2.88672V3.38672H28.9369V2.88672V2.38672H26.9413V2.88672ZM30.9326 2.88672V3.38672H32.9282V2.88672V2.38672H30.9326V2.88672ZM34.9239 2.88672V3.38672H36.9195V2.88672V2.38672H34.9239V2.88672ZM38.9152 2.88672V3.38672H40.9109V2.88672V2.38672H38.9152V2.88672ZM42.9065 2.88672V3.38672H44.9022V2.88672V2.38672H42.9065V2.88672ZM46.8978 2.88672V3.38672H48.8935V2.88672V2.38672H46.8978V2.88672ZM50.8891 2.88672V3.38672H52.8848V2.88672V2.38672H50.8891V2.88672ZM54.8804 2.88672V3.38672H56.8761V2.88672V2.38672H54.8804V2.88672ZM58.8717 2.88672V3.38672H60.8674V2.88672V2.38672H58.8717V2.88672ZM62.863 2.88672V3.38672H64.8587V2.88672V2.38672H62.863V2.88672ZM66.8543 2.88672V3.38672H68.85V2.88672V2.38672H66.8543V2.88672ZM70.8456 2.88672V3.38672H72.8413V2.88672V2.38672H70.8456V2.88672ZM74.8369 2.88672V3.38672H76.8326V2.88672V2.38672H74.8369V2.88672ZM78.8282 2.88672V3.38672H80.8239V2.88672V2.38672H78.8282V2.88672ZM82.8195 2.88672V3.38672H84.8152V2.88672V2.38672H82.8195V2.88672ZM86.8108 2.88672V3.38672H88.8065V2.88672V2.38672H86.8108V2.88672ZM90.8021 2.88672V3.38672H92.7978V2.88672V2.38672H90.8021V2.88672ZM94.7934 2.88672V3.38672H96.7891V2.88672V2.38672H94.7934V2.88672ZM98.7847 2.88672V3.38672H100.78V2.88672V2.38672H98.7847V2.88672ZM102.776 2.88672V3.38672H104.772V2.88672V2.38672H102.776V2.88672ZM106.767 2.88672V3.38672H108.763V2.88672V2.38672H106.767V2.88672ZM110.759 2.88672V3.38672H112.754V2.88672V2.38672H110.759V2.88672ZM114.75 2.88672V3.38672H116.746V2.88672V2.38672H114.75V2.88672ZM118.741 2.88672V3.38672H120.737V2.88672V2.38672H118.741V2.88672ZM122.733 2.88672V3.38672H124.728V2.88672V2.38672H122.733V2.88672ZM127.722 2.88672L122.722 -3.26633e-05V5.77347L127.722 2.88672ZM0 2.88672V3.38672H0.997826V2.88672V2.38672H0V2.88672ZM2.99348 2.88672V3.38672H4.98913V2.88672V2.38672H2.99348V2.88672ZM6.98478 2.88672V3.38672H8.98043V2.88672V2.38672H6.98478V2.88672ZM10.9761 2.88672V3.38672H12.9717V2.88672V2.38672H10.9761V2.88672ZM14.9674 2.88672V3.38672H16.963V2.88672V2.38672H14.9674V2.88672ZM18.9587 2.88672V3.38672H20.9543V2.88672V2.38672H18.9587V2.88672ZM22.95 2.88672V3.38672H24.9456V2.88672V2.38672H22.95V2.88672ZM26.9413 2.88672V3.38672H28.9369V2.88672V2.38672H26.9413V2.88672ZM30.9326 2.88672V3.38672H32.9282V2.88672V2.38672H30.9326V2.88672ZM34.9239 2.88672V3.38672H36.9195V2.88672V2.38672H34.9239V2.88672ZM38.9152 2.88672V3.38672H40.9109V2.88672V2.38672H38.9152V2.88672ZM42.9065 2.88672V3.38672H44.9022V2.88672V2.38672H42.9065V2.88672ZM46.8978 2.88672V3.38672H48.8935V2.88672V2.38672H46.8978V2.88672ZM50.8891 2.88672V3.38672H52.8848V2.88672V2.38672H50.8891V2.88672ZM54.8804 2.88672V3.38672H56.8761V2.88672V2.38672H54.8804V2.88672ZM58.8717 2.88672V3.38672H60.8674V2.88672V2.38672H58.8717V2.88672ZM62.863 2.88672V3.38672H64.8587V2.88672V2.38672H62.863V2.88672ZM66.8543 2.88672V3.38672H68.85V2.88672V2.38672H66.8543V2.88672ZM70.8456 2.88672V3.38672H72.8413V2.88672V2.38672H70.8456V2.88672ZM74.8369 2.88672V3.38672H76.8326V2.88672V2.38672H74.8369V2.88672ZM78.8282 2.88672V3.38672H80.8239V2.88672V2.38672H78.8282V2.88672ZM82.8195 2.88672V3.38672H84.8152V2.88672V2.38672H82.8195V2.88672ZM86.8108 2.88672V3.38672H88.8065V2.88672V2.38672H86.8108V2.88672ZM90.8021 2.88672V3.38672H92.7978V2.88672V2.38672H90.8021V2.88672ZM94.7934 2.88672V3.38672H96.7891V2.88672V2.38672H94.7934V2.88672ZM98.7847 2.88672V3.38672H100.78V2.88672V2.38672H98.7847V2.88672ZM102.776 2.88672V3.38672H104.772V2.88672V2.38672H102.776V2.88672ZM106.767 2.88672V3.38672H108.763V2.88672V2.38672H106.767V2.88672ZM110.759 2.88672V3.38672H112.754V2.88672V2.38672H110.759V2.88672ZM114.75 2.88672V3.38672H116.746V2.88672V2.38672H114.75V2.88672ZM118.741 2.88672V3.38672H120.737V2.88672V2.38672H118.741V2.88672ZM122.733 2.88672V3.38672H124.728V2.88672V2.38672H122.733V2.88672Z" fill="url(#paint0_linear_34_1155)"/>
<defs>
<linearGradient id="paint0_linear_34_1155" x1="0" y1="3.38672" x2="127.722" y2="3.38672" gradientUnits="userSpaceOnUse">
<stop stop-color="#DC8B12" stop-opacity="0"/>
<stop offset="1" stop-color="#DC8B12"/>
</linearGradient>
</defs>
</svg>
