<svg width="305" height="307" viewBox="0 0 305 307" fill="none" xmlns="http://www.w3.org/2000/svg">
<g opacity="0.4">
<path d="M289.796 281.072C290.071 281.072 290.294 280.849 290.294 280.574C290.294 280.299 290.071 280.076 289.796 280.076C289.521 280.076 289.298 280.299 289.298 280.574C289.298 280.849 289.521 281.072 289.796 281.072Z" fill="#FF8A05"/>
<path d="M289.796 284.059C290.071 284.059 290.294 283.836 290.294 283.561C290.294 283.286 290.071 283.063 289.796 283.063C289.521 283.063 289.298 283.286 289.298 283.561C289.298 283.836 289.521 284.059 289.796 284.059Z" fill="#FF8A05"/>
<path d="M287.804 286.051C288.079 286.051 288.302 285.828 288.302 285.553C288.302 285.278 288.079 285.055 287.804 285.055C287.529 285.055 287.306 285.278 287.306 285.553C287.306 285.828 287.529 286.051 287.804 286.051Z" fill="#FF8A05"/>
<path opacity="0.99" d="M284.816 288.042C285.091 288.042 285.314 287.819 285.314 287.544C285.314 287.269 285.091 287.046 284.816 287.046C284.541 287.046 284.318 287.269 284.318 287.544C284.318 287.819 284.541 288.042 284.816 288.042Z" fill="#FF8A05"/>
<path opacity="0.99" d="M280.833 287.046C281.108 287.046 281.331 286.823 281.331 286.548C281.331 286.273 281.108 286.05 280.833 286.05C280.558 286.05 280.335 286.273 280.335 286.548C280.335 286.823 280.558 287.046 280.833 287.046Z" fill="#FF8A05"/>
<path opacity="0.99" d="M277.846 284.059C278.121 284.059 278.344 283.836 278.344 283.561C278.344 283.286 278.121 283.063 277.846 283.063C277.571 283.063 277.348 283.286 277.348 283.561C277.348 283.836 277.571 284.059 277.846 284.059Z" fill="#FF8A05"/>
<path opacity="0.99" d="M276.85 280.075C277.125 280.075 277.348 279.853 277.348 279.578C277.348 279.303 277.125 279.08 276.85 279.08C276.575 279.08 276.353 279.303 276.353 279.578C276.353 279.853 276.575 280.075 276.85 280.075Z" fill="#FF8A05"/>
<path opacity="0.98" d="M277.846 276.092C278.121 276.092 278.344 275.869 278.344 275.594C278.344 275.319 278.121 275.096 277.846 275.096C277.571 275.096 277.348 275.319 277.348 275.594C277.348 275.869 277.571 276.092 277.846 276.092Z" fill="#FF8A05"/>
<path opacity="0.98" d="M280.833 272.109C281.108 272.109 281.331 271.886 281.331 271.611C281.331 271.336 281.108 271.113 280.833 271.113C280.558 271.113 280.335 271.336 280.335 271.611C280.335 271.886 280.558 272.109 280.833 272.109Z" fill="#FF8A05"/>
<path opacity="0.98" d="M285.812 271.113C286.087 271.113 286.31 270.89 286.31 270.615C286.31 270.34 286.087 270.117 285.812 270.117C285.537 270.117 285.314 270.34 285.314 270.615C285.314 270.89 285.537 271.113 285.812 271.113Z" fill="#FF8A05"/>
<path opacity="0.98" d="M291.788 273.104C292.063 273.104 292.286 272.881 292.286 272.606C292.286 272.331 292.063 272.108 291.788 272.108C291.513 272.108 291.29 272.331 291.29 272.606C291.29 272.881 291.513 273.104 291.788 273.104Z" fill="#FF8A05"/>
<path opacity="0.97" d="M294.775 277.088C295.05 277.088 295.273 276.865 295.273 276.59C295.273 276.315 295.05 276.092 294.775 276.092C294.5 276.092 294.277 276.315 294.277 276.59C294.277 276.865 294.5 277.088 294.775 277.088Z" fill="#FF8A05"/>
<path opacity="0.97" d="M295.771 283.063C296.046 283.063 296.269 282.84 296.269 282.565C296.269 282.29 296.046 282.067 295.771 282.067C295.496 282.067 295.273 282.29 295.273 282.565C295.273 282.84 295.496 283.063 295.771 283.063Z" fill="#FF8A05"/>
<path opacity="0.97" d="M293.779 289.038C294.054 289.038 294.277 288.815 294.277 288.54C294.277 288.265 294.054 288.042 293.779 288.042C293.504 288.042 293.281 288.265 293.281 288.54C293.281 288.815 293.504 289.038 293.779 289.038Z" fill="#FF8A05"/>
<path opacity="0.97" d="M288.8 293.021C289.075 293.021 289.298 292.798 289.298 292.523C289.298 292.248 289.075 292.025 288.8 292.025C288.525 292.025 288.302 292.248 288.302 292.523C288.302 292.798 288.525 293.021 288.8 293.021Z" fill="#FF8A05"/>
<path opacity="0.97" d="M281.829 294.017C282.104 294.017 282.327 293.794 282.327 293.519C282.327 293.244 282.104 293.021 281.829 293.021C281.554 293.021 281.331 293.244 281.331 293.519C281.331 293.794 281.554 294.017 281.829 294.017Z" fill="#FF8A05"/>
<path opacity="0.96" d="M274.858 291.03C275.133 291.03 275.356 290.807 275.356 290.532C275.356 290.257 275.133 290.034 274.858 290.034C274.583 290.034 274.36 290.257 274.36 290.532C274.36 290.807 274.583 291.03 274.858 291.03Z" fill="#FF8A05"/>
<path opacity="0.96" d="M270.874 284.059C271.149 284.059 271.372 283.836 271.372 283.561C271.372 283.286 271.149 283.063 270.874 283.063C270.599 283.063 270.376 283.286 270.376 283.561C270.376 283.836 270.599 284.059 270.874 284.059Z" fill="#FF8A05"/>
<path opacity="0.96" d="M270.874 277.088C271.149 277.088 271.372 276.865 271.372 276.59C271.372 276.315 271.149 276.092 270.874 276.092C270.599 276.092 270.376 276.315 270.376 276.59C270.376 276.865 270.599 277.088 270.874 277.088Z" fill="#FF8A05"/>
<path opacity="0.96" d="M274.858 270.116C275.133 270.116 275.356 269.894 275.356 269.619C275.356 269.344 275.133 269.121 274.858 269.121C274.583 269.121 274.36 269.344 274.36 269.619C274.36 269.894 274.583 270.116 274.858 270.116Z" fill="#FF8A05"/>
<path opacity="0.95" d="M281.829 266.134C282.104 266.134 282.327 265.911 282.327 265.636C282.327 265.361 282.104 265.138 281.829 265.138C281.554 265.138 281.331 265.361 281.331 265.636C281.331 265.911 281.554 266.134 281.829 266.134Z" fill="#FF8A05"/>
<path opacity="0.95" d="M290.792 266.134C291.067 266.134 291.29 265.911 291.29 265.636C291.29 265.361 291.067 265.138 290.792 265.138C290.517 265.138 290.294 265.361 290.294 265.636C290.294 265.911 290.517 266.134 290.792 266.134Z" fill="#FF8A05"/>
<path opacity="0.95" d="M297.762 270.614C298.312 270.614 298.758 270.168 298.758 269.618C298.758 269.068 298.312 268.623 297.762 268.623C297.212 268.623 296.767 269.068 296.767 269.618C296.767 270.168 297.212 270.614 297.762 270.614Z" fill="#FF8A05"/>
<path opacity="0.95" d="M301.747 278.581C302.297 278.581 302.743 278.135 302.743 277.585C302.743 277.035 302.297 276.589 301.747 276.589C301.197 276.589 300.751 277.035 300.751 277.585C300.751 278.135 301.197 278.581 301.747 278.581Z" fill="#FF8A05"/>
<path opacity="0.94" d="M301.747 288.54C302.297 288.54 302.743 288.094 302.743 287.544C302.743 286.994 302.297 286.548 301.747 286.548C301.197 286.548 300.751 286.994 300.751 287.544C300.751 288.094 301.197 288.54 301.747 288.54Z" fill="#FF8A05"/>
<path opacity="0.94" d="M295.77 296.507C296.32 296.507 296.766 296.061 296.766 295.511C296.766 294.961 296.32 294.515 295.77 294.515C295.22 294.515 294.774 294.961 294.774 295.511C294.774 296.061 295.22 296.507 295.77 296.507Z" fill="#FF8A05"/>
<path opacity="0.94" d="M286.808 300.491C287.358 300.491 287.804 300.045 287.804 299.495C287.804 298.945 287.358 298.499 286.808 298.499C286.258 298.499 285.812 298.945 285.812 299.495C285.812 300.045 286.258 300.491 286.808 300.491Z" fill="#FF8A05"/>
<path opacity="0.94" d="M276.849 299.495C277.399 299.495 277.845 299.049 277.845 298.499C277.845 297.949 277.399 297.503 276.849 297.503C276.299 297.503 275.854 297.949 275.854 298.499C275.854 299.049 276.299 299.495 276.849 299.495Z" fill="#FF8A05"/>
<path opacity="0.94" d="M267.887 292.523C268.437 292.523 268.883 292.078 268.883 291.528C268.883 290.978 268.437 290.532 267.887 290.532C267.337 290.532 266.892 290.978 266.892 291.528C266.892 292.078 267.337 292.523 267.887 292.523Z" fill="#FF8A05"/>
<path opacity="0.93" d="M263.903 282.565C264.453 282.565 264.899 282.119 264.899 281.569C264.899 281.019 264.453 280.573 263.903 280.573C263.353 280.573 262.907 281.019 262.907 281.569C262.907 282.119 263.353 282.565 263.903 282.565Z" fill="#FF8A05"/>
<path opacity="0.93" d="M265.895 271.61C266.445 271.61 266.891 271.165 266.891 270.615C266.891 270.065 266.445 269.619 265.895 269.619C265.345 269.619 264.899 270.065 264.899 270.615C264.899 271.165 265.345 271.61 265.895 271.61Z" fill="#FF8A05"/>
<path opacity="0.93" d="M273.862 262.647C274.412 262.647 274.858 262.202 274.858 261.652C274.858 261.102 274.412 260.656 273.862 260.656C273.312 260.656 272.866 261.102 272.866 261.652C272.866 262.202 273.312 262.647 273.862 262.647Z" fill="#FF8A05"/>
<path opacity="0.93" d="M284.817 259.66C285.367 259.66 285.813 259.214 285.813 258.664C285.813 258.114 285.367 257.668 284.817 257.668C284.267 257.668 283.821 258.114 283.821 258.664C283.821 259.214 284.267 259.66 284.817 259.66Z" fill="#FF8A05"/>
<path opacity="0.92" d="M296.766 261.652C297.316 261.652 297.762 261.206 297.762 260.656C297.762 260.106 297.316 259.66 296.766 259.66C296.216 259.66 295.771 260.106 295.771 260.656C295.771 261.206 296.216 261.652 296.766 261.652Z" fill="#FF8A05"/>
<path opacity="0.92" d="M305.729 270.614C306.279 270.614 306.725 270.168 306.725 269.618C306.725 269.068 306.279 268.623 305.729 268.623C305.179 268.623 304.733 269.068 304.733 269.618C304.733 270.168 305.179 270.614 305.729 270.614Z" fill="#FF8A05"/>
<path opacity="0.92" d="M304.734 295.511C305.284 295.511 305.73 295.065 305.73 294.515C305.73 293.965 305.284 293.52 304.734 293.52C304.184 293.52 303.738 293.965 303.738 294.515C303.738 295.065 304.184 295.511 304.734 295.511Z" fill="#FF8A05"/>
<path opacity="0.91" d="M295.77 304.474C296.32 304.474 296.766 304.028 296.766 303.478C296.766 302.928 296.32 302.482 295.77 302.482C295.22 302.482 294.774 302.928 294.774 303.478C294.774 304.028 295.22 304.474 295.77 304.474Z" fill="#FF8A05"/>
<path opacity="0.91" d="M281.829 306.466C282.379 306.466 282.825 306.02 282.825 305.47C282.825 304.92 282.379 304.474 281.829 304.474C281.279 304.474 280.833 304.92 280.833 305.47C280.833 306.02 281.279 306.466 281.829 306.466Z" fill="#FF8A05"/>
<path opacity="0.91" d="M268.883 302.482C269.433 302.482 269.878 302.036 269.878 301.486C269.878 300.936 269.433 300.49 268.883 300.49C268.333 300.49 267.887 300.936 267.887 301.486C267.887 302.036 268.333 302.482 268.883 302.482Z" fill="#FF8A05"/>
<path opacity="0.91" d="M259.92 291.528C260.47 291.528 260.916 291.082 260.916 290.532C260.916 289.982 260.47 289.536 259.92 289.536C259.37 289.536 258.924 289.982 258.924 290.532C258.924 291.082 259.37 291.528 259.92 291.528Z" fill="#FF8A05"/>
<path opacity="0.91" d="M257.928 277.585C258.478 277.585 258.924 277.14 258.924 276.59C258.924 276.04 258.478 275.594 257.928 275.594C257.378 275.594 256.933 276.04 256.933 276.59C256.933 277.14 257.378 277.585 257.928 277.585Z" fill="#FF8A05"/>
<path opacity="0.9" d="M263.903 263.644C264.453 263.644 264.899 263.198 264.899 262.648C264.899 262.098 264.453 261.652 263.903 261.652C263.353 261.652 262.907 262.098 262.907 262.648C262.907 263.198 263.353 263.644 263.903 263.644Z" fill="#FF8A05"/>
<path opacity="0.9" d="M275.853 254.681C276.403 254.681 276.849 254.235 276.849 253.685C276.849 253.135 276.403 252.689 275.853 252.689C275.303 252.689 274.857 253.135 274.857 253.685C274.857 254.235 275.303 254.681 275.853 254.681Z" fill="#FF8A05"/>
<path opacity="0.9" d="M290.792 253.685C291.342 253.685 291.788 253.239 291.788 252.689C291.788 252.139 291.342 251.693 290.792 251.693C290.242 251.693 289.796 252.139 289.796 252.689C289.796 253.239 290.242 253.685 290.792 253.685Z" fill="#FF8A05"/>
<path opacity="0.9" d="M304.734 259.66C305.284 259.66 305.73 259.214 305.73 258.664C305.73 258.114 305.284 257.668 304.734 257.668C304.184 257.668 303.738 258.114 303.738 258.664C303.738 259.214 304.184 259.66 304.734 259.66Z" fill="#FF8A05"/>
<path opacity="0.88" d="M260.916 303.478C261.466 303.478 261.912 303.032 261.912 302.482C261.912 301.932 261.466 301.486 260.916 301.486C260.366 301.486 259.92 301.932 259.92 302.482C259.92 303.032 260.366 303.478 260.916 303.478Z" fill="#FF8A05"/>
<path opacity="0.88" d="M252.949 287.544C253.499 287.544 253.945 287.098 253.945 286.548C253.945 285.998 253.499 285.552 252.949 285.552C252.399 285.552 251.953 285.998 251.953 286.548C251.953 287.098 252.399 287.544 252.949 287.544Z" fill="#FF8A05"/>
<path opacity="0.88" d="M252.949 270.614C253.499 270.614 253.945 270.168 253.945 269.618C253.945 269.068 253.499 268.623 252.949 268.623C252.399 268.623 251.953 269.068 251.953 269.618C251.953 270.168 252.399 270.614 252.949 270.614Z" fill="#FF8A05"/>
<path opacity="0.88" d="M262.908 255.677C263.458 255.677 263.904 255.231 263.904 254.681C263.904 254.131 263.458 253.685 262.908 253.685C262.358 253.685 261.912 254.131 261.912 254.681C261.912 255.231 262.358 255.677 262.908 255.677Z" fill="#FF8A05"/>
<path opacity="0.87" d="M279.838 247.71C280.388 247.71 280.834 247.264 280.834 246.714C280.834 246.164 280.388 245.718 279.838 245.718C279.288 245.718 278.842 246.164 278.842 246.714C278.842 247.264 279.288 247.71 279.838 247.71Z" fill="#FF8A05"/>
<path opacity="0.87" d="M298.759 248.706C299.309 248.706 299.754 248.26 299.754 247.71C299.754 247.16 299.309 246.714 298.759 246.714C298.209 246.714 297.763 247.16 297.763 247.71C297.763 248.26 298.209 248.706 298.759 248.706Z" fill="#FF8A05"/>
<path opacity="0.85" d="M250.957 301.486C251.507 301.486 251.953 301.04 251.953 300.49C251.953 299.94 251.507 299.495 250.957 299.495C250.407 299.495 249.961 299.94 249.961 300.49C249.961 301.04 250.407 301.486 250.957 301.486Z" fill="#FF8A05"/>
<path opacity="0.85" d="M244.982 281.569C245.532 281.569 245.978 281.123 245.978 280.573C245.978 280.023 245.532 279.578 244.982 279.578C244.432 279.578 243.986 280.023 243.986 280.573C243.986 281.123 244.432 281.569 244.982 281.569Z" fill="#FF8A05"/>
<path opacity="0.85" d="M250.957 260.656C251.507 260.656 251.953 260.21 251.953 259.66C251.953 259.11 251.507 258.664 250.957 258.664C250.407 258.664 249.961 259.11 249.961 259.66C249.961 260.21 250.407 260.656 250.957 260.656Z" fill="#FF8A05"/>
<path opacity="0.85" d="M265.895 246.216C266.72 246.216 267.389 245.547 267.389 244.722C267.389 243.897 266.72 243.228 265.895 243.228C265.07 243.228 264.401 243.897 264.401 244.722C264.401 245.547 265.07 246.216 265.895 246.216Z" fill="#FF8A05"/>
<path opacity="0.85" d="M286.808 241.237C287.633 241.237 288.302 240.568 288.302 239.743C288.302 238.918 287.633 238.249 286.808 238.249C285.983 238.249 285.314 238.918 285.314 239.743C285.314 240.568 285.983 241.237 286.808 241.237Z" fill="#FF8A05"/>
<path opacity="0.83" d="M241.995 297.005C242.82 297.005 243.489 296.336 243.489 295.511C243.489 294.686 242.82 294.017 241.995 294.017C241.17 294.017 240.501 294.686 240.501 295.511C240.501 296.336 241.17 297.005 241.995 297.005Z" fill="#FF8A05"/>
<path opacity="0.82" d="M240.003 273.104C240.828 273.104 241.496 272.435 241.496 271.61C241.496 270.785 240.828 270.117 240.003 270.117C239.178 270.117 238.509 270.785 238.509 271.61C238.509 272.435 239.178 273.104 240.003 273.104Z" fill="#FF8A05"/>
<path opacity="0.82" d="M250.958 251.195C251.783 251.195 252.451 250.526 252.451 249.701C252.451 248.876 251.783 248.208 250.958 248.208C250.133 248.208 249.464 248.876 249.464 249.701C249.464 250.526 250.133 251.195 250.958 251.195Z" fill="#FF8A05"/>
<path opacity="0.82" d="M270.875 237.253C271.7 237.253 272.368 236.584 272.368 235.759C272.368 234.934 271.7 234.265 270.875 234.265C270.05 234.265 269.381 234.934 269.381 235.759C269.381 236.584 270.05 237.253 270.875 237.253Z" fill="#FF8A05"/>
<path opacity="0.82" d="M296.767 236.257C297.592 236.257 298.261 235.588 298.261 234.763C298.261 233.938 297.592 233.27 296.767 233.27C295.942 233.27 295.273 233.938 295.273 234.763C295.273 235.588 295.942 236.257 296.767 236.257Z" fill="#FF8A05"/>
<path opacity="0.8" d="M234.027 289.038C234.852 289.038 235.521 288.369 235.521 287.544C235.521 286.719 234.852 286.05 234.027 286.05C233.202 286.05 232.533 286.719 232.533 287.544C232.533 288.369 233.202 289.038 234.027 289.038Z" fill="#FF8A05"/>
<path opacity="0.8" d="M237.015 262.15C237.84 262.15 238.509 261.481 238.509 260.656C238.509 259.831 237.84 259.162 237.015 259.162C236.19 259.162 235.521 259.831 235.521 260.656C235.521 261.481 236.19 262.15 237.015 262.15Z" fill="#FF8A05"/>
<path opacity="0.79" d="M253.944 239.245C254.769 239.245 255.438 238.576 255.438 237.751C255.438 236.926 254.769 236.257 253.944 236.257C253.119 236.257 252.45 236.926 252.45 237.751C252.45 238.576 253.119 239.245 253.944 239.245Z" fill="#FF8A05"/>
<path opacity="0.79" d="M279.838 229.286C280.663 229.286 281.331 228.618 281.331 227.793C281.331 226.968 280.663 226.299 279.838 226.299C279.013 226.299 278.344 226.968 278.344 227.793C278.344 228.618 279.013 229.286 279.838 229.286Z" fill="#FF8A05"/>
<path opacity="0.77" d="M234.027 308.955C234.852 308.955 235.521 308.287 235.521 307.462C235.521 306.637 234.852 305.968 234.027 305.968C233.202 305.968 232.533 306.637 232.533 307.462C232.533 308.287 233.202 308.955 234.027 308.955Z" fill="#FF8A05"/>
<path opacity="0.77" d="M227.056 279.079C227.881 279.079 228.55 278.411 228.55 277.586C228.55 276.761 227.881 276.092 227.056 276.092C226.231 276.092 225.562 276.761 225.562 277.586C225.562 278.411 226.231 279.079 227.056 279.079Z" fill="#FF8A05"/>
<path opacity="0.77" d="M236.019 249.204C236.844 249.204 237.513 248.535 237.513 247.71C237.513 246.885 236.844 246.216 236.019 246.216C235.194 246.216 234.525 246.885 234.525 247.71C234.525 248.535 235.194 249.204 236.019 249.204Z" fill="#FF8A05"/>
<path opacity="0.77" d="M259.921 228.29C260.746 228.29 261.414 227.622 261.414 226.797C261.414 225.972 260.746 225.303 259.921 225.303C259.096 225.303 258.427 225.972 258.427 226.797C258.427 227.622 259.096 228.29 259.921 228.29Z" fill="#FF8A05"/>
<path opacity="0.76" d="M290.792 222.315C291.617 222.315 292.285 221.646 292.285 220.821C292.285 219.996 291.617 219.328 290.792 219.328C289.967 219.328 289.298 219.996 289.298 220.821C289.298 221.646 289.967 222.315 290.792 222.315Z" fill="#FF8A05"/>
<path opacity="0.75" d="M223.073 300.49C224.173 300.49 225.065 299.599 225.065 298.499C225.065 297.399 224.173 296.507 223.073 296.507C221.973 296.507 221.081 297.399 221.081 298.499C221.081 299.599 221.973 300.49 223.073 300.49Z" fill="#FF8A05"/>
<path opacity="0.74" d="M222.077 266.631C223.177 266.631 224.068 265.74 224.068 264.64C224.068 263.54 223.177 262.648 222.077 262.648C220.977 262.648 220.085 263.54 220.085 264.64C220.085 265.74 220.977 266.631 222.077 266.631Z" fill="#FF8A05"/>
<path opacity="0.74" d="M239.007 235.759C240.107 235.759 240.999 234.868 240.999 233.768C240.999 232.668 240.107 231.776 239.007 231.776C237.907 231.776 237.016 232.668 237.016 233.768C237.016 234.868 237.907 235.759 239.007 235.759Z" fill="#FF8A05"/>
<path opacity="0.74" d="M268.883 218.83C269.983 218.83 270.875 217.938 270.875 216.838C270.875 215.738 269.983 214.846 268.883 214.846C267.783 214.846 266.892 215.738 266.892 216.838C266.892 217.938 267.783 218.83 268.883 218.83Z" fill="#FF8A05"/>
<path opacity="0.74" d="M304.734 218.83C305.834 218.83 306.726 217.938 306.726 216.838C306.726 215.738 305.834 214.846 304.734 214.846C303.634 214.846 302.742 215.738 302.742 216.838C302.742 217.938 303.634 218.83 304.734 218.83Z" fill="#FF8A05"/>
<path opacity="0.72" d="M214.11 289.536C215.21 289.536 216.102 288.644 216.102 287.544C216.102 286.444 215.21 285.552 214.11 285.552C213.01 285.552 212.118 286.444 212.118 287.544C212.118 288.644 213.01 289.536 214.11 289.536Z" fill="#FF8A05"/>
<path opacity="0.72" d="M221.082 251.693C222.182 251.693 223.073 250.802 223.073 249.702C223.073 248.602 222.182 247.71 221.082 247.71C219.982 247.71 219.09 248.602 219.09 249.702C219.09 250.802 219.982 251.693 221.082 251.693Z" fill="#FF8A05"/>
<path opacity="0.71" d="M244.982 222.814C246.082 222.814 246.974 221.922 246.974 220.822C246.974 219.722 246.082 218.83 244.982 218.83C243.882 218.83 242.99 219.722 242.99 220.822C242.99 221.922 243.882 222.814 244.982 222.814Z" fill="#FF8A05"/>
<path opacity="0.71" d="M281.829 210.863C282.929 210.863 283.82 209.971 283.82 208.871C283.82 207.771 282.929 206.879 281.829 206.879C280.729 206.879 279.837 207.771 279.837 208.871C279.837 209.971 280.729 210.863 281.829 210.863Z" fill="#FF8A05"/>
<path opacity="0.69" d="M208.135 274.598C209.235 274.598 210.127 273.706 210.127 272.606C210.127 271.506 209.235 270.615 208.135 270.615C207.035 270.615 206.144 271.506 206.144 272.606C206.144 273.706 207.035 274.598 208.135 274.598Z" fill="#FF8A05"/>
<path opacity="0.69" d="M223.073 235.759C224.173 235.759 225.065 234.868 225.065 233.768C225.065 232.668 224.173 231.776 223.073 231.776C221.973 231.776 221.081 232.668 221.081 233.768C221.081 234.868 221.973 235.759 223.073 235.759Z" fill="#FF8A05"/>
<path opacity="0.69" d="M254.941 209.867C256.041 209.867 256.933 208.975 256.933 207.875C256.933 206.775 256.041 205.883 254.941 205.883C253.841 205.883 252.949 206.775 252.949 207.875C252.949 208.975 253.841 209.867 254.941 209.867Z" fill="#FF8A05"/>
<path opacity="0.68" d="M296.766 204.887C297.866 204.887 298.758 203.996 298.758 202.896C298.758 201.796 297.866 200.904 296.766 200.904C295.666 200.904 294.774 201.796 294.774 202.896C294.774 203.996 295.666 204.887 296.766 204.887Z" fill="#FF8A05"/>
<path opacity="0.67" d="M204.152 302.482C205.252 302.482 206.144 301.591 206.144 300.491C206.144 299.391 205.252 298.499 204.152 298.499C203.052 298.499 202.16 299.391 202.16 300.491C202.16 301.591 203.052 302.482 204.152 302.482Z" fill="#FF8A05"/>
<path opacity="0.66" d="M205.148 257.669C206.248 257.669 207.14 256.777 207.14 255.677C207.14 254.577 206.248 253.685 205.148 253.685C204.048 253.685 203.156 254.577 203.156 255.677C203.156 256.777 204.048 257.669 205.148 257.669Z" fill="#FF8A05"/>
<path opacity="0.66" d="M229.048 219.825C230.148 219.825 231.04 218.934 231.04 217.834C231.04 216.734 230.148 215.842 229.048 215.842C227.948 215.842 227.057 216.734 227.057 217.834C227.057 218.934 227.948 219.825 229.048 219.825Z" fill="#FF8A05"/>
<path opacity="0.66" d="M268.883 199.908C269.983 199.908 270.875 199.017 270.875 197.917C270.875 196.817 269.983 195.925 268.883 195.925C267.783 195.925 266.892 196.817 266.892 197.917C266.892 199.017 267.783 199.908 268.883 199.908Z" fill="#FF8A05"/>
<path opacity="0.64" d="M195.189 287.046C196.564 287.046 197.679 285.932 197.679 284.557C197.679 283.182 196.564 282.067 195.189 282.067C193.814 282.067 192.699 283.182 192.699 284.557C192.699 285.932 193.814 287.046 195.189 287.046Z" fill="#FF8A05"/>
<path opacity="0.64" d="M206.143 240.241C207.518 240.241 208.633 239.126 208.633 237.751C208.633 236.376 207.518 235.261 206.143 235.261C204.768 235.261 203.653 236.376 203.653 237.751C203.653 239.126 204.768 240.241 206.143 240.241Z" fill="#FF8A05"/>
<path opacity="0.63" d="M239.007 205.386C240.382 205.386 241.497 204.271 241.497 202.896C241.497 201.521 240.382 200.406 239.007 200.406C237.632 200.406 236.518 201.521 236.518 202.896C236.518 204.271 237.632 205.386 239.007 205.386Z" fill="#FF8A05"/>
<path opacity="0.63" d="M285.812 192.439C287.187 192.439 288.302 191.325 288.302 189.95C288.302 188.575 287.187 187.46 285.812 187.46C284.437 187.46 283.322 188.575 283.322 189.95C283.322 191.325 284.437 192.439 285.812 192.439Z" fill="#FF8A05"/>
<path opacity="0.61" d="M190.209 268.125C191.584 268.125 192.699 267.01 192.699 265.635C192.699 264.26 191.584 263.146 190.209 263.146C188.834 263.146 187.72 264.26 187.72 265.635C187.72 267.01 188.834 268.125 190.209 268.125Z" fill="#FF8A05"/>
<path opacity="0.61" d="M211.122 221.319C212.497 221.319 213.612 220.205 213.612 218.83C213.612 217.455 212.497 216.34 211.122 216.34C209.747 216.34 208.633 217.455 208.633 218.83C208.633 220.205 209.747 221.319 211.122 221.319Z" fill="#FF8A05"/>
<path opacity="0.61" d="M252.949 191.444C254.324 191.444 255.438 190.329 255.438 188.954C255.438 187.579 254.324 186.464 252.949 186.464C251.574 186.464 250.459 187.579 250.459 188.954C250.459 190.329 251.574 191.444 252.949 191.444Z" fill="#FF8A05"/>
<path opacity="0.6" d="M304.734 187.46C306.109 187.46 307.223 186.345 307.223 184.97C307.223 183.595 306.109 182.48 304.734 182.48C303.359 182.48 302.244 183.595 302.244 184.97C302.244 186.345 303.359 187.46 304.734 187.46Z" fill="#FF8A05"/>
<path opacity="0.59" d="M185.23 301.984C186.605 301.984 187.72 300.87 187.72 299.495C187.72 298.12 186.605 297.005 185.23 297.005C183.855 297.005 182.74 298.12 182.74 299.495C182.74 300.87 183.855 301.984 185.23 301.984Z" fill="#FF8A05"/>
<path opacity="0.58" d="M189.213 248.207C190.588 248.207 191.703 247.093 191.703 245.718C191.703 244.343 190.588 243.228 189.213 243.228C187.838 243.228 186.724 244.343 186.724 245.718C186.724 247.093 187.838 248.207 189.213 248.207Z" fill="#FF8A05"/>
<path opacity="0.58" d="M220.085 203.394C221.46 203.394 222.575 202.279 222.575 200.904C222.575 199.529 221.46 198.415 220.085 198.415C218.71 198.415 217.596 199.529 217.596 200.904C217.596 202.279 218.71 203.394 220.085 203.394Z" fill="#FF8A05"/>
<path opacity="0.58" d="M269.878 180.489C271.253 180.489 272.368 179.374 272.368 177.999C272.368 176.624 271.253 175.51 269.878 175.51C268.503 175.51 267.389 176.624 267.389 177.999C267.389 179.374 268.503 180.489 269.878 180.489Z" fill="#FF8A05"/>
<path opacity="0.56" d="M176.268 282.067C177.643 282.067 178.758 280.952 178.758 279.577C178.758 278.202 177.643 277.087 176.268 277.087C174.893 277.087 173.778 278.202 173.778 279.577C173.778 280.952 174.893 282.067 176.268 282.067Z" fill="#FF8A05"/>
<path opacity="0.56" d="M192.202 226.299C193.577 226.299 194.691 225.184 194.691 223.809C194.691 222.434 193.577 221.319 192.202 221.319C190.827 221.319 189.712 222.434 189.712 223.809C189.712 225.184 190.827 226.299 192.202 226.299Z" fill="#FF8A05"/>
<path opacity="0.55" d="M234.028 186.464C235.403 186.464 236.517 185.35 236.517 183.975C236.517 182.6 235.403 181.485 234.028 181.485C232.653 181.485 231.538 182.6 231.538 183.975C231.538 185.35 232.653 186.464 234.028 186.464Z" fill="#FF8A05"/>
<path opacity="0.55" d="M290.791 173.518C292.166 173.518 293.281 172.403 293.281 171.028C293.281 169.653 292.166 168.539 290.791 168.539C289.416 168.539 288.302 169.653 288.302 171.028C288.302 172.403 289.416 173.518 290.791 173.518Z" fill="#FF8A05"/>
<path opacity="0.53" d="M172.284 260.656C173.934 260.656 175.272 259.318 175.272 257.668C175.272 256.018 173.934 254.681 172.284 254.681C170.634 254.681 169.297 256.018 169.297 257.668C169.297 259.318 170.634 260.656 172.284 260.656Z" fill="#FF8A05"/>
<path opacity="0.53" d="M200.169 205.883C201.819 205.883 203.157 204.546 203.157 202.896C203.157 201.246 201.819 199.908 200.169 199.908C198.519 199.908 197.182 201.246 197.182 202.896C197.182 204.546 198.519 205.883 200.169 205.883Z" fill="#FF8A05"/>
<path opacity="0.53" d="M251.953 172.024C253.603 172.024 254.941 170.686 254.941 169.036C254.941 167.386 253.603 166.049 251.953 166.049C250.303 166.049 248.966 167.386 248.966 169.036C248.966 170.686 250.303 172.024 251.953 172.024Z" fill="#FF8A05"/>
<path opacity="0.5" d="M165.314 300.49C166.964 300.49 168.301 299.153 168.301 297.503C168.301 295.853 166.964 294.515 165.314 294.515C163.664 294.515 162.326 295.853 162.326 297.503C162.326 299.153 163.664 300.49 165.314 300.49Z" fill="#FF8A05"/>
<path opacity="0.5" d="M173.28 236.755C174.93 236.755 176.267 235.417 176.267 233.767C176.267 232.117 174.93 230.78 173.28 230.78C171.63 230.78 170.292 232.117 170.292 233.767C170.292 235.417 171.63 236.755 173.28 236.755Z" fill="#FF8A05"/>
<path opacity="0.5" d="M213.114 184.97C214.764 184.97 216.101 183.633 216.101 181.983C216.101 180.333 214.764 178.995 213.114 178.995C211.464 178.995 210.126 180.333 210.126 181.983C210.126 183.633 211.464 184.97 213.114 184.97Z" fill="#FF8A05"/>
<path opacity="0.5" d="M273.863 162.066C275.513 162.066 276.85 160.728 276.85 159.078C276.85 157.428 275.513 156.09 273.863 156.09C272.213 156.09 270.875 157.428 270.875 159.078C270.875 160.728 272.213 162.066 273.863 162.066Z" fill="#FF8A05"/>
<path opacity="0.48" d="M158.342 276.59C159.992 276.59 161.33 275.252 161.33 273.602C161.33 271.952 159.992 270.615 158.342 270.615C156.692 270.615 155.354 271.952 155.354 273.602C155.354 275.252 156.692 276.59 158.342 276.59Z" fill="#FF8A05"/>
<path opacity="0.47" d="M179.255 211.858C180.905 211.858 182.243 210.521 182.243 208.871C182.243 207.221 180.905 205.883 179.255 205.883C177.605 205.883 176.268 207.221 176.268 208.871C176.268 210.521 177.605 211.858 179.255 211.858Z" fill="#FF8A05"/>
<path opacity="0.47" d="M231.039 167.045C232.689 167.045 234.027 165.707 234.027 164.057C234.027 162.407 232.689 161.07 231.039 161.07C229.389 161.07 228.052 162.407 228.052 164.057C228.052 165.707 229.389 167.045 231.039 167.045Z" fill="#FF8A05"/>
<path opacity="0.47" d="M298.758 156.09C300.408 156.09 301.746 154.753 301.746 153.103C301.746 151.453 300.408 150.115 298.758 150.115C297.108 150.115 295.771 151.453 295.771 153.103C295.771 154.753 297.108 156.09 298.758 156.09Z" fill="#FF8A05"/>
<path opacity="0.45" d="M155.355 250.199C157.28 250.199 158.84 248.639 158.84 246.714C158.84 244.789 157.28 243.228 155.355 243.228C153.43 243.228 151.869 244.789 151.869 246.714C151.869 248.639 153.43 250.199 155.355 250.199Z" fill="#FF8A05"/>
<path opacity="0.45" d="M191.205 188.456C193.13 188.456 194.691 186.895 194.691 184.97C194.691 183.045 193.13 181.485 191.205 181.485C189.28 181.485 187.72 183.045 187.72 184.97C187.72 186.895 189.28 188.456 191.205 188.456Z" fill="#FF8A05"/>
<path opacity="0.44" d="M252.949 153.601C254.874 153.601 256.435 152.04 256.435 150.115C256.435 148.19 254.874 146.63 252.949 146.63C251.024 146.63 249.464 148.19 249.464 150.115C249.464 152.04 251.024 153.601 252.949 153.601Z" fill="#FF8A05"/>
<path opacity="0.42" d="M146.392 296.009C148.317 296.009 149.877 294.449 149.877 292.524C149.877 290.599 148.317 289.038 146.392 289.038C144.467 289.038 142.906 290.599 142.906 292.524C142.906 294.449 144.467 296.009 146.392 296.009Z" fill="#FF8A05"/>
<path opacity="0.42" d="M159.338 223.311C161.263 223.311 162.824 221.75 162.824 219.825C162.824 217.9 161.263 216.34 159.338 216.34C157.413 216.34 155.853 217.9 155.853 219.825C155.853 221.75 157.413 223.311 159.338 223.311Z" fill="#FF8A05"/>
<path opacity="0.42" d="M208.136 166.547C210.061 166.547 211.621 164.986 211.621 163.061C211.621 161.136 210.061 159.576 208.136 159.576C206.211 159.576 204.65 161.136 204.65 163.061C204.65 164.986 206.211 166.547 208.136 166.547Z" fill="#FF8A05"/>
<path opacity="0.42" d="M278.842 142.646C280.767 142.646 282.327 141.086 282.327 139.161C282.327 137.236 280.767 135.675 278.842 135.675C276.917 135.675 275.356 137.236 275.356 139.161C275.356 141.086 276.917 142.646 278.842 142.646Z" fill="#FF8A05"/>
<path opacity="0.4" d="M139.42 268.125C141.345 268.125 142.906 266.564 142.906 264.639C142.906 262.714 141.345 261.154 139.42 261.154C137.495 261.154 135.935 262.714 135.935 264.639C135.935 266.564 137.495 268.125 139.42 268.125Z" fill="#FF8A05"/>
<path opacity="0.39" d="M168.301 195.427C170.226 195.427 171.786 193.867 171.786 191.942C171.786 190.017 170.226 188.456 168.301 188.456C166.376 188.456 164.815 190.017 164.815 191.942C164.815 193.867 166.376 195.427 168.301 195.427Z" fill="#FF8A05"/>
<path opacity="0.39" d="M230.044 147.625C231.969 147.625 233.53 146.065 233.53 144.14C233.53 142.215 231.969 140.654 230.044 140.654C228.119 140.654 226.559 142.215 226.559 144.14C226.559 146.065 228.119 147.625 230.044 147.625Z" fill="#FF8A05"/>
<path opacity="0.39" d="M307.722 138.663C309.647 138.663 311.207 137.102 311.207 135.177C311.207 133.252 309.647 131.692 307.722 131.692C305.797 131.692 304.236 133.252 304.236 135.177C304.236 137.102 305.797 138.663 307.722 138.663Z" fill="#FF8A05"/>
<path opacity="0.37" d="M139.42 238.249C141.345 238.249 142.906 236.688 142.906 234.763C142.906 232.838 141.345 231.278 139.42 231.278C137.495 231.278 135.935 232.838 135.935 234.763C135.935 236.688 137.495 238.249 139.42 238.249Z" fill="#FF8A05"/>
<path opacity="0.37" d="M183.238 169.535C185.163 169.535 186.724 167.974 186.724 166.049C186.724 164.124 185.163 162.563 183.238 162.563C181.313 162.563 179.753 164.124 179.753 166.049C179.753 167.974 181.313 169.535 183.238 169.535Z" fill="#FF8A05"/>
<path opacity="0.36" d="M256.932 133.683C258.857 133.683 260.417 132.123 260.417 130.198C260.417 128.273 258.857 126.712 256.932 126.712C255.007 126.712 253.446 128.273 253.446 130.198C253.446 132.123 255.007 133.683 256.932 133.683Z" fill="#FF8A05"/>
<path opacity="0.34" d="M126.475 290.532C128.675 290.532 130.458 288.748 130.458 286.548C130.458 284.348 128.675 282.565 126.475 282.565C124.275 282.565 122.491 284.348 122.491 286.548C122.491 288.748 124.275 290.532 126.475 290.532Z" fill="#FF8A05"/>
<path opacity="0.34" d="M145.396 207.875C147.596 207.875 149.379 206.092 149.379 203.892C149.379 201.692 147.596 199.908 145.396 199.908C143.196 199.908 141.412 201.692 141.412 203.892C141.412 206.092 143.196 207.875 145.396 207.875Z" fill="#FF8A05"/>
<path opacity="0.34" d="M204.151 147.128C206.351 147.128 208.135 145.344 208.135 143.144C208.135 140.944 206.351 139.161 204.151 139.161C201.951 139.161 200.168 140.944 200.168 143.144C200.168 145.344 201.951 147.128 204.151 147.128Z" fill="#FF8A05"/>
<path opacity="0.34" d="M286.809 124.222C289.009 124.222 290.792 122.439 290.792 120.239C290.792 118.039 289.009 116.255 286.809 116.255C284.609 116.255 282.825 118.039 282.825 120.239C282.825 122.439 284.609 124.222 286.809 124.222Z" fill="#FF8A05"/>
<path opacity="0.32" d="M122.491 258.664C124.691 258.664 126.475 256.881 126.475 254.681C126.475 252.481 124.691 250.697 122.491 250.697C120.291 250.697 118.508 252.481 118.508 254.681C118.508 256.881 120.291 258.664 122.491 258.664Z" fill="#FF8A05"/>
<path opacity="0.31" d="M158.342 178C160.542 178 162.325 176.216 162.325 174.016C162.325 171.816 160.542 170.033 158.342 170.033C156.142 170.033 154.358 171.816 154.358 174.016C154.358 176.216 156.142 178 158.342 178Z" fill="#FF8A05"/>
<path opacity="0.31" d="M231.04 128.206C233.24 128.206 235.024 126.423 235.024 124.223C235.024 122.023 233.24 120.239 231.04 120.239C228.84 120.239 227.057 122.023 227.057 124.223C227.057 126.423 228.84 128.206 231.04 128.206Z" fill="#FF8A05"/>
<path opacity="0.29" d="M124.482 224.805C126.682 224.805 128.466 223.021 128.466 220.821C128.466 218.621 126.682 216.838 124.482 216.838C122.282 216.838 120.499 218.621 120.499 220.821C120.499 223.021 122.282 224.805 124.482 224.805Z" fill="#FF8A05"/>
<path opacity="0.29" d="M177.263 150.115C179.463 150.115 181.246 148.332 181.246 146.132C181.246 143.932 179.463 142.148 177.263 142.148C175.063 142.148 173.279 143.932 173.279 146.132C173.279 148.332 175.063 150.115 177.263 150.115Z" fill="#FF8A05"/>
<path opacity="0.28" d="M261.911 114.264C264.111 114.264 265.895 112.48 265.895 110.28C265.895 108.08 264.111 106.297 261.911 106.297C259.711 106.297 257.928 108.08 257.928 110.28C257.928 112.48 259.711 114.264 261.911 114.264Z" fill="#FF8A05"/>
<path opacity="0.26" d="M107.553 282.565C109.753 282.565 111.536 280.782 111.536 278.582C111.536 276.382 109.753 274.598 107.553 274.598C105.353 274.598 103.569 276.382 103.569 278.582C103.569 280.782 105.353 282.565 107.553 282.565Z" fill="#FF8A05"/>
<path opacity="0.26" d="M133.446 190.945C135.646 190.945 137.43 189.162 137.43 186.962C137.43 184.762 135.646 182.979 133.446 182.979C131.246 182.979 129.463 184.762 129.463 186.962C129.463 189.162 131.246 190.945 133.446 190.945Z" fill="#FF8A05"/>
<path opacity="0.26" d="M203.156 126.214C205.356 126.214 207.14 124.431 207.14 122.231C207.14 120.031 205.356 118.248 203.156 118.248C200.956 118.248 199.173 120.031 199.173 122.231C199.173 124.431 200.956 126.214 203.156 126.214Z" fill="#FF8A05"/>
<path opacity="0.26" d="M295.772 106.297C297.972 106.297 299.755 104.514 299.755 102.314C299.755 100.114 297.972 98.3301 295.772 98.3301C293.572 98.3301 291.788 100.114 291.788 102.314C291.788 104.514 293.572 106.297 295.772 106.297Z" fill="#FF8A05"/>
<path opacity="0.23" d="M105.56 247.212C108.035 247.212 110.042 245.205 110.042 242.73C110.042 240.255 108.035 238.249 105.56 238.249C103.085 238.249 101.079 240.255 101.079 242.73C101.079 245.205 103.085 247.212 105.56 247.212Z" fill="#FF8A05"/>
<path opacity="0.23" d="M150.375 159.576C152.85 159.576 154.856 157.57 154.856 155.095C154.856 152.62 152.85 150.613 150.375 150.613C147.9 150.613 145.894 152.62 145.894 155.095C145.894 157.57 147.9 159.576 150.375 159.576Z" fill="#FF8A05"/>
<path opacity="0.23" d="M233.032 107.791C235.507 107.791 237.514 105.785 237.514 103.31C237.514 100.835 235.507 98.8281 233.032 98.8281C230.557 98.8281 228.551 100.835 228.551 103.31C228.551 105.785 230.557 107.791 233.032 107.791Z" fill="#FF8A05"/>
<path opacity="0.21" d="M96.5986 309.951C99.0736 309.951 101.08 307.945 101.08 305.47C101.08 302.995 99.0736 300.988 96.5986 300.988C94.1236 300.988 92.1172 302.995 92.1172 305.47C92.1172 307.945 94.1236 309.951 96.5986 309.951Z" fill="#FF8A05"/>
<path opacity="0.21" d="M110.541 210.365C113.016 210.365 115.022 208.359 115.022 205.884C115.022 203.409 113.016 201.402 110.541 201.402C108.066 201.402 106.06 203.409 106.06 205.884C106.06 208.359 108.066 210.365 110.541 210.365Z" fill="#FF8A05"/>
<path opacity="0.2" d="M173.279 130.696C175.754 130.696 177.761 128.689 177.761 126.214C177.761 123.739 175.754 121.733 173.279 121.733C170.804 121.733 168.798 123.739 168.798 126.214C168.798 128.689 170.804 130.696 173.279 130.696Z" fill="#FF8A05"/>
<path opacity="0.2" d="M268.883 94.8451C271.358 94.8451 273.364 92.8387 273.364 90.3637C273.364 87.8887 271.358 85.8823 268.883 85.8823C266.408 85.8823 264.401 87.8887 264.401 90.3637C264.401 92.8387 266.408 94.8451 268.883 94.8451Z" fill="#FF8A05"/>
<path opacity="0.18" d="M89.6279 273.104C92.1029 273.104 94.1093 271.098 94.1093 268.623C94.1093 266.148 92.1029 264.142 89.6279 264.142C87.1529 264.142 85.1465 266.148 85.1465 268.623C85.1465 271.098 87.1529 273.104 89.6279 273.104Z" fill="#FF8A05"/>
<path opacity="0.18" d="M123.486 173.518C125.961 173.518 127.968 171.512 127.968 169.037C127.968 166.562 125.961 164.555 123.486 164.555C121.011 164.555 119.005 166.562 119.005 169.037C119.005 171.512 121.011 173.518 123.486 173.518Z" fill="#FF8A05"/>
<path opacity="0.18" d="M203.156 105.799C205.631 105.799 207.638 103.793 207.638 101.318C207.638 98.8428 205.631 96.8364 203.156 96.8364C200.681 96.8364 198.675 98.8428 198.675 101.318C198.675 103.793 200.681 105.799 203.156 105.799Z" fill="#FF8A05"/>
<path opacity="0.17" d="M306.726 88.8695C309.201 88.8695 311.207 86.8631 311.207 84.3881C311.207 81.9131 309.201 79.9067 306.726 79.9067C304.251 79.9067 302.244 81.9131 302.244 84.3881C302.244 86.8631 304.251 88.8695 306.726 88.8695Z" fill="#FF8A05"/>
<path opacity="0.15" d="M89.6279 233.269C92.1029 233.269 94.1093 231.263 94.1093 228.788C94.1093 226.313 92.1029 224.307 89.6279 224.307C87.1529 224.307 85.1465 226.313 85.1465 228.788C85.1465 231.263 87.1529 233.269 89.6279 233.269Z" fill="#FF8A05"/>
<path opacity="0.15" d="M143.404 139.659C145.879 139.659 147.886 137.652 147.886 135.177C147.886 132.702 145.879 130.696 143.404 130.696C140.929 130.696 138.923 132.702 138.923 135.177C138.923 137.652 140.929 139.659 143.404 139.659Z" fill="#FF8A05"/>
<path opacity="0.15" d="M238.012 87.3756C240.762 87.3756 242.991 85.1463 242.991 82.3963C242.991 79.6463 240.762 77.417 238.012 77.417C235.262 77.417 233.032 79.6463 233.032 82.3963C233.032 85.1463 235.262 87.3756 238.012 87.3756Z" fill="#FF8A05"/>
<path opacity="0.13" d="M77.6776 302.482C80.4276 302.482 82.6569 300.253 82.6569 297.503C82.6569 294.753 80.4276 292.523 77.6776 292.523C74.9276 292.523 72.6982 294.753 72.6982 297.503C72.6982 300.253 74.9276 302.482 77.6776 302.482Z" fill="#FF8A05"/>
<path opacity="0.13" d="M97.5945 193.933C100.345 193.933 102.574 191.704 102.574 188.954C102.574 186.204 100.345 183.975 97.5945 183.975C94.8445 183.975 92.6152 186.204 92.6152 188.954C92.6152 191.704 94.8445 193.933 97.5945 193.933Z" fill="#FF8A05"/>
<path opacity="0.12" d="M171.289 110.281C174.039 110.281 176.268 108.052 176.268 105.302C176.268 102.552 174.039 100.322 171.289 100.322C168.539 100.322 166.31 102.552 166.31 105.302C166.31 108.052 168.539 110.281 171.289 110.281Z" fill="#FF8A05"/>
<path opacity="0.12" d="M277.846 75.4254C280.596 75.4254 282.825 73.1961 282.825 70.4461C282.825 67.6961 280.596 65.4668 277.846 65.4668C275.096 65.4668 272.866 67.6961 272.866 70.4461C272.866 73.1961 275.096 75.4254 277.846 75.4254Z" fill="#FF8A05"/>
<path opacity="0.1" d="M71.702 261.651C74.452 261.651 76.6813 259.422 76.6813 256.672C76.6813 253.922 74.452 251.693 71.702 251.693C68.952 251.693 66.7227 253.922 66.7227 256.672C66.7227 259.422 68.952 261.651 71.702 261.651Z" fill="#FF8A05"/>
</g>
</svg>
