<svg width="288" height="6" viewBox="0 0 288 6" fill="none" xmlns="http://www.w3.org/2000/svg">
<path d="M288 2.88672L283 -3.26633e-05V5.77347L288 2.88672ZM0 2.88672V3.38672H1V2.88672V2.38672H0V2.88672ZM3 2.88672V3.38672H5V2.88672V2.38672H3V2.88672ZM7 2.88672V3.38672H9V2.88672V2.38672H7V2.88672ZM11 2.88672V3.38672H13V2.88672V2.38672H11V2.88672ZM15 2.88672V3.38672H17V2.88672V2.38672H15V2.88672ZM19 2.88672V3.38672H21V2.88672V2.38672H19V2.88672ZM23 2.88672V3.38672H25V2.88672V2.38672H23V2.88672ZM27 2.88672V3.38672H29V2.88672V2.38672H27V2.88672ZM31 2.88672V3.38672H33V2.88672V2.38672H31V2.88672ZM35 2.88672V3.38672H37V2.88672V2.38672H35V2.88672ZM39 2.88672V3.38672H41V2.88672V2.38672H39V2.88672ZM43 2.88672V3.38672H45V2.88672V2.38672H43V2.88672ZM47 2.88672V3.38672H49V2.88672V2.38672H47V2.88672ZM51 2.88672V3.38672H53V2.88672V2.38672H51V2.88672ZM55 2.88672V3.38672H57V2.88672V2.38672H55V2.88672ZM59 2.88672V3.38672H61V2.88672V2.38672H59V2.88672ZM63 2.88672V3.38672H65V2.88672V2.38672H63V2.88672ZM67 2.88672V3.38672H69V2.88672V2.38672H67V2.88672ZM71 2.88672V3.38672H73V2.88672V2.38672H71V2.88672ZM75 2.88672V3.38672H77V2.88672V2.38672H75V2.88672ZM79 2.88672V3.38672H81V2.88672V2.38672H79V2.88672ZM83 2.88672V3.38672H85V2.88672V2.38672H83V2.88672ZM87 2.88672V3.38672H89V2.88672V2.38672H87V2.88672ZM91 2.88672V3.38672H93V2.88672V2.38672H91V2.88672ZM95 2.88672V3.38672H97V2.88672V2.38672H95V2.88672ZM99 2.88672V3.38672H101V2.88672V2.38672H99V2.88672ZM103 2.88672V3.38672H105V2.88672V2.38672H103V2.88672ZM107 2.88672V3.38672H109V2.88672V2.38672H107V2.88672ZM111 2.88672V3.38672H113V2.88672V2.38672H111V2.88672ZM115 2.88672V3.38672H117V2.88672V2.38672H115V2.88672ZM119 2.88672V3.38672H121V2.88672V2.38672H119V2.88672ZM123 2.88672V3.38672H125V2.88672V2.38672H123V2.88672ZM127 2.88672V3.38672H129V2.88672V2.38672H127V2.88672ZM131 2.88672V3.38672H133V2.88672V2.38672H131V2.88672ZM135 2.88672V3.38672H137V2.88672V2.38672H135V2.88672ZM139 2.88672V3.38672H141V2.88672V2.38672H139V2.88672ZM143 2.88672V3.38672H145V2.88672V2.38672H143V2.88672ZM147 2.88672V3.38672H149V2.88672V2.38672H147V2.88672ZM151 2.88672V3.38672H153V2.88672V2.38672H151V2.88672ZM155 2.88672V3.38672H157V2.88672V2.38672H155V2.88672ZM159 2.88672V3.38672H161V2.88672V2.38672H159V2.88672ZM163 2.88672V3.38672H165V2.88672V2.38672H163V2.88672ZM167 2.88672V3.38672H169V2.88672V2.38672H167V2.88672ZM171 2.88672V3.38672H173V2.88672V2.38672H171V2.88672ZM175 2.88672V3.38672H177V2.88672V2.38672H175V2.88672ZM179 2.88672V3.38672H181V2.88672V2.38672H179V2.88672ZM183 2.88672V3.38672H185V2.88672V2.38672H183V2.88672ZM187 2.88672V3.38672H189V2.88672V2.38672H187V2.88672ZM191 2.88672V3.38672H193V2.88672V2.38672H191V2.88672ZM195 2.88672V3.38672H197V2.88672V2.38672H195V2.88672ZM199 2.88672V3.38672H201V2.88672V2.38672H199V2.88672ZM203 2.88672V3.38672H205V2.88672V2.38672H203V2.88672ZM207 2.88672V3.38672H209V2.88672V2.38672H207V2.88672ZM211 2.88672V3.38672H213V2.88672V2.38672H211V2.88672ZM215 2.88672V3.38672H217V2.88672V2.38672H215V2.88672ZM219 2.88672V3.38672H221V2.88672V2.38672H219V2.88672ZM223 2.88672V3.38672H225V2.88672V2.38672H223V2.88672ZM227 2.88672V3.38672H229V2.88672V2.38672H227V2.88672ZM231 2.88672V3.38672H233V2.88672V2.38672H231V2.88672ZM235 2.88672V3.38672H237V2.88672V2.38672H235V2.88672ZM239 2.88672V3.38672H241V2.88672V2.38672H239V2.88672ZM243 2.88672V3.38672H245V2.88672V2.38672H243V2.88672ZM247 2.88672V3.38672H249V2.88672V2.38672H247V2.88672ZM251 2.88672V3.38672H253V2.88672V2.38672H251V2.88672ZM255 2.88672V3.38672H257V2.88672V2.38672H255V2.88672ZM259 2.88672V3.38672H261V2.88672V2.38672H259V2.88672ZM263 2.88672V3.38672H265V2.88672V2.38672H263V2.88672ZM267 2.88672V3.38672H269V2.88672V2.38672H267V2.88672ZM271 2.88672V3.38672H273V2.88672V2.38672H271V2.88672ZM275 2.88672V3.38672H277V2.88672V2.38672H275V2.88672ZM279 2.88672V3.38672H281V2.88672V2.38672H279V2.88672ZM283 2.88672V3.38672H285V2.88672V2.38672H283V2.88672ZM288 2.88672L283 -3.26633e-05V5.77347L288 2.88672ZM0 2.88672V3.38672H1V2.88672V2.38672H0V2.88672ZM3 2.88672V3.38672H5V2.88672V2.38672H3V2.88672ZM7 2.88672V3.38672H9V2.88672V2.38672H7V2.88672ZM11 2.88672V3.38672H13V2.88672V2.38672H11V2.88672ZM15 2.88672V3.38672H17V2.88672V2.38672H15V2.88672ZM19 2.88672V3.38672H21V2.88672V2.38672H19V2.88672ZM23 2.88672V3.38672H25V2.88672V2.38672H23V2.88672ZM27 2.88672V3.38672H29V2.88672V2.38672H27V2.88672ZM31 2.88672V3.38672H33V2.88672V2.38672H31V2.88672ZM35 2.88672V3.38672H37V2.88672V2.38672H35V2.88672ZM39 2.88672V3.38672H41V2.88672V2.38672H39V2.88672ZM43 2.88672V3.38672H45V2.88672V2.38672H43V2.88672ZM47 2.88672V3.38672H49V2.88672V2.38672H47V2.88672ZM51 2.88672V3.38672H53V2.88672V2.38672H51V2.88672ZM55 2.88672V3.38672H57V2.88672V2.38672H55V2.88672ZM59 2.88672V3.38672H61V2.88672V2.38672H59V2.88672ZM63 2.88672V3.38672H65V2.88672V2.38672H63V2.88672ZM67 2.88672V3.38672H69V2.88672V2.38672H67V2.88672ZM71 2.88672V3.38672H73V2.88672V2.38672H71V2.88672ZM75 2.88672V3.38672H77V2.88672V2.38672H75V2.88672ZM79 2.88672V3.38672H81V2.88672V2.38672H79V2.88672ZM83 2.88672V3.38672H85V2.88672V2.38672H83V2.88672ZM87 2.88672V3.38672H89V2.88672V2.38672H87V2.88672ZM91 2.88672V3.38672H93V2.88672V2.38672H91V2.88672ZM95 2.88672V3.38672H97V2.88672V2.38672H95V2.88672ZM99 2.88672V3.38672H101V2.88672V2.38672H99V2.88672ZM103 2.88672V3.38672H105V2.88672V2.38672H103V2.88672ZM107 2.88672V3.38672H109V2.88672V2.38672H107V2.88672ZM111 2.88672V3.38672H113V2.88672V2.38672H111V2.88672ZM115 2.88672V3.38672H117V2.88672V2.38672H115V2.88672ZM119 2.88672V3.38672H121V2.88672V2.38672H119V2.88672ZM123 2.88672V3.38672H125V2.88672V2.38672H123V2.88672ZM127 2.88672V3.38672H129V2.88672V2.38672H127V2.88672ZM131 2.88672V3.38672H133V2.88672V2.38672H131V2.88672ZM135 2.88672V3.38672H137V2.88672V2.38672H135V2.88672ZM139 2.88672V3.38672H141V2.88672V2.38672H139V2.88672ZM143 2.88672V3.38672H145V2.88672V2.38672H143V2.88672ZM147 2.88672V3.38672H149V2.88672V2.38672H147V2.88672ZM151 2.88672V3.38672H153V2.88672V2.38672H151V2.88672ZM155 2.88672V3.38672H157V2.88672V2.38672H155V2.88672ZM159 2.88672V3.38672H161V2.88672V2.38672H159V2.88672ZM163 2.88672V3.38672H165V2.88672V2.38672H163V2.88672ZM167 2.88672V3.38672H169V2.88672V2.38672H167V2.88672ZM171 2.88672V3.38672H173V2.88672V2.38672H171V2.88672ZM175 2.88672V3.38672H177V2.88672V2.38672H175V2.88672ZM179 2.88672V3.38672H181V2.88672V2.38672H179V2.88672ZM183 2.88672V3.38672H185V2.88672V2.38672H183V2.88672ZM187 2.88672V3.38672H189V2.88672V2.38672H187V2.88672ZM191 2.88672V3.38672H193V2.88672V2.38672H191V2.88672ZM195 2.88672V3.38672H197V2.88672V2.38672H195V2.88672ZM199 2.88672V3.38672H201V2.88672V2.38672H199V2.88672ZM203 2.88672V3.38672H205V2.88672V2.38672H203V2.88672ZM207 2.88672V3.38672H209V2.88672V2.38672H207V2.88672ZM211 2.88672V3.38672H213V2.88672V2.38672H211V2.88672ZM215 2.88672V3.38672H217V2.88672V2.38672H215V2.88672ZM219 2.88672V3.38672H221V2.88672V2.38672H219V2.88672ZM223 2.88672V3.38672H225V2.88672V2.38672H223V2.88672ZM227 2.88672V3.38672H229V2.88672V2.38672H227V2.88672ZM231 2.88672V3.38672H233V2.88672V2.38672H231V2.88672ZM235 2.88672V3.38672H237V2.88672V2.38672H235V2.88672ZM239 2.88672V3.38672H241V2.88672V2.38672H239V2.88672ZM243 2.88672V3.38672H245V2.88672V2.38672H243V2.88672ZM247 2.88672V3.38672H249V2.88672V2.38672H247V2.88672ZM251 2.88672V3.38672H253V2.88672V2.38672H251V2.88672ZM255 2.88672V3.38672H257V2.88672V2.38672H255V2.88672ZM259 2.88672V3.38672H261V2.88672V2.38672H259V2.88672ZM263 2.88672V3.38672H265V2.88672V2.38672H263V2.88672ZM267 2.88672V3.38672H269V2.88672V2.38672H267V2.88672ZM271 2.88672V3.38672H273V2.88672V2.38672H271V2.88672ZM275 2.88672V3.38672H277V2.88672V2.38672H275V2.88672ZM279 2.88672V3.38672H281V2.88672V2.38672H279V2.88672ZM283 2.88672V3.38672H285V2.88672V2.38672H283V2.88672Z" fill="url(#paint0_linear_34_2315)"/>
<defs>
<linearGradient id="paint0_linear_34_2315" x1="0" y1="3.38672" x2="288" y2="3.38672" gradientUnits="userSpaceOnUse">
<stop stop-color="#DC8B12" stop-opacity="0"/>
<stop offset="1" stop-color="#DC8B12"/>
</linearGradient>
</defs>
</svg>
