<svg width="131" height="6" viewBox="0 0 131 6" fill="none" xmlns="http://www.w3.org/2000/svg">
<path d="M125.055 2.6665C125.055 4.13926 126.249 5.33317 127.722 5.33317C129.194 5.33317 130.388 4.13926 130.388 2.6665C130.388 1.19374 129.194 -0.00016284 127.722 -0.00016284C126.249 -0.00016284 125.055 1.19374 125.055 2.6665ZM0 2.6665V3.1665H0.997826V2.6665V2.1665H0V2.6665ZM2.99348 2.6665V3.1665H4.98913V2.6665V2.1665H2.99348V2.6665ZM6.98478 2.6665V3.1665H8.98043V2.6665V2.1665H6.98478V2.6665ZM10.9761 2.6665V3.1665H12.9717V2.6665V2.1665H10.9761V2.6665ZM14.9674 2.6665V3.1665H16.963V2.6665V2.1665H14.9674V2.6665ZM18.9587 2.6665V3.1665H20.9543V2.6665V2.1665H18.9587V2.6665ZM22.95 2.6665V3.1665H24.9456V2.6665V2.1665H22.95V2.6665ZM26.9413 2.6665V3.1665H28.9369V2.6665V2.1665H26.9413V2.6665ZM30.9326 2.6665V3.1665H32.9282V2.6665V2.1665H30.9326V2.6665ZM34.9239 2.6665V3.1665H36.9195V2.6665V2.1665H34.9239V2.6665ZM38.9152 2.6665V3.1665H40.9109V2.6665V2.1665H38.9152V2.6665ZM42.9065 2.6665V3.1665H44.9022V2.6665V2.1665H42.9065V2.6665ZM46.8978 2.6665V3.1665H48.8935V2.6665V2.1665H46.8978V2.6665ZM50.8891 2.6665V3.1665H52.8848V2.6665V2.1665H50.8891V2.6665ZM54.8804 2.6665V3.1665H56.8761V2.6665V2.1665H54.8804V2.6665ZM58.8717 2.6665V3.1665H60.8674V2.6665V2.1665H58.8717V2.6665ZM62.863 2.6665V3.1665H64.8587V2.6665V2.1665H62.863V2.6665ZM66.8543 2.6665V3.1665H68.85V2.6665V2.1665H66.8543V2.6665ZM70.8456 2.6665V3.1665H72.8413V2.6665V2.1665H70.8456V2.6665ZM74.8369 2.6665V3.1665H76.8326V2.6665V2.1665H74.8369V2.6665ZM78.8282 2.6665V3.1665H80.8239V2.6665V2.1665H78.8282V2.6665ZM82.8195 2.6665V3.1665H84.8152V2.6665V2.1665H82.8195V2.6665ZM86.8108 2.6665V3.1665H88.8065V2.6665V2.1665H86.8108V2.6665ZM90.8021 2.6665V3.1665H92.7978V2.6665V2.1665H90.8021V2.6665ZM94.7934 2.6665V3.1665H96.7891V2.6665V2.1665H94.7934V2.6665ZM98.7847 2.6665V3.1665H100.78V2.6665V2.1665H98.7847V2.6665ZM102.776 2.6665V3.1665H104.772V2.6665V2.1665H102.776V2.6665ZM106.767 2.6665V3.1665H108.763V2.6665V2.1665H106.767V2.6665ZM110.759 2.6665V3.1665H112.754V2.6665V2.1665H110.759V2.6665ZM114.75 2.6665V3.1665H116.746V2.6665V2.1665H114.75V2.6665ZM118.741 2.6665V3.1665H120.737V2.6665V2.1665H118.741V2.6665ZM122.733 2.6665V3.1665H124.728V2.6665V2.1665H122.733V2.6665ZM126.724 2.6665V3.1665H127.722V2.6665V2.1665H126.724V2.6665ZM125.055 2.6665C125.055 4.13926 126.249 5.33317 127.722 5.33317C129.194 5.33317 130.388 4.13926 130.388 2.6665C130.388 1.19374 129.194 -0.00016284 127.722 -0.00016284C126.249 -0.00016284 125.055 1.19374 125.055 2.6665ZM0 2.6665V3.1665H0.997826V2.6665V2.1665H0V2.6665ZM2.99348 2.6665V3.1665H4.98913V2.6665V2.1665H2.99348V2.6665ZM6.98478 2.6665V3.1665H8.98043V2.6665V2.1665H6.98478V2.6665ZM10.9761 2.6665V3.1665H12.9717V2.6665V2.1665H10.9761V2.6665ZM14.9674 2.6665V3.1665H16.963V2.6665V2.1665H14.9674V2.6665ZM18.9587 2.6665V3.1665H20.9543V2.6665V2.1665H18.9587V2.6665ZM22.95 2.6665V3.1665H24.9456V2.6665V2.1665H22.95V2.6665ZM26.9413 2.6665V3.1665H28.9369V2.6665V2.1665H26.9413V2.6665ZM30.9326 2.6665V3.1665H32.9282V2.6665V2.1665H30.9326V2.6665ZM34.9239 2.6665V3.1665H36.9195V2.6665V2.1665H34.9239V2.6665ZM38.9152 2.6665V3.1665H40.9109V2.6665V2.1665H38.9152V2.6665ZM42.9065 2.6665V3.1665H44.9022V2.6665V2.1665H42.9065V2.6665ZM46.8978 2.6665V3.1665H48.8935V2.6665V2.1665H46.8978V2.6665ZM50.8891 2.6665V3.1665H52.8848V2.6665V2.1665H50.8891V2.6665ZM54.8804 2.6665V3.1665H56.8761V2.6665V2.1665H54.8804V2.6665ZM58.8717 2.6665V3.1665H60.8674V2.6665V2.1665H58.8717V2.6665ZM62.863 2.6665V3.1665H64.8587V2.6665V2.1665H62.863V2.6665ZM66.8543 2.6665V3.1665H68.85V2.6665V2.1665H66.8543V2.6665ZM70.8456 2.6665V3.1665H72.8413V2.6665V2.1665H70.8456V2.6665ZM74.8369 2.6665V3.1665H76.8326V2.6665V2.1665H74.8369V2.6665ZM78.8282 2.6665V3.1665H80.8239V2.6665V2.1665H78.8282V2.6665ZM82.8195 2.6665V3.1665H84.8152V2.6665V2.1665H82.8195V2.6665ZM86.8108 2.6665V3.1665H88.8065V2.6665V2.1665H86.8108V2.6665ZM90.8021 2.6665V3.1665H92.7978V2.6665V2.1665H90.8021V2.6665ZM94.7934 2.6665V3.1665H96.7891V2.6665V2.1665H94.7934V2.6665ZM98.7847 2.6665V3.1665H100.78V2.6665V2.1665H98.7847V2.6665ZM102.776 2.6665V3.1665H104.772V2.6665V2.1665H102.776V2.6665ZM106.767 2.6665V3.1665H108.763V2.6665V2.1665H106.767V2.6665ZM110.759 2.6665V3.1665H112.754V2.6665V2.1665H110.759V2.6665ZM114.75 2.6665V3.1665H116.746V2.6665V2.1665H114.75V2.6665ZM118.741 2.6665V3.1665H120.737V2.6665V2.1665H118.741V2.6665ZM122.733 2.6665V3.1665H124.728V2.6665V2.1665H122.733V2.6665ZM126.724 2.6665V3.1665H127.722V2.6665V2.1665H126.724V2.6665Z" fill="url(#paint0_linear_34_1163)"/>
<defs>
<linearGradient id="paint0_linear_34_1163" x1="0" y1="3.1665" x2="127.722" y2="3.1665" gradientUnits="userSpaceOnUse">
<stop stop-color="#DC8B12" stop-opacity="0"/>
<stop offset="1" stop-color="#DC8B12"/>
</linearGradient>
</defs>
</svg>
