<svg width="158" height="71" viewBox="0 0 158 71" fill="none" xmlns="http://www.w3.org/2000/svg">
<g clip-path="url(#clip0_34_977)">
<path d="M146.843 21.234L155.746 10.5489H152.693C152.415 10.5489 152.125 10.617 151.944 10.8918L146.011 20.0011L144.509 17.8379C140.142 11.5599 140.515 10.5464 138.001 10.5464H132.893L142.32 24.078L132.518 35.8447H135.611C135.972 35.8447 136.249 35.7338 136.423 35.4766L143.18 25.3109L145.52 28.6188C149.735 34.5665 149.168 35.8876 152.337 35.8473H157.128L146.841 21.234H146.843Z" fill="white"/>
<path d="M132.034 16.2018C131.613 14.9891 130.99 13.9176 130.15 12.9771C129.321 12.0392 128.211 11.3156 126.84 10.7861C125.463 10.2592 123.872 9.99951 122.057 9.99951C118.278 9.99951 115.31 11.2248 113.157 13.6806C110.999 16.1388 109.952 19.4089 110.015 23.4908C110.063 26.7558 110.852 29.9856 112.958 32.5875C115.207 35.3685 118.794 36.3669 122.241 36.3669C125.688 36.3669 129.522 35.1819 131.461 33.417C132.2 32.7413 131.819 31.8765 131.454 31.5689C129.323 33.2456 127.115 34.0524 124.276 34.0524C121.437 34.0524 119.624 33.1371 118.462 31.2991C117.297 29.4662 116.674 26.5163 116.578 22.4419H132.374C132.445 22.4419 132.5 22.394 132.513 22.326C132.651 21.678 132.714 20.9645 132.699 20.2031C132.679 18.7382 132.457 17.4045 132.036 16.1993L132.034 16.2018ZM126.782 20.4678L116.538 21.2267C116.677 17.6062 117.383 11.4341 122.18 11.4341C126.678 11.4417 126.81 17.059 126.782 20.4678Z" fill="white"/>
<path d="M106.065 18.133C106.065 13.0754 104.126 10.002 99.169 10.002C95.6518 10.002 92.3515 11.6458 89.9764 14.1368C89.9764 12.1803 89.6512 10.5516 87.7401 10.5516H83.7061L83.9481 13.441L83.9405 32.9404L83.7061 35.8499H90.2613L90.0193 32.9404V15.5311C91.8951 14.1141 93.6474 13.3603 96.1813 13.3603C99.3656 13.3603 99.9884 16.3102 99.9884 19.608V32.421C99.9884 34.5691 100.493 35.8449 102.273 35.8449H106.309L106.067 32.9555V18.1305L106.065 18.133Z" fill="white"/>
<path d="M74.0271 6.4746C75.8348 6.4746 77.3022 5.02488 77.3022 3.2373C77.3022 1.44973 75.8348 0 74.0271 0C72.2193 0 70.752 1.44973 70.752 3.2373C70.752 5.02488 72.2193 6.4746 74.0271 6.4746Z" fill="white"/>
<path d="M77.2941 13.9627C77.2941 12.0112 76.9361 10.5464 75.0174 10.5464H70.9834L71.2254 13.4358V32.9352L70.9834 35.8447H77.5387L77.2941 32.9352V13.9627Z" fill="white"/>
<path d="M64.7938 18.133C64.7938 13.0174 62.8474 10.002 57.8981 10.002C53.7103 10.002 50.894 12.1173 48.6577 14.4974C47.8358 11.6559 45.8969 10.002 42.11 10.002C38.5752 10.002 35.6757 11.671 33.336 14.1721V14.1368C33.3334 12.1778 33.0132 10.5491 31.0946 10.5491H27.0605L27.3026 13.4384V32.9379L27.0605 35.8474H33.6234L33.3814 32.9379V15.5311C35.2017 13.9982 37.4028 13.3628 39.1878 13.3628C42.6293 13.3628 42.9974 16.9279 42.9974 19.6105V32.9379L42.7605 35.8449H49.3157L49.0737 32.9379V15.5311C50.6545 14.162 52.8556 13.3628 54.9104 13.3628C58.4956 13.3628 58.7175 17.2506 58.7175 19.6105V32.4235C58.7175 34.8414 59.4109 35.8449 61.0018 35.8449H65.0383L64.7963 32.9379V18.133H64.7938Z" fill="white"/>
<path d="M6.55539 6.90826C6.56799 3.8424 8.72871 1.78758 12.5283 1.78758C14.7167 1.78758 16.7715 2.24645 18.844 3.21713C20.3316 3.92308 21.1762 2.94483 21.6729 1.76488C18.7659 0.589976 15.8109 0 12.8006 0C6.55539 0 0.0429637 2.05987 0.00010221 9.30094C-0.0478018 19.1036 16.7589 20.3415 17.1548 28.5004C17.3464 32.3932 14.5377 34.5514 10.6676 34.5514C7.97486 34.5514 5.54436 33.9917 3.13655 32.731C1.78516 32.0276 0.837161 32.8495 0.332909 33.9866C3.00545 35.5322 7.46304 36.3667 10.4684 36.3667C17.9036 36.3667 24.0857 33.3966 23.8765 26.0522C23.5916 15.8764 6.51505 14.7116 6.55791 6.90826H6.55539Z" fill="white"/>
<path d="M66.392 52.2961L68.7419 49.1067H67.7359L65.6684 51.9633H64.2792V49.1067H63.3564V55.6847H64.2792V52.7903H65.6533L67.7838 55.6847H68.8553L66.392 52.2961Z" fill="white" fill-opacity="0.7"/>
<path d="M38.3407 54.8678H34.5059V52.7423H37.8037V51.9431H34.5059V49.9236H38.2096V49.1067H33.5654V55.6847H38.3407V54.8678Z" fill="white" fill-opacity="0.7"/>
<path d="M54.7211 52.3868C54.7211 51.7792 54.5698 51.2623 54.2698 50.8362C53.9697 50.4101 53.5361 50.0849 52.9688 49.858C52.4797 49.6638 51.8998 49.5579 51.2342 49.5302V48.8621H50.3593V49.5302C49.6962 49.5579 49.1113 49.6613 48.6196 49.858C48.0498 50.0824 47.6136 50.4101 47.3136 50.8362C47.0136 51.2623 46.8623 51.7792 46.8623 52.3868C46.8623 52.9944 47.0136 53.5113 47.3136 53.9374C47.6136 54.3635 48.0498 54.6887 48.6196 54.9106C49.1113 55.1022 49.6937 55.2056 50.3593 55.2333V55.9317H51.2342V55.2358C51.9074 55.2106 52.4948 55.1072 52.9865 54.9131C53.5462 54.6912 53.9773 54.3635 54.2748 53.9348C54.5723 53.5062 54.7211 52.9894 54.7211 52.3893V52.3868ZM49.1617 54.2702C48.7129 54.1088 48.37 53.8743 48.133 53.5617C47.8935 53.2491 47.775 52.8557 47.775 52.3868C47.775 51.9178 47.891 51.5245 48.1229 51.2119C48.3549 50.8992 48.6953 50.6622 49.1415 50.5034C49.4869 50.3799 49.8954 50.3067 50.3593 50.2765V54.4971C49.9055 54.4693 49.5046 54.3937 49.1617 54.2727V54.2702ZM53.4756 53.5466C53.2461 53.8642 52.9133 54.1012 52.4746 54.2601C52.1267 54.3887 51.7107 54.4643 51.2342 54.4946V50.274C51.7057 50.2992 52.1217 50.3748 52.4696 50.5059C52.9058 50.6698 53.2386 50.9068 53.4705 51.2194C53.7025 51.5321 53.8185 51.9178 53.8185 52.3767C53.8185 52.8356 53.705 53.2289 53.4756 53.5466Z" fill="white" fill-opacity="0.7"/>
<path d="M76.8331 57.1798V54.8678H75.8196V49.1067H74.8892V54.8678H71.2233V49.1067H70.293V55.6847H74.8892H75.8196H75.9608V57.1798H76.8331Z" fill="white" fill-opacity="0.7"/>
<path d="M57.5781 52.7423H60.8759V51.9431H57.5781V49.9236H61.2793V49.1067H56.6377V55.6847H61.413V54.8678H57.5781V52.7423Z" fill="white" fill-opacity="0.7"/>
<path d="M25.3789 55.6847H26.3118V49.9236H30.1264V55.6847H31.0467V49.1067H25.3789V55.6847Z" fill="white" fill-opacity="0.7"/>
<path d="M129.486 55.1248C129.94 54.7516 130.167 54.202 130.167 53.4759C130.167 52.7498 129.958 52.2682 129.537 51.9203C129.118 51.5723 128.518 51.3984 127.742 51.3984H125.788V49.104H124.857V55.682H127.573C128.395 55.682 129.03 55.4954 129.486 55.1223V55.1248ZM125.788 54.9407V52.1396H127.535C128.087 52.1396 128.506 52.2505 128.793 52.4699C129.081 52.6892 129.227 53.0296 129.227 53.4935C129.227 53.9574 129.081 54.3306 128.791 54.5751C128.501 54.8197 128.082 54.9407 127.535 54.9407H125.788Z" fill="white" fill-opacity="0.7"/>
<path d="M114.521 55.7601C115.035 55.7601 115.507 55.6718 115.935 55.4979C116.364 55.3239 116.729 55.0667 117.029 54.7264L116.419 54.1339C116.17 54.4037 115.887 54.6028 115.575 54.7314C115.262 54.86 114.927 54.923 114.569 54.923C114.211 54.923 113.855 54.86 113.54 54.7339C113.225 54.6079 112.95 54.4339 112.718 54.207C112.486 53.9801 112.307 53.7128 112.179 53.4027C112.05 53.0926 111.987 52.7547 111.987 52.3917C111.987 52.0286 112.052 51.6908 112.179 51.3807C112.307 51.0705 112.486 50.8033 112.718 50.5764C112.95 50.3495 113.225 50.1755 113.54 50.0494C113.855 49.9234 114.198 49.8603 114.569 49.8603C114.939 49.8603 115.262 49.9259 115.575 50.052C115.887 50.1805 116.17 50.3772 116.419 50.6394L117.029 50.0469C116.729 49.7091 116.364 49.4544 115.935 49.2804C115.507 49.109 115.038 49.0208 114.531 49.0208C114.024 49.0208 113.568 49.104 113.144 49.2704C112.721 49.4368 112.352 49.6712 112.04 49.9738C111.727 50.2789 111.483 50.6344 111.306 51.0403C111.13 51.4462 111.044 51.895 111.044 52.3841C111.044 52.8732 111.132 53.322 111.306 53.728C111.483 54.1364 111.725 54.4919 112.035 54.7944C112.345 55.0995 112.711 55.334 113.134 55.4979C113.558 55.6643 114.019 55.7475 114.521 55.7475V55.7601Z" fill="white" fill-opacity="0.7"/>
<path d="M108.139 50.6194V55.6847H109.059V49.1067H108.195L104.304 54.1795V49.1067H103.374V55.6847H104.239L108.139 50.6194Z" fill="white" fill-opacity="0.7"/>
<path d="M120.065 55.6847H120.985V49.9236H123.242V49.1067H117.818V49.9236H120.065V55.6847Z" fill="white" fill-opacity="0.7"/>
<path d="M132.142 49.1067H131.212V55.6847H132.142V49.1067Z" fill="white" fill-opacity="0.7"/>
<path d="M83.3199 50.6194V55.6847H84.2401V49.1067H83.3753L79.485 54.1795V49.1067H78.5547V55.6847H79.417L83.3199 50.6194Z" fill="white" fill-opacity="0.7"/>
<path d="M99.9146 52.7524V55.6847H100.855V49.1067H99.9146V51.9355H96.1377V49.1067H95.1973V55.6847H96.1377V52.7524H99.9146Z" fill="white" fill-opacity="0.7"/>
<path d="M44.3258 53.4154C44.7342 53.2314 45.0468 52.9667 45.2662 52.6263C45.4855 52.2859 45.5965 51.875 45.5965 51.401C45.5965 50.927 45.4855 50.5135 45.2662 50.1706C45.0468 49.8252 44.7342 49.563 44.3258 49.3814C43.9173 49.1999 43.4257 49.1091 42.8508 49.1091H40.2842V55.6871H41.2246V53.6953H42.8508C43.4282 53.6953 43.9198 53.602 44.3258 53.418V53.4154ZM41.2246 52.8734V49.9235H42.8231C43.4257 49.9235 43.8795 50.0521 44.1921 50.3093C44.5023 50.5664 44.656 50.9295 44.656 51.3984C44.656 51.8674 44.5023 52.2305 44.1921 52.4876C43.882 52.7448 43.4257 52.8734 42.8231 52.8734H41.2246Z" fill="white" fill-opacity="0.7"/>
<path d="M87.2102 54.7971C87.5228 55.1021 87.8934 55.3366 88.3246 55.5055C88.7532 55.6745 89.2196 55.7602 89.7214 55.7602C90.2231 55.7602 90.6845 55.677 91.108 55.5106C91.5316 55.3442 91.8997 55.1097 92.2174 54.8071C92.5326 54.5021 92.7771 54.1491 92.9511 53.7406C93.1225 53.3322 93.2108 52.8859 93.2108 52.3968C93.2108 51.9077 93.1251 51.4589 92.9511 51.053C92.7796 50.6445 92.5351 50.289 92.2174 49.9865C91.8997 49.6814 91.5316 49.4469 91.108 49.2831C90.6845 49.1167 90.2231 49.0334 89.7214 49.0334C89.2196 49.0334 88.7481 49.1167 88.3221 49.2881C87.896 49.457 87.5253 49.694 87.2127 49.9966C86.9001 50.3016 86.6555 50.6546 86.479 51.0631C86.3025 51.4715 86.2168 51.9153 86.2168 52.3968C86.2168 52.8784 86.305 53.3246 86.479 53.7306C86.6555 54.139 86.8975 54.4945 87.2127 54.7971H87.2102ZM87.3463 51.3883C87.4749 51.0807 87.6539 50.8135 87.8859 50.584C88.1178 50.3546 88.3901 50.1781 88.7002 50.052C89.0104 49.926 89.3507 49.8629 89.7188 49.8629C90.0869 49.8629 90.4197 49.926 90.7299 50.052C91.04 50.1781 91.3098 50.3546 91.5392 50.584C91.7686 50.8135 91.9476 51.0807 92.0737 51.3883C92.2023 51.6959 92.2653 52.0312 92.2653 52.3943C92.2653 52.7574 92.1998 53.0927 92.0737 53.4003C91.9451 53.7079 91.7661 53.9751 91.5392 54.2046C91.3098 54.434 91.04 54.6105 90.7299 54.7365C90.4197 54.8626 90.0819 54.9256 89.7188 54.9256C89.3558 54.9256 89.0104 54.8626 88.7002 54.7365C88.3901 54.6105 88.1178 54.434 87.8859 54.2046C87.6539 53.9751 87.4749 53.7079 87.3463 53.4003C87.2177 53.0927 87.1547 52.7574 87.1547 52.3943C87.1547 52.0312 87.2203 51.6959 87.3463 51.3883Z" fill="white" fill-opacity="0.7"/>
<path d="M25.2803 69.9448H26.2131V67.2848H29.4807V66.4755H26.2131V64.1837H29.8841V63.3643H25.2803V69.9448Z" fill="white" fill-opacity="0.7"/>
<path d="M39.7473 68.2656L35.8343 63.3643H35.0703V69.9448H36.0032V65.0409L39.9137 69.9448H40.6776V63.3643H39.7473V68.2656Z" fill="white" fill-opacity="0.7"/>
<path d="M32.6223 63.3643H31.6895V69.9422H32.6223V63.3643Z" fill="white" fill-opacity="0.7"/>
<path d="M44.0618 67.0024H47.3293V66.2032H44.0618V64.1837H47.7302V63.3643H43.1289V69.9448H47.8613V69.1253H44.0618V67.0024Z" fill="white" fill-opacity="0.7"/>
<path d="M93.574 64.2443C93.2614 63.9392 92.8933 63.7047 92.4748 63.5409C92.0562 63.3745 91.5974 63.2913 91.1007 63.2913C90.604 63.2913 90.135 63.3745 89.714 63.5459C89.2929 63.7148 88.9248 63.9518 88.6147 64.2544C88.3046 64.5595 88.0626 64.9124 87.8886 65.3209C87.7146 65.7293 87.6289 66.1731 87.6289 66.6546C87.6289 67.1362 87.7172 67.5825 87.8886 67.9884C88.0626 68.3968 88.3046 68.7523 88.6147 69.0549C88.9248 69.3599 89.2929 69.5944 89.719 69.7633C90.1451 69.9323 90.6065 70.018 91.1032 70.018C91.5999 70.018 92.0588 69.9348 92.4773 69.7684C92.8958 69.602 93.2639 69.3675 93.5766 69.0649C93.8892 68.7599 94.1312 68.4069 94.3027 67.9985C94.4741 67.59 94.5599 67.1437 94.5599 66.6546C94.5599 66.1655 94.4741 65.7167 94.3027 65.3108C94.1312 64.9049 93.8892 64.5494 93.5766 64.2443H93.574ZM93.4329 67.6606C93.3068 67.9682 93.1278 68.2355 92.9009 68.4649C92.674 68.6943 92.4067 68.8708 92.0991 68.9969C91.7915 69.1229 91.4562 69.186 91.0982 69.186C90.7401 69.186 90.3947 69.1229 90.0871 68.9969C89.7795 68.8708 89.5098 68.6943 89.2803 68.4649C89.0509 68.2355 88.8719 67.9682 88.7458 67.6606C88.6198 67.353 88.5542 67.0177 88.5542 66.6546C88.5542 66.2916 88.6172 65.9562 88.7458 65.6486C88.8719 65.341 89.0509 65.0738 89.2803 64.8444C89.5098 64.6149 89.7795 64.4384 90.0871 64.3124C90.3947 64.1863 90.7326 64.1233 91.0982 64.1233C91.4637 64.1233 91.7915 64.1863 92.0991 64.3124C92.4067 64.4384 92.674 64.6149 92.9009 64.8444C93.1278 65.0738 93.3043 65.341 93.4329 65.6486C93.5589 65.9562 93.6245 66.2916 93.6245 66.6546C93.6245 67.0177 93.5614 67.353 93.4329 67.6606Z" fill="white" fill-opacity="0.7"/>
<path d="M100.48 63.6366C100.077 63.455 99.5874 63.3643 99.0176 63.3643H96.4736V69.9422H97.4065V67.9504H99.0176C99.5899 67.9504 100.077 67.8571 100.48 67.6731C100.883 67.489 101.193 67.2243 101.41 66.8839C101.627 66.5436 101.736 66.1326 101.736 65.6586C101.736 65.1846 101.627 64.7711 101.41 64.4282C101.193 64.0853 100.883 63.8206 100.48 63.6391V63.6366ZM100.344 66.7478C100.036 67.005 99.5849 67.1335 98.9898 67.1335H97.4065V64.1837H98.9898C99.5849 64.1837 100.039 64.3123 100.344 64.5694C100.651 64.8266 100.805 65.1897 100.805 65.6586C100.805 66.1276 100.651 66.4906 100.344 66.7478Z" fill="white" fill-opacity="0.7"/>
<path d="M113.921 67.0024H117.191V66.2032H113.921V64.1837H117.592V63.3643H112.99V69.9448H117.72V69.1253H113.921V67.0024Z" fill="white" fill-opacity="0.7"/>
<path d="M124.402 68.2681L120.489 63.3643H119.725V69.9448H120.655V65.0409L124.568 69.9448H125.332V63.3643H124.402V68.2681Z" fill="white" fill-opacity="0.7"/>
<path d="M126.84 63.3643V64.1837H129.076V69.9448H129.999V64.1837H132.235V63.3643H126.84Z" fill="white" fill-opacity="0.7"/>
<path d="M109.765 63.3643L107.082 67.9857L104.365 63.3643H103.601V69.9448H104.493V65.177L106.85 69.1455H107.279L109.636 65.1468L109.644 69.9448H110.539L110.529 63.3643H109.765Z" fill="white" fill-opacity="0.7"/>
<path d="M58.8006 63.7777C58.2686 63.5029 57.656 63.3643 56.9601 63.3643H54.2119V69.9422H56.9601C57.656 69.9422 58.2686 69.8036 58.8006 69.5287C59.3326 69.2539 59.7436 68.8682 60.0386 68.3715C60.3335 67.8773 60.4798 67.3025 60.4798 66.652C60.4798 66.0015 60.331 65.4267 60.0386 64.9325C59.7436 64.4383 59.3301 64.0526 58.8006 63.7752V63.7777ZM59.2242 67.9454C59.0074 68.3185 58.6998 68.6085 58.3064 68.8152C57.9131 69.022 57.4442 69.1253 56.9046 69.1253H55.1448V64.1811H56.9046C57.4442 64.1811 57.9131 64.2845 58.3064 64.4913C58.6998 64.698 59.0074 64.9854 59.2242 65.3561C59.441 65.7267 59.5494 66.1578 59.5494 66.652C59.5494 67.1461 59.441 67.5722 59.2242 67.9429V67.9454Z" fill="white" fill-opacity="0.7"/>
<path d="M63.3317 67.0024H66.6018V66.2032H63.3317V64.1837H67.0027V63.3643H62.4014V69.9448H67.1338V69.1253H63.3317V67.0024Z" fill="white" fill-opacity="0.7"/>
<path d="M83.6956 63.3643H82.7627V69.9448H87.2253V69.1253H83.6956V63.3643Z" fill="white" fill-opacity="0.7"/>
<path d="M71.4095 68.7749L69.0622 63.3643H68.0537L70.9229 69.9448H71.8457L74.7073 63.3643H73.7744L71.4095 68.7749Z" fill="white" fill-opacity="0.7"/>
<path d="M76.9587 67.0024H80.2287V66.2032H76.9587V64.1837H80.6296V63.3643H76.0283V69.9448H80.7607V69.1253H76.9587V67.0024Z" fill="white" fill-opacity="0.7"/>
</g>
<defs>
<clipPath id="clip0_34_977">
<rect width="157.13" height="70.018" fill="white"/>
</clipPath>
</defs>
</svg>
