<svg width="161" height="54" viewBox="0 0 161 54" fill="none" xmlns="http://www.w3.org/2000/svg">
<path d="M31.545 46.6722V41.1824H33.394C33.7852 41.1824 34.1373 41.2531 34.4517 41.3945C34.7661 41.5371 35.0204 41.7436 35.21 42.0143C35.4011 42.2851 35.5109 42.6069 35.5439 42.9756C35.5485 43.0222 35.5515 43.0885 35.5515 43.1757C35.5515 43.4284 35.5138 43.6678 35.4386 43.892C35.3664 44.1145 35.2491 44.3129 35.0896 44.4893C34.9286 44.6653 34.7225 44.8034 34.4698 44.9059C34.2155 45.0067 33.9131 45.0593 33.5626 45.0638C33.5309 45.0533 33.4903 45.0473 33.4377 45.0473V43.5609C33.6167 43.5609 33.7521 43.5171 33.8409 43.43C33.9327 43.3428 33.9793 43.2404 33.9793 43.1231C33.9793 43.0118 33.9477 42.9214 33.8875 42.8507C33.8273 42.78 33.7371 42.7455 33.6167 42.7455C33.4813 42.7455 33.382 42.7828 33.3218 42.8595C33.2616 42.9363 33.2315 43.0885 33.2315 43.3155V46.6722H31.545ZM88.254 46.6722V45.1136H89.5102C89.605 45.1136 89.6894 45.0971 89.7645 45.0622C89.8412 45.0292 89.8773 44.9734 89.8773 44.8954C89.8773 44.7613 89.7946 44.6259 89.6247 44.4861C89.4427 44.3222 89.2651 44.1627 89.0892 44.0032C88.9116 43.8437 88.7642 43.6947 88.6453 43.5565C88.5264 43.4179 88.4344 43.2749 88.3685 43.1259C88.3022 42.9772 88.2689 42.8178 88.2689 42.6462C88.2749 42.2638 88.3729 41.9629 88.5625 41.7448C88.7534 41.5266 88.9747 41.3776 89.2274 41.2997C89.4801 41.2213 89.7223 41.1824 89.9557 41.1824H91.6272V42.7242H90.5109C90.2594 42.7242 90.1256 42.7876 90.1108 42.9126C90.1345 42.9921 90.1947 43.0733 90.2879 43.156C90.6928 43.4617 90.9756 43.681 91.1335 43.8104C91.293 43.943 91.4436 44.1145 91.5879 44.325C91.7309 44.5371 91.8152 44.7749 91.8345 45.0352C91.8405 45.0774 91.8438 45.1377 91.8438 45.2156C91.8438 45.5438 91.7489 45.8162 91.5609 46.0359C91.3729 46.2552 91.1323 46.4163 90.8371 46.5188C90.5422 46.6224 90.2341 46.6722 89.9103 46.6722H88.254ZM87.7904 46.6722H86.9211C86.4969 46.6722 86.1177 46.5939 85.7774 46.4376C85.4408 46.281 85.1564 46.0689 84.9274 45.7997C84.6972 45.5318 84.5229 45.2248 84.404 44.8834C84.2834 44.5387 84.2248 44.188 84.2248 43.8301C84.2296 43.4902 84.2927 43.1608 84.4204 42.8419C84.5454 42.5213 84.7273 42.2369 84.9636 41.987C85.1998 41.7359 85.4826 41.5403 85.8136 41.3973C86.1446 41.2531 86.509 41.1824 86.9059 41.1824H87.7904V42.6462H87.1919C86.9195 42.6462 86.6877 42.6928 86.4981 42.7844C86.3085 42.8764 86.1671 43.0387 86.0739 43.2733H87.7904V44.5885H86.0739C86.1221 44.7448 86.2366 44.8878 86.4154 45.0188C86.5961 45.1509 86.8279 45.2156 87.1152 45.2156H87.7904V46.6722ZM81.8989 46.6722V41.1824H83.6005V46.6722H81.8989ZM76.6617 46.6722V42.067C76.6617 41.8878 76.7039 41.7315 76.7866 41.5973C76.871 41.4636 76.9807 41.3599 77.1176 41.2892C77.2562 41.2185 77.4053 41.1824 77.5647 41.1824C77.7632 41.1824 77.9496 41.235 78.1211 41.3386C78.2927 41.4427 78.4208 41.599 78.5273 41.7962L79.4271 43.4541V41.1824H81.0986V45.7258C81.0986 45.9319 81.0597 46.1078 80.9781 46.254C80.9002 46.3999 80.7917 46.5083 80.6564 46.5802C80.521 46.6525 80.3736 46.6887 80.2125 46.6887C80.0092 46.6887 79.814 46.63 79.6256 46.5144C79.4376 46.3967 79.3082 46.2344 79.2046 46.0419L78.326 44.417V46.6722H76.6617ZM71.7407 46.6722V43.2448C71.7407 42.8913 71.8218 42.5558 71.9873 42.2385C72.1528 41.9211 72.3935 41.6652 72.7052 41.4712C73.0181 41.2784 73.3821 41.1824 73.7942 41.1824C74.0425 41.1824 74.288 41.2213 74.5302 41.3025C74.7736 41.3836 74.9978 41.5086 75.201 41.6773C75.4039 41.8456 75.5682 42.0653 75.6899 42.3377C75.8133 42.6085 75.8751 42.9274 75.8751 43.2914V46.6722H74.1883V45.0172H73.6798V43.6465H74.1883V43.1379C74.1883 43.0074 74.1522 42.9065 74.0787 42.8358C74.0047 42.7651 73.9103 42.7302 73.7942 42.7302C73.6918 42.7302 73.6046 42.7651 73.5339 42.837C73.4616 42.9094 73.4271 43.0102 73.4271 43.1379V46.6722H71.7407ZM67.3338 46.6722V41.1824H69.1829C69.5742 41.1824 69.9277 41.2531 70.2423 41.3945C70.5568 41.5371 70.8095 41.7436 70.9991 42.0143C71.1899 42.2851 71.3012 42.6069 71.3329 42.9756C71.3373 43.0222 71.3406 43.0885 71.3406 43.1757C71.3406 43.4284 71.3028 43.6678 71.2293 43.892C71.1554 44.1145 71.0397 44.3129 70.8786 44.4893C70.7175 44.6653 70.5114 44.8034 70.2587 44.9059C70.0061 45.0067 69.7036 45.0593 69.3529 45.0638C69.3199 45.0533 69.2794 45.0473 69.2283 45.0473V43.5609C69.4055 43.5609 69.5413 43.5171 69.6313 43.43C69.7216 43.3428 69.7682 43.2404 69.7682 43.1231C69.7682 43.0118 69.7381 42.9214 69.6779 42.8507C69.6164 42.78 69.5276 42.7455 69.4055 42.7455C69.2701 42.7455 69.1709 42.7828 69.1106 42.8595C69.0508 42.9363 69.0219 43.0885 69.0219 43.3155V46.6722H67.3338ZM60.5352 46.6722L60.8843 42.5048C60.9096 42.1706 60.9654 41.9091 61.0526 41.7179C61.1386 41.5283 61.2603 41.3929 61.417 41.3129C61.5748 41.2318 61.7777 41.1884 62.0292 41.1824C62.4052 41.1824 62.6731 41.2454 62.8282 41.3732C62.9845 41.5013 63.0941 41.6893 63.1544 41.936L63.6256 43.755L64.0257 42.0983C64.0811 41.8818 64.1474 41.7118 64.2286 41.5853C64.3085 41.4604 64.3973 41.3704 64.4965 41.3145C64.5957 41.2603 64.6982 41.2258 64.8018 41.2109C64.9059 41.1972 65.0533 41.1868 65.2413 41.1824C65.9122 41.1824 66.2793 41.5644 66.344 42.3285L66.7052 46.6722H65.0786L64.8878 43.4541L64.2093 46.236C64.1804 46.3786 64.1097 46.4903 63.9956 46.5698C63.8795 46.6481 63.7501 46.6887 63.6103 46.6887C63.4749 46.6887 63.3544 46.6541 63.2492 46.5851C63.1455 46.5156 63.0777 46.4195 63.0475 46.2958L62.3465 43.4541L62.1613 46.6722H60.5352ZM56.1284 44.0076C56.1284 44.2258 56.1782 44.4154 56.2774 44.5733C56.3754 44.7311 56.5048 44.8516 56.661 44.9328C56.8205 45.0127 56.9892 45.0561 57.1696 45.0638C57.3592 45.0561 57.5384 45.0111 57.7051 44.9284C57.8722 44.844 58.0076 44.7207 58.11 44.5568C58.2109 44.3945 58.2619 44.2001 58.2619 43.9759C58.2619 43.7505 58.2121 43.5565 58.1128 43.3938C58.0136 43.2343 57.8827 43.1138 57.7188 43.0343C57.5561 42.9543 57.3801 42.9138 57.1905 42.9138C57.0057 42.9138 56.8326 42.9576 56.6703 43.0419C56.5092 43.1259 56.3782 43.2524 56.2774 43.4179C56.1798 43.585 56.1284 43.7819 56.1284 44.0076ZM54.4118 43.9385C54.4118 43.6332 54.4749 43.3171 54.5998 42.9921C54.7248 42.6687 54.9084 42.3678 55.1506 42.0923C55.3928 41.8155 55.6845 41.5945 56.0275 41.429C56.3706 41.2635 56.7542 41.1824 57.1772 41.1824C57.5757 41.1824 57.9473 41.2543 58.2936 41.4017C58.6379 41.5491 58.936 41.754 59.1902 42.0171C59.4429 42.2819 59.6386 42.5844 59.7739 42.9258C59.9121 43.2673 59.98 43.6284 59.98 44.0076C59.98 44.4049 59.9033 44.7705 59.7482 45.1075C59.592 45.4446 59.3811 45.735 59.1163 45.9801C58.8488 46.2239 58.5507 46.4135 58.2229 46.5501C57.8947 46.6855 57.5609 46.7578 57.2222 46.7654C56.849 46.7654 56.4927 46.6963 56.1525 46.5577C55.8126 46.4196 55.5101 46.2239 55.2454 45.9696C54.9835 45.7137 54.779 45.4128 54.6316 45.067C54.4857 44.7207 54.4118 44.3447 54.4118 43.9385ZM53.8659 46.6722H53.0576C52.4936 46.6722 52.0108 46.5473 51.6058 46.2958C51.1997 46.0431 50.896 45.7121 50.6911 45.3032C50.4883 44.8954 50.3826 44.4592 50.377 43.9928C50.3826 43.5216 50.4895 43.0793 50.6972 42.6627C50.9065 42.2473 51.215 41.9119 51.6211 41.656C52.0289 41.4017 52.5177 41.274 53.0878 41.274H53.8659V42.8222H53.3256C53.0713 42.8222 52.8516 42.8764 52.668 42.9845C52.4844 43.0913 52.3446 43.2327 52.2486 43.4087C52.1522 43.585 52.0996 43.773 52.0935 43.9759C52.0996 44.1776 52.1522 44.3656 52.2498 44.5403C52.3478 44.7147 52.492 44.8549 52.6849 44.9629C52.8773 45.0714 53.1046 45.1256 53.3722 45.1256L53.8659 45.1405V46.6722ZM44.4384 46.6722V41.1824H46.3176H47.5963V42.6836H46.7254C46.5494 42.6836 46.4185 42.7077 46.3325 42.7559C46.2469 42.8057 46.1911 42.8764 46.1642 42.9664C46.1385 43.0584 46.1252 43.1845 46.1252 43.3456H47.5963V44.7311H46.1084L46.1252 46.6722H44.4384ZM39.9401 44.0076C39.9401 44.2258 39.9882 44.4154 40.0876 44.5733C40.1854 44.7311 40.3148 44.8516 40.4727 44.9328C40.6306 45.0127 40.7993 45.0561 40.9796 45.0638C41.1693 45.0561 41.3484 45.0111 41.5151 44.9284C41.6822 44.844 41.8176 44.7207 41.9201 44.5568C42.0209 44.3945 42.0735 44.2001 42.0735 43.9759C42.0735 43.7505 42.0225 43.5565 41.9245 43.3938C41.8237 43.2343 41.6927 43.1138 41.5304 43.0343C41.3665 42.9543 41.1901 42.9138 41.0009 42.9138C40.8157 42.9138 40.6426 42.9576 40.4819 43.0419C40.3192 43.1259 40.1883 43.2524 40.089 43.4179C39.9897 43.585 39.9401 43.7819 39.9401 44.0076ZM38.222 43.9385C38.222 43.6332 38.2852 43.3171 38.41 42.9921C38.5349 42.6687 38.7185 42.3678 38.9622 42.0923C39.2029 41.8155 39.4948 41.5945 39.8378 41.429C40.1806 41.2635 40.5643 41.1824 40.9873 41.1824C41.3858 41.1824 41.759 41.2543 42.1036 41.4017C42.4479 41.5491 42.746 41.754 43.0003 42.0171C43.2546 42.2819 43.4486 42.5844 43.5856 42.9258C43.7226 43.2673 43.7901 43.6284 43.7901 44.0076C43.7901 44.4049 43.7133 44.7705 43.5583 45.1075C43.402 45.4446 43.1927 45.735 42.9264 45.9801C42.6588 46.2239 42.3624 46.4135 42.0329 46.5501C41.7047 46.6855 41.3709 46.7578 41.0339 46.7654C40.6591 46.7654 40.3028 46.6963 39.9627 46.5577C39.6226 46.4196 39.3202 46.2239 39.0569 45.9696C38.7937 45.7137 38.5891 45.4128 38.4416 45.067C38.2957 44.7207 38.222 44.3447 38.222 43.9385ZM26.6223 41.1824H28.3088V44.7613C28.3088 44.8802 28.3449 44.9722 28.4156 45.0368C28.4863 45.1015 28.5767 45.1389 28.688 45.1481C28.8008 45.1389 28.8926 45.1031 28.9633 45.0384C29.0355 44.975 29.0716 44.8818 29.0716 44.7613V41.1824H30.7431V44.7629C30.7431 45.1329 30.6528 45.4639 30.4723 45.7543C30.2917 46.0464 30.045 46.2705 29.7321 46.4316C29.4191 46.5923 29.0716 46.6722 28.688 46.6722C28.3765 46.6722 28.0967 46.6256 27.8424 46.5308C27.5882 46.436 27.37 46.3035 27.188 46.1303C27.0044 45.9592 26.8645 45.7575 26.7682 45.5257C26.672 45.2939 26.6223 45.0457 26.6223 44.7793V41.1824ZM22.1705 44.0076C22.1705 44.2258 22.2186 44.4154 22.3179 44.5733C22.4157 44.7311 22.5451 44.8516 22.7031 44.9328C22.861 45.0127 23.0296 45.0561 23.2101 45.0638C23.3997 45.0561 23.5787 45.0111 23.7457 44.9284C23.9127 44.844 24.0481 44.7207 24.1504 44.5568C24.2512 44.3945 24.3024 44.2001 24.3024 43.9759C24.3024 43.7505 24.2527 43.5565 24.1549 43.3938C24.0541 43.2343 23.9232 43.1138 23.7608 43.0343C23.5967 42.9543 23.4207 42.9138 23.2312 42.9138C23.0461 42.9138 22.8731 42.9576 22.7121 43.0419C22.5496 43.1259 22.4187 43.2524 22.3194 43.4179C22.2201 43.585 22.1705 43.7819 22.1705 44.0076ZM20.4523 43.9385C20.4523 43.6332 20.5155 43.3171 20.6404 42.9921C20.7653 42.6687 20.9488 42.3678 21.1925 42.0923C21.4333 41.8155 21.7251 41.5945 22.0682 41.429C22.4112 41.2635 22.7948 41.1824 23.2176 41.1824C23.6163 41.1824 23.9879 41.2543 24.334 41.4017C24.6785 41.5491 24.9764 41.754 25.2306 42.0171C25.4834 42.2819 25.679 42.5844 25.8159 42.9258C25.9528 43.2673 26.0205 43.6284 26.0205 44.0076C26.0205 44.4049 25.9438 44.7705 25.7888 45.1075C25.6323 45.4446 25.4217 45.735 25.1569 45.9801C24.8891 46.2239 24.5912 46.4135 24.2632 46.5501C23.9353 46.6855 23.6013 46.7578 23.2628 46.7654C22.8896 46.7654 22.5331 46.6963 22.1931 46.5577C21.853 46.4196 21.5506 46.2239 21.2874 45.9696C21.0241 45.7137 20.8194 45.4128 20.672 45.067C20.5261 44.7207 20.4523 44.3447 20.4523 43.9385ZM15.8381 46.6722V41.1824H17.8405C18.2663 41.1824 18.6274 41.2635 18.9238 41.4274C19.2202 41.5913 19.4413 41.8034 19.5858 42.0637C19.7317 42.3241 19.8039 42.598 19.8039 42.8836C19.8039 43.1078 19.7603 43.3127 19.67 43.4991C19.5827 43.6843 19.4519 43.8317 19.2819 43.9385C19.4729 43.9972 19.6249 44.1129 19.7332 44.2905C19.843 44.468 19.8972 44.6877 19.8972 44.9557V46.6722H18.2106V45.2566C18.2106 45.0577 18.1761 44.9344 18.1068 44.8834C18.0392 44.8336 17.9188 44.8022 17.7473 44.7946V43.4842C17.9233 43.4842 18.0557 43.4481 18.1414 43.3713C18.2287 43.2974 18.2723 43.2026 18.2723 43.0913C18.2723 42.9756 18.2362 42.8792 18.1655 42.7997C18.0933 42.7213 17.9985 42.6836 17.8781 42.6836C17.7277 42.6884 17.6284 42.7455 17.5818 42.8523C17.5336 42.9576 17.5096 43.1138 17.5096 43.3155V46.6722H15.8381ZM13.3331 44.6544H12.1626V43.3456H15.2363C15.2363 44.143 15.1008 44.7974 14.8331 45.3076C14.5653 45.8178 14.2207 46.1862 13.8025 46.4147C13.3827 46.6421 12.9359 46.7594 12.462 46.7654C12.1144 46.7654 11.7699 46.7036 11.4299 46.579C11.0899 46.4541 10.783 46.2721 10.5091 46.0311C10.2338 45.7905 10.0156 45.4972 9.85467 45.1509C9.69217 44.8034 9.60946 44.417 9.60645 43.9928C9.61697 43.9462 9.62147 43.8767 9.62147 43.7835C9.6561 43.3549 9.75388 42.9772 9.91484 42.6523C10.0743 42.3257 10.2835 42.0533 10.5362 41.8384C10.789 41.6198 11.0733 41.4604 11.3877 41.3551C11.7022 41.2499 12.0302 41.1972 12.3702 41.1972C12.7809 41.1972 13.1796 41.2712 13.5693 41.4186C13.9574 41.566 14.3035 41.7765 14.6044 42.0505L13.4098 43.1681C13.127 42.8869 12.811 42.7455 12.462 42.7455C12.2498 42.7455 12.0557 42.7997 11.8767 42.9077C11.6992 43.0162 11.5563 43.1697 11.4509 43.3681C11.3456 43.5654 11.293 43.7879 11.293 44.0394C11.293 44.2559 11.3486 44.4531 11.46 44.6319C11.5713 44.8111 11.7172 44.9509 11.8978 45.0549C12.0768 45.157 12.2664 45.2112 12.462 45.2172C12.6455 45.2096 12.8155 45.1602 12.972 45.0638C13.1285 44.9706 13.2488 44.8352 13.3331 44.6544Z" fill="white" fill-opacity="0.7"/>
<path d="M109.134 5.53613V46.7791H97.0273V5.53613H109.134ZM129.403 17.4081V46.7791H117.298V5.53613H133.062C139.981 5.53613 145.403 7.12191 149.325 10.3069C153.983 14.1208 156.306 19.2827 156.306 25.8168C156.306 32.0619 154.319 37.1532 150.335 41.1008C146.36 45.0473 141.234 47.0273 134.968 47.0273C134.234 47.0273 133.032 46.9851 131.36 46.9024V34.7836H133.296C140.358 34.7836 143.894 31.7942 143.894 25.8273C143.894 20.211 140.419 17.4081 133.48 17.4081H129.403Z" fill="white" fill-opacity="0.7"/>
<path d="M21.4942 14.5983V36.9295H12.2897V14.5983H5.22461V5.57281H28.5142V14.5983H21.4942ZM46.6207 4.82056C51.005 4.82056 54.7707 6.43489 57.9089 9.66204C61.0459 12.8982 62.6199 16.7617 62.6199 21.2587C62.6199 25.8429 61.0383 29.729 57.8776 32.9245C54.7165 36.1292 50.8741 37.7284 46.3484 37.7284C41.8548 37.7284 38.0196 36.1216 34.8436 32.9095C31.6677 29.6899 30.0789 25.8113 30.0789 21.2587C30.0789 16.667 31.6752 12.7808 34.8752 9.60034C38.0738 6.41079 41.9946 4.82056 46.6207 4.82056ZM46.3484 14.0822C44.4591 14.0822 42.8474 14.7863 41.5145 16.1885C40.1816 17.5922 39.5151 19.2923 39.5151 21.2737C39.5151 23.2567 40.1816 24.9567 41.5221 26.3589C42.8627 27.7611 44.4739 28.4667 46.3484 28.4667C48.2549 28.4667 49.8734 27.7702 51.1991 26.3664C52.5243 24.9718 53.1819 23.2717 53.1819 21.2737C53.1819 19.2758 52.5243 17.5757 51.1991 16.181C49.8734 14.7788 48.2549 14.0822 46.3484 14.0822ZM75.5194 30.6919V31.557V36.9295H66.3148V5.57281H68.1728H75.5194H77.7385C81.9376 5.57281 85.2277 6.53568 87.6078 8.46894C90.4347 10.7814 91.8447 13.9153 91.8447 17.8796C91.8447 21.6694 90.638 24.7597 88.22 27.1548C85.8085 29.55 82.6989 30.7506 78.8954 30.7506C78.1297 30.7506 77.7188 30.6919 76.9531 30.6919V21.4889H78.6712C81.006 21.4889 82.6567 20.3695 82.6414 18.0015C82.6265 15.9538 80.8811 14.7743 78.5901 14.7743H75.5162V21.4889H75.5194V30.6919Z" fill="white"/>
</svg>
