<svg width="213" height="47" viewBox="0 0 213 47" fill="none" xmlns="http://www.w3.org/2000/svg">
<g clip-path="url(#clip0_34_956)">
<g clip-path="url(#clip1_34_956)">
<path d="M41.8535 21.3567V5.00226C41.8535 2.31999 39.6912 0.141113 37.026 0.141113H4.83043C2.16478 0.141113 0.00292969 2.3175 0.00292969 5.00267V21.3567C0.00292969 24.0394 2.16478 26.2178 4.83002 26.2178H18.7373V29.1265H24.0698V26.2178H37.0243C39.6912 26.2178 41.8514 24.0415 41.8514 21.3567H41.8535ZM18.7394 20.6822H5.826C5.37619 20.6822 5.02523 20.3163 5.02523 19.8681V6.49084C5.02523 6.04061 5.39073 5.67677 5.826 5.67677H18.7373V20.6822H18.7394ZM36.8436 19.866C36.8436 20.3163 36.4781 20.6801 36.0424 20.6801H24.086V5.67677H36.0424C36.4922 5.67677 36.8436 6.04269 36.8436 6.49084V19.866ZM64.7827 27.8044H92.3734C95.0407 27.8044 97.2009 25.6281 97.2009 22.9433V5.00267C97.2009 2.3204 95.0386 0.141529 92.3734 0.141529H64.7827C62.1158 0.141529 59.9557 2.31791 59.9557 5.00267V22.9433C59.9557 25.6256 62.1175 27.8044 64.7827 27.8044ZM65.1607 6.49084C65.1607 6.15358 65.4423 5.87198 65.7787 5.87198H91.3774C91.7142 5.87198 91.9954 6.15358 91.9954 6.49084V21.4672C91.9954 21.8044 91.7142 22.086 91.3774 22.086H65.7787C65.4423 22.086 65.1607 21.8044 65.1607 21.4672V6.49084ZM150.079 29.1958H155.411V20.6822H152.197V5.01721C152.197 2.33453 150.036 0.141113 147.37 0.141113H122.32C119.652 0.141113 117.492 2.31833 117.492 5.00267V20.6818H114.279V29.0974H119.611V26.4147H150.08V29.1963L150.079 29.1958ZM147.005 20.6677C147.005 20.6822 122.712 20.6822 122.712 20.6822V6.49084C122.712 6.13946 122.993 5.85786 123.344 5.85786H146.374C146.725 5.85786 147.007 6.13946 147.007 6.49084V20.6656L147.005 20.6677ZM209.439 20.6822V5.01721C209.439 2.33453 207.277 0.141113 204.612 0.141113H179.562C176.894 0.141113 174.734 2.31833 174.734 5.00267V20.6818H171.521V29.0974H176.853V26.4147H207.322V29.1963H212.655V20.6818L209.439 20.6822ZM204.232 20.6677C204.232 20.6822 179.939 20.6822 179.939 20.6822V6.49084C179.939 6.13946 180.22 5.85786 180.572 5.85786H203.602C203.953 5.85786 204.234 6.13946 204.234 6.49084V20.6656L204.232 20.6677ZM108.176 38.1223H108.294C109.352 38.1223 109.936 37.6962 109.936 36.7962H108.988C108.988 37.2804 108.711 37.479 108.315 37.479H108.205C107.761 37.479 107.503 37.2908 107.503 36.7962H106.554C106.554 37.6983 107.147 38.1223 108.176 38.1223ZM0.00292969 45.3792H1.40595V39.9033H6.44984V38.7449H0.00292969V45.3792ZM10.3474 42.537H15.5379V41.4878H10.3474V39.8639H16.0816V38.7449H8.94189V45.3792H16.131V44.2598H10.3466L10.3474 42.537ZM25.19 41.428H20.2948V38.7449H18.8793V45.3792H20.2948V42.576H25.19V45.3792H26.6034V38.7449H25.19V41.428ZM30.9142 42.537H36.1068V41.4878H30.9138V39.8639H36.6501V38.7449H29.5104V45.3792H36.6999V44.2598H30.9142V42.537ZM44.4323 38.7449H39.4482V45.3792H40.8612V43.062H44.4323C46.2424 43.062 47.0236 42.3297 47.0236 41.033V40.7448C47.0236 39.4975 46.2424 38.7449 44.4323 38.7449ZM45.5708 40.9936C45.5708 41.676 45.0956 41.9036 44.2649 41.9036H40.8637V39.9033H44.2649C45.0956 39.9033 45.5708 40.1413 45.5708 40.7843V40.9936ZM51.6709 38.7449L48.1309 45.3792H49.5053L50.3958 43.7053H55.0247L55.9252 45.3792H57.349L53.7783 38.7449H51.6709ZM50.9785 42.6176L52.4808 39.7957H52.9169L54.4395 42.6176H50.9785ZM60.7506 41.2004C60.7299 43.3685 60.4528 44.1896 59.554 44.1896H59.3663V45.4078H59.5436C61.6021 45.4078 62.0855 44.2391 62.1063 41.2399L62.1167 39.9033H66.2119V45.3792H67.6357V38.7449H60.7818L60.7527 41.2004H60.7506ZM75.5833 40.9442H71.944V38.747H70.5306V45.3812H75.6036C77.1969 45.3812 78.0853 44.6594 78.0853 43.3207V43.0146C78.0853 41.6884 77.1844 40.9462 75.5833 40.9462V40.9442ZM76.6224 43.2605C76.6224 43.9246 76.1469 44.2208 75.3166 44.2208H71.944V42.1021H75.3166C76.1469 42.1021 76.6224 42.39 76.6224 43.0333V43.2605ZM87.0844 41.428H82.1892V38.7449H80.7738V45.3792H82.1892V42.576H87.0844V45.3792H88.4979V38.7449H87.0844V41.428ZM101.235 38.7449H99.8217V45.3792H101.235V38.7449ZM96.4599 40.9442H92.8207V38.747H91.4077V45.3812H96.4803C98.0735 45.3812 98.9619 44.6594 98.9619 43.3207V43.0146C98.9619 41.6884 98.0611 40.9462 96.4599 40.9462V40.9442ZM97.497 43.2605C97.497 43.9246 97.0219 44.2208 96.1912 44.2208H92.8186V42.1021H96.1912C97.0219 42.1021 97.497 42.39 97.497 43.0333V43.2605ZM105.854 43.6559H105.556V38.7449H104.142V45.3792H105.783L110.521 40.4682H110.807V45.3792H112.232V38.7449H110.579L105.854 43.6559ZM119.252 45.3792H120.668V39.9033H125.464V45.3792H126.877V38.7449H119.252V45.3792ZM134.333 38.6664H133.878C131.495 38.6664 129.615 39.8252 129.615 41.8932V42.2305C129.615 44.3196 131.493 45.4577 133.878 45.4577H134.333C136.676 45.4577 138.536 44.3196 138.536 42.2305V41.8932C138.536 39.8248 136.676 38.6664 134.333 38.6664ZM137.083 42.2305C137.083 43.538 135.965 44.2411 134.275 44.2411H133.88C132.19 44.2411 131.062 43.538 131.062 42.2305V41.8932C131.062 40.6069 132.19 39.883 133.88 39.883H134.275C135.965 39.883 137.083 40.6044 137.083 41.8932V42.2305ZM148.869 38.7449H141.926V40.0524C141.926 42.429 141.778 43.4179 141.313 44.2204H140.462V46.7647H141.807V45.3792H148.491V46.7647H149.847V44.2204H148.867V38.7449H148.869ZM147.446 44.2204H142.718C143.104 43.4283 143.243 42.4871 143.243 40.0524V39.9033H147.446V44.2204ZM157.197 38.7449H152.213V45.3792H153.626V43.062H157.197C159.007 43.062 159.788 42.3297 159.788 41.033V40.7448C159.788 39.4975 159.007 38.7449 157.197 38.7449ZM158.334 40.9936C158.334 41.676 157.858 41.9036 157.028 41.9036H153.626V39.9033H157.028C157.858 39.9033 158.334 40.1413 158.334 40.7843V40.9936ZM162.179 40.7843V41.0227C162.179 42.0714 162.783 42.6857 163.791 42.9237L161.863 45.3792H163.386L165.235 43.0412H168.419V45.3792H169.843V38.7449H164.898C163.227 38.7449 162.179 39.3987 162.179 40.7843ZM168.419 41.9327H164.898C164.078 41.9327 163.623 41.6453 163.623 40.9832V40.8154C163.623 40.1621 164.078 39.856 164.898 39.856H168.419V41.9347V41.9327ZM180.603 38.7449H173.66V40.0524C173.66 42.429 173.511 43.4179 173.046 44.2204H172.195V46.7647H173.54V45.3792H180.225V46.7647H181.581V44.2204H180.601V38.7449H180.603ZM179.179 44.2204H174.451C174.838 43.4283 174.976 42.4871 174.976 40.0524V39.9033H179.179V44.2204ZM189.573 41.7445C189.04 41.8334 188.396 41.8828 187.773 41.8828H187.329C186.004 41.8828 185.035 41.5954 185.035 40.4682V38.7449H183.612V40.3481C183.612 42.5162 185.066 43.0312 187.331 43.0312H187.668C188.35 43.0312 188.953 43.0105 189.577 42.9029V45.3792H191.001V38.7449H189.577V41.7445H189.573ZM195.605 43.6559H195.308V38.7449H193.894V45.3792H195.535L200.273 40.4682H200.56V45.3792H201.984V38.7449H200.333L195.605 43.6559ZM207.956 41.7861L212.564 38.7449H210.706L206.631 41.428H206.294V38.7449H204.889V45.3792H206.294V42.576H206.71L210.725 45.3792H212.653L207.956 42.1108V41.7861Z" fill="white" fill-opacity="0.7"/>
</g>
<g clip-path="url(#clip2_34_956)">
<g clip-path="url(#clip3_34_956)">
<path d="M42.0292 24.3567V8.00226C42.0292 5.31999 39.867 3.14111 37.2017 3.14111H5.00621C2.34056 3.14111 0.178711 5.3175 0.178711 8.00267V24.3567C0.178711 27.0394 2.34056 29.2178 5.0058 29.2178H18.9131V32.1265H24.2456V29.2178H37.2001C39.867 29.2178 42.0272 27.0415 42.0272 24.3567H42.0292ZM18.9151 23.6822H6.00178C5.55197 23.6822 5.20101 23.3163 5.20101 22.8681V9.49084C5.20101 9.04061 5.56651 8.67677 6.00178 8.67677H18.9131V23.6822H18.9151ZM37.0194 22.866C37.0194 23.3163 36.6539 23.6801 36.2182 23.6801H24.2618V8.67677H36.2182C36.668 8.67677 37.0194 9.04269 37.0194 9.49084V22.866ZM64.9585 30.8044H92.5492C95.2165 30.8044 97.3767 28.6281 97.3767 25.9433V8.00267C97.3767 5.3204 95.2144 3.14153 92.5492 3.14153H64.9585C62.2916 3.14153 60.1314 5.31791 60.1314 8.00267V25.9433C60.1314 28.6256 62.2933 30.8044 64.9585 30.8044ZM65.3365 9.49084C65.3365 9.15358 65.6181 8.87198 65.9545 8.87198H91.5532C91.89 8.87198 92.1712 9.15358 92.1712 9.49084V24.4672C92.1712 24.8044 91.89 25.086 91.5532 25.086H65.9545C65.6181 25.086 65.3365 24.8044 65.3365 24.4672V9.49084ZM150.255 32.1958H155.587V23.6822H152.373V8.01721C152.373 5.33453 150.211 3.14111 147.546 3.14111H122.496C119.828 3.14111 117.668 5.31833 117.668 8.00267V23.6818H114.455V32.0974H119.787V29.4147H150.256V32.1963L150.255 32.1958ZM147.181 23.6677C147.181 23.6822 122.888 23.6822 122.888 23.6822V9.49084C122.888 9.13946 123.169 8.85786 123.52 8.85786H146.55C146.901 8.85786 147.183 9.13946 147.183 9.49084V23.6656L147.181 23.6677ZM209.615 23.6822V8.01721C209.615 5.33453 207.453 3.14111 204.787 3.14111H179.737C177.07 3.14111 174.91 5.31833 174.91 8.00267V23.6818H171.696V32.0974H177.029V29.4147H207.498V32.1963H212.831V23.6818L209.615 23.6822ZM204.408 23.6677C204.408 23.6822 180.115 23.6822 180.115 23.6822V9.49084C180.115 9.13946 180.396 8.85786 180.748 8.85786H203.778C204.129 8.85786 204.41 9.13946 204.41 9.49084V23.6656L204.408 23.6677ZM108.352 41.1223H108.47C109.528 41.1223 110.112 40.6962 110.112 39.7962H109.164C109.164 40.2804 108.887 40.479 108.49 40.479H108.381C107.937 40.479 107.678 40.2908 107.678 39.7962H106.73C106.73 40.6983 107.323 41.1223 108.352 41.1223ZM0.178711 48.3792H1.58173V42.9033H6.62563V41.7449H0.178711V48.3792ZM10.5232 45.537H15.7137V44.4878H10.5232V42.8639H16.2574V41.7449H9.11767V48.3792H16.3068V47.2598H10.5223L10.5232 45.537ZM25.3658 44.428H20.4706V41.7449H19.0551V48.3792H20.4706V45.576H25.3658V48.3792H26.7792V41.7449H25.3658V44.428ZM31.09 45.537H36.2826V44.4878H31.0896V42.8639H36.8259V41.7449H29.6862V48.3792H36.8757V47.2598H31.09V45.537ZM44.6081 41.7449H39.624V48.3792H41.037V46.062H44.6081C46.4181 46.062 47.1994 45.3297 47.1994 44.033V43.7448C47.1994 42.4975 46.4181 41.7449 44.6081 41.7449ZM45.7465 43.9936C45.7465 44.676 45.2714 44.9036 44.4407 44.9036H41.0395V42.9033H44.4407C45.2714 42.9033 45.7465 43.1413 45.7465 43.7843V43.9936ZM51.8466 41.7449L48.3067 48.3792H49.6811L50.5715 46.7053H55.2005L56.101 48.3792H57.5248L53.9541 41.7449H51.8466ZM51.1543 45.6176L52.6566 42.7957H53.0927L54.6153 45.6176H51.1543ZM60.9264 44.2004C60.9056 46.3685 60.6286 47.1896 59.7298 47.1896H59.5421V48.4078H59.7194C61.7779 48.4078 62.2613 47.2391 62.2821 44.2399L62.2925 42.9033H66.3877V48.3792H67.8115V41.7449H60.9576L60.9285 44.2004H60.9264ZM75.759 43.9442H72.1198V41.747H70.7064V48.3812H75.7794C77.3726 48.3812 78.261 47.6594 78.261 46.3207V46.0146C78.261 44.6884 77.3602 43.9462 75.759 43.9462V43.9442ZM76.7982 46.2605C76.7982 46.9246 76.3227 47.2208 75.4924 47.2208H72.1198V45.1021H75.4924C76.3227 45.1021 76.7982 45.39 76.7982 46.0333V46.2605ZM87.2602 44.428H82.365V41.7449H80.9496V48.3792H82.365V45.576H87.2602V48.3792H88.6736V41.7449H87.2602V44.428ZM101.411 41.7449H99.9975V48.3792H101.411V41.7449ZM96.6357 43.9442H92.9965V41.747H91.5835V48.3812H96.6561C98.2493 48.3812 99.1377 47.6594 99.1377 46.3207V46.0146C99.1377 44.6884 98.2368 43.9462 96.6357 43.9462V43.9442ZM97.6728 46.2605C97.6728 46.9246 97.1977 47.2208 96.367 47.2208H92.9944V45.1021H96.367C97.1977 45.1021 97.6728 45.39 97.6728 46.0333V46.2605ZM106.029 46.6559H105.732V41.7449H104.318V48.3792H105.959L110.697 43.4682H110.982V48.3792H112.408V41.7449H110.755L106.029 46.6559ZM119.428 48.3792H120.843V42.9033H125.639V48.3792H127.053V41.7449H119.428V48.3792ZM134.509 41.6664H134.054C131.671 41.6664 129.791 42.8252 129.791 44.8932V45.2305C129.791 47.3196 131.669 48.4577 134.054 48.4577H134.509C136.851 48.4577 138.711 47.3196 138.711 45.2305V44.8932C138.711 42.8248 136.851 41.6664 134.509 41.6664ZM137.258 45.2305C137.258 46.538 136.14 47.2411 134.45 47.2411H134.056C132.365 47.2411 131.237 46.538 131.237 45.2305V44.8932C131.237 43.6069 132.365 42.883 134.056 42.883H134.45C136.14 42.883 137.258 43.6044 137.258 44.8932V45.2305ZM149.045 41.7449H142.102V43.0524C142.102 45.429 141.954 46.4179 141.489 47.2204H140.637V49.7647H141.983V48.3792H148.667V49.7647H150.023V47.2204H149.043V41.7449H149.045ZM147.622 47.2204H142.894C143.28 46.4283 143.418 45.4871 143.418 43.0524V42.9033H147.622V47.2204ZM157.373 41.7449H152.389V48.3792H153.802V46.062H157.373C159.183 46.062 159.964 45.3297 159.964 44.033V43.7448C159.964 42.4975 159.183 41.7449 157.373 41.7449ZM158.509 43.9936C158.509 44.676 158.034 44.9036 157.204 44.9036H153.802V42.9033H157.204C158.034 42.9033 158.509 43.1413 158.509 43.7843V43.9936ZM162.355 43.7843V44.0227C162.355 45.0714 162.959 45.6857 163.967 45.9237L162.039 48.3792H163.562L165.411 46.0412H168.595V48.3792H170.019V41.7449H165.074C163.403 41.7449 162.355 42.3987 162.355 43.7843ZM168.595 44.9327H165.074C164.254 44.9327 163.799 44.6453 163.799 43.9832V43.8154C163.799 43.1621 164.254 42.856 165.074 42.856H168.595V44.9347V44.9327ZM180.779 41.7449H173.835V43.0524C173.835 45.429 173.687 46.4179 173.222 47.2204H172.371V49.7647H173.716V48.3792H180.401V49.7647H181.756V47.2204H180.777V41.7449H180.779ZM179.355 47.2204H174.627C175.013 46.4283 175.152 45.4871 175.152 43.0524V42.9033H179.355V47.2204ZM189.749 44.7445C189.216 44.8334 188.571 44.8828 187.949 44.8828H187.505C186.18 44.8828 185.211 44.5954 185.211 43.4682V41.7449H183.787V43.3481C183.787 45.5162 185.242 46.0312 187.507 46.0312H187.844C188.526 46.0312 189.129 46.0105 189.753 45.9029V48.3792H191.177V41.7449H189.753V44.7445H189.749ZM195.781 46.6559H195.483V41.7449H194.07V48.3792H195.711L200.449 43.4682H200.736V48.3792H202.16V41.7449H200.509L195.781 46.6559ZM208.131 44.7861L212.74 41.7449H210.882L206.807 44.428H206.47V41.7449H205.065V48.3792H206.47V45.576H206.885L210.9 48.3792H212.828L208.131 45.1108V44.7861Z" fill="white"/>
</g>
</g>
</g>
<defs>
<clipPath id="clip0_34_956">
<rect width="212.654" height="46.9335" fill="white"/>
</clipPath>
<clipPath id="clip1_34_956">
<rect width="213" height="9" fill="white" transform="translate(-0.172852 37.4668)"/>
</clipPath>
<clipPath id="clip2_34_956">
<rect width="213" height="29" fill="white" transform="translate(0.00292969 3.4668)"/>
</clipPath>
<clipPath id="clip3_34_956">
<rect width="213" height="34" fill="white" transform="translate(0.00292969 0.466797)"/>
</clipPath>
</defs>
</svg>
