<svg width="249" height="50" viewBox="0 0 249 50" fill="none" xmlns="http://www.w3.org/2000/svg">
<g clip-path="url(#clip0_34_1018)">
<path d="M10.6484 27.34C10.6484 24.9773 9.07323 23.0645 6.93554 22.502V16.2015V13.7263V12.9387C7.83562 12.9387 8.51068 13.6137 8.51068 14.5138C8.51068 14.7388 8.7357 14.9638 8.96071 14.9638H12.2235C12.4485 14.9638 12.6735 14.7388 12.6735 14.5138C12.6735 13.6137 13.3486 12.9387 14.2487 12.9387C14.4737 12.9387 14.6987 12.7137 14.6987 12.4887V4.61292C14.6987 4.38789 14.4737 4.16288 14.2487 4.16288C13.3486 4.16288 12.6735 3.48782 12.6735 2.58773C12.6735 2.36272 12.4485 2.13769 12.2235 2.13769H8.96071C8.7357 2.13769 8.51068 2.36272 8.51068 2.58773C8.51068 3.48782 7.83562 4.16288 6.93554 4.16288V3.26279V1.1251C6.93554 0.562551 6.4855 0 5.81044 0H5.36039C4.79785 0 4.23529 0.450041 4.23529 1.1251V22.502C2.0976 23.0645 0.522461 25.0898 0.522461 27.34C0.522461 30.1527 2.77266 32.4029 5.58542 32.4029C8.39817 32.4029 10.6484 30.1527 10.6484 27.34ZM8.6232 10.6885V6.41308C8.6232 5.73802 9.18574 5.17547 9.8608 5.17547H11.3234C11.9985 5.17547 12.561 5.73802 12.561 6.41308V10.6885C12.561 11.3635 11.9985 11.926 11.3234 11.926H9.8608C9.18574 12.0385 8.6232 11.476 8.6232 10.6885ZM5.58542 29.8151C4.23529 29.8151 3.2227 28.6901 3.2227 27.4525C3.2227 26.1023 4.34781 25.0898 5.58542 25.0898C6.93554 25.0898 7.94813 26.2148 7.94813 27.4525C7.94813 28.6901 6.93554 29.8151 5.58542 29.8151Z" fill="white" fill-opacity="0.7"/>
<path d="M21.5617 24.5279H22.7993C23.0243 24.5279 23.2493 24.3029 23.2493 24.0778V22.1652C23.2493 21.9402 23.0243 21.7152 22.7993 21.7152C21.8992 21.7152 21.2242 21.0401 21.2242 20.14C21.2242 19.915 20.9991 19.69 20.774 19.69H17.5112C17.2862 19.69 17.0612 19.915 17.0612 20.14C17.0612 21.0401 16.3862 21.7152 15.5986 21.7152V20.815V18.6774C15.5986 18.1149 15.1486 17.5522 14.4736 17.5522H14.0235C13.4609 17.5522 12.8984 18.0024 12.8984 18.6774V40.0543C10.7607 40.6169 9.18555 42.6421 9.18555 44.8922C9.18555 47.705 11.4358 49.9552 14.2485 49.9552C17.0612 49.9552 19.3115 47.705 19.3115 44.8922C19.3115 42.5296 17.7364 40.6169 15.5986 40.0543V33.7537V31.2785V30.4909C16.4987 30.4909 17.0612 31.2785 17.0612 32.0661C17.0612 32.2911 17.2862 32.5162 17.5112 32.5162H20.774C20.9991 32.5162 21.2242 32.2911 21.2242 32.0661C21.2242 31.166 21.8992 30.4909 22.7993 30.4909C23.0243 30.4909 23.2493 30.2659 23.2493 30.0409V28.1282C23.2493 27.9032 23.0243 27.6782 22.7993 27.6782H21.5617C21.3367 27.6782 21.1117 27.9032 21.1117 28.1282V28.2407C21.1117 28.9158 20.549 29.4784 19.874 29.4784H18.4114C17.7364 29.4784 17.1737 28.9158 17.1737 28.2407V23.9653C17.1737 23.2903 17.7364 22.7278 18.4114 22.7278H19.874C20.549 22.7278 21.1117 23.2903 21.1117 23.9653V24.0778C21.1117 24.3029 21.2242 24.5279 21.5617 24.5279ZM16.4987 44.8922C16.4987 46.2424 15.3736 47.255 14.136 47.255C12.7859 47.255 11.7733 46.1299 11.7733 44.8922C11.7733 43.5421 12.8984 42.5296 14.136 42.5296C15.3736 42.5296 16.4987 43.6547 16.4987 44.8922Z" fill="white" fill-opacity="0.7"/>
</g>
<g clip-path="url(#clip1_34_1018)">
<path d="M53.8204 22.6746C53.8204 26.3559 51.1726 27.2926 47.9755 27.2926H46.2637V32.9107L47.4588 33.8151V34.6878H41.9365V33.8151L43.1959 32.9107V15.9899L42.1299 15.1829V14.3113H48.0398C51.1726 14.3113 53.8204 15.4731 53.8204 19.0576V22.6746ZM46.2637 16.184V25.5483H48.0398C49.945 25.5483 50.6558 24.4834 50.6558 22.6746V19.0576C50.6558 17.249 50.009 16.184 48.0723 16.184H46.2637Z" fill="white"/>
<path d="M57.4996 34.7194L57.7905 33.2659C59.5013 33.8476 60.1799 33.4277 60.7933 31.8134L61.6649 29.4879L56.6602 15.7315L55.4326 15.1822V14.3431H57.4346C59.4373 14.3431 59.7282 14.3105 60.2124 15.6024L63.3442 24.9675L66.283 15.6989L65.282 15.1507V14.3431H69.3509V15.1507L68.3824 15.7315C66.4773 21.2212 64.6686 26.9695 62.7309 32.4592C61.8268 35.0744 59.9216 35.8171 57.4996 34.7194Z" fill="white"/>
<path d="M83.1696 19.9618H80.005V19.4125C80.005 17.6041 79.4884 16.1189 77.454 16.1189C76.1946 16.1189 74.9029 16.9581 74.9029 19.51V29.5845C74.9029 32.0064 75.8711 33.0075 77.518 33.0075C79.585 33.0075 80.1657 31.8131 80.1657 29.8104V28.7129H83.3628V29.8428C83.3628 33.4599 80.8125 35.0101 77.5505 35.0101C74.3212 35.0101 71.7383 33.3308 71.7383 29.5845V19.51C71.7383 16.0223 73.902 14.1172 77.3563 14.1172C78.5515 14.1172 79.8434 14.3428 80.7475 15.2147H80.8125L81.0702 14.2462H83.1696V19.9618Z" fill="white"/>
<path d="M98.3464 19.9618H95.1819V19.4125C95.1819 17.6041 94.6651 16.1189 92.6305 16.1189C91.3714 16.1189 90.0795 16.9581 90.0795 19.51V29.5845C90.0795 32.0064 91.048 33.0075 92.6948 33.0075C94.7616 33.0075 95.3427 31.8131 95.3427 29.8104V28.7129H98.5397V29.8428C98.5397 33.4599 95.9895 35.0101 92.7274 35.0101C89.4988 35.0101 86.915 33.3308 86.915 29.5845V19.51C86.915 16.0223 89.0786 14.1172 92.533 14.1172C93.7284 14.1172 95.02 14.3428 95.9244 15.2147H95.9895L96.2468 14.2462H98.3464V19.9618Z" fill="white"/>
<path d="M114.298 15.473C113.297 15.473 113.039 15.9898 112.684 16.9265C112.135 18.3793 111.068 23.1263 109.938 23.514V23.578C111.392 23.7073 112.2 25.5483 112.586 27.3894L113.49 31.619C113.685 32.5231 114.298 33.4916 115.137 33.2983L115.105 34.4935C114.556 34.816 113.685 34.881 113.168 34.881C111.263 34.9127 110.584 33.7185 110.262 32.0715L109.422 28.0027C109.066 26.2269 108.453 24.7733 106.677 24.7733H105.805V32.9109L107.065 33.8151V34.6867H101.51V33.8151L102.738 32.9109V15.9898L101.672 15.1822V14.3105H106.839V15.1822L105.805 15.9898V23.0623C109.648 23.0623 108.033 15.1181 112.005 14.3756C112.748 14.2462 113.588 14.3431 114.298 14.3105V15.473Z" fill="white"/>
<path d="M125.308 14.343H130.442V15.1822L129.442 15.9898V32.9109L130.636 33.8475V34.6868H125.114V33.8475L126.341 32.9109C126.341 28.8096 126.309 24.0633 126.309 19.9935L125.179 23.7073L121.659 32.9434L122.821 33.8475V34.6868H117.3V33.8475L118.494 32.9109V15.9898L117.493 15.1822V14.343H122.628V15.1822L121.627 15.9898V29.2938L122.725 25.645L126.341 16.0538C126.018 15.7639 125.663 15.473 125.308 15.1822V14.343Z" fill="white"/>
<path d="M133.671 34.6868V33.8149L134.93 32.9107V15.8931L133.864 15.0854V14.3103H144.263V18.8633H142.745L141.905 16.1189H138.095V23.6431H140.742L141.55 22.0603H142.454V26.9693H141.55L140.742 25.4833H138.095V31.7806C138.095 32.2649 137.965 32.5232 137.449 32.6848V32.8456H142.26L143.294 30.1338H144.65V34.6868H133.671Z" fill="white"/>
<path d="M165.169 20.0961H161.983V19.5432C161.983 17.7231 161.464 16.2279 159.415 16.2279C158.147 16.2279 156.847 17.0727 156.847 19.6408V29.7831C156.847 32.2212 157.822 33.2294 159.48 33.2294C161.56 33.2294 162.145 32.0261 162.145 30.0107V28.9059H165.364V30.0433C165.364 33.6847 162.796 35.2446 159.512 35.2446C156.262 35.2446 153.66 33.5546 153.66 29.7831V19.6408C153.66 16.1303 155.838 14.2126 159.317 14.2126C160.52 14.2126 161.821 14.4392 162.73 15.3173H162.796L163.056 14.3427H165.169V20.0961Z" fill="white"/>
<path d="M168.663 34.9195V34.0421L169.931 33.1316V16.0002L168.859 15.1872V14.4075H179.326V18.9904H177.799L176.952 16.2278H173.117V23.8015H175.783L176.596 22.209H177.506V27.1504H176.596L175.783 25.6544H173.117V31.9933C173.117 32.4811 172.987 32.7412 172.468 32.9039V33.0666H177.311L178.351 30.3357H179.717V34.9195H168.663Z" fill="white"/>
<path d="M190.376 24.1921C193.041 24.6473 193.398 25.7846 193.398 28.1254V30.3682C193.398 33.7812 191.383 35.2773 188.068 35.2773C184.655 35.2773 182.866 33.7497 182.866 30.3682V29.0674H185.987V30.3682C185.987 31.831 186.182 33.2619 188.068 33.2619C189.66 33.2619 190.214 31.7985 190.214 30.3682V28.1254C190.214 26.6627 189.726 25.4269 188.002 25.4269C187.678 25.3944 186.898 25.4269 186.572 25.4269V23.0539H187.905C189.465 23.0539 190.018 21.8838 190.018 20.4865C190.018 19.9336 190.05 19.3157 190.018 18.6977C189.954 17.3327 189.563 16.0653 188.068 16.0653C186.28 16.0653 186.117 17.2026 186.117 18.6652V19.6734H183.094V18.6652C183.094 15.3173 184.818 14.0498 188.068 14.0498C191.253 14.0498 193.107 15.4149 193.107 18.6977V20.8106C193.107 22.5993 192.261 23.8344 190.376 24.1596V24.1921Z" fill="white"/>
<path d="M209.13 29.7509C209.13 33.0663 206.789 35.2116 203.181 35.2116C199.574 35.2116 197.266 33.0337 197.266 29.7509V19.5438C197.266 16.26 199.574 14.082 203.181 14.082C206.789 14.082 209.13 16.2275 209.13 19.5438V29.7509ZM200.451 29.7509C200.451 31.9939 201.296 33.1639 203.181 33.1639C205.067 33.1639 205.945 31.6036 205.945 29.7509V19.5438C205.945 17.6576 205.067 16.1299 203.181 16.1299C201.296 16.1299 200.451 17.2681 200.451 19.5438V29.7509Z" fill="white"/>
<path d="M213.972 16.0971L212.931 15.285V14.407H218.133V15.285L217.092 16.0971V23.5745H221.644V16.0971L220.603 15.285V14.407H225.773V15.285L224.732 16.0971V33.2936L225.999 34.0416V34.9187H220.441V34.0416L221.644 33.2936V25.3296H217.092V33.2936L218.327 34.0416V34.9187H212.736V34.0416L213.972 33.2936V16.0971Z" fill="white"/>
<path d="M240.95 30.1731C240.95 33.7809 238.285 34.9192 235.133 34.9192H229.184V34.0736L230.256 33.2616V16.2276L228.988 15.317V14.439H234.547V15.317L233.345 16.2276V22.144H235.067C238.285 22.144 240.95 23.0871 240.95 26.7926V30.1731ZM237.766 30.1731V26.7926C237.766 24.9723 237.051 23.9316 235.133 23.9316H233.345V33.0666H235.165C237.115 33.0666 237.766 31.9933 237.766 30.1731ZM247.225 33.1316L248.428 34.0421V34.9192H242.868V34.0421L244.137 33.1316V16.0975L243.096 15.2845V14.4075H248.265V15.2845L247.225 16.0975V33.1316Z" fill="white"/>
</g>
<defs>
<clipPath id="clip0_34_1018">
<rect width="23.9368" height="49.955" fill="white"/>
</clipPath>
<clipPath id="clip1_34_1018">
<rect width="207.105" height="21.8553" fill="white" transform="translate(41.6289 14.0498)"/>
</clipPath>
</defs>
</svg>
