<svg width="45" height="45" viewBox="0 0 45 45" fill="none" xmlns="http://www.w3.org/2000/svg">
<path opacity="0.2" d="M38.0625 22.5C38.0625 25.578 37.1498 28.5868 35.4397 31.1461C33.7297 33.7053 31.2992 35.7 28.4555 36.8779C25.6118 38.0558 22.4827 38.364 19.4639 37.7635C16.4451 37.163 13.6721 35.6808 11.4957 33.5044C9.3192 31.3279 7.83702 28.5549 7.23654 25.5361C6.63605 22.5173 6.94424 19.3882 8.12213 16.5445C9.30002 13.7008 11.2947 11.2703 13.8539 9.56026C16.4132 7.85023 19.422 6.9375 22.5 6.9375C26.6274 6.9375 30.5858 8.57712 33.5044 11.4957C36.4229 14.4142 38.0625 18.3726 38.0625 22.5Z" fill="#DC8B12"/>
<path d="M26.3906 22.5C26.3906 23.2695 26.1624 24.0217 25.7349 24.6615C25.3074 25.3013 24.6998 25.8 23.9889 26.0945C23.278 26.3889 22.4957 26.466 21.741 26.3159C20.9863 26.1657 20.293 25.7952 19.7489 25.2511C19.2048 24.707 18.8343 24.0137 18.6841 23.259C18.534 22.5043 18.6111 21.722 18.9055 21.0111C19.2 20.3002 19.6987 19.6926 20.3385 19.2651C20.9783 18.8376 21.7305 18.6094 22.5 18.6094C23.5319 18.6094 24.5215 19.0193 25.2511 19.7489C25.9807 20.4785 26.3906 21.4681 26.3906 22.5Z" fill="#DC8B12"/>
</svg>
