<svg width="1061" height="1058" viewBox="0 0 1061 1058" fill="none" xmlns="http://www.w3.org/2000/svg">
<path d="M544.713 526.474C545.384 526.474 545.929 525.93 545.929 525.258C545.929 524.587 545.384 524.042 544.713 524.042C544.041 524.042 543.497 524.587 543.497 525.258C543.497 525.93 544.041 526.474 544.713 526.474Z" fill="#DC8B12"/>
<path d="M544.713 533.769C545.384 533.769 545.929 533.225 545.929 532.553C545.929 531.882 545.384 531.337 544.713 531.337C544.041 531.337 543.497 531.882 543.497 532.553C543.497 533.225 544.041 533.769 544.713 533.769Z" fill="#DC8B12"/>
<path d="M539.847 538.633C540.518 538.633 541.063 538.088 541.063 537.417C541.063 536.745 540.518 536.201 539.847 536.201C539.175 536.201 538.631 536.745 538.631 537.417C538.631 538.088 539.175 538.633 539.847 538.633Z" fill="#DC8B12"/>
<path opacity="0.99" d="M532.553 543.496C533.225 543.496 533.769 542.952 533.769 542.28C533.769 541.609 533.225 541.064 532.553 541.064C531.882 541.064 531.337 541.609 531.337 542.28C531.337 542.952 531.882 543.496 532.553 543.496Z" fill="#DC8B12"/>
<path opacity="0.99" d="M522.826 541.065C523.497 541.065 524.042 540.52 524.042 539.849C524.042 539.177 523.497 538.633 522.826 538.633C522.154 538.633 521.61 539.177 521.61 539.849C521.61 540.52 522.154 541.065 522.826 541.065Z" fill="#DC8B12"/>
<path opacity="0.99" d="M515.53 533.769C516.202 533.769 516.746 533.225 516.746 532.553C516.746 531.882 516.202 531.337 515.53 531.337C514.859 531.337 514.314 531.882 514.314 532.553C514.314 533.225 514.859 533.769 515.53 533.769Z" fill="#DC8B12"/>
<path opacity="0.99" d="M513.1 524.042C513.771 524.042 514.316 523.497 514.316 522.826C514.316 522.154 513.771 521.61 513.1 521.61C512.428 521.61 511.884 522.154 511.884 522.826C511.884 523.497 512.428 524.042 513.1 524.042Z" fill="#DC8B12"/>
<path opacity="0.98" d="M515.53 514.316C516.202 514.316 516.746 513.771 516.746 513.1C516.746 512.428 516.202 511.884 515.53 511.884C514.859 511.884 514.314 512.428 514.314 513.1C514.314 513.771 514.859 514.316 515.53 514.316Z" fill="#DC8B12"/>
<path opacity="0.98" d="M522.826 504.588C523.497 504.588 524.042 504.044 524.042 503.372C524.042 502.701 523.497 502.156 522.826 502.156C522.154 502.156 521.61 502.701 521.61 503.372C521.61 504.044 522.154 504.588 522.826 504.588Z" fill="#DC8B12"/>
<path opacity="0.98" d="M534.984 502.157C535.655 502.157 536.2 501.612 536.2 500.941C536.2 500.269 535.655 499.725 534.984 499.725C534.312 499.725 533.768 500.269 533.768 500.941C533.768 501.612 534.312 502.157 534.984 502.157Z" fill="#DC8B12"/>
<path opacity="0.98" d="M549.576 507.02C550.248 507.02 550.792 506.475 550.792 505.804C550.792 505.132 550.248 504.588 549.576 504.588C548.905 504.588 548.36 505.132 548.36 505.804C548.36 506.475 548.905 507.02 549.576 507.02Z" fill="#DC8B12"/>
<path opacity="0.97" d="M556.871 516.747C557.543 516.747 558.087 516.203 558.087 515.531C558.087 514.86 557.543 514.315 556.871 514.315C556.2 514.315 555.655 514.86 555.655 515.531C555.655 516.203 556.2 516.747 556.871 516.747Z" fill="#DC8B12"/>
<path opacity="0.97" d="M559.302 531.337C559.973 531.337 560.518 530.793 560.518 530.121C560.518 529.45 559.973 528.906 559.302 528.906C558.63 528.906 558.086 529.45 558.086 530.121C558.086 530.793 558.63 531.337 559.302 531.337Z" fill="#DC8B12"/>
<path opacity="0.97" d="M554.439 545.928C555.111 545.928 555.655 545.383 555.655 544.712C555.655 544.04 555.111 543.496 554.439 543.496C553.768 543.496 553.223 544.04 553.223 544.712C553.223 545.383 553.768 545.928 554.439 545.928Z" fill="#DC8B12"/>
<path opacity="0.97" d="M542.279 555.655C542.951 555.655 543.495 555.11 543.495 554.439C543.495 553.767 542.951 553.223 542.279 553.223C541.608 553.223 541.063 553.767 541.063 554.439C541.063 555.11 541.608 555.655 542.279 555.655Z" fill="#DC8B12"/>
<path opacity="0.97" d="M525.258 558.086C525.929 558.086 526.474 557.542 526.474 556.87C526.474 556.199 525.929 555.655 525.258 555.655C524.586 555.655 524.042 556.199 524.042 556.87C524.042 557.542 524.586 558.086 525.258 558.086Z" fill="#DC8B12"/>
<path opacity="0.96" d="M508.237 550.792C508.908 550.792 509.453 550.247 509.453 549.576C509.453 548.904 508.908 548.36 508.237 548.36C507.565 548.36 507.021 548.904 507.021 549.576C507.021 550.247 507.565 550.792 508.237 550.792Z" fill="#DC8B12"/>
<path opacity="0.96" d="M498.507 533.769C499.179 533.769 499.723 533.225 499.723 532.553C499.723 531.882 499.179 531.337 498.507 531.337C497.836 531.337 497.292 531.882 497.292 532.553C497.292 533.225 497.836 533.769 498.507 533.769Z" fill="#DC8B12"/>
<path opacity="0.96" d="M498.507 516.747C499.179 516.747 499.723 516.203 499.723 515.531C499.723 514.86 499.179 514.315 498.507 514.315C497.836 514.315 497.292 514.86 497.292 515.531C497.292 516.203 497.836 516.747 498.507 516.747Z" fill="#DC8B12"/>
<path opacity="0.96" d="M508.237 499.724C508.908 499.724 509.453 499.18 509.453 498.508C509.453 497.837 508.908 497.292 508.237 497.292C507.565 497.292 507.021 497.837 507.021 498.508C507.021 499.18 507.565 499.724 508.237 499.724Z" fill="#DC8B12"/>
<path opacity="0.95" d="M525.258 489.998C525.929 489.998 526.474 489.454 526.474 488.782C526.474 488.111 525.929 487.566 525.258 487.566C524.586 487.566 524.042 488.111 524.042 488.782C524.042 489.454 524.586 489.998 525.258 489.998Z" fill="#DC8B12"/>
<path opacity="0.95" d="M547.144 489.998C547.815 489.998 548.359 489.454 548.359 488.782C548.359 488.111 547.815 487.566 547.144 487.566C546.472 487.566 545.928 488.111 545.928 488.782C545.928 489.454 546.472 489.998 547.144 489.998Z" fill="#DC8B12"/>
<path opacity="0.95" d="M564.166 500.941C565.509 500.941 566.597 499.852 566.597 498.509C566.597 497.166 565.509 496.077 564.166 496.077C562.823 496.077 561.734 497.166 561.734 498.509C561.734 499.852 562.823 500.941 564.166 500.941Z" fill="#DC8B12"/>
<path opacity="0.95" d="M573.893 520.394C575.236 520.394 576.325 519.305 576.325 517.962C576.325 516.619 575.236 515.531 573.893 515.531C572.55 515.531 571.461 516.619 571.461 517.962C571.461 519.305 572.55 520.394 573.893 520.394Z" fill="#DC8B12"/>
<path opacity="0.94" d="M573.893 544.712C575.236 544.712 576.325 543.623 576.325 542.28C576.325 540.937 575.236 539.848 573.893 539.848C572.55 539.848 571.461 540.937 571.461 542.28C571.461 543.623 572.55 544.712 573.893 544.712Z" fill="#DC8B12"/>
<path opacity="0.94" d="M559.301 564.166C560.644 564.166 561.733 563.077 561.733 561.734C561.733 560.391 560.644 559.302 559.301 559.302C557.958 559.302 556.869 560.391 556.869 561.734C556.869 563.077 557.958 564.166 559.301 564.166Z" fill="#DC8B12"/>
<path opacity="0.94" d="M537.417 573.893C538.76 573.893 539.848 572.804 539.848 571.461C539.848 570.118 538.76 569.03 537.417 569.03C536.074 569.03 534.985 570.118 534.985 571.461C534.985 572.804 536.074 573.893 537.417 573.893Z" fill="#DC8B12"/>
<path opacity="0.94" d="M513.099 571.461C514.442 571.461 515.53 570.373 515.53 569.03C515.53 567.687 514.442 566.598 513.099 566.598C511.756 566.598 510.667 567.687 510.667 569.03C510.667 570.373 511.756 571.461 513.099 571.461Z" fill="#DC8B12"/>
<path opacity="0.94" d="M491.214 554.439C492.557 554.439 493.646 553.35 493.646 552.007C493.646 550.664 492.557 549.575 491.214 549.575C489.871 549.575 488.783 550.664 488.783 552.007C488.783 553.35 489.871 554.439 491.214 554.439Z" fill="#DC8B12"/>
<path opacity="0.93" d="M481.485 530.121C482.828 530.121 483.917 529.033 483.917 527.69C483.917 526.347 482.828 525.258 481.485 525.258C480.142 525.258 479.053 526.347 479.053 527.69C479.053 529.033 480.142 530.121 481.485 530.121Z" fill="#DC8B12"/>
<path opacity="0.93" d="M486.35 503.372C487.693 503.372 488.781 502.283 488.781 500.94C488.781 499.597 487.693 498.509 486.35 498.509C485.007 498.509 483.918 499.597 483.918 500.94C483.918 502.283 485.007 503.372 486.35 503.372Z" fill="#DC8B12"/>
<path opacity="0.93" d="M505.803 481.486C507.146 481.486 508.235 480.398 508.235 479.055C508.235 477.712 507.146 476.623 505.803 476.623C504.46 476.623 503.372 477.712 503.372 479.055C503.372 480.398 504.46 481.486 505.803 481.486Z" fill="#DC8B12"/>
<path opacity="0.93" d="M532.554 474.191C533.897 474.191 534.986 473.103 534.986 471.76C534.986 470.417 533.897 469.328 532.554 469.328C531.211 469.328 530.122 470.417 530.122 471.76C530.122 473.103 531.211 474.191 532.554 474.191Z" fill="#DC8B12"/>
<path opacity="0.92" d="M561.733 479.055C563.076 479.055 564.165 477.966 564.165 476.623C564.165 475.28 563.076 474.191 561.733 474.191C560.39 474.191 559.301 475.28 559.301 476.623C559.301 477.966 560.39 479.055 561.733 479.055Z" fill="#DC8B12"/>
<path opacity="0.92" d="M583.619 500.941C584.962 500.941 586.051 499.852 586.051 498.509C586.051 497.166 584.962 496.077 583.619 496.077C582.276 496.077 581.188 497.166 581.188 498.509C581.188 499.852 582.276 500.941 583.619 500.941Z" fill="#DC8B12"/>
<path opacity="0.92" d="M590.914 530.121C592.257 530.121 593.346 529.033 593.346 527.69C593.346 526.347 592.257 525.258 590.914 525.258C589.571 525.258 588.482 526.347 588.482 527.69C588.482 529.033 589.571 530.121 590.914 530.121Z" fill="#DC8B12"/>
<path opacity="0.92" d="M581.189 561.734C582.532 561.734 583.62 560.646 583.62 559.303C583.62 557.96 582.532 556.871 581.189 556.871C579.846 556.871 578.757 557.96 578.757 559.303C578.757 560.646 579.846 561.734 581.189 561.734Z" fill="#DC8B12"/>
<path opacity="0.91" d="M559.301 583.62C560.644 583.62 561.733 582.532 561.733 581.189C561.733 579.846 560.644 578.757 559.301 578.757C557.958 578.757 556.869 579.846 556.869 581.189C556.869 582.532 557.958 583.62 559.301 583.62Z" fill="#DC8B12"/>
<path opacity="0.91" d="M525.258 588.483C526.601 588.483 527.69 587.395 527.69 586.052C527.69 584.709 526.601 583.62 525.258 583.62C523.915 583.62 522.827 584.709 522.827 586.052C522.827 587.395 523.915 588.483 525.258 588.483Z" fill="#DC8B12"/>
<path opacity="0.91" d="M493.645 578.756C494.988 578.756 496.077 577.667 496.077 576.324C496.077 574.981 494.988 573.893 493.645 573.893C492.302 573.893 491.213 574.981 491.213 576.324C491.213 577.667 492.302 578.756 493.645 578.756Z" fill="#DC8B12"/>
<path opacity="0.91" d="M471.759 552.007C473.102 552.007 474.191 550.919 474.191 549.576C474.191 548.233 473.102 547.144 471.759 547.144C470.416 547.144 469.327 548.233 469.327 549.576C469.327 550.919 470.416 552.007 471.759 552.007Z" fill="#DC8B12"/>
<path opacity="0.91" d="M466.896 517.963C468.239 517.963 469.328 516.874 469.328 515.531C469.328 514.188 468.239 513.099 466.896 513.099C465.553 513.099 464.464 514.188 464.464 515.531C464.464 516.874 465.553 517.963 466.896 517.963Z" fill="#DC8B12"/>
<path opacity="0.9" d="M481.485 483.918C482.828 483.918 483.917 482.829 483.917 481.486C483.917 480.143 482.828 479.054 481.485 479.054C480.142 479.054 479.053 480.143 479.053 481.486C479.053 482.829 480.142 483.918 481.485 483.918Z" fill="#DC8B12"/>
<path opacity="0.9" d="M510.666 462.033C512.009 462.033 513.098 460.944 513.098 459.601C513.098 458.258 512.009 457.169 510.666 457.169C509.323 457.169 508.234 458.258 508.234 459.601C508.234 460.944 509.323 462.033 510.666 462.033Z" fill="#DC8B12"/>
<path opacity="0.9" d="M547.143 459.6C548.486 459.6 549.574 458.512 549.574 457.169C549.574 455.826 548.486 454.737 547.143 454.737C545.8 454.737 544.711 455.826 544.711 457.169C544.711 458.512 545.8 459.6 547.143 459.6Z" fill="#DC8B12"/>
<path opacity="0.9" d="M581.189 474.191C582.532 474.191 583.62 473.103 583.62 471.76C583.62 470.417 582.532 469.328 581.189 469.328C579.846 469.328 578.757 470.417 578.757 471.76C578.757 473.103 579.846 474.191 581.189 474.191Z" fill="#DC8B12"/>
<path opacity="0.89" d="M603.072 505.804C604.415 505.804 605.504 504.715 605.504 503.372C605.504 502.029 604.415 500.94 603.072 500.94C601.729 500.94 600.641 502.029 600.641 503.372C600.641 504.715 601.729 505.804 603.072 505.804Z" fill="#DC8B12"/>
<path opacity="0.89" d="M603.072 544.712C604.415 544.712 605.504 543.623 605.504 542.28C605.504 540.937 604.415 539.848 603.072 539.848C601.729 539.848 600.641 540.937 600.641 542.28C600.641 543.623 601.729 544.712 603.072 544.712Z" fill="#DC8B12"/>
<path opacity="0.89" d="M586.051 581.188C587.394 581.188 588.483 580.099 588.483 578.756C588.483 577.413 587.394 576.324 586.051 576.324C584.708 576.324 583.62 577.413 583.62 578.756C583.62 580.099 584.708 581.188 586.051 581.188Z" fill="#DC8B12"/>
<path opacity="0.89" d="M552.007 603.074C553.35 603.074 554.439 601.985 554.439 600.642C554.439 599.299 553.35 598.21 552.007 598.21C550.664 598.21 549.576 599.299 549.576 600.642C549.576 601.985 550.664 603.074 552.007 603.074Z" fill="#DC8B12"/>
<path opacity="0.88" d="M510.666 603.074C512.009 603.074 513.098 601.985 513.098 600.642C513.098 599.299 512.009 598.21 510.666 598.21C509.323 598.21 508.234 599.299 508.234 600.642C508.234 601.985 509.323 603.074 510.666 603.074Z" fill="#DC8B12"/>
<path opacity="0.88" d="M474.19 581.188C475.533 581.188 476.621 580.099 476.621 578.756C476.621 577.413 475.533 576.324 474.19 576.324C472.847 576.324 471.758 577.413 471.758 578.756C471.758 580.099 472.847 581.188 474.19 581.188Z" fill="#DC8B12"/>
<path opacity="0.88" d="M454.738 542.28C456.081 542.28 457.17 541.191 457.17 539.848C457.17 538.505 456.081 537.417 454.738 537.417C453.395 537.417 452.306 538.505 452.306 539.848C452.306 541.191 453.395 542.28 454.738 542.28Z" fill="#DC8B12"/>
<path opacity="0.88" d="M454.738 500.941C456.081 500.941 457.17 499.852 457.17 498.509C457.17 497.166 456.081 496.077 454.738 496.077C453.395 496.077 452.306 497.166 452.306 498.509C452.306 499.852 453.395 500.941 454.738 500.941Z" fill="#DC8B12"/>
<path opacity="0.88" d="M479.054 464.464C480.397 464.464 481.486 463.375 481.486 462.032C481.486 460.689 480.397 459.601 479.054 459.601C477.711 459.601 476.623 460.689 476.623 462.032C476.623 463.375 477.711 464.464 479.054 464.464Z" fill="#DC8B12"/>
<path opacity="0.87" d="M520.394 445.01C521.737 445.01 522.825 443.921 522.825 442.578C522.825 441.235 521.737 440.147 520.394 440.147C519.051 440.147 517.962 441.235 517.962 442.578C517.962 443.921 519.051 445.01 520.394 445.01Z" fill="#DC8B12"/>
<path opacity="0.87" d="M566.596 447.442C567.939 447.442 569.028 446.353 569.028 445.01C569.028 443.667 567.939 442.578 566.596 442.578C565.253 442.578 564.165 443.667 564.165 445.01C564.165 446.353 565.253 447.442 566.596 447.442Z" fill="#DC8B12"/>
<path opacity="0.87" d="M603.072 476.623C604.415 476.623 605.504 475.534 605.504 474.191C605.504 472.848 604.415 471.76 603.072 471.76C601.729 471.76 600.641 472.848 600.641 474.191C600.641 475.534 601.729 476.623 603.072 476.623Z" fill="#DC8B12"/>
<path opacity="0.87" d="M620.096 520.394C621.439 520.394 622.528 519.305 622.528 517.962C622.528 516.619 621.439 515.531 620.096 515.531C618.753 515.531 617.664 516.619 617.664 517.962C617.664 519.305 618.753 520.394 620.096 520.394Z" fill="#DC8B12"/>
<path opacity="0.86" d="M612.802 566.597C614.145 566.597 615.234 565.509 615.234 564.166C615.234 562.823 614.145 561.734 612.802 561.734C611.459 561.734 610.37 562.823 610.37 564.166C610.37 565.509 611.459 566.597 612.802 566.597Z" fill="#DC8B12"/>
<path opacity="0.86" d="M583.619 603.074C584.962 603.074 586.051 601.985 586.051 600.642C586.051 599.299 584.962 598.21 583.619 598.21C582.276 598.21 581.188 599.299 581.188 600.642C581.188 601.985 582.276 603.074 583.619 603.074Z" fill="#DC8B12"/>
<path opacity="0.86" d="M537.417 620.096C538.76 620.096 539.848 619.008 539.848 617.665C539.848 616.322 538.76 615.233 537.417 615.233C536.074 615.233 534.985 616.322 534.985 617.665C534.985 619.008 536.074 620.096 537.417 620.096Z" fill="#DC8B12"/>
<path opacity="0.86" d="M488.782 610.369C490.125 610.369 491.214 609.281 491.214 607.938C491.214 606.595 490.125 605.506 488.782 605.506C487.439 605.506 486.35 606.595 486.35 607.938C486.35 609.281 487.439 610.369 488.782 610.369Z" fill="#DC8B12"/>
<path opacity="0.85" d="M449.873 576.325C451.216 576.325 452.305 575.236 452.305 573.893C452.305 572.55 451.216 571.461 449.873 571.461C448.53 571.461 447.441 572.55 447.441 573.893C447.441 575.236 448.53 576.325 449.873 576.325Z" fill="#DC8B12"/>
<path opacity="0.85" d="M435.283 527.69C436.626 527.69 437.715 526.601 437.715 525.258C437.715 523.915 436.626 522.826 435.283 522.826C433.94 522.826 432.851 523.915 432.851 525.258C432.851 526.601 433.94 527.69 435.283 527.69Z" fill="#DC8B12"/>
<path opacity="0.85" d="M449.873 476.623C451.216 476.623 452.305 475.534 452.305 474.191C452.305 472.848 451.216 471.76 449.873 471.76C448.53 471.76 447.441 472.848 447.441 474.191C447.441 475.534 448.53 476.623 449.873 476.623Z" fill="#DC8B12"/>
<path opacity="0.85" d="M486.35 441.363C488.365 441.363 489.998 439.729 489.998 437.715C489.998 435.7 488.365 434.067 486.35 434.067C484.336 434.067 482.703 435.7 482.703 437.715C482.703 439.729 484.336 441.363 486.35 441.363Z" fill="#DC8B12"/>
<path opacity="0.85" d="M537.416 429.204C539.43 429.204 541.063 427.57 541.063 425.556C541.063 423.541 539.43 421.908 537.416 421.908C535.401 421.908 533.768 423.541 533.768 425.556C533.768 427.57 535.401 429.204 537.416 429.204Z" fill="#DC8B12"/>
<path opacity="0.84" d="M588.483 443.794C590.497 443.794 592.13 442.161 592.13 440.146C592.13 438.132 590.497 436.499 588.483 436.499C586.468 436.499 584.835 438.132 584.835 440.146C584.835 442.161 586.468 443.794 588.483 443.794Z" fill="#DC8B12"/>
<path opacity="0.84" d="M624.959 485.134C626.974 485.134 628.607 483.501 628.607 481.487C628.607 479.472 626.974 477.839 624.959 477.839C622.945 477.839 621.312 479.472 621.312 481.487C621.312 483.501 622.945 485.134 624.959 485.134Z" fill="#DC8B12"/>
<path opacity="0.84" d="M637.119 538.632C639.133 538.632 640.766 536.999 640.766 534.985C640.766 532.97 639.133 531.337 637.119 531.337C635.104 531.337 633.471 532.97 633.471 534.985C633.471 536.999 635.104 538.632 637.119 538.632Z" fill="#DC8B12"/>
<path opacity="0.84" d="M617.664 592.131C619.678 592.131 621.311 590.498 621.311 588.484C621.311 586.469 619.678 584.836 617.664 584.836C615.649 584.836 614.016 586.469 614.016 588.484C614.016 590.498 615.649 592.131 617.664 592.131Z" fill="#DC8B12"/>
<path opacity="0.83" d="M573.892 628.608C575.906 628.608 577.539 626.975 577.539 624.96C577.539 622.946 575.906 621.312 573.892 621.312C571.877 621.312 570.244 622.946 570.244 624.96C570.244 626.975 571.877 628.608 573.892 628.608Z" fill="#DC8B12"/>
<path opacity="0.83" d="M515.531 635.902C517.546 635.902 519.179 634.269 519.179 632.255C519.179 630.24 517.546 628.607 515.531 628.607C513.517 628.607 511.884 630.24 511.884 632.255C511.884 634.269 513.517 635.902 515.531 635.902Z" fill="#DC8B12"/>
<path opacity="0.83" d="M462.032 614.016C464.046 614.016 465.68 612.383 465.68 610.369C465.68 608.354 464.046 606.721 462.032 606.721C460.017 606.721 458.384 608.354 458.384 610.369C458.384 612.383 460.017 614.016 462.032 614.016Z" fill="#DC8B12"/>
<path opacity="0.83" d="M427.988 565.382C430.002 565.382 431.636 563.748 431.636 561.734C431.636 559.719 430.002 558.086 427.988 558.086C425.973 558.086 424.34 559.719 424.34 561.734C424.34 563.748 425.973 565.382 427.988 565.382Z" fill="#DC8B12"/>
<path opacity="0.82" d="M423.125 507.02C425.14 507.02 426.773 505.387 426.773 503.372C426.773 501.358 425.14 499.725 423.125 499.725C421.111 499.725 419.478 501.358 419.478 503.372C419.478 505.387 421.111 507.02 423.125 507.02Z" fill="#DC8B12"/>
<path opacity="0.82" d="M449.874 453.521C451.888 453.521 453.521 451.888 453.521 449.873C453.521 447.859 451.888 446.226 449.874 446.226C447.859 446.226 446.226 447.859 446.226 449.873C446.226 451.888 447.859 453.521 449.874 453.521Z" fill="#DC8B12"/>
<path opacity="0.82" d="M498.508 419.476C500.523 419.476 502.156 417.843 502.156 415.829C502.156 413.814 500.523 412.181 498.508 412.181C496.494 412.181 494.861 413.814 494.861 415.829C494.861 417.843 496.494 419.476 498.508 419.476Z" fill="#DC8B12"/>
<path opacity="0.82" d="M561.734 417.045C563.748 417.045 565.381 415.412 565.381 413.397C565.381 411.383 563.748 409.75 561.734 409.75C559.719 409.75 558.086 411.383 558.086 413.397C558.086 415.412 559.719 417.045 561.734 417.045Z" fill="#DC8B12"/>
<path opacity="0.82" d="M615.232 446.227C617.246 446.227 618.879 444.593 618.879 442.579C618.879 440.564 617.246 438.931 615.232 438.931C613.217 438.931 611.584 440.564 611.584 442.579C611.584 444.593 613.217 446.227 615.232 446.227Z" fill="#DC8B12"/>
<path opacity="0.81" d="M646.845 499.725C648.859 499.725 650.493 498.091 650.493 496.077C650.493 494.062 648.859 492.429 646.845 492.429C644.83 492.429 643.197 494.062 643.197 496.077C643.197 498.091 644.83 499.725 646.845 499.725Z" fill="#DC8B12"/>
<path opacity="0.81" d="M646.845 562.95C648.859 562.95 650.493 561.317 650.493 559.302C650.493 557.288 648.859 555.655 646.845 555.655C644.83 555.655 643.197 557.288 643.197 559.302C643.197 561.317 644.83 562.95 646.845 562.95Z" fill="#DC8B12"/>
<path opacity="0.81" d="M612.801 618.88C614.815 618.88 616.449 617.247 616.449 615.233C616.449 613.218 614.815 611.585 612.801 611.585C610.786 611.585 609.153 613.218 609.153 615.233C609.153 617.247 610.786 618.88 612.801 618.88Z" fill="#DC8B12"/>
<path opacity="0.81" d="M556.871 648.061C558.885 648.061 560.518 646.428 560.518 644.414C560.518 642.399 558.885 640.766 556.871 640.766C554.856 640.766 553.223 642.399 553.223 644.414C553.223 646.428 554.856 648.061 556.871 648.061Z" fill="#DC8B12"/>
<path opacity="0.8" d="M491.213 645.629C493.228 645.629 494.861 643.996 494.861 641.982C494.861 639.967 493.228 638.334 491.213 638.334C489.199 638.334 487.565 639.967 487.565 641.982C487.565 643.996 489.199 645.629 491.213 645.629Z" fill="#DC8B12"/>
<path opacity="0.8" d="M435.283 609.153C437.298 609.153 438.931 607.52 438.931 605.506C438.931 603.491 437.298 601.858 435.283 601.858C433.269 601.858 431.636 603.491 431.636 605.506C431.636 607.52 433.269 609.153 435.283 609.153Z" fill="#DC8B12"/>
<path opacity="0.8" d="M408.533 545.928C410.547 545.928 412.181 544.295 412.181 542.28C412.181 540.266 410.547 538.633 408.533 538.633C406.518 538.633 404.885 540.266 404.885 542.28C404.885 544.295 406.518 545.928 408.533 545.928Z" fill="#DC8B12"/>
<path opacity="0.8" d="M415.828 480.27C417.842 480.27 419.475 478.637 419.475 476.623C419.475 474.608 417.842 472.975 415.828 472.975C413.813 472.975 412.18 474.608 412.18 476.623C412.18 478.637 413.813 480.27 415.828 480.27Z" fill="#DC8B12"/>
<path opacity="0.79" d="M457.167 424.34C459.182 424.34 460.815 422.707 460.815 420.693C460.815 418.678 459.182 417.045 457.167 417.045C455.153 417.045 453.52 418.678 453.52 420.693C453.52 422.707 455.153 424.34 457.167 424.34Z" fill="#DC8B12"/>
<path opacity="0.79" d="M520.394 400.023C522.409 400.023 524.042 398.39 524.042 396.375C524.042 394.361 522.409 392.728 520.394 392.728C518.38 392.728 516.747 394.361 516.747 396.375C516.747 398.39 518.38 400.023 520.394 400.023Z" fill="#DC8B12"/>
<path opacity="0.79" d="M588.483 409.75C590.497 409.75 592.13 408.117 592.13 406.103C592.13 404.088 590.497 402.455 588.483 402.455C586.468 402.455 584.835 404.088 584.835 406.103C584.835 408.117 586.468 409.75 588.483 409.75Z" fill="#DC8B12"/>
<path opacity="0.79" d="M644.414 455.953C646.429 455.953 648.062 454.32 648.062 452.305C648.062 450.29 646.429 448.657 644.414 448.657C642.4 448.657 640.767 450.29 640.767 452.305C640.767 454.32 642.4 455.953 644.414 455.953Z" fill="#DC8B12"/>
<path opacity="0.79" d="M666.299 521.61C668.313 521.61 669.946 519.977 669.946 517.963C669.946 515.948 668.313 514.315 666.299 514.315C664.284 514.315 662.651 515.948 662.651 517.963C662.651 519.977 664.284 521.61 666.299 521.61Z" fill="#DC8B12"/>
<path opacity="0.78" d="M651.708 592.131C653.723 592.131 655.356 590.498 655.356 588.484C655.356 586.469 653.723 584.836 651.708 584.836C649.694 584.836 648.061 586.469 648.061 588.484C648.061 590.498 649.694 592.131 651.708 592.131Z" fill="#DC8B12"/>
<path opacity="0.78" d="M603.073 645.629C605.088 645.629 606.721 643.996 606.721 641.982C606.721 639.967 605.088 638.334 603.073 638.334C601.059 638.334 599.426 639.967 599.426 641.982C599.426 643.996 601.059 645.629 603.073 645.629Z" fill="#DC8B12"/>
<path opacity="0.78" d="M532.552 667.515C534.567 667.515 536.2 665.882 536.2 663.868C536.2 661.853 534.567 660.22 532.552 660.22C530.538 660.22 528.905 661.853 528.905 663.868C528.905 665.882 530.538 667.515 532.552 667.515Z" fill="#DC8B12"/>
<path opacity="0.78" d="M459.6 648.061C461.614 648.061 463.247 646.428 463.247 644.414C463.247 642.399 461.614 640.766 459.6 640.766C457.585 640.766 455.952 642.399 455.952 644.414C455.952 646.428 457.585 648.061 459.6 648.061Z" fill="#DC8B12"/>
<path opacity="0.77" d="M408.533 594.563C410.547 594.563 412.181 592.93 412.181 590.915C412.181 588.901 410.547 587.268 408.533 587.268C406.518 587.268 404.885 588.901 404.885 590.915C404.885 592.93 406.518 594.563 408.533 594.563Z" fill="#DC8B12"/>
<path opacity="0.77" d="M391.511 521.61C393.526 521.61 395.159 519.977 395.159 517.963C395.159 515.948 393.526 514.315 391.511 514.315C389.497 514.315 387.864 515.948 387.864 517.963C387.864 519.977 389.497 521.61 391.511 521.61Z" fill="#DC8B12"/>
<path opacity="0.77" d="M413.397 448.658C415.412 448.658 417.045 447.025 417.045 445.01C417.045 442.996 415.412 441.363 413.397 441.363C411.383 441.363 409.75 442.996 409.75 445.01C409.75 447.025 411.383 448.658 413.397 448.658Z" fill="#DC8B12"/>
<path opacity="0.77" d="M471.759 397.591C473.774 397.591 475.407 395.958 475.407 393.944C475.407 391.929 473.774 390.296 471.759 390.296C469.745 390.296 468.112 391.929 468.112 393.944C468.112 395.958 469.745 397.591 471.759 397.591Z" fill="#DC8B12"/>
<path opacity="0.76" d="M547.145 383C549.159 383 550.792 381.367 550.792 379.352C550.792 377.338 549.159 375.705 547.145 375.705C545.13 375.705 543.497 377.338 543.497 379.352C543.497 381.367 545.13 383 547.145 383Z" fill="#DC8B12"/>
<path opacity="0.76" d="M620.096 409.75C622.11 409.75 623.743 408.117 623.743 406.103C623.743 404.088 622.11 402.455 620.096 402.455C618.081 402.455 616.448 404.088 616.448 406.103C616.448 408.117 618.081 409.75 620.096 409.75Z" fill="#DC8B12"/>
<path opacity="0.76" d="M671.161 472.976C673.176 472.976 674.809 471.342 674.809 469.328C674.809 467.313 673.176 465.68 671.161 465.68C669.147 465.68 667.514 467.313 667.514 469.328C667.514 471.342 669.147 472.976 671.161 472.976Z" fill="#DC8B12"/>
<path opacity="0.76" d="M680.891 550.791C682.905 550.791 684.538 549.158 684.538 547.144C684.538 545.129 682.905 543.496 680.891 543.496C678.876 543.496 677.243 545.129 677.243 547.144C677.243 549.158 678.876 550.791 680.891 550.791Z" fill="#DC8B12"/>
<path opacity="0.76" d="M649.278 626.175C651.292 626.175 652.925 624.542 652.925 622.528C652.925 620.513 651.292 618.88 649.278 618.88C647.263 618.88 645.63 620.513 645.63 622.528C645.63 624.542 647.263 626.175 649.278 626.175Z" fill="#DC8B12"/>
<path opacity="0.75" d="M583.62 672.379C585.634 672.379 587.267 670.746 587.267 668.731C587.267 666.717 585.634 665.083 583.62 665.083C581.605 665.083 579.972 666.717 579.972 668.731C579.972 670.746 581.605 672.379 583.62 672.379Z" fill="#DC8B12"/>
<path opacity="0.75" d="M500.939 679.674C502.954 679.674 504.587 678.041 504.587 676.027C504.587 674.012 502.954 672.379 500.939 672.379C498.925 672.379 497.292 674.012 497.292 676.027C497.292 678.041 498.925 679.674 500.939 679.674Z" fill="#DC8B12"/>
<path opacity="0.75" d="M427.987 644.414C430.673 644.414 432.85 642.236 432.85 639.55C432.85 636.864 430.673 634.687 427.987 634.687C425.301 634.687 423.123 636.864 423.123 639.55C423.123 642.236 425.301 644.414 427.987 644.414Z" fill="#DC8B12"/>
<path opacity="0.75" d="M381.784 573.893C384.47 573.893 386.648 571.715 386.648 569.029C386.648 566.343 384.47 564.166 381.784 564.166C379.098 564.166 376.921 566.343 376.921 569.029C376.921 571.715 379.098 573.893 381.784 573.893Z" fill="#DC8B12"/>
<path opacity="0.74" d="M379.352 491.214C382.038 491.214 384.216 489.036 384.216 486.35C384.216 483.664 382.038 481.487 379.352 481.487C376.666 481.487 374.489 483.664 374.489 486.35C374.489 489.036 376.666 491.214 379.352 491.214Z" fill="#DC8B12"/>
<path opacity="0.74" d="M420.693 415.829C423.379 415.829 425.557 413.651 425.557 410.965C425.557 408.279 423.379 406.102 420.693 406.102C418.007 406.102 415.83 408.279 415.83 410.965C415.83 413.651 418.007 415.829 420.693 415.829Z" fill="#DC8B12"/>
<path opacity="0.74" d="M493.646 374.489C496.332 374.489 498.51 372.312 498.51 369.626C498.51 366.94 496.332 364.762 493.646 364.762C490.96 364.762 488.783 366.94 488.783 369.626C488.783 372.312 490.96 374.489 493.646 374.489Z" fill="#DC8B12"/>
<path opacity="0.74" d="M581.188 374.489C583.874 374.489 586.051 372.312 586.051 369.626C586.051 366.94 583.874 364.762 581.188 364.762C578.502 364.762 576.324 366.94 576.324 369.626C576.324 372.312 578.502 374.489 581.188 374.489Z" fill="#DC8B12"/>
<path opacity="0.73" d="M654.141 420.693C656.827 420.693 659.004 418.515 659.004 415.829C659.004 413.143 656.827 410.966 654.141 410.966C651.455 410.966 649.277 413.143 649.277 415.829C649.277 418.515 651.455 420.693 654.141 420.693Z" fill="#DC8B12"/>
<path opacity="0.73" d="M693.048 498.508C695.734 498.508 697.912 496.331 697.912 493.645C697.912 490.959 695.734 488.781 693.048 488.781C690.362 488.781 688.185 490.959 688.185 493.645C688.185 496.331 690.362 498.508 693.048 498.508Z" fill="#DC8B12"/>
<path opacity="0.73" d="M688.185 586.051C690.871 586.051 693.048 583.874 693.048 581.188C693.048 578.502 690.871 576.324 688.185 576.324C685.499 576.324 683.321 578.502 683.321 581.188C683.321 583.874 685.499 586.051 688.185 586.051Z" fill="#DC8B12"/>
<path opacity="0.73" d="M637.118 659.004C639.804 659.004 641.981 656.826 641.981 654.14C641.981 651.454 639.804 649.277 637.118 649.277C634.432 649.277 632.254 651.454 632.254 654.14C632.254 656.826 634.432 659.004 637.118 659.004Z" fill="#DC8B12"/>
<path opacity="0.73" d="M556.87 697.912C559.556 697.912 561.733 695.735 561.733 693.049C561.733 690.363 559.556 688.185 556.87 688.185C554.184 688.185 552.006 690.363 552.006 693.049C552.006 695.735 554.184 697.912 556.87 697.912Z" fill="#DC8B12"/>
<path opacity="0.72" d="M466.896 685.754C469.582 685.754 471.759 683.576 471.759 680.89C471.759 678.204 469.582 676.027 466.896 676.027C464.21 676.027 462.032 678.204 462.032 680.89C462.032 683.576 464.21 685.754 466.896 685.754Z" fill="#DC8B12"/>
<path opacity="0.72" d="M393.943 632.255C396.629 632.255 398.806 630.077 398.806 627.391C398.806 624.705 396.629 622.528 393.943 622.528C391.257 622.528 389.079 624.705 389.079 627.391C389.079 630.077 391.257 632.255 393.943 632.255Z" fill="#DC8B12"/>
<path opacity="0.72" d="M359.899 547.144C362.585 547.144 364.762 544.966 364.762 542.28C364.762 539.594 362.585 537.417 359.899 537.417C357.213 537.417 355.035 539.594 355.035 542.28C355.035 544.966 357.213 547.144 359.899 547.144Z" fill="#DC8B12"/>
<path opacity="0.72" d="M376.922 454.738C379.608 454.738 381.785 452.56 381.785 449.874C381.785 447.188 379.608 445.011 376.922 445.011C374.236 445.011 372.058 447.188 372.058 449.874C372.058 452.56 374.236 454.738 376.922 454.738Z" fill="#DC8B12"/>
<path opacity="0.71" d="M435.282 384.217C437.968 384.217 440.145 382.039 440.145 379.353C440.145 376.667 437.968 374.49 435.282 374.49C432.596 374.49 430.418 376.667 430.418 379.353C430.418 382.039 432.596 384.217 435.282 384.217Z" fill="#DC8B12"/>
<path opacity="0.71" d="M525.256 355.035C527.942 355.035 530.12 352.858 530.12 350.172C530.12 347.486 527.942 345.308 525.256 345.308C522.57 345.308 520.393 347.486 520.393 350.172C520.393 352.858 522.57 355.035 525.256 355.035Z" fill="#DC8B12"/>
<path opacity="0.71" d="M617.664 374.489C620.35 374.489 622.528 372.312 622.528 369.626C622.528 366.94 620.35 364.762 617.664 364.762C614.978 364.762 612.801 366.94 612.801 369.626C612.801 372.312 614.978 374.489 617.664 374.489Z" fill="#DC8B12"/>
<path opacity="0.71" d="M685.753 437.715C688.439 437.715 690.616 435.537 690.616 432.851C690.616 430.165 688.439 427.988 685.753 427.988C683.067 427.988 680.889 430.165 680.889 432.851C680.889 435.537 683.067 437.715 685.753 437.715Z" fill="#DC8B12"/>
<path opacity="0.7" d="M712.503 530.122C715.189 530.122 717.367 527.944 717.367 525.258C717.367 522.572 715.189 520.395 712.503 520.395C709.817 520.395 707.64 522.572 707.64 525.258C707.64 527.944 709.817 530.122 712.503 530.122Z" fill="#DC8B12"/>
<path opacity="0.7" d="M688.185 624.96C690.871 624.96 693.048 622.782 693.048 620.096C693.048 617.41 690.871 615.233 688.185 615.233C685.499 615.233 683.321 617.41 683.321 620.096C683.321 622.782 685.499 624.96 688.185 624.96Z" fill="#DC8B12"/>
<path opacity="0.7" d="M617.664 690.617C620.35 690.617 622.528 688.439 622.528 685.753C622.528 683.067 620.35 680.89 617.664 680.89C614.978 680.89 612.801 683.067 612.801 685.753C612.801 688.439 614.978 690.617 617.664 690.617Z" fill="#DC8B12"/>
<path opacity="0.7" d="M522.825 714.935C525.511 714.935 527.689 712.757 527.689 710.071C527.689 707.385 525.511 705.208 522.825 705.208C520.139 705.208 517.962 707.385 517.962 710.071C517.962 712.757 520.139 714.935 522.825 714.935Z" fill="#DC8B12"/>
<path opacity="0.7" d="M427.987 683.321C430.673 683.321 432.85 681.144 432.85 678.458C432.85 675.772 430.673 673.594 427.987 673.594C425.301 673.594 423.123 675.772 423.123 678.458C423.123 681.144 425.301 683.321 427.987 683.321Z" fill="#DC8B12"/>
<path opacity="0.69" d="M362.331 607.937C365.017 607.937 367.194 605.76 367.194 603.074C367.194 600.388 365.017 598.21 362.331 598.21C359.645 598.21 357.467 600.388 357.467 603.074C357.467 605.76 359.645 607.937 362.331 607.937Z" fill="#DC8B12"/>
<path opacity="0.69" d="M345.308 510.667C347.994 510.667 350.171 508.49 350.171 505.804C350.171 503.118 347.994 500.94 345.308 500.94C342.622 500.94 340.444 503.118 340.444 505.804C340.444 508.49 342.622 510.667 345.308 510.667Z" fill="#DC8B12"/>
<path opacity="0.69" d="M381.784 415.829C384.47 415.829 386.648 413.651 386.648 410.965C386.648 408.279 384.47 406.102 381.784 406.102C379.098 406.102 376.921 408.279 376.921 410.965C376.921 413.651 379.098 415.829 381.784 415.829Z" fill="#DC8B12"/>
<path opacity="0.69" d="M459.6 352.603C462.286 352.603 464.464 350.426 464.464 347.74C464.464 345.054 462.286 342.876 459.6 342.876C456.914 342.876 454.737 345.054 454.737 347.74C454.737 350.426 456.914 352.603 459.6 352.603Z" fill="#DC8B12"/>
<path opacity="0.68" d="M561.733 340.445C564.419 340.445 566.596 338.267 566.596 335.581C566.596 332.895 564.419 330.718 561.733 330.718C559.047 330.718 556.869 332.895 556.869 335.581C556.869 338.267 559.047 340.445 561.733 340.445Z" fill="#DC8B12"/>
<path opacity="0.68" d="M656.573 381.785C659.259 381.785 661.436 379.608 661.436 376.922C661.436 374.236 659.259 372.058 656.573 372.058C653.887 372.058 651.709 374.236 651.709 376.922C651.709 379.608 653.887 381.785 656.573 381.785Z" fill="#DC8B12"/>
<path opacity="0.68" d="M717.366 464.464C720.052 464.464 722.229 462.286 722.229 459.6C722.229 456.914 720.052 454.737 717.366 454.737C714.68 454.737 712.502 456.914 712.502 459.6C712.502 462.286 714.68 464.464 717.366 464.464Z" fill="#DC8B12"/>
<path opacity="0.68" d="M724.661 569.029C727.347 569.029 729.525 566.852 729.525 564.166C729.525 561.48 727.347 559.302 724.661 559.302C721.975 559.302 719.798 561.48 719.798 564.166C719.798 566.852 721.975 569.029 724.661 569.029Z" fill="#DC8B12"/>
<path opacity="0.68" d="M678.457 663.868C681.143 663.868 683.321 661.69 683.321 659.004C683.321 656.318 681.143 654.141 678.457 654.141C675.771 654.141 673.594 656.318 673.594 659.004C673.594 661.69 675.771 663.868 678.457 663.868Z" fill="#DC8B12"/>
<path opacity="0.67" d="M588.483 719.798C591.169 719.798 593.347 717.62 593.347 714.934C593.347 712.248 591.169 710.071 588.483 710.071C585.797 710.071 583.62 712.248 583.62 714.934C583.62 717.62 585.797 719.798 588.483 719.798Z" fill="#DC8B12"/>
<path opacity="0.67" d="M483.917 724.662C486.603 724.662 488.78 722.484 488.78 719.798C488.78 717.112 486.603 714.935 483.917 714.935C481.231 714.935 479.053 717.112 479.053 719.798C479.053 722.484 481.231 724.662 483.917 724.662Z" fill="#DC8B12"/>
<path opacity="0.67" d="M389.08 671.163C391.766 671.163 393.943 668.985 393.943 666.299C393.943 663.613 391.766 661.436 389.08 661.436C386.394 661.436 384.216 663.613 384.216 666.299C384.216 668.985 386.394 671.163 389.08 671.163Z" fill="#DC8B12"/>
<path opacity="0.67" d="M335.582 578.757C338.268 578.757 340.446 576.579 340.446 573.893C340.446 571.207 338.268 569.03 335.582 569.03C332.896 569.03 330.719 571.207 330.719 573.893C330.719 576.579 332.896 578.757 335.582 578.757Z" fill="#DC8B12"/>
<path opacity="0.66" d="M338.012 469.328C340.698 469.328 342.876 467.15 342.876 464.464C342.876 461.778 340.698 459.601 338.012 459.601C335.326 459.601 333.149 461.778 333.149 464.464C333.149 467.15 335.326 469.328 338.012 469.328Z" fill="#DC8B12"/>
<path opacity="0.66" d="M396.375 376.921C399.061 376.921 401.239 374.744 401.239 372.058C401.239 369.372 399.061 367.194 396.375 367.194C393.689 367.194 391.512 369.372 391.512 372.058C391.512 374.744 393.689 376.921 396.375 376.921Z" fill="#DC8B12"/>
<path opacity="0.66" d="M493.646 328.286C496.332 328.286 498.51 326.108 498.51 323.422C498.51 320.736 496.332 318.559 493.646 318.559C490.96 318.559 488.783 320.736 488.783 323.422C488.783 326.108 490.96 328.286 493.646 328.286Z" fill="#DC8B12"/>
<path opacity="0.66" d="M603.074 335.582C605.76 335.582 607.937 333.404 607.937 330.718C607.937 328.032 605.76 325.855 603.074 325.855C600.388 325.855 598.21 328.032 598.21 330.718C598.21 333.404 600.388 335.582 603.074 335.582Z" fill="#DC8B12"/>
<path opacity="0.65" d="M695.48 398.807C698.166 398.807 700.344 396.629 700.344 393.943C700.344 391.257 698.166 389.08 695.48 389.08C692.794 389.08 690.617 391.257 690.617 393.943C690.617 396.629 692.794 398.807 695.48 398.807Z" fill="#DC8B12"/>
<path opacity="0.65" d="M741.684 500.94C744.37 500.94 746.548 498.763 746.548 496.077C746.548 493.391 744.37 491.213 741.684 491.213C738.998 491.213 736.821 493.391 736.821 496.077C736.821 498.763 738.998 500.94 741.684 500.94Z" fill="#DC8B12"/>
<path opacity="0.65" d="M727.093 614.017C730.45 614.017 733.172 611.295 733.172 607.938C733.172 604.58 730.45 601.858 727.093 601.858C723.735 601.858 721.013 604.58 721.013 607.938C721.013 611.295 723.735 614.017 727.093 614.017Z" fill="#DC8B12"/>
<path opacity="0.65" d="M659.004 703.991C662.362 703.991 665.084 701.269 665.084 697.912C665.084 694.554 662.362 691.833 659.004 691.833C655.647 691.833 652.925 694.554 652.925 697.912C652.925 701.269 655.647 703.991 659.004 703.991Z" fill="#DC8B12"/>
<path opacity="0.65" d="M552.007 745.331C555.365 745.331 558.086 742.61 558.086 739.252C558.086 735.894 555.365 733.173 552.007 733.173C548.65 733.173 545.928 735.894 545.928 739.252C545.928 742.61 548.65 745.331 552.007 745.331Z" fill="#DC8B12"/>
<path opacity="0.64" d="M440.147 725.877C443.505 725.877 446.227 723.155 446.227 719.798C446.227 716.44 443.505 713.719 440.147 713.719C436.79 713.719 434.068 716.44 434.068 719.798C434.068 723.155 436.79 725.877 440.147 725.877Z" fill="#DC8B12"/>
<path opacity="0.64" d="M352.604 650.493C355.961 650.493 358.683 647.771 358.683 644.414C358.683 641.056 355.961 638.334 352.604 638.334C349.246 638.334 346.524 641.056 346.524 644.414C346.524 647.771 349.246 650.493 352.604 650.493Z" fill="#DC8B12"/>
<path opacity="0.64" d="M313.695 541.064C317.053 541.064 319.774 538.342 319.774 534.985C319.774 531.627 317.053 528.906 313.695 528.906C310.338 528.906 307.616 531.627 307.616 534.985C307.616 538.342 310.338 541.064 313.695 541.064Z" fill="#DC8B12"/>
<path opacity="0.64" d="M340.444 426.772C343.801 426.772 346.523 424.051 346.523 420.693C346.523 417.335 343.801 414.614 340.444 414.614C337.086 414.614 334.364 417.335 334.364 420.693C334.364 424.051 337.086 426.772 340.444 426.772Z" fill="#DC8B12"/>
<path opacity="0.63" d="M420.692 341.661C424.05 341.661 426.772 338.939 426.772 335.582C426.772 332.224 424.05 329.502 420.692 329.502C417.335 329.502 414.613 332.224 414.613 335.582C414.613 338.939 417.335 341.661 420.692 341.661Z" fill="#DC8B12"/>
<path opacity="0.63" d="M534.984 310.048C538.342 310.048 541.064 307.326 541.064 303.969C541.064 300.611 538.342 297.889 534.984 297.889C531.627 297.889 528.905 300.611 528.905 303.969C528.905 307.326 531.627 310.048 534.984 310.048Z" fill="#DC8B12"/>
<path opacity="0.63" d="M649.277 339.229C652.634 339.229 655.356 336.507 655.356 333.149C655.356 329.792 652.634 327.07 649.277 327.07C645.919 327.07 643.197 329.792 643.197 333.149C643.197 336.507 645.919 339.229 649.277 339.229Z" fill="#DC8B12"/>
<path opacity="0.63" d="M731.957 426.772C735.315 426.772 738.037 424.051 738.037 420.693C738.037 417.335 735.315 414.614 731.957 414.614C728.6 414.614 725.878 417.335 725.878 420.693C725.878 424.051 728.6 426.772 731.957 426.772Z" fill="#DC8B12"/>
<path opacity="0.62" d="M758.706 543.496C762.063 543.496 764.785 540.774 764.785 537.417C764.785 534.059 762.063 531.337 758.706 531.337C755.348 531.337 752.626 534.059 752.626 537.417C752.626 540.774 755.348 543.496 758.706 543.496Z" fill="#DC8B12"/>
<path opacity="0.62" d="M719.799 657.789C723.157 657.789 725.878 655.067 725.878 651.709C725.878 648.352 723.157 645.63 719.799 645.63C716.442 645.63 713.72 648.352 713.72 651.709C713.72 655.067 716.442 657.789 719.799 657.789Z" fill="#DC8B12"/>
<path opacity="0.62" d="M629.822 738.036C633.179 738.036 635.901 735.314 635.901 731.957C635.901 728.599 633.179 725.877 629.822 725.877C626.464 725.877 623.742 728.599 623.742 731.957C623.742 735.314 626.464 738.036 629.822 738.036Z" fill="#DC8B12"/>
<path opacity="0.62" d="M508.236 759.922C511.593 759.922 514.315 757.2 514.315 753.843C514.315 750.485 511.593 747.763 508.236 747.763C504.878 747.763 502.156 750.485 502.156 753.843C502.156 757.2 504.878 759.922 508.236 759.922Z" fill="#DC8B12"/>
<path opacity="0.62" d="M393.943 716.15C397.301 716.15 400.023 713.428 400.023 710.071C400.023 706.713 397.301 703.991 393.943 703.991C390.586 703.991 387.864 706.713 387.864 710.071C387.864 713.428 390.586 716.15 393.943 716.15Z" fill="#DC8B12"/>
<path opacity="0.61" d="M316.127 618.88C319.485 618.88 322.207 616.158 322.207 612.801C322.207 609.443 319.485 606.721 316.127 606.721C312.77 606.721 310.048 609.443 310.048 612.801C310.048 616.158 312.77 618.88 316.127 618.88Z" fill="#DC8B12"/>
<path opacity="0.61" d="M301.537 494.861C304.894 494.861 307.616 492.139 307.616 488.782C307.616 485.424 304.894 482.702 301.537 482.702C298.179 482.702 295.458 485.424 295.458 488.782C295.458 492.139 298.179 494.861 301.537 494.861Z" fill="#DC8B12"/>
<path opacity="0.61" d="M352.604 380.569C355.961 380.569 358.683 377.847 358.683 374.49C358.683 371.132 355.961 368.41 352.604 368.41C349.246 368.41 346.524 371.132 346.524 374.49C346.524 377.847 349.246 380.569 352.604 380.569Z" fill="#DC8B12"/>
<path opacity="0.61" d="M454.736 307.617C458.094 307.617 460.815 304.895 460.815 301.537C460.815 298.18 458.094 295.458 454.736 295.458C451.379 295.458 448.657 298.18 448.657 301.537C448.657 304.895 451.379 307.617 454.736 307.617Z" fill="#DC8B12"/>
<path opacity="0.6" d="M581.187 297.889C584.544 297.889 587.266 295.168 587.266 291.81C587.266 288.452 584.544 285.731 581.187 285.731C577.829 285.731 575.107 288.452 575.107 291.81C575.107 295.168 577.829 297.889 581.187 297.889Z" fill="#DC8B12"/>
<path opacity="0.6" d="M695.481 356.251C698.838 356.251 701.56 353.53 701.56 350.172C701.56 346.814 698.838 344.093 695.481 344.093C692.123 344.093 689.401 346.814 689.401 350.172C689.401 353.53 692.123 356.251 695.481 356.251Z" fill="#DC8B12"/>
<path opacity="0.6" d="M763.569 463.249C766.927 463.249 769.648 460.527 769.648 457.169C769.648 453.812 766.927 451.09 763.569 451.09C760.212 451.09 757.49 453.812 757.49 457.169C757.49 460.527 760.212 463.249 763.569 463.249Z" fill="#DC8B12"/>
<path opacity="0.6" d="M766.001 592.131C769.359 592.131 772.081 589.409 772.081 586.052C772.081 582.694 769.359 579.972 766.001 579.972C762.644 579.972 759.922 582.694 759.922 586.052C759.922 589.409 762.644 592.131 766.001 592.131Z" fill="#DC8B12"/>
<path opacity="0.59" d="M702.774 703.991C706.132 703.991 708.854 701.269 708.854 697.912C708.854 694.554 706.132 691.833 702.774 691.833C699.417 691.833 696.695 694.554 696.695 697.912C696.695 701.269 699.417 703.991 702.774 703.991Z" fill="#DC8B12"/>
<path opacity="0.59" d="M590.914 769.649C594.272 769.649 596.994 766.927 596.994 763.57C596.994 760.212 594.272 757.49 590.914 757.49C587.557 757.49 584.835 760.212 584.835 763.57C584.835 766.927 587.557 769.649 590.914 769.649Z" fill="#DC8B12"/>
<path opacity="0.59" d="M459.599 767.217C462.956 767.217 465.678 764.496 465.678 761.138C465.678 757.78 462.956 755.059 459.599 755.059C456.241 755.059 453.52 757.78 453.52 761.138C453.52 764.496 456.241 767.217 459.599 767.217Z" fill="#DC8B12"/>
<path opacity="0.59" d="M347.741 696.696C351.099 696.696 353.82 693.975 353.82 690.617C353.82 687.259 351.099 684.538 347.741 684.538C344.383 684.538 341.662 687.259 341.662 690.617C341.662 693.975 344.383 696.696 347.741 696.696Z" fill="#DC8B12"/>
<path opacity="0.59" d="M289.377 577.541C292.734 577.541 295.456 574.819 295.456 571.461C295.456 568.104 292.734 565.382 289.377 565.382C286.019 565.382 283.297 568.104 283.297 571.461C283.297 574.819 286.019 577.541 289.377 577.541Z" fill="#DC8B12"/>
<path opacity="0.58" d="M299.104 446.226C302.462 446.226 305.184 443.504 305.184 440.147C305.184 436.789 302.462 434.067 299.104 434.067C295.747 434.067 293.025 436.789 293.025 440.147C293.025 443.504 295.747 446.226 299.104 446.226Z" fill="#DC8B12"/>
<path opacity="0.58" d="M374.488 336.797C377.846 336.797 380.567 334.075 380.567 330.718C380.567 327.36 377.846 324.638 374.488 324.638C371.131 324.638 368.409 327.36 368.409 330.718C368.409 334.075 371.131 336.797 374.488 336.797Z" fill="#DC8B12"/>
<path opacity="0.58" d="M496.075 280.867C499.433 280.867 502.155 278.146 502.155 274.788C502.155 271.431 499.433 268.709 496.075 268.709C492.718 268.709 489.996 271.431 489.996 274.788C489.996 278.146 492.718 280.867 496.075 280.867Z" fill="#DC8B12"/>
<path opacity="0.58" d="M632.254 297.889C635.611 297.889 638.333 295.168 638.333 291.81C638.333 288.452 635.611 285.731 632.254 285.731C628.896 285.731 626.174 288.452 626.174 291.81C626.174 295.168 628.896 297.889 632.254 297.889Z" fill="#DC8B12"/>
<path opacity="0.57" d="M739.251 380.569C742.608 380.569 745.33 377.847 745.33 374.49C745.33 371.132 742.608 368.41 739.251 368.41C735.893 368.41 733.171 371.132 733.171 374.49C733.171 377.847 735.893 380.569 739.251 380.569Z" fill="#DC8B12"/>
<path opacity="0.57" d="M787.886 507.02C791.243 507.02 793.965 504.298 793.965 500.94C793.965 497.583 791.243 494.861 787.886 494.861C784.528 494.861 781.806 497.583 781.806 500.94C781.806 504.298 784.528 507.02 787.886 507.02Z" fill="#DC8B12"/>
<path opacity="0.57" d="M763.569 643.198C766.927 643.198 769.648 640.476 769.648 637.118C769.648 633.761 766.927 631.039 763.569 631.039C760.212 631.039 757.49 633.761 757.49 637.118C757.49 640.476 760.212 643.198 763.569 643.198Z" fill="#DC8B12"/>
<path opacity="0.57" d="M676.027 747.763C679.385 747.763 682.107 745.041 682.107 741.684C682.107 738.326 679.385 735.604 676.027 735.604C672.67 735.604 669.948 738.326 669.948 741.684C669.948 745.041 672.67 747.763 676.027 747.763Z" fill="#DC8B12"/>
<path opacity="0.56" d="M542.28 791.535C545.637 791.535 548.359 788.813 548.359 785.455C548.359 782.098 545.637 779.376 542.28 779.376C538.922 779.376 536.2 782.098 536.2 785.455C536.2 788.813 538.922 791.535 542.28 791.535Z" fill="#DC8B12"/>
<path opacity="0.56" d="M408.534 762.353C411.892 762.353 414.613 759.632 414.613 756.274C414.613 752.916 411.892 750.195 408.534 750.195C405.176 750.195 402.455 752.916 402.455 756.274C402.455 759.632 405.176 762.353 408.534 762.353Z" fill="#DC8B12"/>
<path opacity="0.56" d="M306.402 665.084C309.759 665.084 312.481 662.362 312.481 659.004C312.481 655.647 309.759 652.925 306.402 652.925C303.044 652.925 300.322 655.647 300.322 659.004C300.322 662.362 303.044 665.084 306.402 665.084Z" fill="#DC8B12"/>
<path opacity="0.56" d="M267.492 528.906C270.85 528.906 273.572 526.184 273.572 522.826C273.572 519.469 270.85 516.747 267.492 516.747C264.135 516.747 261.413 519.469 261.413 522.826C261.413 526.184 264.135 528.906 267.492 528.906Z" fill="#DC8B12"/>
<path opacity="0.56" d="M306.402 392.728C309.759 392.728 312.481 390.006 312.481 386.648C312.481 383.291 309.759 380.569 306.402 380.569C303.044 380.569 300.322 383.291 300.322 386.648C300.322 390.006 303.044 392.728 306.402 392.728Z" fill="#DC8B12"/>
<path opacity="0.55" d="M408.534 295.458C411.892 295.458 414.613 292.736 414.613 289.378C414.613 286.021 411.892 283.299 408.534 283.299C405.176 283.299 402.455 286.021 402.455 289.378C402.455 292.736 405.176 295.458 408.534 295.458Z" fill="#DC8B12"/>
<path opacity="0.55" d="M547.143 263.845C550.5 263.845 553.222 261.123 553.222 257.765C553.222 254.408 550.5 251.686 547.143 251.686C543.785 251.686 541.063 254.408 541.063 257.765C541.063 261.123 543.785 263.845 547.143 263.845Z" fill="#DC8B12"/>
<path opacity="0.55" d="M683.322 308.832C687.351 308.832 690.617 305.566 690.617 301.537C690.617 297.508 687.351 294.242 683.322 294.242C679.293 294.242 676.026 297.508 676.026 301.537C676.026 305.566 679.293 308.832 683.322 308.832Z" fill="#DC8B12"/>
<path opacity="0.55" d="M778.159 418.261C782.188 418.261 785.454 414.995 785.454 410.966C785.454 406.936 782.188 403.67 778.159 403.67C774.129 403.67 770.863 406.936 770.863 410.966C770.863 414.995 774.129 418.261 778.159 418.261Z" fill="#DC8B12"/>
<path opacity="0.54" d="M802.477 561.734C806.506 561.734 809.772 558.468 809.772 554.439C809.772 550.41 806.506 547.144 802.477 547.144C798.448 547.144 795.182 550.41 795.182 554.439C795.182 558.468 798.448 561.734 802.477 561.734Z" fill="#DC8B12"/>
<path opacity="0.54" d="M751.411 697.912C755.441 697.912 758.707 694.646 758.707 690.617C758.707 686.588 755.441 683.322 751.411 683.322C747.382 683.322 744.116 686.588 744.116 690.617C744.116 694.646 747.382 697.912 751.411 697.912Z" fill="#DC8B12"/>
<path opacity="0.54" d="M634.687 787.887C638.716 787.887 641.982 784.621 641.982 780.592C641.982 776.563 638.716 773.297 634.687 773.297C630.658 773.297 627.392 776.563 627.392 780.592C627.392 784.621 630.658 787.887 634.687 787.887Z" fill="#DC8B12"/>
<path opacity="0.54" d="M488.781 804.909C492.81 804.909 496.076 801.643 496.076 797.614C496.076 793.585 492.81 790.319 488.781 790.319C484.752 790.319 481.485 793.585 481.485 797.614C481.485 801.643 484.752 804.909 488.781 804.909Z" fill="#DC8B12"/>
<path opacity="0.53" d="M355.035 746.547C359.064 746.547 362.33 743.281 362.33 739.252C362.33 735.223 359.064 731.957 355.035 731.957C351.006 731.957 347.74 735.223 347.74 739.252C347.74 743.281 351.006 746.547 355.035 746.547Z" fill="#DC8B12"/>
<path opacity="0.53" d="M269.924 624.96C273.953 624.96 277.219 621.693 277.219 617.664C277.219 613.635 273.953 610.369 269.924 610.369C265.895 610.369 262.628 613.635 262.628 617.664C262.628 621.693 265.895 624.96 269.924 624.96Z" fill="#DC8B12"/>
<path opacity="0.53" d="M257.765 476.623C261.795 476.623 265.061 473.357 265.061 469.328C265.061 465.299 261.795 462.032 257.765 462.032C253.736 462.032 250.47 465.299 250.47 469.328C250.47 473.357 253.736 476.623 257.765 476.623Z" fill="#DC8B12"/>
<path opacity="0.53" d="M325.855 342.877C329.884 342.877 333.151 339.61 333.151 335.581C333.151 331.552 329.884 328.286 325.855 328.286C321.826 328.286 318.56 331.552 318.56 335.581C318.56 339.61 321.826 342.877 325.855 342.877Z" fill="#DC8B12"/>
<path opacity="0.53" d="M452.306 260.197C456.335 260.197 459.601 256.931 459.601 252.902C459.601 248.873 456.335 245.606 452.306 245.606C448.277 245.606 445.011 248.873 445.011 252.902C445.011 256.931 448.277 260.197 452.306 260.197Z" fill="#DC8B12"/>
<path opacity="0.52" d="M603.073 257.766C607.102 257.766 610.368 254.499 610.368 250.47C610.368 246.441 607.102 243.175 603.073 243.175C599.044 243.175 595.778 246.441 595.778 250.47C595.778 254.499 599.044 257.766 603.073 257.766Z" fill="#DC8B12"/>
<path opacity="0.52" d="M736.819 333.149C740.848 333.149 744.114 329.883 744.114 325.854C744.114 321.825 740.848 318.559 736.819 318.559C732.79 318.559 729.524 321.825 729.524 325.854C729.524 329.883 732.79 333.149 736.819 333.149Z" fill="#DC8B12"/>
<path opacity="0.52" d="M812.204 464.464C816.233 464.464 819.5 461.198 819.5 457.169C819.5 453.14 816.233 449.874 812.204 449.874C808.175 449.874 804.909 453.14 804.909 457.169C804.909 461.198 808.175 464.464 812.204 464.464Z" fill="#DC8B12"/>
<path opacity="0.52" d="M807.34 617.665C811.369 617.665 814.635 614.399 814.635 610.369C814.635 606.34 811.369 603.074 807.34 603.074C803.311 603.074 800.044 606.34 800.044 610.369C800.044 614.399 803.311 617.665 807.34 617.665Z" fill="#DC8B12"/>
<path opacity="0.51" d="M724.661 748.979C728.69 748.979 731.956 745.712 731.956 741.683C731.956 737.654 728.69 734.388 724.661 734.388C720.632 734.388 717.366 737.654 717.366 741.683C717.366 745.712 720.632 748.979 724.661 748.979Z" fill="#DC8B12"/>
<path opacity="0.51" d="M586.052 817.068C590.081 817.068 593.347 813.802 593.347 809.773C593.347 805.743 590.081 802.477 586.052 802.477C582.023 802.477 578.757 805.743 578.757 809.773C578.757 813.802 582.023 817.068 586.052 817.068Z" fill="#DC8B12"/>
<path opacity="0.51" d="M432.851 807.341C436.88 807.341 440.146 804.075 440.146 800.045C440.146 796.016 436.88 792.75 432.851 792.75C428.822 792.75 425.556 796.016 425.556 800.045C425.556 804.075 428.822 807.341 432.851 807.341Z" fill="#DC8B12"/>
<path opacity="0.51" d="M303.968 717.366C307.997 717.366 311.263 714.1 311.263 710.071C311.263 706.042 307.997 702.776 303.968 702.776C299.939 702.776 296.673 706.042 296.673 710.071C296.673 714.1 299.939 717.366 303.968 717.366Z" fill="#DC8B12"/>
<path opacity="0.5" d="M240.744 573.893C244.774 573.893 248.04 570.627 248.04 566.598C248.04 562.569 244.774 559.302 240.744 559.302C236.715 559.302 233.449 562.569 233.449 566.598C233.449 570.627 236.715 573.893 240.744 573.893Z" fill="#DC8B12"/>
<path opacity="0.5" d="M260.196 418.261C264.225 418.261 267.491 414.995 267.491 410.966C267.491 406.936 264.225 403.67 260.196 403.67C256.167 403.67 252.901 406.936 252.901 410.966C252.901 414.995 256.167 418.261 260.196 418.261Z" fill="#DC8B12"/>
<path opacity="0.5" d="M357.466 291.81C361.495 291.81 364.761 288.544 364.761 284.515C364.761 280.486 361.495 277.22 357.466 277.22C353.437 277.22 350.17 280.486 350.17 284.515C350.17 288.544 353.437 291.81 357.466 291.81Z" fill="#DC8B12"/>
<path opacity="0.5" d="M505.804 235.88C509.833 235.88 513.099 232.613 513.099 228.584C513.099 224.555 509.833 221.289 505.804 221.289C501.774 221.289 498.508 224.555 498.508 228.584C498.508 232.613 501.774 235.88 505.804 235.88Z" fill="#DC8B12"/>
<path opacity="0.5" d="M663.868 262.629C667.897 262.629 671.163 259.363 671.163 255.333C671.163 251.304 667.897 248.038 663.868 248.038C659.839 248.038 656.573 251.304 656.573 255.333C656.573 259.363 659.839 262.629 663.868 262.629Z" fill="#DC8B12"/>
<path opacity="0.49" d="M785.455 367.194C789.484 367.194 792.751 363.928 792.751 359.899C792.751 355.87 789.484 352.604 785.455 352.604C781.426 352.604 778.16 355.87 778.16 359.899C778.16 363.928 781.426 367.194 785.455 367.194Z" fill="#DC8B12"/>
<path opacity="0.49" d="M834.09 520.395C838.119 520.395 841.385 517.129 841.385 513.1C841.385 509.071 838.119 505.804 834.09 505.804C830.061 505.804 826.795 509.071 826.795 513.1C826.795 517.129 830.061 520.395 834.09 520.395Z" fill="#DC8B12"/>
<path opacity="0.49" d="M800.046 678.459C804.075 678.459 807.341 675.192 807.341 671.163C807.341 667.134 804.075 663.868 800.046 663.868C796.017 663.868 792.751 667.134 792.751 671.163C792.751 675.192 796.017 678.459 800.046 678.459Z" fill="#DC8B12"/>
<path opacity="0.49" d="M688.184 795.182C692.213 795.182 695.48 791.916 695.48 787.887C695.48 783.858 692.213 780.591 688.184 780.591C684.155 780.591 680.889 783.858 680.889 787.887C680.889 791.916 684.155 795.182 688.184 795.182Z" fill="#DC8B12"/>
<path opacity="0.48" d="M530.122 838.954C534.151 838.954 537.417 835.688 537.417 831.659C537.417 827.629 534.151 824.363 530.122 824.363C526.093 824.363 522.827 827.629 522.827 831.659C522.827 835.688 526.093 838.954 530.122 838.954Z" fill="#DC8B12"/>
<path opacity="0.48" d="M372.058 795.182C376.087 795.182 379.353 791.916 379.353 787.887C379.353 783.858 376.087 780.591 372.058 780.591C368.029 780.591 364.763 783.858 364.763 787.887C364.763 791.916 368.029 795.182 372.058 795.182Z" fill="#DC8B12"/>
<path opacity="0.48" d="M257.765 676.026C261.795 676.026 265.061 672.76 265.061 668.731C265.061 664.702 261.795 661.436 257.765 661.436C253.736 661.436 250.47 664.702 250.47 668.731C250.47 672.76 253.736 676.026 257.765 676.026Z" fill="#DC8B12"/>
<path opacity="0.48" d="M223.72 515.531C227.749 515.531 231.015 512.264 231.015 508.235C231.015 504.206 227.749 500.94 223.72 500.94C219.691 500.94 216.424 504.206 216.424 508.235C216.424 512.264 219.691 515.531 223.72 515.531Z" fill="#DC8B12"/>
<path opacity="0.47" d="M274.787 357.467C278.816 357.467 282.082 354.201 282.082 350.172C282.082 346.143 278.816 342.876 274.787 342.876C270.758 342.876 267.492 346.143 267.492 350.172C267.492 354.201 270.758 357.467 274.787 357.467Z" fill="#DC8B12"/>
<path opacity="0.47" d="M401.237 248.038C405.266 248.038 408.532 244.772 408.532 240.743C408.532 236.714 405.266 233.448 401.237 233.448C397.208 233.448 393.942 236.714 393.942 240.743C393.942 244.772 397.208 248.038 401.237 248.038Z" fill="#DC8B12"/>
<path opacity="0.47" d="M566.597 221.289C570.626 221.289 573.892 218.023 573.892 213.994C573.892 209.965 570.626 206.699 566.597 206.699C562.567 206.699 559.301 209.965 559.301 213.994C559.301 218.023 562.567 221.289 566.597 221.289Z" fill="#DC8B12"/>
<path opacity="0.47" d="M722.228 279.651C726.257 279.651 729.524 276.385 729.524 272.356C729.524 268.327 726.257 265.061 722.228 265.061C718.199 265.061 714.933 268.327 714.933 272.356C714.933 276.385 718.199 279.651 722.228 279.651Z" fill="#DC8B12"/>
<path opacity="0.47" d="M826.795 413.398C830.824 413.398 834.09 410.131 834.09 406.102C834.09 402.073 830.824 398.807 826.795 398.807C822.766 398.807 819.5 402.073 819.5 406.102C819.5 410.131 822.766 413.398 826.795 413.398Z" fill="#DC8B12"/>
<path opacity="0.46" d="M846.248 581.188C850.277 581.188 853.544 577.922 853.544 573.893C853.544 569.864 850.277 566.598 846.248 566.598C842.219 566.598 838.953 569.864 838.953 573.893C838.953 577.922 842.219 581.188 846.248 581.188Z" fill="#DC8B12"/>
<path opacity="0.46" d="M778.159 736.82C782.188 736.82 785.454 733.554 785.454 729.524C785.454 725.495 782.188 722.229 778.159 722.229C774.129 722.229 770.863 725.495 770.863 729.524C770.863 733.554 774.129 736.82 778.159 736.82Z" fill="#DC8B12"/>
<path opacity="0.46" d="M637.118 836.522C641.147 836.522 644.413 833.256 644.413 829.227C644.413 825.198 641.147 821.932 637.118 821.932C633.088 821.932 629.822 825.198 629.822 829.227C629.822 833.256 633.088 836.522 637.118 836.522Z" fill="#DC8B12"/>
<path opacity="0.46" d="M466.895 848.681C470.924 848.681 474.19 845.415 474.19 841.386C474.19 837.357 470.924 834.091 466.895 834.091C462.866 834.091 459.6 837.357 459.6 841.386C459.6 845.415 462.866 848.681 466.895 848.681Z" fill="#DC8B12"/>
<path opacity="0.45" d="M313.696 770.864C317.725 770.864 320.991 767.598 320.991 763.569C320.991 759.54 317.725 756.274 313.696 756.274C309.667 756.274 306.4 759.54 306.4 763.569C306.4 767.598 309.667 770.864 313.696 770.864Z" fill="#DC8B12"/>
<path opacity="0.45" d="M221.289 624.96C225.318 624.96 228.584 621.693 228.584 617.664C228.584 613.635 225.318 610.369 221.289 610.369C217.26 610.369 213.994 613.635 213.994 617.664C213.994 621.693 217.26 624.96 221.289 624.96Z" fill="#DC8B12"/>
<path opacity="0.45" d="M216.425 451.09C221.126 451.09 224.936 447.279 224.936 442.578C224.936 437.878 221.126 434.067 216.425 434.067C211.725 434.067 207.914 437.878 207.914 442.578C207.914 447.279 211.725 451.09 216.425 451.09Z" fill="#DC8B12"/>
<path opacity="0.45" d="M303.969 300.321C308.669 300.321 312.48 296.511 312.48 291.81C312.48 287.11 308.669 283.299 303.969 283.299C299.268 283.299 295.458 287.11 295.458 291.81C295.458 296.511 299.268 300.321 303.969 300.321Z" fill="#DC8B12"/>
<path opacity="0.44" d="M454.737 215.21C459.438 215.21 463.248 211.399 463.248 206.699C463.248 201.998 459.438 198.188 454.737 198.188C450.037 198.188 446.226 201.998 446.226 206.699C446.226 211.399 450.037 215.21 454.737 215.21Z" fill="#DC8B12"/>
<path opacity="0.44" d="M632.253 220.073C636.954 220.073 640.764 216.263 640.764 211.562C640.764 206.861 636.954 203.051 632.253 203.051C627.553 203.051 623.742 206.861 623.742 211.562C623.742 216.263 627.553 220.073 632.253 220.073Z" fill="#DC8B12"/>
<path opacity="0.44" d="M780.591 312.48C785.292 312.48 789.102 308.669 789.102 303.969C789.102 299.268 785.292 295.458 780.591 295.458C775.891 295.458 772.08 299.268 772.08 303.969C772.08 308.669 775.891 312.48 780.591 312.48Z" fill="#DC8B12"/>
<path opacity="0.44" d="M858.407 472.975C863.108 472.975 866.918 469.165 866.918 464.464C866.918 459.764 863.108 455.953 858.407 455.953C853.707 455.953 849.896 459.764 849.896 464.464C849.896 469.165 853.707 472.975 858.407 472.975Z" fill="#DC8B12"/>
<path opacity="0.44" d="M846.249 648.061C850.949 648.061 854.76 644.251 854.76 639.55C854.76 634.849 850.949 631.039 846.249 631.039C841.548 631.039 837.738 634.849 837.738 639.55C837.738 644.251 841.548 648.061 846.249 648.061Z" fill="#DC8B12"/>
<path opacity="0.43" d="M741.683 793.966C746.383 793.966 750.194 790.156 750.194 785.455C750.194 780.754 746.383 776.944 741.683 776.944C736.982 776.944 733.171 780.754 733.171 785.455C733.171 790.156 736.982 793.966 741.683 793.966Z" fill="#DC8B12"/>
<path opacity="0.43" d="M578.755 866.918C583.456 866.918 587.266 863.108 587.266 858.407C587.266 853.707 583.456 849.896 578.755 849.896C574.055 849.896 570.244 853.707 570.244 858.407C570.244 863.108 574.055 866.918 578.755 866.918Z" fill="#DC8B12"/>
<path opacity="0.43" d="M401.238 845.033C405.938 845.033 409.749 841.223 409.749 836.522C409.749 831.822 405.938 828.011 401.238 828.011C396.537 828.011 392.727 831.822 392.727 836.522C392.727 841.223 396.537 845.033 401.238 845.033Z" fill="#DC8B12"/>
<path opacity="0.43" d="M257.765 733.172C262.465 733.172 266.276 729.362 266.276 724.661C266.276 719.96 262.465 716.15 257.765 716.15C253.064 716.15 249.253 719.96 249.253 724.661C249.253 729.362 253.064 733.172 257.765 733.172Z" fill="#DC8B12"/>
<path opacity="0.42" d="M194.539 562.95C199.24 562.95 203.05 559.139 203.05 554.439C203.05 549.738 199.24 545.927 194.539 545.927C189.838 545.927 186.028 549.738 186.028 554.439C186.028 559.139 189.838 562.95 194.539 562.95Z" fill="#DC8B12"/>
<path opacity="0.42" d="M226.153 385.433C230.853 385.433 234.664 381.622 234.664 376.921C234.664 372.221 230.853 368.41 226.153 368.41C221.452 368.41 217.642 372.221 217.642 376.921C217.642 381.622 221.452 385.433 226.153 385.433Z" fill="#DC8B12"/>
<path opacity="0.42" d="M345.309 246.822C350.01 246.822 353.821 243.012 353.821 238.311C353.821 233.61 350.01 229.8 345.309 229.8C340.609 229.8 336.798 233.61 336.798 238.311C336.798 243.012 340.609 246.822 345.309 246.822Z" fill="#DC8B12"/>
<path opacity="0.42" d="M517.963 188.461C522.663 188.461 526.474 184.65 526.474 179.95C526.474 175.249 522.663 171.439 517.963 171.439C513.262 171.439 509.452 175.249 509.452 179.95C509.452 184.65 513.262 188.461 517.963 188.461Z" fill="#DC8B12"/>
<path opacity="0.41" d="M697.912 229.8C702.613 229.8 706.424 225.99 706.424 221.289C706.424 216.589 702.613 212.778 697.912 212.778C693.212 212.778 689.401 216.589 689.401 221.289C689.401 225.99 693.212 229.8 697.912 229.8Z" fill="#DC8B12"/>
<path opacity="0.41" d="M831.659 358.683C836.359 358.683 840.17 354.873 840.17 350.172C840.17 345.472 836.359 341.661 831.659 341.661C826.958 341.661 823.147 345.472 823.147 350.172C823.147 354.873 826.958 358.683 831.659 358.683Z" fill="#DC8B12"/>
<path opacity="0.41" d="M880.293 536.201C884.994 536.201 888.804 532.39 888.804 527.69C888.804 522.989 884.994 519.178 880.293 519.178C875.593 519.178 871.782 522.989 871.782 527.69C871.782 532.39 875.593 536.201 880.293 536.201Z" fill="#DC8B12"/>
<path opacity="0.41" d="M831.659 716.15C836.359 716.15 840.17 712.34 840.17 707.639C840.17 702.939 836.359 699.128 831.659 699.128C826.958 699.128 823.147 702.939 823.147 707.639C823.147 712.34 826.958 716.15 831.659 716.15Z" fill="#DC8B12"/>
<path opacity="0.41" d="M695.48 845.033C700.181 845.033 703.991 841.223 703.991 836.522C703.991 831.822 700.181 828.011 695.48 828.011C690.78 828.011 686.969 831.822 686.969 836.522C686.969 841.223 690.78 845.033 695.48 845.033Z" fill="#DC8B12"/>
<path opacity="0.4" d="M510.667 886.373C515.368 886.373 519.178 882.562 519.178 877.862C519.178 873.161 515.368 869.351 510.667 869.351C505.967 869.351 502.156 873.161 502.156 877.862C502.156 882.562 505.967 886.373 510.667 886.373Z" fill="#DC8B12"/>
<path opacity="0.4" d="M333.15 825.579C337.85 825.579 341.661 821.769 341.661 817.068C341.661 812.367 337.85 808.557 333.15 808.557C328.449 808.557 324.639 812.367 324.639 817.068C324.639 821.769 328.449 825.579 333.15 825.579Z" fill="#DC8B12"/>
<path opacity="0.4" d="M209.13 682.106C213.83 682.106 217.641 678.295 217.641 673.595C217.641 668.894 213.83 665.083 209.13 665.083C204.429 665.083 200.619 668.894 200.619 673.595C200.619 678.295 204.429 682.106 209.13 682.106Z" fill="#DC8B12"/>
<path opacity="0.4" d="M177.516 494.861C182.217 494.861 186.027 491.051 186.027 486.35C186.027 481.65 182.217 477.839 177.516 477.839C172.815 477.839 169.005 481.65 169.005 486.35C169.005 491.051 172.815 494.861 177.516 494.861Z" fill="#DC8B12"/>
<path opacity="0.39" d="M248.038 317.343C252.739 317.343 256.55 313.533 256.55 308.832C256.55 304.131 252.739 300.321 248.038 300.321C243.338 300.321 239.527 304.131 239.527 308.832C239.527 313.533 243.338 317.343 248.038 317.343Z" fill="#DC8B12"/>
<path opacity="0.39" d="M398.807 200.62C403.508 200.62 407.318 196.809 407.318 192.109C407.318 187.408 403.508 183.598 398.807 183.598C394.106 183.598 390.296 187.408 390.296 192.109C390.296 196.809 394.106 200.62 398.807 200.62Z" fill="#DC8B12"/>
<path opacity="0.39" d="M588.483 178.734C593.184 178.734 596.994 174.923 596.994 170.223C596.994 165.522 593.184 161.711 588.483 161.711C583.783 161.711 579.972 165.522 579.972 170.223C579.972 174.923 583.783 178.734 588.483 178.734Z" fill="#DC8B12"/>
<path opacity="0.39" d="M763.57 256.549C768.271 256.549 772.081 252.739 772.081 248.038C772.081 243.338 768.271 239.527 763.57 239.527C758.87 239.527 755.059 243.338 755.059 248.038C755.059 252.739 758.87 256.549 763.57 256.549Z" fill="#DC8B12"/>
<path opacity="0.38" d="M875.429 414.613C880.129 414.613 883.94 410.803 883.94 406.102C883.94 401.402 880.129 397.591 875.429 397.591C870.728 397.591 866.917 401.402 866.917 406.102C866.917 410.803 870.728 414.613 875.429 414.613Z" fill="#DC8B12"/>
<path opacity="0.38" d="M890.021 609.153C894.721 609.153 898.532 605.343 898.532 600.642C898.532 595.941 894.721 592.131 890.021 592.131C885.32 592.131 881.51 595.941 881.51 600.642C881.51 605.343 885.32 609.153 890.021 609.153Z" fill="#DC8B12"/>
<path opacity="0.38" d="M800.045 781.807C804.745 781.807 808.556 777.997 808.556 773.296C808.556 768.595 804.745 764.785 800.045 764.785C795.344 764.785 791.534 768.595 791.534 773.296C791.534 777.997 795.344 781.807 800.045 781.807Z" fill="#DC8B12"/>
<path opacity="0.38" d="M634.685 886.373C639.386 886.373 643.197 882.562 643.197 877.862C643.197 873.161 639.386 869.351 634.685 869.351C629.985 869.351 626.174 873.161 626.174 877.862C626.174 882.562 629.985 886.373 634.685 886.373Z" fill="#DC8B12"/>
<path opacity="0.38" d="M440.147 888.804C444.847 888.804 448.658 884.994 448.658 880.293C448.658 875.593 444.847 871.782 440.147 871.782C435.446 871.782 431.636 875.593 431.636 880.293C431.636 884.994 435.446 888.804 440.147 888.804Z" fill="#DC8B12"/>
<path opacity="0.37" d="M267.492 791.534C272.193 791.534 276.003 787.724 276.003 783.023C276.003 778.323 272.193 774.512 267.492 774.512C262.792 774.512 258.981 778.323 258.981 783.023C258.981 787.724 262.792 791.534 267.492 791.534Z" fill="#DC8B12"/>
<path opacity="0.37" d="M172.653 618.88C177.354 618.88 181.164 615.07 181.164 610.369C181.164 605.669 177.354 601.858 172.653 601.858C167.953 601.858 164.142 605.669 164.142 610.369C164.142 615.07 167.953 618.88 172.653 618.88Z" fill="#DC8B12"/>
<path opacity="0.37" d="M177.516 421.909C182.217 421.909 186.027 418.098 186.027 413.398C186.027 408.697 182.217 404.886 177.516 404.886C172.815 404.886 169.005 408.697 169.005 413.398C169.005 418.098 172.815 421.909 177.516 421.909Z" fill="#DC8B12"/>
<path opacity="0.37" d="M284.515 254.118C289.216 254.118 293.026 250.307 293.026 245.607C293.026 240.906 289.216 237.096 284.515 237.096C279.814 237.096 276.004 240.906 276.004 245.607C276.004 250.307 279.814 254.118 284.515 254.118Z" fill="#DC8B12"/>
<path opacity="0.36" d="M464.463 166.575C469.164 166.575 472.974 162.764 472.974 158.064C472.974 153.363 469.164 149.553 464.463 149.553C459.763 149.553 455.952 153.363 455.952 158.064C455.952 162.764 459.763 166.575 464.463 166.575Z" fill="#DC8B12"/>
<path opacity="0.36" d="M663.867 181.165C668.567 181.165 672.378 177.355 672.378 172.654C672.378 167.954 668.567 164.143 663.867 164.143C659.166 164.143 655.355 167.954 655.355 172.654C655.355 177.355 659.166 181.165 663.867 181.165Z" fill="#DC8B12"/>
<path opacity="0.36" d="M826.794 297.89C831.494 297.89 835.305 294.079 835.305 289.379C835.305 284.678 831.494 280.867 826.794 280.867C822.093 280.867 818.283 284.678 818.283 289.379C818.283 294.079 822.093 297.89 826.794 297.89Z" fill="#DC8B12"/>
<path opacity="0.36" d="M907.042 482.703C911.742 482.703 915.553 478.892 915.553 474.191C915.553 469.491 911.742 465.68 907.042 465.68C902.341 465.68 898.531 469.491 898.531 474.191C898.531 478.892 902.341 482.703 907.042 482.703Z" fill="#DC8B12"/>
<path opacity="0.35" d="M882.724 682.106C887.424 682.106 891.235 678.295 891.235 673.595C891.235 668.894 887.424 665.083 882.724 665.083C878.023 665.083 874.212 668.894 874.212 673.595C874.212 678.295 878.023 682.106 882.724 682.106Z" fill="#DC8B12"/>
<path opacity="0.35" d="M756.273 842.601C760.974 842.601 764.784 838.79 764.784 834.09C764.784 829.389 760.974 825.579 756.273 825.579C751.573 825.579 747.762 829.389 747.762 834.09C747.762 838.79 751.573 842.601 756.273 842.601Z" fill="#DC8B12"/>
<path opacity="0.35" d="M566.597 915.553C571.298 915.553 575.108 911.743 575.108 907.042C575.108 902.342 571.298 898.531 566.597 898.531C561.896 898.531 558.086 902.342 558.086 907.042C558.086 911.743 561.896 915.553 566.597 915.553Z" fill="#DC8B12"/>
<path opacity="0.35" d="M364.762 880.294C370.134 880.294 374.489 875.939 374.489 870.567C374.489 865.195 370.134 860.84 364.762 860.84C359.39 860.84 355.035 865.195 355.035 870.567C355.035 875.939 359.39 880.294 364.762 880.294Z" fill="#DC8B12"/>
<path opacity="0.35" d="M209.13 746.547C214.502 746.547 218.857 742.192 218.857 736.82C218.857 731.448 214.502 727.093 209.13 727.093C203.758 727.093 199.403 731.448 199.403 736.82C199.403 742.192 203.758 746.547 209.13 746.547Z" fill="#DC8B12"/>
<path opacity="0.34" d="M145.905 549.576C151.277 549.576 155.632 545.221 155.632 539.849C155.632 534.477 151.277 530.122 145.905 530.122C140.533 530.122 136.178 534.477 136.178 539.849C136.178 545.221 140.533 549.576 145.905 549.576Z" fill="#DC8B12"/>
<path opacity="0.34" d="M192.107 347.74C197.479 347.74 201.834 343.385 201.834 338.013C201.834 332.641 197.479 328.286 192.107 328.286C186.735 328.286 182.38 332.641 182.38 338.013C182.38 343.385 186.735 347.74 192.107 347.74Z" fill="#DC8B12"/>
<path opacity="0.34" d="M335.581 199.404C340.953 199.404 345.308 195.049 345.308 189.677C345.308 184.305 340.953 179.95 335.581 179.95C330.209 179.95 325.854 184.305 325.854 189.677C325.854 195.049 330.209 199.404 335.581 199.404Z" fill="#DC8B12"/>
<path opacity="0.34" d="M537.416 143.473C542.789 143.473 547.143 139.118 547.143 133.746C547.143 128.374 542.789 124.019 537.416 124.019C532.044 124.019 527.689 128.374 527.689 133.746C527.689 139.118 532.044 143.473 537.416 143.473Z" fill="#DC8B12"/>
<path opacity="0.33" d="M736.818 201.835C742.19 201.835 746.545 197.48 746.545 192.108C746.545 186.736 742.19 182.381 736.818 182.381C731.446 182.381 727.091 186.736 727.091 192.108C727.091 197.48 731.446 201.835 736.818 201.835Z" fill="#DC8B12"/>
<path opacity="0.33" d="M880.293 352.603C885.665 352.603 890.02 348.248 890.02 342.876C890.02 337.504 885.665 333.149 880.293 333.149C874.921 333.149 870.566 337.504 870.566 342.876C870.566 348.248 874.921 352.603 880.293 352.603Z" fill="#DC8B12"/>
<path opacity="0.33" d="M926.496 559.302C931.868 559.302 936.223 554.947 936.223 549.575C936.223 544.203 931.868 539.848 926.496 539.848C921.124 539.848 916.769 544.203 916.769 549.575C916.769 554.947 921.124 559.302 926.496 559.302Z" fill="#DC8B12"/>
<path opacity="0.33" d="M858.406 758.706C863.778 758.706 868.133 754.351 868.133 748.979C868.133 743.607 863.778 739.252 858.406 739.252C853.034 739.252 848.679 743.607 848.679 748.979C848.679 754.351 853.034 758.706 858.406 758.706Z" fill="#DC8B12"/>
<path opacity="0.32" d="M697.912 894.884C703.284 894.884 707.639 890.529 707.639 885.157C707.639 879.785 703.284 875.43 697.912 875.43C692.539 875.43 688.185 879.785 688.185 885.157C688.185 890.529 692.539 894.884 697.912 894.884Z" fill="#DC8B12"/>
<path opacity="0.32" d="M488.78 931.36C494.152 931.36 498.507 927.005 498.507 921.633C498.507 916.261 494.152 911.906 488.78 911.906C483.408 911.906 479.053 916.261 479.053 921.633C479.053 927.005 483.408 931.36 488.78 931.36Z" fill="#DC8B12"/>
<path opacity="0.32" d="M291.811 853.545C297.183 853.545 301.538 849.19 301.538 843.818C301.538 838.446 297.183 834.091 291.811 834.091C286.439 834.091 282.084 838.446 282.084 843.818C282.084 849.19 286.439 853.545 291.811 853.545Z" fill="#DC8B12"/>
<path opacity="0.32" d="M160.496 683.322C165.868 683.322 170.223 678.967 170.223 673.595C170.223 668.223 165.868 663.868 160.496 663.868C155.123 663.868 150.769 668.223 150.769 673.595C150.769 678.967 155.123 683.322 160.496 683.322Z" fill="#DC8B12"/>
<path opacity="0.32" d="M136.177 471.759C141.549 471.759 145.904 467.404 145.904 462.032C145.904 456.66 141.549 452.305 136.177 452.305C130.805 452.305 126.45 456.66 126.45 462.032C126.45 467.404 130.805 471.759 136.177 471.759Z" fill="#DC8B12"/>
<path opacity="0.31" d="M223.721 274.788C229.093 274.788 233.448 270.433 233.448 265.061C233.448 259.689 229.093 255.334 223.721 255.334C218.349 255.334 213.994 259.689 213.994 265.061C213.994 270.433 218.349 274.788 223.721 274.788Z" fill="#DC8B12"/>
<path opacity="0.31" d="M401.239 153.2C406.611 153.2 410.966 148.845 410.966 143.473C410.966 138.101 406.611 133.746 401.239 133.746C395.867 133.746 391.512 138.101 391.512 143.473C391.512 148.845 395.867 153.2 401.239 153.2Z" fill="#DC8B12"/>
<path opacity="0.31" d="M615.231 138.61C620.603 138.61 624.958 134.255 624.958 128.883C624.958 123.511 620.603 119.156 615.231 119.156C609.859 119.156 605.504 123.511 605.504 128.883C605.504 134.255 609.859 138.61 615.231 138.61Z" fill="#DC8B12"/>
<path opacity="0.31" d="M809.771 235.88C815.144 235.88 819.498 231.525 819.498 226.153C819.498 220.781 815.144 216.426 809.771 216.426C804.399 216.426 800.044 220.781 800.044 226.153C800.044 231.525 804.399 235.88 809.771 235.88Z" fill="#DC8B12"/>
<path opacity="0.3" d="M924.065 420.693C929.437 420.693 933.792 416.338 933.792 410.966C933.792 405.594 929.437 401.239 924.065 401.239C918.693 401.239 914.338 405.594 914.338 410.966C914.338 416.338 918.693 420.693 924.065 420.693Z" fill="#DC8B12"/>
<path opacity="0.3" d="M928.928 639.55C934.3 639.55 938.655 635.195 938.655 629.823C938.655 624.451 934.3 620.096 928.928 620.096C923.556 620.096 919.201 624.451 919.201 629.823C919.201 635.195 923.556 639.55 928.928 639.55Z" fill="#DC8B12"/>
<path opacity="0.3" d="M819.499 829.227C824.871 829.227 829.226 824.872 829.226 819.5C829.226 814.128 824.871 809.773 819.499 809.773C814.127 809.773 809.772 814.128 809.772 819.5C809.772 824.872 814.127 829.227 819.499 829.227Z" fill="#DC8B12"/>
<path opacity="0.3" d="M627.391 936.223C632.763 936.223 637.118 931.868 637.118 926.496C637.118 921.124 632.763 916.769 627.391 916.769C622.019 916.769 617.664 921.124 617.664 926.496C617.664 931.868 622.019 936.223 627.391 936.223Z" fill="#DC8B12"/>
<path opacity="0.29" d="M408.534 928.929C413.906 928.929 418.261 924.574 418.261 919.202C418.261 913.83 413.906 909.475 408.534 909.475C403.162 909.475 398.807 913.83 398.807 919.202C398.807 924.574 403.162 928.929 408.534 928.929Z" fill="#DC8B12"/>
<path opacity="0.29" d="M221.289 809.773C226.661 809.773 231.016 805.418 231.016 800.046C231.016 794.674 226.661 790.319 221.289 790.319C215.916 790.319 211.562 794.674 211.562 800.046C211.562 805.418 215.916 809.773 221.289 809.773Z" fill="#DC8B12"/>
<path opacity="0.29" d="M124.019 610.37C129.391 610.37 133.746 606.015 133.746 600.643C133.746 595.27 129.391 590.916 124.019 590.916C118.647 590.916 114.292 595.27 114.292 600.643C114.292 606.015 118.647 610.37 124.019 610.37Z" fill="#DC8B12"/>
<path opacity="0.29" d="M141.04 389.08C146.413 389.08 150.767 384.725 150.767 379.353C150.767 373.981 146.413 369.626 141.04 369.626C135.668 369.626 131.313 373.981 131.313 379.353C131.313 384.725 135.668 389.08 141.04 389.08Z" fill="#DC8B12"/>
<path opacity="0.29" d="M269.923 206.698C275.295 206.698 279.65 202.343 279.65 196.971C279.65 191.599 275.295 187.244 269.923 187.244C264.551 187.244 260.196 191.599 260.196 196.971C260.196 202.343 264.551 206.698 269.923 206.698Z" fill="#DC8B12"/>
<path opacity="0.28" d="M476.622 119.156C481.994 119.156 486.349 114.801 486.349 109.429C486.349 104.056 481.994 99.7015 476.622 99.7015C471.25 99.7015 466.895 104.056 466.895 109.429C466.895 114.801 471.25 119.156 476.622 119.156Z" fill="#DC8B12"/>
<path opacity="0.28" d="M697.912 148.337C703.284 148.337 707.639 143.982 707.639 138.61C707.639 133.238 703.284 128.883 697.912 128.883C692.539 128.883 688.185 133.238 688.185 138.61C688.185 143.982 692.539 148.337 697.912 148.337Z" fill="#DC8B12"/>
<path opacity="0.28" d="M875.431 286.947C880.803 286.947 885.158 282.592 885.158 277.22C885.158 271.847 880.803 267.493 875.431 267.493C870.059 267.493 865.704 271.847 865.704 277.22C865.704 282.592 870.059 286.947 875.431 286.947Z" fill="#DC8B12"/>
<path opacity="0.28" d="M955.677 498.508C961.049 498.508 965.404 494.153 965.404 488.781C965.404 483.409 961.049 479.054 955.677 479.054C950.305 479.054 945.95 483.409 945.95 488.781C945.95 494.153 950.305 498.508 955.677 498.508Z" fill="#DC8B12"/>
<path opacity="0.27" d="M914.338 722.23C919.71 722.23 924.065 717.875 924.065 712.503C924.065 707.131 919.71 702.776 914.338 702.776C908.966 702.776 904.611 707.131 904.611 712.503C904.611 717.875 908.966 722.23 914.338 722.23Z" fill="#DC8B12"/>
<path opacity="0.27" d="M766.001 892.452C771.373 892.452 775.728 888.097 775.728 882.725C775.728 877.353 771.373 872.998 766.001 872.998C760.629 872.998 756.274 877.353 756.274 882.725C756.274 888.097 760.629 892.452 766.001 892.452Z" fill="#DC8B12"/>
<path opacity="0.27" d="M547.144 962.973C552.517 962.973 556.871 958.618 556.871 953.246C556.871 947.874 552.517 943.519 547.144 943.519C541.772 943.519 537.417 947.874 537.417 953.246C537.417 958.618 541.772 962.973 547.144 962.973Z" fill="#DC8B12"/>
<path opacity="0.27" d="M325.855 911.906C331.227 911.906 335.582 907.551 335.582 902.179C335.582 896.807 331.227 892.452 325.855 892.452C320.483 892.452 316.128 896.807 316.128 902.179C316.128 907.551 320.483 911.906 325.855 911.906Z" fill="#DC8B12"/>
<path opacity="0.26" d="M160.496 751.411C165.868 751.411 170.223 747.056 170.223 741.684C170.223 736.311 165.868 731.957 160.496 731.957C155.123 731.957 150.769 736.311 150.769 741.684C150.769 747.056 155.123 751.411 160.496 751.411Z" fill="#DC8B12"/>
<path opacity="0.26" d="M99.7011 530.121C105.073 530.121 109.428 525.766 109.428 520.394C109.428 515.022 105.073 510.667 99.7011 510.667C94.329 510.667 89.9741 515.022 89.9741 520.394C89.9741 525.766 94.329 530.121 99.7011 530.121Z" fill="#DC8B12"/>
<path opacity="0.26" d="M162.928 306.401C168.3 306.401 172.655 302.046 172.655 296.674C172.655 291.302 168.3 286.947 162.928 286.947C157.556 286.947 153.201 291.302 153.201 296.674C153.201 302.046 157.556 306.401 162.928 306.401Z" fill="#DC8B12"/>
<path opacity="0.26" d="M333.15 148.337C338.522 148.337 342.877 143.982 342.877 138.61C342.877 133.238 338.522 128.883 333.15 128.883C327.778 128.883 323.423 133.238 323.423 138.61C323.423 143.982 327.778 148.337 333.15 148.337Z" fill="#DC8B12"/>
<path opacity="0.26" d="M559.303 99.7022C564.675 99.7022 569.03 95.3472 569.03 89.9752C569.03 84.6031 564.675 80.2482 559.303 80.2482C553.931 80.2482 549.576 84.6031 549.576 89.9752C549.576 95.3472 553.931 99.7022 559.303 99.7022Z" fill="#DC8B12"/>
<path opacity="0.25" d="M780.59 175.086C785.962 175.086 790.317 170.731 790.317 165.359C790.317 159.987 785.962 155.632 780.59 155.632C775.218 155.632 770.863 159.987 770.863 165.359C770.863 170.731 775.218 175.086 780.59 175.086Z" fill="#DC8B12"/>
<path opacity="0.25" d="M931.359 352.603C936.731 352.603 941.086 348.248 941.086 342.876C941.086 337.504 936.731 333.149 931.359 333.149C925.987 333.149 921.632 337.504 921.632 342.876C921.632 348.248 925.987 352.603 931.359 352.603Z" fill="#DC8B12"/>
<path opacity="0.25" d="M970.268 584.836C976.312 584.836 981.211 579.937 981.211 573.893C981.211 567.849 976.312 562.95 970.268 562.95C964.224 562.95 959.325 567.849 959.325 573.893C959.325 579.937 964.224 584.836 970.268 584.836Z" fill="#DC8B12"/>
<path opacity="0.25" d="M882.725 803.693C888.769 803.693 893.668 798.794 893.668 792.75C893.668 786.707 888.769 781.808 882.725 781.808C876.682 781.808 871.782 786.707 871.782 792.75C871.782 798.794 876.682 803.693 882.725 803.693Z" fill="#DC8B12"/>
<path opacity="0.24" d="M697.912 947.167C703.956 947.167 708.855 942.267 708.855 936.224C708.855 930.18 703.956 925.281 697.912 925.281C691.869 925.281 686.969 930.18 686.969 936.224C686.969 942.267 691.869 947.167 697.912 947.167Z" fill="#DC8B12"/>
<path opacity="0.24" d="M462.032 973.916C468.075 973.916 472.975 969.017 472.975 962.973C472.975 956.93 468.075 952.03 462.032 952.03C455.988 952.03 451.089 956.93 451.089 962.973C451.089 969.017 455.988 973.916 462.032 973.916Z" fill="#DC8B12"/>
<path opacity="0.24" d="M245.605 876.646C251.649 876.646 256.548 871.747 256.548 865.703C256.548 859.66 251.649 854.76 245.605 854.76C239.562 854.76 234.663 859.66 234.663 865.703C234.663 871.747 239.562 876.646 245.605 876.646Z" fill="#DC8B12"/>
<path opacity="0.24" d="M109.429 682.106C115.473 682.106 120.372 677.207 120.372 671.163C120.372 665.12 115.473 660.22 109.429 660.22C103.386 660.22 98.4863 665.12 98.4863 671.163C98.4863 677.207 103.386 682.106 109.429 682.106Z" fill="#DC8B12"/>
<path opacity="0.23" d="M94.8369 443.794C100.881 443.794 105.78 438.895 105.78 432.851C105.78 426.808 100.881 421.908 94.8369 421.908C88.7933 421.908 83.894 426.808 83.894 432.851C83.894 438.895 88.7933 443.794 94.8369 443.794Z" fill="#DC8B12"/>
<path opacity="0.23" d="M204.266 229.801C210.31 229.801 215.209 224.901 215.209 218.858C215.209 212.814 210.31 207.915 204.266 207.915C198.223 207.915 193.323 212.814 193.323 218.858C193.323 224.901 198.223 229.801 204.266 229.801Z" fill="#DC8B12"/>
<path opacity="0.23" d="M406.102 103.349C412.146 103.349 417.045 98.45 417.045 92.4064C417.045 86.3628 412.146 81.4635 406.102 81.4635C400.058 81.4635 395.159 86.3628 395.159 92.4064C395.159 98.45 400.058 103.349 406.102 103.349Z" fill="#DC8B12"/>
<path opacity="0.23" d="M649.277 98.4861C655.321 98.4861 660.22 93.5868 660.22 87.5432C660.22 81.4996 655.321 76.6003 649.277 76.6003C643.234 76.6003 638.334 81.4996 638.334 87.5432C638.334 93.5868 643.234 98.4861 649.277 98.4861Z" fill="#DC8B12"/>
<path opacity="0.23" d="M858.408 220.073C864.452 220.073 869.351 215.174 869.351 209.131C869.351 203.087 864.452 198.188 858.408 198.188C852.365 198.188 847.465 203.087 847.465 209.131C847.465 215.174 852.365 220.073 858.408 220.073Z" fill="#DC8B12"/>
<path opacity="0.22" d="M975.131 431.635C981.175 431.635 986.074 426.736 986.074 420.693C986.074 414.649 981.175 409.75 975.131 409.75C969.088 409.75 964.188 414.649 964.188 420.693C964.188 426.736 969.088 431.635 975.131 431.635Z" fill="#DC8B12"/>
<path opacity="0.22" d="M967.836 674.811C973.88 674.811 978.779 669.911 978.779 663.868C978.779 657.824 973.88 652.925 967.836 652.925C961.792 652.925 956.893 657.824 956.893 663.868C956.893 669.911 961.792 674.811 967.836 674.811Z" fill="#DC8B12"/>
<path opacity="0.22" d="M834.09 879.078C840.134 879.078 845.033 874.178 845.033 868.135C845.033 862.091 840.134 857.192 834.09 857.192C828.047 857.192 823.147 862.091 823.147 868.135C823.147 874.178 828.047 879.078 834.09 879.078Z" fill="#DC8B12"/>
<path opacity="0.22" d="M615.233 986.075C621.276 986.075 626.176 981.175 626.176 975.132C626.176 969.088 621.276 964.189 615.233 964.189C609.189 964.189 604.29 969.088 604.29 975.132C604.29 981.175 609.189 986.075 615.233 986.075Z" fill="#DC8B12"/>
<path opacity="0.21" d="M372.058 966.62C378.102 966.62 383.001 961.721 383.001 955.677C383.001 949.634 378.102 944.735 372.058 944.735C366.015 944.735 361.115 949.634 361.115 955.677C361.115 961.721 366.015 966.62 372.058 966.62Z" fill="#DC8B12"/>
<path opacity="0.21" d="M172.653 823.147C178.696 823.147 183.596 818.248 183.596 812.204C183.596 806.161 178.696 801.261 172.653 801.261C166.609 801.261 161.71 806.161 161.71 812.204C161.71 818.248 166.609 823.147 172.653 823.147Z" fill="#DC8B12"/>
<path opacity="0.21" d="M72.9526 596.995C78.9962 596.995 83.8955 592.095 83.8955 586.052C83.8955 580.008 78.9962 575.109 72.9526 575.109C66.9091 575.109 62.0098 580.008 62.0098 586.052C62.0098 592.095 66.9091 596.995 72.9526 596.995Z" fill="#DC8B12"/>
<path opacity="0.21" d="M106.997 353.82C113.04 353.82 117.939 348.92 117.939 342.877C117.939 336.833 113.04 331.934 106.997 331.934C100.953 331.934 96.0537 336.833 96.0537 342.877C96.0537 348.92 100.953 353.82 106.997 353.82Z" fill="#DC8B12"/>
<path opacity="0.2" d="M260.196 159.28C266.24 159.28 271.139 154.381 271.139 148.337C271.139 142.293 266.24 137.394 260.196 137.394C254.153 137.394 249.253 142.293 249.253 148.337C249.253 154.381 254.153 159.28 260.196 159.28Z" fill="#DC8B12"/>
<path opacity="0.2" d="M493.646 71.7369C499.689 71.7369 504.588 66.8377 504.588 60.7941C504.588 54.7505 499.689 49.8512 493.646 49.8512C487.602 49.8512 482.703 54.7505 482.703 60.7941C482.703 66.8377 487.602 71.7369 493.646 71.7369Z" fill="#DC8B12"/>
<path opacity="0.2" d="M739.251 115.508C745.295 115.508 750.194 110.609 750.194 104.565C750.194 98.5215 745.295 93.6222 739.251 93.6222C733.208 93.6222 728.309 98.5215 728.309 104.565C728.309 110.609 733.208 115.508 739.251 115.508Z" fill="#DC8B12"/>
<path opacity="0.2" d="M926.495 280.867C932.538 280.867 937.438 275.968 937.438 269.924C937.438 263.881 932.538 258.981 926.495 258.981C920.451 258.981 915.552 263.881 915.552 269.924C915.552 275.968 920.451 280.867 926.495 280.867Z" fill="#DC8B12"/>
<path opacity="0.2" d="M1001.88 519.178C1007.92 519.178 1012.82 514.279 1012.82 508.235C1012.82 502.192 1007.92 497.292 1001.88 497.292C995.837 497.292 990.938 502.192 990.938 508.235C990.938 514.279 995.837 519.178 1001.88 519.178Z" fill="#DC8B12"/>
<path opacity="0.19" d="M945.95 764.786C951.994 764.786 956.893 759.886 956.893 753.843C956.893 747.799 951.994 742.9 945.95 742.9C939.907 742.9 935.007 747.799 935.007 753.843C935.007 759.886 939.907 764.786 945.95 764.786Z" fill="#DC8B12"/>
<path opacity="0.19" d="M770.865 944.734C776.908 944.734 781.808 939.835 781.808 933.792C781.808 927.748 776.908 922.849 770.865 922.849C764.821 922.849 759.922 927.748 759.922 933.792C759.922 939.835 764.821 944.734 770.865 944.734Z" fill="#DC8B12"/>
<path opacity="0.19" d="M525.257 1010.39C531.301 1010.39 536.2 1005.49 536.2 999.449C536.2 993.406 531.301 988.506 525.257 988.506C519.214 988.506 514.314 993.406 514.314 999.449C514.314 1005.49 519.214 1010.39 525.257 1010.39Z" fill="#DC8B12"/>
<path opacity="0.19" d="M282.082 939.871C288.126 939.871 293.025 934.972 293.025 928.928C293.025 922.885 288.126 917.986 282.082 917.986C276.038 917.986 271.139 922.885 271.139 928.928C271.139 934.972 276.038 939.871 282.082 939.871Z" fill="#DC8B12"/>
<path opacity="0.18" d="M109.429 755.058C115.473 755.058 120.372 750.159 120.372 744.115C120.372 738.072 115.473 733.173 109.429 733.173C103.386 733.173 98.4863 738.072 98.4863 744.115C98.4863 750.159 103.386 755.058 109.429 755.058Z" fill="#DC8B12"/>
<path opacity="0.18" d="M55.9307 507.02C61.9743 507.02 66.8735 502.12 66.8735 496.077C66.8735 490.033 61.9743 485.134 55.9307 485.134C49.8871 485.134 44.9878 490.033 44.9878 496.077C44.9878 502.12 49.8871 507.02 55.9307 507.02Z" fill="#DC8B12"/>
<path opacity="0.18" d="M138.608 263.845C144.652 263.845 149.551 258.945 149.551 252.902C149.551 246.858 144.652 241.959 138.608 241.959C132.565 241.959 127.666 246.858 127.666 252.902C127.666 258.945 132.565 263.845 138.608 263.845Z" fill="#DC8B12"/>
<path opacity="0.18" d="M333.149 98.4861C339.193 98.4861 344.092 93.5868 344.092 87.5432C344.092 81.4996 339.193 76.6003 333.149 76.6003C327.105 76.6003 322.206 81.4996 322.206 87.5432C322.206 93.5868 327.105 98.4861 333.149 98.4861Z" fill="#DC8B12"/>
<path opacity="0.17" d="M586.05 57.1458C592.094 57.1458 596.993 52.2465 596.993 46.2029C596.993 40.1593 592.094 35.26 586.05 35.26C580.007 35.26 575.107 40.1593 575.107 46.2029C575.107 52.2465 580.007 57.1458 586.05 57.1458Z" fill="#DC8B12"/>
<path opacity="0.17" d="M826.795 151.984C832.839 151.984 837.738 147.085 837.738 141.041C837.738 134.998 832.839 130.098 826.795 130.098C820.751 130.098 815.852 134.998 815.852 141.041C815.852 147.085 820.751 151.984 826.795 151.984Z" fill="#DC8B12"/>
<path opacity="0.17" d="M982.427 356.251C988.47 356.251 993.37 351.352 993.37 345.308C993.37 339.265 988.47 334.365 982.427 334.365C976.383 334.365 971.484 339.265 971.484 345.308C971.484 351.352 976.383 356.251 982.427 356.251Z" fill="#DC8B12"/>
<path opacity="0.17" d="M1011.61 614.017C1017.65 614.017 1022.55 609.117 1022.55 603.074C1022.55 597.03 1017.65 592.131 1011.61 592.131C1005.56 592.131 1000.66 597.03 1000.66 603.074C1000.66 609.117 1005.56 614.017 1011.61 614.017Z" fill="#DC8B12"/>
<path opacity="0.17" d="M904.611 849.897C910.654 849.897 915.554 844.998 915.554 838.954C915.554 832.911 910.654 828.011 904.611 828.011C898.567 828.011 893.668 832.911 893.668 838.954C893.668 844.998 898.567 849.897 904.611 849.897Z" fill="#DC8B12"/>
<path opacity="0.16" d="M690.617 998.233C696.66 998.233 701.56 993.334 701.56 987.291C701.56 981.247 696.66 976.348 690.617 976.348C684.573 976.348 679.674 981.247 679.674 987.291C679.674 993.334 684.573 998.233 690.617 998.233Z" fill="#DC8B12"/>
<path opacity="0.16" d="M430.42 1015.26C436.464 1015.26 441.363 1010.36 441.363 1004.31C441.363 998.269 436.464 993.37 430.42 993.37C424.377 993.37 419.478 998.269 419.478 1004.31C419.478 1010.36 424.377 1015.26 430.42 1015.26Z" fill="#DC8B12"/>
<path opacity="0.16" d="M196.971 896.099C203.014 896.099 207.914 891.2 207.914 885.156C207.914 879.113 203.014 874.214 196.971 874.214C190.927 874.214 186.028 879.113 186.028 885.156C186.028 891.2 190.927 896.099 196.971 896.099Z" fill="#DC8B12"/>
<path opacity="0.16" d="M58.3613 672.379C64.4049 672.379 69.3042 667.479 69.3042 661.436C69.3042 655.392 64.4049 650.493 58.3613 650.493C52.3177 650.493 47.4185 655.392 47.4185 661.436C47.4185 667.479 52.3177 672.379 58.3613 672.379Z" fill="#DC8B12"/>
<path opacity="0.15" d="M55.9307 409.75C61.9743 409.75 66.8735 404.85 66.8735 398.807C66.8735 392.763 61.9743 387.864 55.9307 387.864C49.8871 387.864 44.9878 392.763 44.9878 398.807C44.9878 404.85 49.8871 409.75 55.9307 409.75Z" fill="#DC8B12"/>
<path opacity="0.15" d="M187.245 181.166C193.289 181.166 198.188 176.266 198.188 170.223C198.188 164.179 193.289 159.28 187.245 159.28C181.202 159.28 176.302 164.179 176.302 170.223C176.302 176.266 181.202 181.166 187.245 181.166Z" fill="#DC8B12"/>
<path opacity="0.15" d="M418.261 53.4982C424.976 53.4982 430.42 48.0545 430.42 41.3394C430.42 34.6243 424.976 29.1807 418.261 29.1807C411.546 29.1807 406.102 34.6243 406.102 41.3394C406.102 48.0545 411.546 53.4982 418.261 53.4982Z" fill="#DC8B12"/>
<path opacity="0.15" d="M683.322 63.2255C690.037 63.2255 695.481 57.7818 695.481 51.0667C695.481 44.3516 690.037 38.908 683.322 38.908C676.607 38.908 671.163 44.3516 671.163 51.0667C671.163 57.7818 676.607 63.2255 683.322 63.2255Z" fill="#DC8B12"/>
<path opacity="0.14" d="M907.042 206.699C913.757 206.699 919.201 201.255 919.201 194.54C919.201 187.825 913.757 182.381 907.042 182.381C900.327 182.381 894.883 187.825 894.883 194.54C894.883 201.255 900.327 206.699 907.042 206.699Z" fill="#DC8B12"/>
<path opacity="0.14" d="M1023.77 447.442C1030.48 447.442 1035.93 441.999 1035.93 435.284C1035.93 428.568 1030.48 423.125 1023.77 423.125C1017.05 423.125 1011.61 428.568 1011.61 435.284C1011.61 441.999 1017.05 447.442 1023.77 447.442Z" fill="#DC8B12"/>
<path opacity="0.14" d="M1001.88 712.503C1008.6 712.503 1014.04 707.059 1014.04 700.344C1014.04 693.629 1008.6 688.185 1001.88 688.185C995.165 688.185 989.722 693.629 989.722 700.344C989.722 707.059 995.165 712.503 1001.88 712.503Z" fill="#DC8B12"/>
<path opacity="0.14" d="M846.249 931.36C852.964 931.36 858.408 925.917 858.408 919.202C858.408 912.487 852.964 907.043 846.249 907.043C839.534 907.043 834.09 912.487 834.09 919.202C834.09 925.917 839.534 931.36 846.249 931.36Z" fill="#DC8B12"/>
<path opacity="0.14" d="M598.211 1038.36C604.926 1038.36 610.369 1032.91 610.369 1026.2C610.369 1019.48 604.926 1014.04 598.211 1014.04C591.495 1014.04 586.052 1019.48 586.052 1026.2C586.052 1032.91 591.495 1038.36 598.211 1038.36Z" fill="#DC8B12"/>
<path opacity="0.13" d="M333.149 1001.88C339.865 1001.88 345.308 996.437 345.308 989.722C345.308 983.007 339.865 977.563 333.149 977.563C326.434 977.563 320.991 983.007 320.991 989.722C320.991 996.437 326.434 1001.88 333.149 1001.88Z" fill="#DC8B12"/>
<path opacity="0.13" d="M121.588 834.09C128.303 834.09 133.747 828.647 133.747 821.932C133.747 815.217 128.303 809.773 121.588 809.773C114.873 809.773 109.429 815.217 109.429 821.932C109.429 828.647 114.873 834.09 121.588 834.09Z" fill="#DC8B12"/>
<path opacity="0.13" d="M26.7501 578.757C33.4651 578.757 38.9088 573.313 38.9088 566.598C38.9088 559.883 33.4651 554.439 26.7501 554.439C20.035 554.439 14.5913 559.883 14.5913 566.598C14.5913 573.313 20.035 578.757 26.7501 578.757Z" fill="#DC8B12"/>
<path opacity="0.13" d="M75.3848 313.696C82.0999 313.696 87.5436 308.252 87.5436 301.537C87.5436 294.822 82.0999 289.378 75.3848 289.378C68.6697 289.378 63.2261 294.822 63.2261 301.537C63.2261 308.252 68.6697 313.696 75.3848 313.696Z" fill="#DC8B12"/>
<path opacity="0.12" d="M255.334 109.429C262.049 109.429 267.492 103.985 267.492 97.2701C267.492 90.555 262.049 85.1113 255.334 85.1113C248.618 85.1113 243.175 90.555 243.175 97.2701C243.175 103.985 248.618 109.429 255.334 109.429Z" fill="#DC8B12"/>
<path opacity="0.12" d="M515.53 24.3175C522.245 24.3175 527.689 18.8738 527.689 12.1587C527.689 5.44366 522.245 0 515.53 0C508.815 0 503.372 5.44366 503.372 12.1587C503.372 18.8738 508.815 24.3175 515.53 24.3175Z" fill="#DC8B12"/>
<path opacity="0.12" d="M780.591 87.5427C787.306 87.5427 792.75 82.0991 792.75 75.384C792.75 68.6689 787.306 63.2252 780.591 63.2252C773.876 63.2252 768.433 68.6689 768.433 75.384C768.433 82.0991 773.876 87.5427 780.591 87.5427Z" fill="#DC8B12"/>
<path opacity="0.12" d="M977.563 279.651C984.278 279.651 989.721 274.207 989.721 267.492C989.721 260.777 984.278 255.334 977.563 255.334C970.847 255.334 965.404 260.777 965.404 267.492C965.404 274.207 970.847 279.651 977.563 279.651Z" fill="#DC8B12"/>
<path opacity="0.11" d="M1048.08 544.712C1054.8 544.712 1060.24 539.268 1060.24 532.553C1060.24 525.838 1054.8 520.395 1048.08 520.395C1041.37 520.395 1035.93 525.838 1035.93 532.553C1035.93 539.268 1041.37 544.712 1048.08 544.712Z" fill="#DC8B12"/>
<path opacity="0.11" d="M972.7 809.773C979.415 809.773 984.859 804.329 984.859 797.614C984.859 790.899 979.415 785.456 972.7 785.456C965.985 785.456 960.541 790.899 960.541 797.614C960.541 804.329 965.985 809.773 972.7 809.773Z" fill="#DC8B12"/>
<path opacity="0.11" d="M770.864 999.449C777.579 999.449 783.023 994.005 783.023 987.29C783.023 980.575 777.579 975.132 770.864 975.132C764.149 975.132 758.705 980.575 758.705 987.29C758.705 994.005 764.149 999.449 770.864 999.449Z" fill="#DC8B12"/>
<path opacity="0.11" d="M498.509 1057.81C505.224 1057.81 510.668 1052.37 510.668 1045.65C510.668 1038.94 505.224 1033.49 498.509 1033.49C491.794 1033.49 486.35 1038.94 486.35 1045.65C486.35 1052.37 491.794 1057.81 498.509 1057.81Z" fill="#DC8B12"/>
<path opacity="0.11" d="M235.878 967.837C242.594 967.837 248.037 962.393 248.037 955.678C248.037 948.963 242.594 943.519 235.878 943.519C229.163 943.519 223.72 948.963 223.72 955.678C223.72 962.393 229.163 967.837 235.878 967.837Z" fill="#DC8B12"/>
<path opacity="0.1" d="M55.9302 753.842C62.6453 753.842 68.089 748.399 68.089 741.684C68.089 734.969 62.6453 729.525 55.9302 729.525C49.2151 729.525 43.7715 734.969 43.7715 741.684C43.7715 748.399 49.2151 753.842 55.9302 753.842Z" fill="#DC8B12"/>
<path opacity="0.1" d="M12.1587 479.054C18.8738 479.054 24.3175 473.611 24.3175 466.896C24.3175 460.181 18.8738 454.737 12.1587 454.737C5.44366 454.737 0 460.181 0 466.896C0 473.611 5.44366 479.054 12.1587 479.054Z" fill="#DC8B12"/>
</svg>
