<svg width="693" height="693" viewBox="0 0 693 693" fill="none" xmlns="http://www.w3.org/2000/svg">
<g opacity="0.27">
<path d="M352.601 346.282C352.936 346.282 353.207 346.011 353.207 345.676C353.207 345.342 352.936 345.071 352.601 345.071C352.266 345.071 351.995 345.342 351.995 345.676C351.995 346.011 352.266 346.282 352.601 346.282Z" fill="#DC8B12"/>
<path d="M352.601 349.917C352.936 349.917 353.207 349.646 353.207 349.311C353.207 348.977 352.936 348.705 352.601 348.705C352.266 348.705 351.995 348.977 351.995 349.311C351.995 349.646 352.266 349.917 352.601 349.917Z" fill="#DC8B12"/>
<path d="M350.176 352.341C350.511 352.341 350.782 352.069 350.782 351.735C350.782 351.4 350.511 351.129 350.176 351.129C349.842 351.129 349.57 351.4 349.57 351.735C349.57 352.069 349.842 352.341 350.176 352.341Z" fill="#DC8B12"/>
<path opacity="0.99" d="M346.542 354.764C346.876 354.764 347.148 354.493 347.148 354.158C347.148 353.823 346.876 353.552 346.542 353.552C346.207 353.552 345.936 353.823 345.936 354.158C345.936 354.493 346.207 354.764 346.542 354.764Z" fill="#DC8B12"/>
<path opacity="0.99" d="M341.695 353.552C342.03 353.552 342.301 353.281 342.301 352.946C342.301 352.612 342.03 352.341 341.695 352.341C341.361 352.341 341.089 352.612 341.089 352.946C341.089 353.281 341.361 353.552 341.695 353.552Z" fill="#DC8B12"/>
<path opacity="0.99" d="M338.059 349.917C338.394 349.917 338.665 349.646 338.665 349.311C338.665 348.977 338.394 348.705 338.059 348.705C337.725 348.705 337.454 348.977 337.454 349.311C337.454 349.646 337.725 349.917 338.059 349.917Z" fill="#DC8B12"/>
<path opacity="0.99" d="M336.849 345.07C337.183 345.07 337.454 344.799 337.454 344.464C337.454 344.13 337.183 343.859 336.849 343.859C336.514 343.859 336.243 344.13 336.243 344.464C336.243 344.799 336.514 345.07 336.849 345.07Z" fill="#DC8B12"/>
<path opacity="0.98" d="M338.059 340.224C338.394 340.224 338.665 339.953 338.665 339.618C338.665 339.283 338.394 339.012 338.059 339.012C337.725 339.012 337.454 339.283 337.454 339.618C337.454 339.953 337.725 340.224 338.059 340.224Z" fill="#DC8B12"/>
<path opacity="0.98" d="M341.695 335.377C342.03 335.377 342.301 335.106 342.301 334.771C342.301 334.437 342.03 334.165 341.695 334.165C341.361 334.165 341.089 334.437 341.089 334.771C341.089 335.106 341.361 335.377 341.695 335.377Z" fill="#DC8B12"/>
<path opacity="0.98" d="M347.753 334.165C348.088 334.165 348.359 333.894 348.359 333.56C348.359 333.225 348.088 332.954 347.753 332.954C347.419 332.954 347.147 333.225 347.147 333.56C347.147 333.894 347.419 334.165 347.753 334.165Z" fill="#DC8B12"/>
<path opacity="0.98" d="M355.024 336.589C355.358 336.589 355.63 336.317 355.63 335.983C355.63 335.648 355.358 335.377 355.024 335.377C354.689 335.377 354.418 335.648 354.418 335.983C354.418 336.317 354.689 336.589 355.024 336.589Z" fill="#DC8B12"/>
<path opacity="0.97" d="M358.659 341.435C358.994 341.435 359.265 341.164 359.265 340.83C359.265 340.495 358.994 340.224 358.659 340.224C358.324 340.224 358.053 340.495 358.053 340.83C358.053 341.164 358.324 341.435 358.659 341.435Z" fill="#DC8B12"/>
<path opacity="0.97" d="M359.87 348.705C360.205 348.705 360.476 348.434 360.476 348.1C360.476 347.765 360.205 347.494 359.87 347.494C359.536 347.494 359.265 347.765 359.265 348.1C359.265 348.434 359.536 348.705 359.87 348.705Z" fill="#DC8B12"/>
<path opacity="0.97" d="M357.447 355.975C357.782 355.975 358.053 355.704 358.053 355.37C358.053 355.035 357.782 354.764 357.447 354.764C357.113 354.764 356.841 355.035 356.841 355.37C356.841 355.704 357.113 355.975 357.447 355.975Z" fill="#DC8B12"/>
<path opacity="0.97" d="M351.388 360.822C351.723 360.822 351.994 360.551 351.994 360.216C351.994 359.882 351.723 359.611 351.388 359.611C351.053 359.611 350.782 359.882 350.782 360.216C350.782 360.551 351.053 360.822 351.388 360.822Z" fill="#DC8B12"/>
<path opacity="0.97" d="M342.907 362.034C343.242 362.034 343.513 361.763 343.513 361.428C343.513 361.093 343.242 360.822 342.907 360.822C342.573 360.822 342.301 361.093 342.301 361.428C342.301 361.763 342.573 362.034 342.907 362.034Z" fill="#DC8B12"/>
<path opacity="0.96" d="M334.426 358.399C334.76 358.399 335.032 358.128 335.032 357.793C335.032 357.459 334.76 357.188 334.426 357.188C334.091 357.188 333.82 357.459 333.82 357.793C333.82 358.128 334.091 358.399 334.426 358.399Z" fill="#DC8B12"/>
<path opacity="0.96" d="M329.578 349.917C329.912 349.917 330.183 349.646 330.183 349.311C330.183 348.977 329.912 348.705 329.578 348.705C329.243 348.705 328.972 348.977 328.972 349.311C328.972 349.646 329.243 349.917 329.578 349.917Z" fill="#DC8B12"/>
<path opacity="0.96" d="M329.578 341.435C329.912 341.435 330.183 341.164 330.183 340.83C330.183 340.495 329.912 340.224 329.578 340.224C329.243 340.224 328.972 340.495 328.972 340.83C328.972 341.164 329.243 341.435 329.578 341.435Z" fill="#DC8B12"/>
<path opacity="0.96" d="M334.426 332.953C334.76 332.953 335.032 332.682 335.032 332.348C335.032 332.013 334.76 331.742 334.426 331.742C334.091 331.742 333.82 332.013 333.82 332.348C333.82 332.682 334.091 332.953 334.426 332.953Z" fill="#DC8B12"/>
<path opacity="0.95" d="M342.907 328.107C343.242 328.107 343.513 327.836 343.513 327.501C343.513 327.167 343.242 326.895 342.907 326.895C342.573 326.895 342.301 327.167 342.301 327.501C342.301 327.836 342.573 328.107 342.907 328.107Z" fill="#DC8B12"/>
<path opacity="0.95" d="M353.812 328.107C354.147 328.107 354.418 327.836 354.418 327.501C354.418 327.167 354.147 326.895 353.812 326.895C353.478 326.895 353.207 327.167 353.207 327.501C353.207 327.836 353.478 328.107 353.812 328.107Z" fill="#DC8B12"/>
<path opacity="0.95" d="M362.294 333.559C362.963 333.559 363.505 333.017 363.505 332.348C363.505 331.679 362.963 331.136 362.294 331.136C361.625 331.136 361.082 331.679 361.082 332.348C361.082 333.017 361.625 333.559 362.294 333.559Z" fill="#DC8B12"/>
<path opacity="0.95" d="M367.141 343.253C367.81 343.253 368.353 342.71 368.353 342.041C368.353 341.372 367.81 340.829 367.141 340.829C366.472 340.829 365.929 341.372 365.929 342.041C365.929 342.71 366.472 343.253 367.141 343.253Z" fill="#DC8B12"/>
<path opacity="0.94" d="M367.141 355.37C367.81 355.37 368.353 354.827 368.353 354.158C368.353 353.489 367.81 352.946 367.141 352.946C366.472 352.946 365.929 353.489 365.929 354.158C365.929 354.827 366.472 355.37 367.141 355.37Z" fill="#DC8B12"/>
<path opacity="0.94" d="M359.869 365.063C360.539 365.063 361.081 364.521 361.081 363.852C361.081 363.182 360.539 362.64 359.869 362.64C359.2 362.64 358.658 363.182 358.658 363.852C358.658 364.521 359.2 365.063 359.869 365.063Z" fill="#DC8B12"/>
<path opacity="0.94" d="M348.965 369.91C349.634 369.91 350.177 369.368 350.177 368.698C350.177 368.029 349.634 367.487 348.965 367.487C348.296 367.487 347.753 368.029 347.753 368.698C347.753 369.368 348.296 369.91 348.965 369.91Z" fill="#DC8B12"/>
<path opacity="0.94" d="M336.848 368.698C337.517 368.698 338.06 368.156 338.06 367.487C338.06 366.818 337.517 366.275 336.848 366.275C336.179 366.275 335.636 366.818 335.636 367.487C335.636 368.156 336.179 368.698 336.848 368.698Z" fill="#DC8B12"/>
<path opacity="0.94" d="M325.944 360.216C326.613 360.216 327.155 359.674 327.155 359.005C327.155 358.336 326.613 357.793 325.944 357.793C325.274 357.793 324.732 358.336 324.732 359.005C324.732 359.674 325.274 360.216 325.944 360.216Z" fill="#DC8B12"/>
<path opacity="0.93" d="M321.096 348.1C321.765 348.1 322.308 347.557 322.308 346.888C322.308 346.219 321.765 345.676 321.096 345.676C320.427 345.676 319.884 346.219 319.884 346.888C319.884 347.557 320.427 348.1 321.096 348.1Z" fill="#DC8B12"/>
<path opacity="0.93" d="M323.52 334.771C324.189 334.771 324.731 334.229 324.731 333.559C324.731 332.89 324.189 332.348 323.52 332.348C322.851 332.348 322.308 332.89 322.308 333.559C322.308 334.229 322.851 334.771 323.52 334.771Z" fill="#DC8B12"/>
<path opacity="0.93" d="M333.213 323.866C333.882 323.866 334.425 323.323 334.425 322.654C334.425 321.985 333.882 321.442 333.213 321.442C332.544 321.442 332.001 321.985 332.001 322.654C332.001 323.323 332.544 323.866 333.213 323.866Z" fill="#DC8B12"/>
<path opacity="0.93" d="M346.542 320.231C347.211 320.231 347.753 319.688 347.753 319.019C347.753 318.35 347.211 317.808 346.542 317.808C345.873 317.808 345.33 318.35 345.33 319.019C345.33 319.688 345.873 320.231 346.542 320.231Z" fill="#DC8B12"/>
<path opacity="0.92" d="M361.082 322.654C361.751 322.654 362.293 322.112 362.293 321.443C362.293 320.773 361.751 320.231 361.082 320.231C360.413 320.231 359.87 320.773 359.87 321.443C359.87 322.112 360.413 322.654 361.082 322.654Z" fill="#DC8B12"/>
<path opacity="0.92" d="M371.987 333.559C372.656 333.559 373.198 333.017 373.198 332.348C373.198 331.679 372.656 331.136 371.987 331.136C371.317 331.136 370.775 331.679 370.775 332.348C370.775 333.017 371.317 333.559 371.987 333.559Z" fill="#DC8B12"/>
<path opacity="0.92" d="M375.622 348.1C376.292 348.1 376.834 347.557 376.834 346.888C376.834 346.219 376.292 345.676 375.622 345.676C374.953 345.676 374.411 346.219 374.411 346.888C374.411 347.557 374.953 348.1 375.622 348.1Z" fill="#DC8B12"/>
<path opacity="0.92" d="M370.776 363.852C371.445 363.852 371.987 363.309 371.987 362.64C371.987 361.971 371.445 361.428 370.776 361.428C370.106 361.428 369.564 361.971 369.564 362.64C369.564 363.309 370.106 363.852 370.776 363.852Z" fill="#DC8B12"/>
<path opacity="0.91" d="M359.869 374.757C360.539 374.757 361.081 374.214 361.081 373.545C361.081 372.876 360.539 372.333 359.869 372.333C359.2 372.333 358.658 372.876 358.658 373.545C358.658 374.214 359.2 374.757 359.869 374.757Z" fill="#DC8B12"/>
<path opacity="0.91" d="M342.907 377.18C343.576 377.18 344.119 376.637 344.119 375.968C344.119 375.299 343.576 374.757 342.907 374.757C342.238 374.757 341.695 375.299 341.695 375.968C341.695 376.637 342.238 377.18 342.907 377.18Z" fill="#DC8B12"/>
<path opacity="0.91" d="M327.155 372.333C327.824 372.333 328.367 371.791 328.367 371.121C328.367 370.452 327.824 369.91 327.155 369.91C326.486 369.91 325.943 370.452 325.943 371.121C325.943 371.791 326.486 372.333 327.155 372.333Z" fill="#DC8B12"/>
<path opacity="0.91" d="M316.25 359.005C316.919 359.005 317.461 358.462 317.461 357.793C317.461 357.124 316.919 356.581 316.25 356.581C315.581 356.581 315.038 357.124 315.038 357.793C315.038 358.462 315.581 359.005 316.25 359.005Z" fill="#DC8B12"/>
<path opacity="0.91" d="M313.826 342.041C314.496 342.041 315.038 341.499 315.038 340.829C315.038 340.16 314.496 339.618 313.826 339.618C313.157 339.618 312.615 340.16 312.615 340.829C312.615 341.499 313.157 342.041 313.826 342.041Z" fill="#DC8B12"/>
<path opacity="0.9" d="M321.096 325.077C321.765 325.077 322.308 324.535 322.308 323.866C322.308 323.197 321.765 322.654 321.096 322.654C320.427 322.654 319.884 323.197 319.884 323.866C319.884 324.535 320.427 325.077 321.096 325.077Z" fill="#DC8B12"/>
<path opacity="0.9" d="M335.636 314.173C336.306 314.173 336.848 313.63 336.848 312.961C336.848 312.292 336.306 311.749 335.636 311.749C334.967 311.749 334.425 312.292 334.425 312.961C334.425 313.63 334.967 314.173 335.636 314.173Z" fill="#DC8B12"/>
<path opacity="0.9" d="M353.811 312.961C354.48 312.961 355.023 312.418 355.023 311.749C355.023 311.08 354.48 310.537 353.811 310.537C353.142 310.537 352.6 311.08 352.6 311.749C352.6 312.418 353.142 312.961 353.811 312.961Z" fill="#DC8B12"/>
<path opacity="0.9" d="M370.776 320.231C371.445 320.231 371.987 319.688 371.987 319.019C371.987 318.35 371.445 317.808 370.776 317.808C370.106 317.808 369.564 318.35 369.564 319.019C369.564 319.688 370.106 320.231 370.776 320.231Z" fill="#DC8B12"/>
<path opacity="0.89" d="M381.68 335.983C382.35 335.983 382.892 335.44 382.892 334.771C382.892 334.102 382.35 333.559 381.68 333.559C381.011 333.559 380.469 334.102 380.469 334.771C380.469 335.44 381.011 335.983 381.68 335.983Z" fill="#DC8B12"/>
<path opacity="0.89" d="M381.68 355.37C382.35 355.37 382.892 354.827 382.892 354.158C382.892 353.489 382.35 352.946 381.68 352.946C381.011 352.946 380.469 353.489 380.469 354.158C380.469 354.827 381.011 355.37 381.68 355.37Z" fill="#DC8B12"/>
<path opacity="0.89" d="M373.199 373.545C373.868 373.545 374.411 373.002 374.411 372.333C374.411 371.664 373.868 371.121 373.199 371.121C372.53 371.121 371.987 371.664 371.987 372.333C371.987 373.002 372.53 373.545 373.199 373.545Z" fill="#DC8B12"/>
<path opacity="0.89" d="M356.236 384.45C356.905 384.45 357.447 383.907 357.447 383.238C357.447 382.569 356.905 382.027 356.236 382.027C355.566 382.027 355.024 382.569 355.024 383.238C355.024 383.907 355.566 384.45 356.236 384.45Z" fill="#DC8B12"/>
<path opacity="0.88" d="M335.636 384.45C336.306 384.45 336.848 383.907 336.848 383.238C336.848 382.569 336.306 382.027 335.636 382.027C334.967 382.027 334.425 382.569 334.425 383.238C334.425 383.907 334.967 384.45 335.636 384.45Z" fill="#DC8B12"/>
<path opacity="0.88" d="M317.461 373.545C318.13 373.545 318.672 373.002 318.672 372.333C318.672 371.664 318.13 371.121 317.461 371.121C316.792 371.121 316.249 371.664 316.249 372.333C316.249 373.002 316.792 373.545 317.461 373.545Z" fill="#DC8B12"/>
<path opacity="0.88" d="M307.768 354.158C308.438 354.158 308.98 353.615 308.98 352.946C308.98 352.277 308.438 351.735 307.768 351.735C307.099 351.735 306.557 352.277 306.557 352.946C306.557 353.615 307.099 354.158 307.768 354.158Z" fill="#DC8B12"/>
<path opacity="0.88" d="M307.768 333.559C308.438 333.559 308.98 333.017 308.98 332.348C308.98 331.679 308.438 331.136 307.768 331.136C307.099 331.136 306.557 331.679 306.557 332.348C306.557 333.017 307.099 333.559 307.768 333.559Z" fill="#DC8B12"/>
<path opacity="0.88" d="M319.885 315.384C320.554 315.384 321.096 314.842 321.096 314.172C321.096 313.503 320.554 312.961 319.885 312.961C319.215 312.961 318.673 313.503 318.673 314.172C318.673 314.842 319.215 315.384 319.885 315.384Z" fill="#DC8B12"/>
<path opacity="0.87" d="M340.483 305.691C341.152 305.691 341.695 305.148 341.695 304.479C341.695 303.81 341.152 303.267 340.483 303.267C339.814 303.267 339.271 303.81 339.271 304.479C339.271 305.148 339.814 305.691 340.483 305.691Z" fill="#DC8B12"/>
<path opacity="0.87" d="M363.505 306.902C364.174 306.902 364.716 306.36 364.716 305.69C364.716 305.021 364.174 304.479 363.505 304.479C362.835 304.479 362.293 305.021 362.293 305.69C362.293 306.36 362.835 306.902 363.505 306.902Z" fill="#DC8B12"/>
<path opacity="0.87" d="M381.68 321.443C382.35 321.443 382.892 320.9 382.892 320.231C382.892 319.562 382.35 319.019 381.68 319.019C381.011 319.019 380.469 319.562 380.469 320.231C380.469 320.9 381.011 321.443 381.68 321.443Z" fill="#DC8B12"/>
<path opacity="0.87" d="M390.162 343.253C390.832 343.253 391.374 342.71 391.374 342.041C391.374 341.372 390.832 340.829 390.162 340.829C389.493 340.829 388.951 341.372 388.951 342.041C388.951 342.71 389.493 343.253 390.162 343.253Z" fill="#DC8B12"/>
<path opacity="0.86" d="M386.528 366.275C387.197 366.275 387.74 365.732 387.74 365.063C387.74 364.394 387.197 363.851 386.528 363.851C385.859 363.851 385.316 364.394 385.316 365.063C385.316 365.732 385.859 366.275 386.528 366.275Z" fill="#DC8B12"/>
<path opacity="0.86" d="M371.987 384.45C372.656 384.45 373.198 383.907 373.198 383.238C373.198 382.569 372.656 382.027 371.987 382.027C371.317 382.027 370.775 382.569 370.775 383.238C370.775 383.907 371.317 384.45 371.987 384.45Z" fill="#DC8B12"/>
<path opacity="0.86" d="M348.965 392.932C349.634 392.932 350.177 392.39 350.177 391.72C350.177 391.051 349.634 390.509 348.965 390.509C348.296 390.509 347.753 391.051 347.753 391.72C347.753 392.39 348.296 392.932 348.965 392.932Z" fill="#DC8B12"/>
<path opacity="0.86" d="M324.732 388.085C325.401 388.085 325.943 387.543 325.943 386.874C325.943 386.204 325.401 385.662 324.732 385.662C324.063 385.662 323.52 386.204 323.52 386.874C323.52 387.543 324.063 388.085 324.732 388.085Z" fill="#DC8B12"/>
<path opacity="0.85" d="M305.344 371.122C306.014 371.122 306.556 370.579 306.556 369.91C306.556 369.241 306.014 368.698 305.344 368.698C304.675 368.698 304.133 369.241 304.133 369.91C304.133 370.579 304.675 371.122 305.344 371.122Z" fill="#DC8B12"/>
<path opacity="0.85" d="M298.074 346.888C298.744 346.888 299.286 346.345 299.286 345.676C299.286 345.007 298.744 344.465 298.074 344.465C297.405 344.465 296.863 345.007 296.863 345.676C296.863 346.345 297.405 346.888 298.074 346.888Z" fill="#DC8B12"/>
<path opacity="0.85" d="M305.344 321.443C306.014 321.443 306.556 320.9 306.556 320.231C306.556 319.562 306.014 319.019 305.344 319.019C304.675 319.019 304.133 319.562 304.133 320.231C304.133 320.9 304.675 321.443 305.344 321.443Z" fill="#DC8B12"/>
<path opacity="0.85" d="M323.52 303.873C324.524 303.873 325.338 303.059 325.338 302.056C325.338 301.052 324.524 300.238 323.52 300.238C322.516 300.238 321.703 301.052 321.703 302.056C321.703 303.059 322.516 303.873 323.52 303.873Z" fill="#DC8B12"/>
<path opacity="0.85" d="M348.965 297.815C349.969 297.815 350.783 297.001 350.783 295.997C350.783 294.993 349.969 294.18 348.965 294.18C347.961 294.18 347.147 294.993 347.147 295.997C347.147 297.001 347.961 297.815 348.965 297.815Z" fill="#DC8B12"/>
<path opacity="0.84" d="M374.41 305.085C375.414 305.085 376.228 304.271 376.228 303.267C376.228 302.263 375.414 301.45 374.41 301.45C373.407 301.45 372.593 302.263 372.593 303.267C372.593 304.271 373.407 305.085 374.41 305.085Z" fill="#DC8B12"/>
<path opacity="0.84" d="M392.586 325.684C393.589 325.684 394.403 324.87 394.403 323.866C394.403 322.862 393.589 322.048 392.586 322.048C391.582 322.048 390.768 322.862 390.768 323.866C390.768 324.87 391.582 325.684 392.586 325.684Z" fill="#DC8B12"/>
<path opacity="0.84" d="M398.645 352.34C399.648 352.34 400.462 351.527 400.462 350.523C400.462 349.519 399.648 348.705 398.645 348.705C397.641 348.705 396.827 349.519 396.827 350.523C396.827 351.527 397.641 352.34 398.645 352.34Z" fill="#DC8B12"/>
<path opacity="0.84" d="M388.95 378.998C389.954 378.998 390.768 378.184 390.768 377.18C390.768 376.176 389.954 375.363 388.95 375.363C387.947 375.363 387.133 376.176 387.133 377.18C387.133 378.184 387.947 378.998 388.95 378.998Z" fill="#DC8B12"/>
<path opacity="0.83" d="M367.14 397.173C368.144 397.173 368.958 396.359 368.958 395.356C368.958 394.352 368.144 393.538 367.14 393.538C366.136 393.538 365.323 394.352 365.323 395.356C365.323 396.359 366.136 397.173 367.14 397.173Z" fill="#DC8B12"/>
<path opacity="0.83" d="M338.06 400.808C339.064 400.808 339.878 399.994 339.878 398.99C339.878 397.987 339.064 397.173 338.06 397.173C337.056 397.173 336.243 397.987 336.243 398.99C336.243 399.994 337.056 400.808 338.06 400.808Z" fill="#DC8B12"/>
<path opacity="0.83" d="M311.403 389.903C312.407 389.903 313.221 389.089 313.221 388.085C313.221 387.081 312.407 386.268 311.403 386.268C310.399 386.268 309.585 387.081 309.585 388.085C309.585 389.089 310.399 389.903 311.403 389.903Z" fill="#DC8B12"/>
<path opacity="0.83" d="M294.44 365.669C295.443 365.669 296.257 364.855 296.257 363.851C296.257 362.848 295.443 362.034 294.44 362.034C293.436 362.034 292.622 362.848 292.622 363.851C292.622 364.855 293.436 365.669 294.44 365.669Z" fill="#DC8B12"/>
<path opacity="0.82" d="M292.016 336.589C293.02 336.589 293.834 335.775 293.834 334.771C293.834 333.767 293.02 332.954 292.016 332.954C291.012 332.954 290.199 333.767 290.199 334.771C290.199 335.775 291.012 336.589 292.016 336.589Z" fill="#DC8B12"/>
<path opacity="0.82" d="M305.345 309.931C306.349 309.931 307.162 309.118 307.162 308.114C307.162 307.11 306.349 306.296 305.345 306.296C304.341 306.296 303.527 307.11 303.527 308.114C303.527 309.118 304.341 309.931 305.345 309.931Z" fill="#DC8B12"/>
<path opacity="0.82" d="M329.578 292.968C330.582 292.968 331.396 292.154 331.396 291.15C331.396 290.146 330.582 289.333 329.578 289.333C328.574 289.333 327.761 290.146 327.761 291.15C327.761 292.154 328.574 292.968 329.578 292.968Z" fill="#DC8B12"/>
<path opacity="0.82" d="M361.082 291.756C362.086 291.756 362.9 290.942 362.9 289.939C362.9 288.935 362.086 288.121 361.082 288.121C360.078 288.121 359.265 288.935 359.265 289.939C359.265 290.942 360.078 291.756 361.082 291.756Z" fill="#DC8B12"/>
<path opacity="0.82" d="M387.738 306.297C388.742 306.297 389.556 305.483 389.556 304.479C389.556 303.475 388.742 302.662 387.738 302.662C386.735 302.662 385.921 303.475 385.921 304.479C385.921 305.483 386.735 306.297 387.738 306.297Z" fill="#DC8B12"/>
<path opacity="0.81" d="M403.491 332.954C404.495 332.954 405.309 332.14 405.309 331.136C405.309 330.132 404.495 329.318 403.491 329.318C402.488 329.318 401.674 330.132 401.674 331.136C401.674 332.14 402.488 332.954 403.491 332.954Z" fill="#DC8B12"/>
<path opacity="0.81" d="M403.491 364.457C404.495 364.457 405.309 363.643 405.309 362.64C405.309 361.636 404.495 360.822 403.491 360.822C402.488 360.822 401.674 361.636 401.674 362.64C401.674 363.643 402.488 364.457 403.491 364.457Z" fill="#DC8B12"/>
<path opacity="0.81" d="M386.527 392.326C387.531 392.326 388.345 391.512 388.345 390.509C388.345 389.505 387.531 388.691 386.527 388.691C385.524 388.691 384.71 389.505 384.71 390.509C384.71 391.512 385.524 392.326 386.527 392.326Z" fill="#DC8B12"/>
<path opacity="0.81" d="M358.659 406.866C359.663 406.866 360.476 406.053 360.476 405.049C360.476 404.045 359.663 403.231 358.659 403.231C357.655 403.231 356.841 404.045 356.841 405.049C356.841 406.053 357.655 406.866 358.659 406.866Z" fill="#DC8B12"/>
<path opacity="0.8" d="M325.944 405.655C326.947 405.655 327.761 404.841 327.761 403.837C327.761 402.833 326.947 402.02 325.944 402.02C324.94 402.02 324.126 402.833 324.126 403.837C324.126 404.841 324.94 405.655 325.944 405.655Z" fill="#DC8B12"/>
<path opacity="0.8" d="M298.074 387.479C299.078 387.479 299.892 386.666 299.892 385.662C299.892 384.658 299.078 383.844 298.074 383.844C297.071 383.844 296.257 384.658 296.257 385.662C296.257 386.666 297.071 387.479 298.074 387.479Z" fill="#DC8B12"/>
<path opacity="0.8" d="M284.745 355.976C285.749 355.976 286.563 355.162 286.563 354.158C286.563 353.154 285.749 352.341 284.745 352.341C283.741 352.341 282.928 353.154 282.928 354.158C282.928 355.162 283.741 355.976 284.745 355.976Z" fill="#DC8B12"/>
<path opacity="0.8" d="M288.381 323.26C289.384 323.26 290.198 322.446 290.198 321.442C290.198 320.439 289.384 319.625 288.381 319.625C287.377 319.625 286.563 320.439 286.563 321.442C286.563 322.446 287.377 323.26 288.381 323.26Z" fill="#DC8B12"/>
<path opacity="0.79" d="M308.979 295.391C309.983 295.391 310.797 294.578 310.797 293.574C310.797 292.57 309.983 291.756 308.979 291.756C307.975 291.756 307.162 292.57 307.162 293.574C307.162 294.578 307.975 295.391 308.979 295.391Z" fill="#DC8B12"/>
<path opacity="0.79" d="M340.484 283.275C341.487 283.275 342.301 282.461 342.301 281.457C342.301 280.453 341.487 279.64 340.484 279.64C339.48 279.64 338.666 280.453 338.666 281.457C338.666 282.461 339.48 283.275 340.484 283.275Z" fill="#DC8B12"/>
<path opacity="0.79" d="M374.41 288.121C375.414 288.121 376.228 287.308 376.228 286.304C376.228 285.3 375.414 284.486 374.41 284.486C373.407 284.486 372.593 285.3 372.593 286.304C372.593 287.308 373.407 288.121 374.41 288.121Z" fill="#DC8B12"/>
<path opacity="0.79" d="M402.28 311.143C403.284 311.143 404.097 310.329 404.097 309.325C404.097 308.322 403.284 307.508 402.28 307.508C401.276 307.508 400.462 308.322 400.462 309.325C400.462 310.329 401.276 311.143 402.28 311.143Z" fill="#DC8B12"/>
<path opacity="0.79" d="M413.184 343.859C414.188 343.859 415.002 343.045 415.002 342.041C415.002 341.037 414.188 340.224 413.184 340.224C412.18 340.224 411.367 341.037 411.367 342.041C411.367 343.045 412.18 343.859 413.184 343.859Z" fill="#DC8B12"/>
<path opacity="0.78" d="M405.914 378.998C406.918 378.998 407.731 378.184 407.731 377.18C407.731 376.176 406.918 375.363 405.914 375.363C404.91 375.363 404.096 376.176 404.096 377.18C404.096 378.184 404.91 378.998 405.914 378.998Z" fill="#DC8B12"/>
<path opacity="0.78" d="M381.68 405.655C382.684 405.655 383.498 404.841 383.498 403.837C383.498 402.833 382.684 402.02 381.68 402.02C380.677 402.02 379.863 402.833 379.863 403.837C379.863 404.841 380.677 405.655 381.68 405.655Z" fill="#DC8B12"/>
<path opacity="0.78" d="M346.542 416.56C347.545 416.56 348.359 415.746 348.359 414.742C348.359 413.739 347.545 412.925 346.542 412.925C345.538 412.925 344.724 413.739 344.724 414.742C344.724 415.746 345.538 416.56 346.542 416.56Z" fill="#DC8B12"/>
<path opacity="0.78" d="M310.191 406.866C311.194 406.866 312.008 406.053 312.008 405.049C312.008 404.045 311.194 403.231 310.191 403.231C309.187 403.231 308.373 404.045 308.373 405.049C308.373 406.053 309.187 406.866 310.191 406.866Z" fill="#DC8B12"/>
<path opacity="0.77" d="M284.745 380.209C285.749 380.209 286.563 379.396 286.563 378.392C286.563 377.388 285.749 376.574 284.745 376.574C283.741 376.574 282.928 377.388 282.928 378.392C282.928 379.396 283.741 380.209 284.745 380.209Z" fill="#DC8B12"/>
<path opacity="0.77" d="M276.264 343.859C277.268 343.859 278.081 343.045 278.081 342.041C278.081 341.037 277.268 340.224 276.264 340.224C275.26 340.224 274.446 341.037 274.446 342.041C274.446 343.045 275.26 343.859 276.264 343.859Z" fill="#DC8B12"/>
<path opacity="0.77" d="M287.169 307.508C288.173 307.508 288.987 306.695 288.987 305.691C288.987 304.687 288.173 303.873 287.169 303.873C286.165 303.873 285.352 304.687 285.352 305.691C285.352 306.695 286.165 307.508 287.169 307.508Z" fill="#DC8B12"/>
<path opacity="0.77" d="M316.25 282.063C317.253 282.063 318.067 281.249 318.067 280.245C318.067 279.242 317.253 278.428 316.25 278.428C315.246 278.428 314.432 279.242 314.432 280.245C314.432 281.249 315.246 282.063 316.25 282.063Z" fill="#DC8B12"/>
<path opacity="0.76" d="M353.813 274.792C354.816 274.792 355.63 273.979 355.63 272.975C355.63 271.971 354.816 271.157 353.813 271.157C352.809 271.157 351.995 271.971 351.995 272.975C351.995 273.979 352.809 274.792 353.813 274.792Z" fill="#DC8B12"/>
<path opacity="0.76" d="M390.163 288.121C391.167 288.121 391.98 287.308 391.98 286.304C391.98 285.3 391.167 284.486 390.163 284.486C389.159 284.486 388.345 285.3 388.345 286.304C388.345 287.308 389.159 288.121 390.163 288.121Z" fill="#DC8B12"/>
<path opacity="0.76" d="M415.608 319.625C416.611 319.625 417.425 318.811 417.425 317.808C417.425 316.804 416.611 315.99 415.608 315.99C414.604 315.99 413.79 316.804 413.79 317.808C413.79 318.811 414.604 319.625 415.608 319.625Z" fill="#DC8B12"/>
<path opacity="0.76" d="M420.455 358.399C421.459 358.399 422.272 357.585 422.272 356.581C422.272 355.578 421.459 354.764 420.455 354.764C419.451 354.764 418.637 355.578 418.637 356.581C418.637 357.585 419.451 358.399 420.455 358.399Z" fill="#DC8B12"/>
<path opacity="0.76" d="M404.703 395.961C405.707 395.961 406.52 395.147 406.52 394.143C406.52 393.14 405.707 392.326 404.703 392.326C403.699 392.326 402.885 393.14 402.885 394.143C402.885 395.147 403.699 395.961 404.703 395.961Z" fill="#DC8B12"/>
<path opacity="0.75" d="M371.987 418.983C372.991 418.983 373.805 418.169 373.805 417.166C373.805 416.162 372.991 415.348 371.987 415.348C370.984 415.348 370.17 416.162 370.17 417.166C370.17 418.169 370.984 418.983 371.987 418.983Z" fill="#DC8B12"/>
<path opacity="0.75" d="M330.789 422.618C331.793 422.618 332.607 421.805 332.607 420.801C332.607 419.797 331.793 418.983 330.789 418.983C329.785 418.983 328.972 419.797 328.972 420.801C328.972 421.805 329.785 422.618 330.789 422.618Z" fill="#DC8B12"/>
<path opacity="0.75" d="M294.439 405.049C295.777 405.049 296.862 403.964 296.862 402.625C296.862 401.287 295.777 400.202 294.439 400.202C293.101 400.202 292.016 401.287 292.016 402.625C292.016 403.964 293.101 405.049 294.439 405.049Z" fill="#DC8B12"/>
<path opacity="0.75" d="M271.418 369.91C272.756 369.91 273.841 368.825 273.841 367.486C273.841 366.148 272.756 365.063 271.418 365.063C270.079 365.063 268.994 366.148 268.994 367.486C268.994 368.825 270.079 369.91 271.418 369.91Z" fill="#DC8B12"/>
<path opacity="0.74" d="M270.206 328.713C271.544 328.713 272.629 327.628 272.629 326.289C272.629 324.951 271.544 323.866 270.206 323.866C268.867 323.866 267.782 324.951 267.782 326.289C267.782 327.628 268.867 328.713 270.206 328.713Z" fill="#DC8B12"/>
<path opacity="0.74" d="M290.805 291.15C292.143 291.15 293.228 290.065 293.228 288.727C293.228 287.388 292.143 286.303 290.805 286.303C289.466 286.303 288.381 287.388 288.381 288.727C288.381 290.065 289.466 291.15 290.805 291.15Z" fill="#DC8B12"/>
<path opacity="0.74" d="M327.155 270.552C328.494 270.552 329.579 269.467 329.579 268.128C329.579 266.79 328.494 265.705 327.155 265.705C325.817 265.705 324.732 266.79 324.732 268.128C324.732 269.467 325.817 270.552 327.155 270.552Z" fill="#DC8B12"/>
<path opacity="0.74" d="M370.776 270.552C372.114 270.552 373.199 269.467 373.199 268.128C373.199 266.79 372.114 265.705 370.776 265.705C369.438 265.705 368.353 266.79 368.353 268.128C368.353 269.467 369.438 270.552 370.776 270.552Z" fill="#DC8B12"/>
<path opacity="0.73" d="M407.126 293.574C408.464 293.574 409.549 292.489 409.549 291.15C409.549 289.812 408.464 288.727 407.126 288.727C405.788 288.727 404.703 289.812 404.703 291.15C404.703 292.489 405.788 293.574 407.126 293.574Z" fill="#DC8B12"/>
<path opacity="0.73" d="M426.513 332.348C427.851 332.348 428.936 331.263 428.936 329.924C428.936 328.586 427.851 327.501 426.513 327.501C425.174 327.501 424.089 328.586 424.089 329.924C424.089 331.263 425.174 332.348 426.513 332.348Z" fill="#DC8B12"/>
<path opacity="0.73" d="M424.09 375.968C425.428 375.968 426.513 374.883 426.513 373.545C426.513 372.206 425.428 371.121 424.09 371.121C422.751 371.121 421.667 372.206 421.667 373.545C421.667 374.883 422.751 375.968 424.09 375.968Z" fill="#DC8B12"/>
<path opacity="0.73" d="M398.644 412.319C399.982 412.319 401.067 411.234 401.067 409.895C401.067 408.557 399.982 407.472 398.644 407.472C397.306 407.472 396.221 408.557 396.221 409.895C396.221 411.234 397.306 412.319 398.644 412.319Z" fill="#DC8B12"/>
<path opacity="0.73" d="M358.658 431.706C359.997 431.706 361.082 430.621 361.082 429.283C361.082 427.944 359.997 426.859 358.658 426.859C357.32 426.859 356.235 427.944 356.235 429.283C356.235 430.621 357.32 431.706 358.658 431.706Z" fill="#DC8B12"/>
<path opacity="0.72" d="M313.826 425.648C315.165 425.648 316.25 424.563 316.25 423.224C316.25 421.886 315.165 420.801 313.826 420.801C312.488 420.801 311.403 421.886 311.403 423.224C311.403 424.563 312.488 425.648 313.826 425.648Z" fill="#DC8B12"/>
<path opacity="0.72" d="M277.476 398.99C278.814 398.99 279.899 397.905 279.899 396.567C279.899 395.229 278.814 394.144 277.476 394.144C276.137 394.144 275.052 395.229 275.052 396.567C275.052 397.905 276.137 398.99 277.476 398.99Z" fill="#DC8B12"/>
<path opacity="0.72" d="M260.512 356.581C261.85 356.581 262.935 355.496 262.935 354.158C262.935 352.82 261.85 351.735 260.512 351.735C259.173 351.735 258.088 352.82 258.088 354.158C258.088 355.496 259.173 356.581 260.512 356.581Z" fill="#DC8B12"/>
<path opacity="0.72" d="M268.994 310.538C270.333 310.538 271.418 309.453 271.418 308.114C271.418 306.776 270.333 305.691 268.994 305.691C267.656 305.691 266.571 306.776 266.571 308.114C266.571 309.453 267.656 310.538 268.994 310.538Z" fill="#DC8B12"/>
<path opacity="0.71" d="M298.074 275.399C299.412 275.399 300.497 274.314 300.497 272.975C300.497 271.637 299.412 270.552 298.074 270.552C296.735 270.552 295.65 271.637 295.65 272.975C295.65 274.314 296.735 275.399 298.074 275.399Z" fill="#DC8B12"/>
<path opacity="0.71" d="M342.906 260.858C344.245 260.858 345.33 259.773 345.33 258.435C345.33 257.096 344.245 256.011 342.906 256.011C341.568 256.011 340.483 257.096 340.483 258.435C340.483 259.773 341.568 260.858 342.906 260.858Z" fill="#DC8B12"/>
<path opacity="0.71" d="M388.951 270.552C390.29 270.552 391.375 269.467 391.375 268.128C391.375 266.79 390.29 265.705 388.951 265.705C387.613 265.705 386.528 266.79 386.528 268.128C386.528 269.467 387.613 270.552 388.951 270.552Z" fill="#DC8B12"/>
<path opacity="0.71" d="M422.877 302.055C424.216 302.055 425.301 300.97 425.301 299.632C425.301 298.294 424.216 297.209 422.877 297.209C421.539 297.209 420.454 298.294 420.454 299.632C420.454 300.97 421.539 302.055 422.877 302.055Z" fill="#DC8B12"/>
<path opacity="0.7" d="M436.207 348.1C437.545 348.1 438.63 347.015 438.63 345.676C438.63 344.338 437.545 343.253 436.207 343.253C434.868 343.253 433.783 344.338 433.783 345.676C433.783 347.015 434.868 348.1 436.207 348.1Z" fill="#DC8B12"/>
<path opacity="0.7" d="M424.09 395.355C425.428 395.355 426.513 394.27 426.513 392.932C426.513 391.594 425.428 390.509 424.09 390.509C422.751 390.509 421.667 391.594 421.667 392.932C421.667 394.27 422.751 395.355 424.09 395.355Z" fill="#DC8B12"/>
<path opacity="0.7" d="M388.951 428.071C390.29 428.071 391.375 426.986 391.375 425.647C391.375 424.309 390.29 423.224 388.951 423.224C387.613 423.224 386.528 424.309 386.528 425.647C386.528 426.986 387.613 428.071 388.951 428.071Z" fill="#DC8B12"/>
<path opacity="0.7" d="M341.695 440.188C343.033 440.188 344.118 439.103 344.118 437.764C344.118 436.426 343.033 435.341 341.695 435.341C340.356 435.341 339.271 436.426 339.271 437.764C339.271 439.103 340.356 440.188 341.695 440.188Z" fill="#DC8B12"/>
<path opacity="0.7" d="M294.439 424.436C295.777 424.436 296.862 423.351 296.862 422.012C296.862 420.674 295.777 419.589 294.439 419.589C293.101 419.589 292.016 420.674 292.016 422.012C292.016 423.351 293.101 424.436 294.439 424.436Z" fill="#DC8B12"/>
<path opacity="0.69" d="M261.724 386.873C263.063 386.873 264.148 385.788 264.148 384.45C264.148 383.112 263.063 382.027 261.724 382.027C260.386 382.027 259.301 383.112 259.301 384.45C259.301 385.788 260.386 386.873 261.724 386.873Z" fill="#DC8B12"/>
<path opacity="0.69" d="M253.242 338.406C254.581 338.406 255.666 337.321 255.666 335.983C255.666 334.644 254.581 333.559 253.242 333.559C251.904 333.559 250.819 334.644 250.819 335.983C250.819 337.321 251.904 338.406 253.242 338.406Z" fill="#DC8B12"/>
<path opacity="0.69" d="M271.418 291.15C272.756 291.15 273.841 290.065 273.841 288.727C273.841 287.388 272.756 286.303 271.418 286.303C270.079 286.303 268.994 287.388 268.994 288.727C268.994 290.065 270.079 291.15 271.418 291.15Z" fill="#DC8B12"/>
<path opacity="0.69" d="M310.191 259.646C311.529 259.646 312.614 258.562 312.614 257.223C312.614 255.885 311.529 254.8 310.191 254.8C308.853 254.8 307.768 255.885 307.768 257.223C307.768 258.562 308.853 259.646 310.191 259.646Z" fill="#DC8B12"/>
<path opacity="0.68" d="M361.081 253.588C362.419 253.588 363.504 252.503 363.504 251.165C363.504 249.826 362.419 248.741 361.081 248.741C359.743 248.741 358.658 249.826 358.658 251.165C358.658 252.503 359.743 253.588 361.081 253.588Z" fill="#DC8B12"/>
<path opacity="0.68" d="M408.338 274.187C409.676 274.187 410.761 273.102 410.761 271.764C410.761 270.425 409.676 269.34 408.338 269.34C407 269.34 405.915 270.425 405.915 271.764C405.915 273.102 407 274.187 408.338 274.187Z" fill="#DC8B12"/>
<path opacity="0.68" d="M438.63 315.384C439.968 315.384 441.053 314.299 441.053 312.961C441.053 311.622 439.968 310.537 438.63 310.537C437.292 310.537 436.207 311.622 436.207 312.961C436.207 314.299 437.292 315.384 438.63 315.384Z" fill="#DC8B12"/>
<path opacity="0.68" d="M442.265 367.487C443.604 367.487 444.689 366.402 444.689 365.063C444.689 363.725 443.604 362.64 442.265 362.64C440.927 362.64 439.842 363.725 439.842 365.063C439.842 366.402 440.927 367.487 442.265 367.487Z" fill="#DC8B12"/>
<path opacity="0.68" d="M419.243 414.742C420.581 414.742 421.666 413.657 421.666 412.319C421.666 410.981 420.581 409.896 419.243 409.896C417.904 409.896 416.819 410.981 416.819 412.319C416.819 413.657 417.904 414.742 419.243 414.742Z" fill="#DC8B12"/>
<path opacity="0.67" d="M374.411 442.611C375.749 442.611 376.834 441.526 376.834 440.188C376.834 438.849 375.749 437.764 374.411 437.764C373.072 437.764 371.987 438.849 371.987 440.188C371.987 441.526 373.072 442.611 374.411 442.611Z" fill="#DC8B12"/>
<path opacity="0.67" d="M322.308 445.034C323.646 445.034 324.731 443.95 324.731 442.611C324.731 441.273 323.646 440.188 322.308 440.188C320.969 440.188 319.884 441.273 319.884 442.611C319.884 443.95 320.969 445.034 322.308 445.034Z" fill="#DC8B12"/>
<path opacity="0.67" d="M275.052 418.377C276.391 418.377 277.476 417.292 277.476 415.954C277.476 414.615 276.391 413.531 275.052 413.531C273.714 413.531 272.629 414.615 272.629 415.954C272.629 417.292 273.714 418.377 275.052 418.377Z" fill="#DC8B12"/>
<path opacity="0.67" d="M248.396 372.333C249.734 372.333 250.819 371.248 250.819 369.91C250.819 368.572 249.734 367.487 248.396 367.487C247.057 367.487 245.972 368.572 245.972 369.91C245.972 371.248 247.057 372.333 248.396 372.333Z" fill="#DC8B12"/>
<path opacity="0.66" d="M249.607 317.807C250.945 317.807 252.03 316.723 252.03 315.384C252.03 314.046 250.945 312.961 249.607 312.961C248.269 312.961 247.184 314.046 247.184 315.384C247.184 316.723 248.269 317.807 249.607 317.807Z" fill="#DC8B12"/>
<path opacity="0.66" d="M278.688 271.763C280.026 271.763 281.111 270.678 281.111 269.34C281.111 268.002 280.026 266.917 278.688 266.917C277.349 266.917 276.264 268.002 276.264 269.34C276.264 270.678 277.349 271.763 278.688 271.763Z" fill="#DC8B12"/>
<path opacity="0.66" d="M327.155 247.53C328.494 247.53 329.579 246.445 329.579 245.106C329.579 243.768 328.494 242.683 327.155 242.683C325.817 242.683 324.732 243.768 324.732 245.106C324.732 246.445 325.817 247.53 327.155 247.53Z" fill="#DC8B12"/>
<path opacity="0.66" d="M381.681 251.165C383.019 251.165 384.104 250.08 384.104 248.741C384.104 247.403 383.019 246.318 381.681 246.318C380.342 246.318 379.257 247.403 379.257 248.741C379.257 250.08 380.342 251.165 381.681 251.165Z" fill="#DC8B12"/>
<path opacity="0.65" d="M427.725 282.669C429.063 282.669 430.148 281.584 430.148 280.245C430.148 278.907 429.063 277.822 427.725 277.822C426.386 277.822 425.301 278.907 425.301 280.245C425.301 281.584 426.386 282.669 427.725 282.669Z" fill="#DC8B12"/>
<path opacity="0.65" d="M450.747 333.559C452.085 333.559 453.17 332.474 453.17 331.136C453.17 329.798 452.085 328.713 450.747 328.713C449.409 328.713 448.324 329.798 448.324 331.136C448.324 332.474 449.409 333.559 450.747 333.559Z" fill="#DC8B12"/>
<path opacity="0.65" d="M443.476 389.903C445.149 389.903 446.506 388.547 446.506 386.874C446.506 385.201 445.149 383.844 443.476 383.844C441.803 383.844 440.447 385.201 440.447 386.874C440.447 388.547 441.803 389.903 443.476 389.903Z" fill="#DC8B12"/>
<path opacity="0.65" d="M409.55 434.735C411.223 434.735 412.579 433.379 412.579 431.706C412.579 430.033 411.223 428.677 409.55 428.677C407.877 428.677 406.521 430.033 406.521 431.706C406.521 433.379 407.877 434.735 409.55 434.735Z" fill="#DC8B12"/>
<path opacity="0.65" d="M356.236 455.334C357.909 455.334 359.265 453.978 359.265 452.305C359.265 450.632 357.909 449.275 356.236 449.275C354.563 449.275 353.207 450.632 353.207 452.305C353.207 453.978 354.563 455.334 356.236 455.334Z" fill="#DC8B12"/>
<path opacity="0.64" d="M300.498 445.64C302.171 445.64 303.527 444.284 303.527 442.611C303.527 440.938 302.171 439.582 300.498 439.582C298.825 439.582 297.469 440.938 297.469 442.611C297.469 444.284 298.825 445.64 300.498 445.64Z" fill="#DC8B12"/>
<path opacity="0.64" d="M256.877 408.078C258.55 408.078 259.907 406.722 259.907 405.049C259.907 403.376 258.55 402.02 256.877 402.02C255.204 402.02 253.848 403.376 253.848 405.049C253.848 406.722 255.204 408.078 256.877 408.078Z" fill="#DC8B12"/>
<path opacity="0.64" d="M237.49 353.552C239.163 353.552 240.519 352.196 240.519 350.523C240.519 348.85 239.163 347.494 237.49 347.494C235.817 347.494 234.461 348.85 234.461 350.523C234.461 352.196 235.817 353.552 237.49 353.552Z" fill="#DC8B12"/>
<path opacity="0.64" d="M250.818 296.603C252.491 296.603 253.847 295.247 253.847 293.574C253.847 291.901 252.491 290.545 250.818 290.545C249.145 290.545 247.789 291.901 247.789 293.574C247.789 295.247 249.145 296.603 250.818 296.603Z" fill="#DC8B12"/>
<path opacity="0.63" d="M290.804 254.194C292.477 254.194 293.833 252.838 293.833 251.165C293.833 249.492 292.477 248.136 290.804 248.136C289.131 248.136 287.775 249.492 287.775 251.165C287.775 252.838 289.131 254.194 290.804 254.194Z" fill="#DC8B12"/>
<path opacity="0.63" d="M347.753 238.442C349.426 238.442 350.783 237.086 350.783 235.413C350.783 233.74 349.426 232.384 347.753 232.384C346.08 232.384 344.724 233.74 344.724 235.413C344.724 237.086 346.08 238.442 347.753 238.442Z" fill="#DC8B12"/>
<path opacity="0.63" d="M404.703 252.982C406.376 252.982 407.732 251.626 407.732 249.953C407.732 248.28 406.376 246.924 404.703 246.924C403.03 246.924 401.674 248.28 401.674 249.953C401.674 251.626 403.03 252.982 404.703 252.982Z" fill="#DC8B12"/>
<path opacity="0.63" d="M445.9 296.603C447.573 296.603 448.93 295.247 448.93 293.574C448.93 291.901 447.573 290.545 445.9 290.545C444.227 290.545 442.871 291.901 442.871 293.574C442.871 295.247 444.227 296.603 445.9 296.603Z" fill="#DC8B12"/>
<path opacity="0.62" d="M459.228 354.764C460.901 354.764 462.258 353.408 462.258 351.735C462.258 350.062 460.901 348.705 459.228 348.705C457.555 348.705 456.199 350.062 456.199 351.735C456.199 353.408 457.555 354.764 459.228 354.764Z" fill="#DC8B12"/>
<path opacity="0.62" d="M439.842 411.713C441.515 411.713 442.871 410.357 442.871 408.684C442.871 407.011 441.515 405.655 439.842 405.655C438.169 405.655 436.813 407.011 436.813 408.684C436.813 410.357 438.169 411.713 439.842 411.713Z" fill="#DC8B12"/>
<path opacity="0.62" d="M395.008 451.699C396.681 451.699 398.037 450.342 398.037 448.669C398.037 446.996 396.681 445.64 395.008 445.64C393.335 445.64 391.979 446.996 391.979 448.669C391.979 450.342 393.335 451.699 395.008 451.699Z" fill="#DC8B12"/>
<path opacity="0.62" d="M334.425 462.604C336.098 462.604 337.454 461.248 337.454 459.575C337.454 457.902 336.098 456.545 334.425 456.545C332.752 456.545 331.396 457.902 331.396 459.575C331.396 461.248 332.752 462.604 334.425 462.604Z" fill="#DC8B12"/>
<path opacity="0.62" d="M277.476 440.793C279.148 440.793 280.505 439.437 280.505 437.764C280.505 436.091 279.148 434.735 277.476 434.735C275.803 434.735 274.446 436.091 274.446 437.764C274.446 439.437 275.803 440.793 277.476 440.793Z" fill="#DC8B12"/>
<path opacity="0.61" d="M238.702 392.326C240.375 392.326 241.731 390.97 241.731 389.297C241.731 387.624 240.375 386.268 238.702 386.268C237.029 386.268 235.673 387.624 235.673 389.297C235.673 390.97 237.029 392.326 238.702 392.326Z" fill="#DC8B12"/>
<path opacity="0.61" d="M231.432 330.53C233.105 330.53 234.461 329.174 234.461 327.501C234.461 325.828 233.105 324.472 231.432 324.472C229.759 324.472 228.403 325.828 228.403 327.501C228.403 329.174 229.759 330.53 231.432 330.53Z" fill="#DC8B12"/>
<path opacity="0.61" d="M256.877 273.581C258.55 273.581 259.907 272.225 259.907 270.552C259.907 268.879 258.55 267.523 256.877 267.523C255.204 267.523 253.848 268.879 253.848 270.552C253.848 272.225 255.204 273.581 256.877 273.581Z" fill="#DC8B12"/>
<path opacity="0.61" d="M307.767 237.231C309.44 237.231 310.797 235.874 310.797 234.201C310.797 232.528 309.44 231.172 307.767 231.172C306.095 231.172 304.738 232.528 304.738 234.201C304.738 235.874 306.095 237.231 307.767 237.231Z" fill="#DC8B12"/>
<path opacity="0.6" d="M370.775 232.384C372.448 232.384 373.804 231.027 373.804 229.354C373.804 227.681 372.448 226.325 370.775 226.325C369.102 226.325 367.746 227.681 367.746 229.354C367.746 231.027 369.102 232.384 370.775 232.384Z" fill="#DC8B12"/>
<path opacity="0.6" d="M427.725 261.464C429.398 261.464 430.754 260.108 430.754 258.435C430.754 256.762 429.398 255.406 427.725 255.406C426.052 255.406 424.696 256.762 424.696 258.435C424.696 260.108 426.052 261.464 427.725 261.464Z" fill="#DC8B12"/>
<path opacity="0.6" d="M461.652 314.778C463.325 314.778 464.681 313.422 464.681 311.749C464.681 310.076 463.325 308.72 461.652 308.72C459.979 308.72 458.623 310.076 458.623 311.749C458.623 313.422 459.979 314.778 461.652 314.778Z" fill="#DC8B12"/>
<path opacity="0.6" d="M462.864 378.998C464.537 378.998 465.893 377.641 465.893 375.968C465.893 374.295 464.537 372.939 462.864 372.939C461.191 372.939 459.835 374.295 459.835 375.968C459.835 377.641 461.191 378.998 462.864 378.998Z" fill="#DC8B12"/>
<path opacity="0.59" d="M431.359 434.735C433.032 434.735 434.389 433.379 434.389 431.706C434.389 430.033 433.032 428.677 431.359 428.677C429.686 428.677 428.33 430.033 428.33 431.706C428.33 433.379 429.686 434.735 431.359 434.735Z" fill="#DC8B12"/>
<path opacity="0.59" d="M375.622 467.451C377.295 467.451 378.651 466.095 378.651 464.422C378.651 462.749 377.295 461.392 375.622 461.392C373.949 461.392 372.593 462.749 372.593 464.422C372.593 466.095 373.949 467.451 375.622 467.451Z" fill="#DC8B12"/>
<path opacity="0.59" d="M310.191 466.239C311.864 466.239 313.22 464.883 313.22 463.21C313.22 461.537 311.864 460.181 310.191 460.181C308.518 460.181 307.162 461.537 307.162 463.21C307.162 464.883 308.518 466.239 310.191 466.239Z" fill="#DC8B12"/>
<path opacity="0.59" d="M254.454 431.1C256.127 431.1 257.483 429.744 257.483 428.071C257.483 426.398 256.127 425.042 254.454 425.042C252.781 425.042 251.425 426.398 251.425 428.071C251.425 429.744 252.781 431.1 254.454 431.1Z" fill="#DC8B12"/>
<path opacity="0.59" d="M225.372 371.727C227.045 371.727 228.402 370.371 228.402 368.698C228.402 367.025 227.045 365.669 225.372 365.669C223.699 365.669 222.343 367.025 222.343 368.698C222.343 370.371 223.699 371.727 225.372 371.727Z" fill="#DC8B12"/>
<path opacity="0.58" d="M230.22 306.296C231.893 306.296 233.249 304.94 233.249 303.267C233.249 301.594 231.893 300.238 230.22 300.238C228.547 300.238 227.19 301.594 227.19 303.267C227.19 304.94 228.547 306.296 230.22 306.296Z" fill="#DC8B12"/>
<path opacity="0.58" d="M267.782 251.771C269.455 251.771 270.811 250.414 270.811 248.741C270.811 247.068 269.455 245.712 267.782 245.712C266.109 245.712 264.752 247.068 264.752 248.741C264.752 250.414 266.109 251.771 267.782 251.771Z" fill="#DC8B12"/>
<path opacity="0.58" d="M328.366 223.902C330.039 223.902 331.395 222.546 331.395 220.873C331.395 219.2 330.039 217.844 328.366 217.844C326.693 217.844 325.337 219.2 325.337 220.873C325.337 222.546 326.693 223.902 328.366 223.902Z" fill="#DC8B12"/>
<path opacity="0.58" d="M396.221 232.384C397.894 232.384 399.25 231.027 399.25 229.354C399.25 227.681 397.894 226.325 396.221 226.325C394.548 226.325 393.191 227.681 393.191 229.354C393.191 231.027 394.548 232.384 396.221 232.384Z" fill="#DC8B12"/>
<path opacity="0.57" d="M449.535 273.581C451.208 273.581 452.564 272.225 452.564 270.552C452.564 268.879 451.208 267.523 449.535 267.523C447.862 267.523 446.505 268.879 446.505 270.552C446.505 272.225 447.862 273.581 449.535 273.581Z" fill="#DC8B12"/>
<path opacity="0.57" d="M473.768 336.588C475.441 336.588 476.797 335.232 476.797 333.559C476.797 331.886 475.441 330.53 473.768 330.53C472.095 330.53 470.739 331.886 470.739 333.559C470.739 335.232 472.095 336.588 473.768 336.588Z" fill="#DC8B12"/>
<path opacity="0.57" d="M461.652 404.443C463.325 404.443 464.681 403.087 464.681 401.414C464.681 399.741 463.325 398.384 461.652 398.384C459.979 398.384 458.623 399.741 458.623 401.414C458.623 403.087 459.979 404.443 461.652 404.443Z" fill="#DC8B12"/>
<path opacity="0.57" d="M418.032 456.545C419.705 456.545 421.061 455.189 421.061 453.516C421.061 451.843 419.705 450.487 418.032 450.487C416.359 450.487 415.002 451.843 415.002 453.516C415.002 455.189 416.359 456.545 418.032 456.545Z" fill="#DC8B12"/>
<path opacity="0.56" d="M351.389 478.356C353.062 478.356 354.418 477 354.418 475.327C354.418 473.654 353.062 472.297 351.389 472.297C349.716 472.297 348.359 473.654 348.359 475.327C348.359 477 349.716 478.356 351.389 478.356Z" fill="#DC8B12"/>
<path opacity="0.56" d="M284.746 463.815C286.419 463.815 287.775 462.459 287.775 460.786C287.775 459.113 286.419 457.757 284.746 457.757C283.073 457.757 281.717 459.113 281.717 460.786C281.717 462.459 283.073 463.815 284.746 463.815Z" fill="#DC8B12"/>
<path opacity="0.56" d="M233.855 415.348C235.528 415.348 236.885 413.992 236.885 412.319C236.885 410.646 235.528 409.29 233.855 409.29C232.182 409.29 230.826 410.646 230.826 412.319C230.826 413.992 232.182 415.348 233.855 415.348Z" fill="#DC8B12"/>
<path opacity="0.56" d="M214.469 347.494C216.142 347.494 217.498 346.138 217.498 344.465C217.498 342.792 216.142 341.435 214.469 341.435C212.796 341.435 211.439 342.792 211.439 344.465C211.439 346.138 212.796 347.494 214.469 347.494Z" fill="#DC8B12"/>
<path opacity="0.56" d="M233.855 279.639C235.528 279.639 236.885 278.283 236.885 276.61C236.885 274.937 235.528 273.581 233.855 273.581C232.182 273.581 230.826 274.937 230.826 276.61C230.826 278.283 232.182 279.639 233.855 279.639Z" fill="#DC8B12"/>
<path opacity="0.55" d="M284.746 231.172C286.419 231.172 287.775 229.816 287.775 228.143C287.775 226.47 286.419 225.114 284.746 225.114C283.073 225.114 281.717 226.47 281.717 228.143C281.717 229.816 283.073 231.172 284.746 231.172Z" fill="#DC8B12"/>
<path opacity="0.55" d="M353.811 215.42C355.484 215.42 356.841 214.064 356.841 212.391C356.841 210.718 355.484 209.362 353.811 209.362C352.138 209.362 350.782 210.718 350.782 212.391C350.782 214.064 352.138 215.42 353.811 215.42Z" fill="#DC8B12"/>
<path opacity="0.55" d="M421.666 237.836C423.674 237.836 425.301 236.209 425.301 234.201C425.301 232.194 423.674 230.566 421.666 230.566C419.659 230.566 418.031 232.194 418.031 234.201C418.031 236.209 419.659 237.836 421.666 237.836Z" fill="#DC8B12"/>
<path opacity="0.55" d="M468.921 292.362C470.929 292.362 472.556 290.735 472.556 288.727C472.556 286.719 470.929 285.092 468.921 285.092C466.914 285.092 465.286 286.719 465.286 288.727C465.286 290.735 466.914 292.362 468.921 292.362Z" fill="#DC8B12"/>
<path opacity="0.54" d="M481.038 363.852C483.046 363.852 484.673 362.224 484.673 360.216C484.673 358.209 483.046 356.581 481.038 356.581C479.031 356.581 477.403 358.209 477.403 360.216C477.403 362.224 479.031 363.852 481.038 363.852Z" fill="#DC8B12"/>
<path opacity="0.54" d="M455.594 431.706C457.601 431.706 459.229 430.078 459.229 428.071C459.229 426.063 457.601 424.436 455.594 424.436C453.586 424.436 451.958 426.063 451.958 428.071C451.958 430.078 453.586 431.706 455.594 431.706Z" fill="#DC8B12"/>
<path opacity="0.54" d="M397.432 476.538C399.44 476.538 401.067 474.911 401.067 472.903C401.067 470.896 399.44 469.268 397.432 469.268C395.425 469.268 393.797 470.896 393.797 472.903C393.797 474.911 395.425 476.538 397.432 476.538Z" fill="#DC8B12"/>
<path opacity="0.54" d="M324.731 485.02C326.739 485.02 328.366 483.393 328.366 481.385C328.366 479.377 326.739 477.75 324.731 477.75C322.724 477.75 321.096 479.377 321.096 481.385C321.096 483.393 322.724 485.02 324.731 485.02Z" fill="#DC8B12"/>
<path opacity="0.53" d="M258.089 455.94C260.096 455.94 261.724 454.312 261.724 452.304C261.724 450.297 260.096 448.669 258.089 448.669C256.081 448.669 254.454 450.297 254.454 452.304C254.454 454.312 256.081 455.94 258.089 455.94Z" fill="#DC8B12"/>
<path opacity="0.53" d="M215.679 395.355C217.687 395.355 219.315 393.728 219.315 391.72C219.315 389.713 217.687 388.085 215.679 388.085C213.672 388.085 212.044 389.713 212.044 391.72C212.044 393.728 213.672 395.355 215.679 395.355Z" fill="#DC8B12"/>
<path opacity="0.53" d="M209.621 321.443C211.629 321.443 213.256 319.815 213.256 317.807C213.256 315.8 211.629 314.172 209.621 314.172C207.614 314.172 205.986 315.8 205.986 317.807C205.986 319.815 207.614 321.443 209.621 321.443Z" fill="#DC8B12"/>
<path opacity="0.53" d="M243.549 254.8C245.557 254.8 247.184 253.172 247.184 251.165C247.184 249.157 245.557 247.53 243.549 247.53C241.542 247.53 239.914 249.157 239.914 251.165C239.914 253.172 241.542 254.8 243.549 254.8Z" fill="#DC8B12"/>
<path opacity="0.53" d="M306.557 213.602C308.565 213.602 310.192 211.975 310.192 209.967C310.192 207.96 308.565 206.332 306.557 206.332C304.549 206.332 302.922 207.96 302.922 209.967C302.922 211.975 304.549 213.602 306.557 213.602Z" fill="#DC8B12"/>
<path opacity="0.52" d="M381.68 212.391C383.688 212.391 385.316 210.763 385.316 208.756C385.316 206.748 383.688 205.121 381.68 205.121C379.673 205.121 378.045 206.748 378.045 208.756C378.045 210.763 379.673 212.391 381.68 212.391Z" fill="#DC8B12"/>
<path opacity="0.52" d="M448.323 249.953C450.331 249.953 451.958 248.326 451.958 246.318C451.958 244.31 450.331 242.683 448.323 242.683C446.315 242.683 444.688 244.31 444.688 246.318C444.688 248.326 446.315 249.953 448.323 249.953Z" fill="#DC8B12"/>
<path opacity="0.52" d="M485.886 315.384C487.893 315.384 489.521 313.757 489.521 311.749C489.521 309.741 487.893 308.114 485.886 308.114C483.878 308.114 482.25 309.741 482.25 311.749C482.25 313.757 483.878 315.384 485.886 315.384Z" fill="#DC8B12"/>
<path opacity="0.52" d="M483.462 391.72C485.469 391.72 487.097 390.093 487.097 388.085C487.097 386.078 485.469 384.45 483.462 384.45C481.454 384.45 479.827 386.078 479.827 388.085C479.827 390.093 481.454 391.72 483.462 391.72Z" fill="#DC8B12"/>
<path opacity="0.51" d="M442.265 457.151C444.273 457.151 445.9 455.524 445.9 453.516C445.9 451.509 444.273 449.881 442.265 449.881C440.257 449.881 438.63 451.509 438.63 453.516C438.63 455.524 440.257 457.151 442.265 457.151Z" fill="#DC8B12"/>
<path opacity="0.51" d="M373.199 491.078C375.207 491.078 376.834 489.451 376.834 487.443C376.834 485.436 375.207 483.808 373.199 483.808C371.191 483.808 369.564 485.436 369.564 487.443C369.564 489.451 371.191 491.078 373.199 491.078Z" fill="#DC8B12"/>
<path opacity="0.51" d="M296.862 486.232C298.87 486.232 300.497 484.604 300.497 482.597C300.497 480.589 298.87 478.962 296.862 478.962C294.855 478.962 293.227 480.589 293.227 482.597C293.227 484.604 294.855 486.232 296.862 486.232Z" fill="#DC8B12"/>
<path opacity="0.51" d="M232.643 441.4C234.65 441.4 236.278 439.772 236.278 437.764C236.278 435.757 234.65 434.129 232.643 434.129C230.635 434.129 229.008 435.757 229.008 437.764C229.008 439.772 230.635 441.4 232.643 441.4Z" fill="#DC8B12"/>
<path opacity="0.5" d="M201.14 369.91C203.148 369.91 204.775 368.283 204.775 366.275C204.775 364.267 203.148 362.64 201.14 362.64C199.132 362.64 197.505 364.267 197.505 366.275C197.505 368.283 199.132 369.91 201.14 369.91Z" fill="#DC8B12"/>
<path opacity="0.5" d="M210.833 292.362C212.84 292.362 214.468 290.735 214.468 288.727C214.468 286.719 212.84 285.092 210.833 285.092C208.825 285.092 207.198 286.719 207.198 288.727C207.198 290.735 208.825 292.362 210.833 292.362Z" fill="#DC8B12"/>
<path opacity="0.5" d="M259.3 229.355C261.307 229.355 262.935 227.727 262.935 225.72C262.935 223.712 261.307 222.084 259.3 222.084C257.292 222.084 255.665 223.712 255.665 225.72C255.665 227.727 257.292 229.355 259.3 229.355Z" fill="#DC8B12"/>
<path opacity="0.5" d="M333.213 201.486C335.221 201.486 336.848 199.858 336.848 197.851C336.848 195.843 335.221 194.216 333.213 194.216C331.206 194.216 329.578 195.843 329.578 197.851C329.578 199.858 331.206 201.486 333.213 201.486Z" fill="#DC8B12"/>
<path opacity="0.5" d="M411.973 214.814C413.981 214.814 415.608 213.187 415.608 211.179C415.608 209.171 413.981 207.544 411.973 207.544C409.965 207.544 408.338 209.171 408.338 211.179C408.338 213.187 409.965 214.814 411.973 214.814Z" fill="#DC8B12"/>
<path opacity="0.49" d="M472.557 266.917C474.565 266.917 476.192 265.289 476.192 263.282C476.192 261.274 474.565 259.647 472.557 259.647C470.549 259.647 468.922 261.274 468.922 263.282C468.922 265.289 470.549 266.917 472.557 266.917Z" fill="#DC8B12"/>
<path opacity="0.49" d="M496.791 343.253C498.798 343.253 500.426 341.626 500.426 339.618C500.426 337.611 498.798 335.983 496.791 335.983C494.783 335.983 493.156 337.611 493.156 339.618C493.156 341.626 494.783 343.253 496.791 343.253Z" fill="#DC8B12"/>
<path opacity="0.49" d="M479.827 422.013C481.835 422.013 483.462 420.385 483.462 418.377C483.462 416.37 481.835 414.742 479.827 414.742C477.82 414.742 476.192 416.37 476.192 418.377C476.192 420.385 477.82 422.013 479.827 422.013Z" fill="#DC8B12"/>
<path opacity="0.49" d="M424.089 480.173C426.097 480.173 427.724 478.546 427.724 476.538C427.724 474.531 426.097 472.903 424.089 472.903C422.082 472.903 420.454 474.531 420.454 476.538C420.454 478.546 422.082 480.173 424.089 480.173Z" fill="#DC8B12"/>
<path opacity="0.48" d="M345.33 501.984C347.338 501.984 348.965 500.356 348.965 498.349C348.965 496.341 347.338 494.714 345.33 494.714C343.323 494.714 341.695 496.341 341.695 498.349C341.695 500.356 343.323 501.984 345.33 501.984Z" fill="#DC8B12"/>
<path opacity="0.48" d="M266.571 480.173C268.578 480.173 270.206 478.546 270.206 476.538C270.206 474.531 268.578 472.903 266.571 472.903C264.563 472.903 262.936 474.531 262.936 476.538C262.936 478.546 264.563 480.173 266.571 480.173Z" fill="#DC8B12"/>
<path opacity="0.48" d="M209.621 420.801C211.629 420.801 213.256 419.173 213.256 417.166C213.256 415.158 211.629 413.531 209.621 413.531C207.614 413.531 205.986 415.158 205.986 417.166C205.986 419.173 207.614 420.801 209.621 420.801Z" fill="#DC8B12"/>
<path opacity="0.48" d="M192.657 340.829C194.665 340.829 196.292 339.202 196.292 337.194C196.292 335.187 194.665 333.559 192.657 333.559C190.649 333.559 189.022 335.187 189.022 337.194C189.022 339.202 190.649 340.829 192.657 340.829Z" fill="#DC8B12"/>
<path opacity="0.47" d="M218.103 262.07C220.11 262.07 221.738 260.442 221.738 258.435C221.738 256.427 220.11 254.8 218.103 254.8C216.095 254.8 214.468 256.427 214.468 258.435C214.468 260.442 216.095 262.07 218.103 262.07Z" fill="#DC8B12"/>
<path opacity="0.47" d="M281.11 207.544C283.118 207.544 284.745 205.917 284.745 203.909C284.745 201.901 283.118 200.274 281.11 200.274C279.103 200.274 277.475 201.901 277.475 203.909C277.475 205.917 279.103 207.544 281.11 207.544Z" fill="#DC8B12"/>
<path opacity="0.47" d="M363.505 194.216C365.513 194.216 367.14 192.588 367.14 190.581C367.14 188.573 365.513 186.945 363.505 186.945C361.498 186.945 359.87 188.573 359.87 190.581C359.87 192.588 361.498 194.216 363.505 194.216Z" fill="#DC8B12"/>
<path opacity="0.47" d="M441.053 223.296C443.06 223.296 444.688 221.669 444.688 219.661C444.688 217.653 443.06 216.026 441.053 216.026C439.045 216.026 437.417 217.653 437.417 219.661C437.417 221.669 439.045 223.296 441.053 223.296Z" fill="#DC8B12"/>
<path opacity="0.47" d="M493.156 289.939C495.163 289.939 496.791 288.311 496.791 286.304C496.791 284.296 495.163 282.669 493.156 282.669C491.148 282.669 489.521 284.296 489.521 286.304C489.521 288.311 491.148 289.939 493.156 289.939Z" fill="#DC8B12"/>
<path opacity="0.46" d="M502.849 373.545C504.857 373.545 506.484 371.918 506.484 369.91C506.484 367.902 504.857 366.275 502.849 366.275C500.841 366.275 499.214 367.902 499.214 369.91C499.214 371.918 500.841 373.545 502.849 373.545Z" fill="#DC8B12"/>
<path opacity="0.46" d="M468.921 451.093C470.929 451.093 472.556 449.465 472.556 447.458C472.556 445.45 470.929 443.823 468.921 443.823C466.914 443.823 465.286 445.45 465.286 447.458C465.286 449.465 466.914 451.093 468.921 451.093Z" fill="#DC8B12"/>
<path opacity="0.46" d="M398.644 500.772C400.651 500.772 402.279 499.145 402.279 497.137C402.279 495.129 400.651 493.502 398.644 493.502C396.636 493.502 395.009 495.129 395.009 497.137C395.009 499.145 396.636 500.772 398.644 500.772Z" fill="#DC8B12"/>
<path opacity="0.46" d="M313.826 506.831C315.834 506.831 317.461 505.203 317.461 503.195C317.461 501.188 315.834 499.56 313.826 499.56C311.818 499.56 310.191 501.188 310.191 503.195C310.191 505.203 311.818 506.831 313.826 506.831Z" fill="#DC8B12"/>
<path opacity="0.45" d="M237.49 468.056C239.498 468.056 241.125 466.429 241.125 464.421C241.125 462.414 239.498 460.786 237.49 460.786C235.482 460.786 233.855 462.414 233.855 464.421C233.855 466.429 235.482 468.056 237.49 468.056Z" fill="#DC8B12"/>
<path opacity="0.45" d="M191.446 395.355C193.454 395.355 195.081 393.728 195.081 391.72C195.081 389.713 193.454 388.085 191.446 388.085C189.439 388.085 187.811 389.713 187.811 391.72C187.811 393.728 189.439 395.355 191.446 395.355Z" fill="#DC8B12"/>
<path opacity="0.45" d="M189.022 308.72C191.364 308.72 193.263 306.821 193.263 304.479C193.263 302.137 191.364 300.238 189.022 300.238C186.68 300.238 184.781 302.137 184.781 304.479C184.781 306.821 186.68 308.72 189.022 308.72Z" fill="#DC8B12"/>
<path opacity="0.45" d="M232.644 233.596C234.986 233.596 236.885 231.697 236.885 229.355C236.885 227.012 234.986 225.114 232.644 225.114C230.302 225.114 228.403 227.012 228.403 229.355C228.403 231.697 230.302 233.596 232.644 233.596Z" fill="#DC8B12"/>
<path opacity="0.44" d="M307.768 191.186C310.11 191.186 312.009 189.288 312.009 186.946C312.009 184.603 310.11 182.705 307.768 182.705C305.426 182.705 303.527 184.603 303.527 186.946C303.527 189.288 305.426 191.186 307.768 191.186Z" fill="#DC8B12"/>
<path opacity="0.44" d="M396.22 193.61C398.562 193.61 400.461 191.711 400.461 189.369C400.461 187.027 398.562 185.128 396.22 185.128C393.878 185.128 391.979 187.027 391.979 189.369C391.979 191.711 393.878 193.61 396.22 193.61Z" fill="#DC8B12"/>
<path opacity="0.44" d="M470.134 239.654C472.476 239.654 474.375 237.755 474.375 235.413C474.375 233.071 472.476 231.172 470.134 231.172C467.792 231.172 465.893 233.071 465.893 235.413C465.893 237.755 467.792 239.654 470.134 239.654Z" fill="#DC8B12"/>
<path opacity="0.44" d="M508.907 319.625C511.25 319.625 513.148 317.726 513.148 315.384C513.148 313.042 511.25 311.143 508.907 311.143C506.565 311.143 504.667 313.042 504.667 315.384C504.667 317.726 506.565 319.625 508.907 319.625Z" fill="#DC8B12"/>
<path opacity="0.44" d="M502.849 406.866C505.191 406.866 507.09 404.967 507.09 402.625C507.09 400.283 505.191 398.384 502.849 398.384C500.507 398.384 498.608 400.283 498.608 402.625C498.608 404.967 500.507 406.866 502.849 406.866Z" fill="#DC8B12"/>
<path opacity="0.43" d="M450.746 479.567C453.088 479.567 454.987 477.669 454.987 475.326C454.987 472.984 453.088 471.086 450.746 471.086C448.404 471.086 446.505 472.984 446.505 475.326C446.505 477.669 448.404 479.567 450.746 479.567Z" fill="#DC8B12"/>
<path opacity="0.43" d="M369.564 515.918C371.906 515.918 373.805 514.019 373.805 511.677C373.805 509.335 371.906 507.436 369.564 507.436C367.221 507.436 365.323 509.335 365.323 511.677C365.323 514.019 367.221 515.918 369.564 515.918Z" fill="#DC8B12"/>
<path opacity="0.43" d="M281.111 505.013C283.453 505.013 285.351 503.114 285.351 500.772C285.351 498.43 283.453 496.531 281.111 496.531C278.768 496.531 276.87 498.43 276.87 500.772C276.87 503.114 278.768 505.013 281.111 505.013Z" fill="#DC8B12"/>
<path opacity="0.43" d="M209.621 449.275C211.963 449.275 213.862 447.376 213.862 445.034C213.862 442.692 211.963 440.793 209.621 440.793C207.279 440.793 205.38 442.692 205.38 445.034C205.38 447.376 207.279 449.275 209.621 449.275Z" fill="#DC8B12"/>
<path opacity="0.42" d="M178.117 364.457C180.46 364.457 182.358 362.558 182.358 360.216C182.358 357.874 180.46 355.975 178.117 355.975C175.775 355.975 173.876 357.874 173.876 360.216C173.876 362.558 175.775 364.457 178.117 364.457Z" fill="#DC8B12"/>
<path opacity="0.42" d="M193.869 276.004C196.211 276.004 198.11 274.106 198.11 271.764C198.11 269.421 196.211 267.523 193.869 267.523C191.527 267.523 189.628 269.421 189.628 271.764C189.628 274.106 191.527 276.004 193.869 276.004Z" fill="#DC8B12"/>
<path opacity="0.42" d="M253.243 206.938C255.585 206.938 257.484 205.039 257.484 202.697C257.484 200.355 255.585 198.456 253.243 198.456C250.901 198.456 249.002 200.355 249.002 202.697C249.002 205.039 250.901 206.938 253.243 206.938Z" fill="#DC8B12"/>
<path opacity="0.42" d="M339.272 177.858C341.614 177.858 343.513 175.959 343.513 173.617C343.513 171.275 341.614 169.376 339.272 169.376C336.929 169.376 335.031 171.275 335.031 173.617C335.031 175.959 336.929 177.858 339.272 177.858Z" fill="#DC8B12"/>
<path opacity="0.41" d="M428.937 198.456C431.279 198.456 433.178 196.558 433.178 194.216C433.178 191.873 431.279 189.975 428.937 189.975C426.595 189.975 424.696 191.873 424.696 194.216C424.696 196.558 426.595 198.456 428.937 198.456Z" fill="#DC8B12"/>
<path opacity="0.41" d="M495.579 262.676C497.921 262.676 499.82 260.777 499.82 258.435C499.82 256.093 497.921 254.194 495.579 254.194C493.237 254.194 491.338 256.093 491.338 258.435C491.338 260.777 493.237 262.676 495.579 262.676Z" fill="#DC8B12"/>
<path opacity="0.41" d="M519.813 351.129C522.155 351.129 524.054 349.23 524.054 346.888C524.054 344.546 522.155 342.647 519.813 342.647C517.47 342.647 515.572 344.546 515.572 346.888C515.572 349.23 517.47 351.129 519.813 351.129Z" fill="#DC8B12"/>
<path opacity="0.41" d="M495.579 440.794C497.921 440.794 499.82 438.895 499.82 436.553C499.82 434.21 497.921 432.312 495.579 432.312C493.237 432.312 491.338 434.21 491.338 436.553C491.338 438.895 493.237 440.794 495.579 440.794Z" fill="#DC8B12"/>
<path opacity="0.41" d="M427.725 505.013C430.067 505.013 431.966 503.114 431.966 500.772C431.966 498.43 430.067 496.531 427.725 496.531C425.383 496.531 423.484 498.43 423.484 500.772C423.484 503.114 425.383 505.013 427.725 505.013Z" fill="#DC8B12"/>
<path opacity="0.4" d="M335.636 525.611C337.979 525.611 339.877 523.713 339.877 521.371C339.877 519.028 337.979 517.13 335.636 517.13C333.294 517.13 331.396 519.028 331.396 521.371C331.396 523.713 333.294 525.611 335.636 525.611Z" fill="#DC8B12"/>
<path opacity="0.4" d="M247.184 495.319C249.526 495.319 251.425 493.421 251.425 491.079C251.425 488.736 249.526 486.838 247.184 486.838C244.842 486.838 242.943 488.736 242.943 491.079C242.943 493.421 244.842 495.319 247.184 495.319Z" fill="#DC8B12"/>
<path opacity="0.4" d="M185.387 423.83C187.73 423.83 189.628 421.931 189.628 419.589C189.628 417.247 187.73 415.348 185.387 415.348C183.045 415.348 181.146 417.247 181.146 419.589C181.146 421.931 183.045 423.83 185.387 423.83Z" fill="#DC8B12"/>
<path opacity="0.4" d="M169.635 330.53C171.978 330.53 173.876 328.632 173.876 326.289C173.876 323.947 171.978 322.048 169.635 322.048C167.293 322.048 165.395 323.947 165.395 326.289C165.395 328.632 167.293 330.53 169.635 330.53Z" fill="#DC8B12"/>
<path opacity="0.39" d="M204.775 242.077C207.117 242.077 209.016 240.178 209.016 237.836C209.016 235.494 207.117 233.595 204.775 233.595C202.433 233.595 200.534 235.494 200.534 237.836C200.534 240.178 202.433 242.077 204.775 242.077Z" fill="#DC8B12"/>
<path opacity="0.39" d="M279.9 183.916C282.242 183.916 284.14 182.018 284.14 179.676C284.14 177.333 282.242 175.435 279.9 175.435C277.557 175.435 275.659 177.333 275.659 179.676C275.659 182.018 277.557 183.916 279.9 183.916Z" fill="#DC8B12"/>
<path opacity="0.39" d="M374.411 173.011C376.753 173.011 378.652 171.112 378.652 168.77C378.652 166.428 376.753 164.529 374.411 164.529C372.069 164.529 370.17 166.428 370.17 168.77C370.17 171.112 372.069 173.011 374.411 173.011Z" fill="#DC8B12"/>
<path opacity="0.39" d="M461.653 211.785C463.995 211.785 465.893 209.886 465.893 207.544C465.893 205.202 463.995 203.303 461.653 203.303C459.31 203.303 457.412 205.202 457.412 207.544C457.412 209.886 459.31 211.785 461.653 211.785Z" fill="#DC8B12"/>
<path opacity="0.38" d="M517.389 290.544C519.731 290.544 521.63 288.646 521.63 286.304C521.63 283.961 519.731 282.063 517.389 282.063C515.047 282.063 513.148 283.961 513.148 286.304C513.148 288.646 515.047 290.544 517.389 290.544Z" fill="#DC8B12"/>
<path opacity="0.38" d="M524.66 387.479C527.002 387.479 528.901 385.581 528.901 383.238C528.901 380.896 527.002 378.997 524.66 378.997C522.318 378.997 520.419 380.896 520.419 383.238C520.419 385.581 522.318 387.479 524.66 387.479Z" fill="#DC8B12"/>
<path opacity="0.38" d="M479.827 473.509C482.169 473.509 484.068 471.61 484.068 469.268C484.068 466.926 482.169 465.027 479.827 465.027C477.485 465.027 475.586 466.926 475.586 469.268C475.586 471.61 477.485 473.509 479.827 473.509Z" fill="#DC8B12"/>
<path opacity="0.38" d="M397.432 525.611C399.774 525.611 401.673 523.713 401.673 521.371C401.673 519.028 399.774 517.13 397.432 517.13C395.09 517.13 393.191 519.028 393.191 521.371C393.191 523.713 395.09 525.611 397.432 525.611Z" fill="#DC8B12"/>
<path opacity="0.38" d="M300.498 526.823C302.84 526.823 304.739 524.924 304.739 522.582C304.739 520.24 302.84 518.341 300.498 518.341C298.156 518.341 296.257 520.24 296.257 522.582C296.257 524.924 298.156 526.823 300.498 526.823Z" fill="#DC8B12"/>
<path opacity="0.37" d="M214.468 478.356C216.81 478.356 218.709 476.457 218.709 474.115C218.709 471.773 216.81 469.874 214.468 469.874C212.126 469.874 210.227 471.773 210.227 474.115C210.227 476.457 212.126 478.356 214.468 478.356Z" fill="#DC8B12"/>
<path opacity="0.37" d="M167.212 392.326C169.554 392.326 171.453 390.427 171.453 388.085C171.453 385.743 169.554 383.844 167.212 383.844C164.87 383.844 162.971 385.743 162.971 388.085C162.971 390.427 164.87 392.326 167.212 392.326Z" fill="#DC8B12"/>
<path opacity="0.37" d="M169.635 294.18C171.978 294.18 173.876 292.281 173.876 289.939C173.876 287.597 171.978 285.698 169.635 285.698C167.293 285.698 165.395 287.597 165.395 289.939C165.395 292.281 167.293 294.18 169.635 294.18Z" fill="#DC8B12"/>
<path opacity="0.37" d="M222.95 210.573C225.292 210.573 227.191 208.675 227.191 206.333C227.191 203.99 225.292 202.092 222.95 202.092C220.608 202.092 218.709 203.99 218.709 206.333C218.709 208.675 220.608 210.573 222.95 210.573Z" fill="#DC8B12"/>
<path opacity="0.36" d="M312.614 166.953C314.956 166.953 316.855 165.054 316.855 162.712C316.855 160.37 314.956 158.471 312.614 158.471C310.272 158.471 308.373 160.37 308.373 162.712C308.373 165.054 310.272 166.953 312.614 166.953Z" fill="#DC8B12"/>
<path opacity="0.36" d="M411.973 174.223C414.315 174.223 416.214 172.324 416.214 169.982C416.214 167.64 414.315 165.741 411.973 165.741C409.631 165.741 407.732 167.64 407.732 169.982C407.732 172.324 409.631 174.223 411.973 174.223Z" fill="#DC8B12"/>
<path opacity="0.36" d="M493.155 232.384C495.498 232.384 497.396 230.485 497.396 228.143C497.396 225.801 495.498 223.902 493.155 223.902C490.813 223.902 488.915 225.801 488.915 228.143C488.915 230.485 490.813 232.384 493.155 232.384Z" fill="#DC8B12"/>
<path opacity="0.36" d="M533.141 324.472C535.483 324.472 537.382 322.573 537.382 320.231C537.382 317.889 535.483 315.99 533.141 315.99C530.799 315.99 528.9 317.889 528.9 320.231C528.9 322.573 530.799 324.472 533.141 324.472Z" fill="#DC8B12"/>
<path opacity="0.35" d="M521.024 423.83C523.366 423.83 525.265 421.931 525.265 419.589C525.265 417.247 523.366 415.348 521.024 415.348C518.681 415.348 516.783 417.247 516.783 419.589C516.783 421.931 518.681 423.83 521.024 423.83Z" fill="#DC8B12"/>
<path opacity="0.35" d="M458.017 503.801C460.359 503.801 462.258 501.902 462.258 499.56C462.258 497.218 460.359 495.319 458.017 495.319C455.675 495.319 453.776 497.218 453.776 499.56C453.776 501.902 455.675 503.801 458.017 503.801Z" fill="#DC8B12"/>
<path opacity="0.35" d="M363.506 540.152C365.848 540.152 367.746 538.253 367.746 535.911C367.746 533.569 365.848 531.67 363.506 531.67C361.163 531.67 359.265 533.569 359.265 535.911C359.265 538.253 361.163 540.152 363.506 540.152Z" fill="#DC8B12"/>
<path opacity="0.35" d="M262.935 522.582C265.612 522.582 267.782 520.412 267.782 517.736C267.782 515.059 265.612 512.889 262.935 512.889C260.258 512.889 258.088 515.059 258.088 517.736C258.088 520.412 260.258 522.582 262.935 522.582Z" fill="#DC8B12"/>
<path opacity="0.35" d="M185.387 455.94C188.064 455.94 190.234 453.77 190.234 451.093C190.234 448.416 188.064 446.246 185.387 446.246C182.71 446.246 180.541 448.416 180.541 451.093C180.541 453.77 182.71 455.94 185.387 455.94Z" fill="#DC8B12"/>
<path opacity="0.34" d="M153.884 357.793C156.561 357.793 158.731 355.623 158.731 352.947C158.731 350.27 156.561 348.1 153.884 348.1C151.208 348.1 149.038 350.27 149.038 352.947C149.038 355.623 151.208 357.793 153.884 357.793Z" fill="#DC8B12"/>
<path opacity="0.34" d="M176.906 257.223C179.583 257.223 181.753 255.053 181.753 252.376C181.753 249.7 179.583 247.53 176.906 247.53C174.229 247.53 172.059 249.7 172.059 252.376C172.059 255.053 174.229 257.223 176.906 257.223Z" fill="#DC8B12"/>
<path opacity="0.34" d="M248.395 183.311C251.072 183.311 253.242 181.141 253.242 178.464C253.242 175.787 251.072 173.617 248.395 173.617C245.718 173.617 243.548 175.787 243.548 178.464C243.548 181.141 245.718 183.311 248.395 183.311Z" fill="#DC8B12"/>
<path opacity="0.34" d="M348.965 155.442C351.642 155.442 353.812 153.272 353.812 150.595C353.812 147.918 351.642 145.748 348.965 145.748C346.289 145.748 344.119 147.918 344.119 150.595C344.119 153.272 346.289 155.442 348.965 155.442Z" fill="#DC8B12"/>
<path opacity="0.33" d="M448.322 184.522C450.999 184.522 453.169 182.352 453.169 179.675C453.169 176.999 450.999 174.829 448.322 174.829C445.646 174.829 443.476 176.999 443.476 179.675C443.476 182.352 445.646 184.522 448.322 184.522Z" fill="#DC8B12"/>
<path opacity="0.33" d="M519.813 259.646C522.49 259.646 524.66 257.476 524.66 254.8C524.66 252.123 522.49 249.953 519.813 249.953C517.136 249.953 514.966 252.123 514.966 254.8C514.966 257.476 517.136 259.646 519.813 259.646Z" fill="#DC8B12"/>
<path opacity="0.33" d="M542.835 362.64C545.511 362.64 547.681 360.47 547.681 357.793C547.681 355.116 545.511 352.946 542.835 352.946C540.158 352.946 537.988 355.116 537.988 357.793C537.988 360.47 540.158 362.64 542.835 362.64Z" fill="#DC8B12"/>
<path opacity="0.33" d="M508.907 461.998C511.584 461.998 513.754 459.828 513.754 457.151C513.754 454.475 511.584 452.305 508.907 452.305C506.23 452.305 504.06 454.475 504.06 457.151C504.06 459.828 506.23 461.998 508.907 461.998Z" fill="#DC8B12"/>
<path opacity="0.32" d="M428.936 529.852C431.613 529.852 433.783 527.682 433.783 525.006C433.783 522.329 431.613 520.159 428.936 520.159C426.259 520.159 424.089 522.329 424.089 525.006C424.089 527.682 426.259 529.852 428.936 529.852Z" fill="#DC8B12"/>
<path opacity="0.32" d="M324.731 548.028C327.408 548.028 329.578 545.858 329.578 543.181C329.578 540.504 327.408 538.334 324.731 538.334C322.054 538.334 319.884 540.504 319.884 543.181C319.884 545.858 322.054 548.028 324.731 548.028Z" fill="#DC8B12"/>
<path opacity="0.32" d="M226.586 509.254C229.262 509.254 231.432 507.084 231.432 504.407C231.432 501.73 229.262 499.56 226.586 499.56C223.909 499.56 221.739 501.73 221.739 504.407C221.739 507.084 223.909 509.254 226.586 509.254Z" fill="#DC8B12"/>
<path opacity="0.32" d="M161.154 424.436C163.831 424.436 166.001 422.266 166.001 419.589C166.001 416.912 163.831 414.742 161.154 414.742C158.478 414.742 156.308 416.912 156.308 419.589C156.308 422.266 158.478 424.436 161.154 424.436Z" fill="#DC8B12"/>
<path opacity="0.32" d="M149.037 319.019C151.714 319.019 153.884 316.849 153.884 314.172C153.884 311.496 151.714 309.326 149.037 309.326C146.36 309.326 144.19 311.496 144.19 314.172C144.19 316.849 146.36 319.019 149.037 319.019Z" fill="#DC8B12"/>
<path opacity="0.31" d="M192.658 220.873C195.335 220.873 197.505 218.703 197.505 216.026C197.505 213.349 195.335 211.179 192.658 211.179C189.981 211.179 187.811 213.349 187.811 216.026C187.811 218.703 189.981 220.873 192.658 220.873Z" fill="#DC8B12"/>
<path opacity="0.31" d="M281.111 160.288C283.788 160.288 285.958 158.118 285.958 155.442C285.958 152.765 283.788 150.595 281.111 150.595C278.434 150.595 276.264 152.765 276.264 155.442C276.264 158.118 278.434 160.288 281.111 160.288Z" fill="#DC8B12"/>
<path opacity="0.31" d="M387.738 153.018C390.415 153.018 392.585 150.848 392.585 148.172C392.585 145.495 390.415 143.325 387.738 143.325C385.062 143.325 382.892 145.495 382.892 148.172C382.892 150.848 385.062 153.018 387.738 153.018Z" fill="#DC8B12"/>
<path opacity="0.31" d="M484.673 201.486C487.35 201.486 489.52 199.316 489.52 196.639C489.52 193.962 487.35 191.792 484.673 191.792C481.997 191.792 479.827 193.962 479.827 196.639C479.827 199.316 481.997 201.486 484.673 201.486Z" fill="#DC8B12"/>
<path opacity="0.3" d="M541.624 293.574C544.3 293.574 546.47 291.404 546.47 288.727C546.47 286.05 544.3 283.88 541.624 283.88C538.947 283.88 536.777 286.05 536.777 288.727C536.777 291.404 538.947 293.574 541.624 293.574Z" fill="#DC8B12"/>
<path opacity="0.3" d="M544.047 402.625C546.724 402.625 548.894 400.456 548.894 397.779C548.894 395.102 546.724 392.932 544.047 392.932C541.37 392.932 539.2 395.102 539.2 397.779C539.2 400.456 541.37 402.625 544.047 402.625Z" fill="#DC8B12"/>
<path opacity="0.3" d="M489.521 497.137C492.197 497.137 494.367 494.967 494.367 492.29C494.367 489.614 492.197 487.444 489.521 487.444C486.844 487.444 484.674 489.614 484.674 492.29C484.674 494.967 486.844 497.137 489.521 497.137Z" fill="#DC8B12"/>
<path opacity="0.3" d="M393.797 550.451C396.474 550.451 398.644 548.281 398.644 545.604C398.644 542.927 396.474 540.757 393.797 540.757C391.121 540.757 388.951 542.927 388.951 545.604C388.951 548.281 391.121 550.451 393.797 550.451Z" fill="#DC8B12"/>
<path opacity="0.29" d="M284.746 546.816C287.423 546.816 289.593 544.646 289.593 541.969C289.593 539.293 287.423 537.123 284.746 537.123C282.069 537.123 279.899 539.293 279.899 541.969C279.899 544.646 282.069 546.816 284.746 546.816Z" fill="#DC8B12"/>
<path opacity="0.29" d="M191.446 487.443C194.123 487.443 196.293 485.273 196.293 482.597C196.293 479.92 194.123 477.75 191.446 477.75C188.77 477.75 186.6 479.92 186.6 482.597C186.6 485.273 188.77 487.443 191.446 487.443Z" fill="#DC8B12"/>
<path opacity="0.29" d="M142.979 388.085C145.656 388.085 147.826 385.915 147.826 383.239C147.826 380.562 145.656 378.392 142.979 378.392C140.302 378.392 138.132 380.562 138.132 383.239C138.132 385.915 140.302 388.085 142.979 388.085Z" fill="#DC8B12"/>
<path opacity="0.29" d="M151.46 277.822C154.137 277.822 156.307 275.652 156.307 272.975C156.307 270.298 154.137 268.128 151.46 268.128C148.783 268.128 146.613 270.298 146.613 272.975C146.613 275.652 148.783 277.822 151.46 277.822Z" fill="#DC8B12"/>
<path opacity="0.29" d="M215.679 186.945C218.356 186.945 220.526 184.775 220.526 182.099C220.526 179.422 218.356 177.252 215.679 177.252C213.002 177.252 210.833 179.422 210.833 182.099C210.833 184.775 213.002 186.945 215.679 186.945Z" fill="#DC8B12"/>
<path opacity="0.28" d="M318.673 143.325C321.35 143.325 323.52 141.155 323.52 138.478C323.52 135.801 321.35 133.631 318.673 133.631C315.996 133.631 313.826 135.801 313.826 138.478C313.826 141.155 315.996 143.325 318.673 143.325Z" fill="#DC8B12"/>
<path opacity="0.28" d="M428.936 157.865C431.613 157.865 433.783 155.695 433.783 153.018C433.783 150.342 431.613 148.172 428.936 148.172C426.259 148.172 424.089 150.342 424.089 153.018C424.089 155.695 426.259 157.865 428.936 157.865Z" fill="#DC8B12"/>
<path opacity="0.28" d="M517.39 226.931C520.066 226.931 522.236 224.761 522.236 222.084C522.236 219.408 520.066 217.238 517.39 217.238C514.713 217.238 512.543 219.408 512.543 222.084C512.543 224.761 514.713 226.931 517.39 226.931Z" fill="#DC8B12"/>
<path opacity="0.28" d="M557.375 332.348C560.052 332.348 562.222 330.178 562.222 327.501C562.222 324.824 560.052 322.654 557.375 322.654C554.698 322.654 552.528 324.824 552.528 327.501C552.528 330.178 554.698 332.348 557.375 332.348Z" fill="#DC8B12"/>
<path opacity="0.27" d="M536.776 443.823C539.453 443.823 541.623 441.653 541.623 438.976C541.623 436.299 539.453 434.129 536.776 434.129C534.1 434.129 531.93 436.299 531.93 438.976C531.93 441.653 534.1 443.823 536.776 443.823Z" fill="#DC8B12"/>
<path opacity="0.27" d="M462.863 528.641C465.54 528.641 467.71 526.471 467.71 523.794C467.71 521.117 465.54 518.947 462.863 518.947C460.187 518.947 458.017 521.117 458.017 523.794C458.017 526.471 460.187 528.641 462.863 528.641Z" fill="#DC8B12"/>
<path opacity="0.27" d="M353.813 563.78C356.489 563.78 358.659 561.61 358.659 558.933C358.659 556.256 356.489 554.086 353.813 554.086C351.136 554.086 348.966 556.256 348.966 558.933C348.966 561.61 351.136 563.78 353.813 563.78Z" fill="#DC8B12"/>
<path opacity="0.27" d="M243.549 538.334C246.226 538.334 248.396 536.164 248.396 533.487C248.396 530.811 246.226 528.641 243.549 528.641C240.873 528.641 238.703 530.811 238.703 533.487C238.703 536.164 240.873 538.334 243.549 538.334Z" fill="#DC8B12"/>
<path opacity="0.26" d="M161.154 458.363C163.831 458.363 166.001 456.193 166.001 453.516C166.001 450.839 163.831 448.669 161.154 448.669C158.478 448.669 156.308 450.839 156.308 453.516C156.308 456.193 158.478 458.363 161.154 458.363Z" fill="#DC8B12"/>
<path opacity="0.26" d="M130.862 348.1C133.539 348.1 135.709 345.93 135.709 343.253C135.709 340.576 133.539 338.406 130.862 338.406C128.185 338.406 126.015 340.576 126.015 343.253C126.015 345.93 128.185 348.1 130.862 348.1Z" fill="#DC8B12"/>
<path opacity="0.26" d="M162.366 236.625C165.043 236.625 167.213 234.455 167.213 231.778C167.213 229.101 165.043 226.931 162.366 226.931C159.689 226.931 157.52 229.101 157.52 231.778C157.52 234.455 159.689 236.625 162.366 236.625Z" fill="#DC8B12"/>
<path opacity="0.26" d="M247.184 157.865C249.861 157.865 252.031 155.695 252.031 153.018C252.031 150.342 249.861 148.172 247.184 148.172C244.507 148.172 242.337 150.342 242.337 153.018C242.337 155.695 244.507 157.865 247.184 157.865Z" fill="#DC8B12"/>
<path opacity="0.26" d="M359.871 133.632C362.547 133.632 364.717 131.462 364.717 128.785C364.717 126.108 362.547 123.938 359.871 123.938C357.194 123.938 355.024 126.108 355.024 128.785C355.024 131.462 357.194 133.632 359.871 133.632Z" fill="#DC8B12"/>
<path opacity="0.25" d="M470.133 171.194C472.81 171.194 474.98 169.024 474.98 166.347C474.98 163.67 472.81 161.5 470.133 161.5C467.456 161.5 465.286 163.67 465.286 166.347C465.286 169.024 467.456 171.194 470.133 171.194Z" fill="#DC8B12"/>
<path opacity="0.25" d="M545.258 259.646C547.935 259.646 550.105 257.476 550.105 254.8C550.105 252.123 547.935 249.953 545.258 249.953C542.581 249.953 540.411 252.123 540.411 254.8C540.411 257.476 542.581 259.646 545.258 259.646Z" fill="#DC8B12"/>
<path opacity="0.25" d="M564.645 375.363C567.657 375.363 570.098 372.921 570.098 369.91C570.098 366.899 567.657 364.457 564.645 364.457C561.634 364.457 559.193 366.899 559.193 369.91C559.193 372.921 561.634 375.363 564.645 375.363Z" fill="#DC8B12"/>
<path opacity="0.25" d="M521.024 484.414C524.036 484.414 526.477 481.973 526.477 478.962C526.477 475.95 524.036 473.509 521.024 473.509C518.013 473.509 515.572 475.95 515.572 478.962C515.572 481.973 518.013 484.414 521.024 484.414Z" fill="#DC8B12"/>
<path opacity="0.24" d="M428.936 555.904C431.948 555.904 434.389 553.462 434.389 550.451C434.389 547.44 431.948 544.999 428.936 544.999C425.925 544.999 423.484 547.44 423.484 550.451C423.484 553.462 425.925 555.904 428.936 555.904Z" fill="#DC8B12"/>
<path opacity="0.24" d="M311.403 569.232C314.414 569.232 316.855 566.791 316.855 563.78C316.855 560.768 314.414 558.327 311.403 558.327C308.391 558.327 305.95 560.768 305.95 563.78C305.95 566.791 308.391 569.232 311.403 569.232Z" fill="#DC8B12"/>
<path opacity="0.24" d="M203.562 520.765C206.574 520.765 209.015 518.324 209.015 515.312C209.015 512.301 206.574 509.86 203.562 509.86C200.551 509.86 198.11 512.301 198.11 515.312C198.11 518.324 200.551 520.765 203.562 520.765Z" fill="#DC8B12"/>
<path opacity="0.24" d="M135.709 423.83C138.72 423.83 141.162 421.389 141.162 418.377C141.162 415.366 138.72 412.925 135.709 412.925C132.698 412.925 130.256 415.366 130.256 418.377C130.256 421.389 132.698 423.83 135.709 423.83Z" fill="#DC8B12"/>
<path opacity="0.23" d="M128.438 305.085C131.449 305.085 133.891 302.643 133.891 299.632C133.891 296.621 131.449 294.18 128.438 294.18C125.427 294.18 122.985 296.621 122.985 299.632C122.985 302.643 125.427 305.085 128.438 305.085Z" fill="#DC8B12"/>
<path opacity="0.23" d="M182.964 198.457C185.976 198.457 188.417 196.015 188.417 193.004C188.417 189.993 185.976 187.552 182.964 187.552C179.953 187.552 177.512 189.993 177.512 193.004C177.512 196.015 179.953 198.457 182.964 198.457Z" fill="#DC8B12"/>
<path opacity="0.23" d="M283.534 135.449C286.546 135.449 288.987 133.008 288.987 129.996C288.987 126.985 286.546 124.544 283.534 124.544C280.523 124.544 278.082 126.985 278.082 129.996C278.082 133.008 280.523 135.449 283.534 135.449Z" fill="#DC8B12"/>
<path opacity="0.23" d="M404.703 133.026C407.714 133.026 410.156 130.584 410.156 127.573C410.156 124.562 407.714 122.12 404.703 122.12C401.692 122.12 399.25 124.562 399.25 127.573C399.25 130.584 401.692 133.026 404.703 133.026Z" fill="#DC8B12"/>
<path opacity="0.23" d="M508.908 193.61C511.92 193.61 514.361 191.169 514.361 188.157C514.361 185.146 511.92 182.705 508.908 182.705C505.897 182.705 503.456 185.146 503.456 188.157C503.456 191.169 505.897 193.61 508.908 193.61Z" fill="#DC8B12"/>
<path opacity="0.22" d="M567.068 299.026C570.08 299.026 572.521 296.585 572.521 293.574C572.521 290.562 570.08 288.121 567.068 288.121C564.057 288.121 561.616 290.562 561.616 293.574C561.616 296.585 564.057 299.026 567.068 299.026Z" fill="#DC8B12"/>
<path opacity="0.22" d="M563.434 420.195C566.445 420.195 568.886 417.754 568.886 414.742C568.886 411.731 566.445 409.29 563.434 409.29C560.422 409.29 557.981 411.731 557.981 414.742C557.981 417.754 560.422 420.195 563.434 420.195Z" fill="#DC8B12"/>
<path opacity="0.22" d="M496.791 521.976C499.802 521.976 502.244 519.535 502.244 516.524C502.244 513.512 499.802 511.071 496.791 511.071C493.78 511.071 491.338 513.512 491.338 516.524C491.338 519.535 493.78 521.976 496.791 521.976Z" fill="#DC8B12"/>
<path opacity="0.22" d="M387.74 575.291C390.751 575.291 393.192 572.849 393.192 569.838C393.192 566.827 390.751 564.385 387.74 564.385C384.728 564.385 382.287 566.827 382.287 569.838C382.287 572.849 384.728 575.291 387.74 575.291Z" fill="#DC8B12"/>
<path opacity="0.21" d="M266.571 565.597C269.582 565.597 272.023 563.156 272.023 560.144C272.023 557.133 269.582 554.692 266.571 554.692C263.559 554.692 261.118 557.133 261.118 560.144C261.118 563.156 263.559 565.597 266.571 565.597Z" fill="#DC8B12"/>
<path opacity="0.21" d="M167.211 494.107C170.223 494.107 172.664 491.666 172.664 488.655C172.664 485.643 170.223 483.202 167.211 483.202C164.2 483.202 161.759 485.643 161.759 488.655C161.759 491.666 164.2 494.107 167.211 494.107Z" fill="#DC8B12"/>
<path opacity="0.21" d="M117.533 381.421C120.545 381.421 122.986 378.98 122.986 375.968C122.986 372.957 120.545 370.516 117.533 370.516C114.522 370.516 112.081 372.957 112.081 375.968C112.081 378.98 114.522 381.421 117.533 381.421Z" fill="#DC8B12"/>
<path opacity="0.21" d="M134.497 260.253C137.508 260.253 139.95 257.811 139.95 254.8C139.95 251.789 137.508 249.347 134.497 249.347C131.486 249.347 129.044 251.789 129.044 254.8C129.044 257.811 131.486 260.253 134.497 260.253Z" fill="#DC8B12"/>
<path opacity="0.2" d="M210.833 163.318C213.844 163.318 216.286 160.877 216.286 157.865C216.286 154.854 213.844 152.413 210.833 152.413C207.822 152.413 205.38 154.854 205.38 157.865C205.38 160.877 207.822 163.318 210.833 163.318Z" fill="#DC8B12"/>
<path opacity="0.2" d="M327.155 119.697C330.167 119.697 332.608 117.256 332.608 114.245C332.608 111.233 330.167 108.792 327.155 108.792C324.144 108.792 321.703 111.233 321.703 114.245C321.703 117.256 324.144 119.697 327.155 119.697Z" fill="#DC8B12"/>
<path opacity="0.2" d="M449.535 141.507C452.546 141.507 454.987 139.066 454.987 136.055C454.987 133.043 452.546 130.602 449.535 130.602C446.523 130.602 444.082 133.043 444.082 136.055C444.082 139.066 446.523 141.507 449.535 141.507Z" fill="#DC8B12"/>
<path opacity="0.2" d="M542.834 223.902C545.846 223.902 548.287 221.461 548.287 218.449C548.287 215.438 545.846 212.997 542.834 212.997C539.823 212.997 537.382 215.438 537.382 218.449C537.382 221.461 539.823 223.902 542.834 223.902Z" fill="#DC8B12"/>
<path opacity="0.2" d="M580.396 342.647C583.408 342.647 585.849 340.206 585.849 337.194C585.849 334.183 583.408 331.742 580.396 331.742C577.385 331.742 574.944 334.183 574.944 337.194C574.944 340.206 577.385 342.647 580.396 342.647Z" fill="#DC8B12"/>
<path opacity="0.19" d="M552.528 465.027C555.54 465.027 557.981 462.586 557.981 459.575C557.981 456.563 555.54 454.122 552.528 454.122C549.517 454.122 547.076 456.563 547.076 459.575C547.076 462.586 549.517 465.027 552.528 465.027Z" fill="#DC8B12"/>
<path opacity="0.19" d="M465.288 554.692C468.299 554.692 470.74 552.251 470.74 549.239C470.74 546.228 468.299 543.787 465.288 543.787C462.276 543.787 459.835 546.228 459.835 549.239C459.835 552.251 462.276 554.692 465.288 554.692Z" fill="#DC8B12"/>
<path opacity="0.19" d="M342.906 587.407C345.918 587.407 348.359 584.966 348.359 581.955C348.359 578.944 345.918 576.502 342.906 576.502C339.895 576.502 337.454 578.944 337.454 581.955C337.454 584.966 339.895 587.407 342.906 587.407Z" fill="#DC8B12"/>
<path opacity="0.19" d="M221.738 552.269C224.749 552.269 227.19 549.827 227.19 546.816C227.19 543.805 224.749 541.363 221.738 541.363C218.726 541.363 216.285 543.805 216.285 546.816C216.285 549.827 218.726 552.269 221.738 552.269Z" fill="#DC8B12"/>
<path opacity="0.18" d="M135.709 460.181C138.72 460.181 141.162 457.739 141.162 454.728C141.162 451.717 138.72 449.275 135.709 449.275C132.698 449.275 130.256 451.717 130.256 454.728C130.256 457.739 132.698 460.181 135.709 460.181Z" fill="#DC8B12"/>
<path opacity="0.18" d="M109.052 336.588C112.063 336.588 114.504 334.147 114.504 331.136C114.504 328.124 112.063 325.683 109.052 325.683C106.04 325.683 103.599 328.124 103.599 331.136C103.599 334.147 106.04 336.588 109.052 336.588Z" fill="#DC8B12"/>
<path opacity="0.18" d="M150.248 215.42C153.26 215.42 155.701 212.979 155.701 209.967C155.701 206.956 153.26 204.515 150.248 204.515C147.237 204.515 144.796 206.956 144.796 209.967C144.796 212.979 147.237 215.42 150.248 215.42Z" fill="#DC8B12"/>
<path opacity="0.18" d="M247.184 133.026C250.195 133.026 252.636 130.584 252.636 127.573C252.636 124.562 250.195 122.12 247.184 122.12C244.172 122.12 241.731 124.562 241.731 127.573C241.731 130.584 244.172 133.026 247.184 133.026Z" fill="#DC8B12"/>
<path opacity="0.17" d="M373.198 112.427C376.21 112.427 378.651 109.986 378.651 106.974C378.651 103.963 376.21 101.522 373.198 101.522C370.187 101.522 367.746 103.963 367.746 106.974C367.746 109.986 370.187 112.427 373.198 112.427Z" fill="#DC8B12"/>
<path opacity="0.17" d="M493.156 159.682C496.167 159.682 498.608 157.241 498.608 154.23C498.608 151.218 496.167 148.777 493.156 148.777C490.144 148.777 487.703 151.218 487.703 154.23C487.703 157.241 490.144 159.682 493.156 159.682Z" fill="#DC8B12"/>
<path opacity="0.17" d="M570.704 261.464C573.715 261.464 576.156 259.023 576.156 256.011C576.156 253 573.715 250.559 570.704 250.559C567.692 250.559 565.251 253 565.251 256.011C565.251 259.023 567.692 261.464 570.704 261.464Z" fill="#DC8B12"/>
<path opacity="0.17" d="M585.243 389.903C588.254 389.903 590.696 387.461 590.696 384.45C590.696 381.439 588.254 378.997 585.243 378.997C582.232 378.997 579.791 381.439 579.791 384.45C579.791 387.461 582.232 389.903 585.243 389.903Z" fill="#DC8B12"/>
<path opacity="0.17" d="M531.93 507.436C534.941 507.436 537.382 504.995 537.382 501.984C537.382 498.972 534.941 496.531 531.93 496.531C528.918 496.531 526.477 498.972 526.477 501.984C526.477 504.995 528.918 507.436 531.93 507.436Z" fill="#DC8B12"/>
<path opacity="0.16" d="M425.301 581.349C428.313 581.349 430.754 578.908 430.754 575.896C430.754 572.885 428.313 570.444 425.301 570.444C422.29 570.444 419.849 572.885 419.849 575.896C419.849 578.908 422.29 581.349 425.301 581.349Z" fill="#DC8B12"/>
<path opacity="0.16" d="M295.651 589.831C298.663 589.831 301.104 587.389 301.104 584.378C301.104 581.367 298.663 578.926 295.651 578.926C292.64 578.926 290.199 581.367 290.199 584.378C290.199 587.389 292.64 589.831 295.651 589.831Z" fill="#DC8B12"/>
<path opacity="0.16" d="M179.329 530.458C182.34 530.458 184.782 528.017 184.782 525.005C184.782 521.994 182.34 519.553 179.329 519.553C176.318 519.553 173.876 521.994 173.876 525.005C173.876 528.017 176.318 530.458 179.329 530.458Z" fill="#DC8B12"/>
<path opacity="0.16" d="M110.263 418.983C113.275 418.983 115.716 416.542 115.716 413.53C115.716 410.519 113.275 408.078 110.263 408.078C107.252 408.078 104.811 410.519 104.811 413.53C104.811 416.542 107.252 418.983 110.263 418.983Z" fill="#DC8B12"/>
<path opacity="0.15" d="M109.052 288.121C112.063 288.121 114.504 285.68 114.504 282.668C114.504 279.657 112.063 277.216 109.052 277.216C106.04 277.216 103.599 279.657 103.599 282.668C103.599 285.68 106.04 288.121 109.052 288.121Z" fill="#DC8B12"/>
<path opacity="0.15" d="M174.483 174.223C177.494 174.223 179.935 171.782 179.935 168.77C179.935 165.759 177.494 163.318 174.483 163.318C171.471 163.318 169.03 165.759 169.03 168.77C169.03 171.782 171.471 174.223 174.483 174.223Z" fill="#DC8B12"/>
<path opacity="0.15" d="M289.593 110.609C292.939 110.609 295.651 107.897 295.651 104.551C295.651 101.205 292.939 98.4924 289.593 98.4924C286.247 98.4924 283.534 101.205 283.534 104.551C283.534 107.897 286.247 110.609 289.593 110.609Z" fill="#DC8B12"/>
<path opacity="0.15" d="M421.667 115.456C425.013 115.456 427.725 112.744 427.725 109.398C427.725 106.052 425.013 103.339 421.667 103.339C418.321 103.339 415.608 106.052 415.608 109.398C415.608 112.744 418.321 115.456 421.667 115.456Z" fill="#DC8B12"/>
<path opacity="0.14" d="M533.141 186.945C536.487 186.945 539.199 184.233 539.199 180.887C539.199 177.541 536.487 174.829 533.141 174.829C529.795 174.829 527.083 177.541 527.083 180.887C527.083 184.233 529.795 186.945 533.141 186.945Z" fill="#DC8B12"/>
<path opacity="0.14" d="M591.303 306.902C594.649 306.902 597.361 304.19 597.361 300.844C597.361 297.498 594.649 294.786 591.303 294.786C587.957 294.786 585.244 297.498 585.244 300.844C585.244 304.19 587.957 306.902 591.303 306.902Z" fill="#DC8B12"/>
<path opacity="0.14" d="M580.397 438.976C583.743 438.976 586.456 436.264 586.456 432.918C586.456 429.572 583.743 426.859 580.397 426.859C577.051 426.859 574.339 429.572 574.339 432.918C574.339 436.264 577.051 438.976 580.397 438.976Z" fill="#DC8B12"/>
<path opacity="0.14" d="M502.849 548.028C506.195 548.028 508.908 545.315 508.908 541.969C508.908 538.623 506.195 535.911 502.849 535.911C499.503 535.911 496.791 538.623 496.791 541.969C496.791 545.315 499.503 548.028 502.849 548.028Z" fill="#DC8B12"/>
<path opacity="0.14" d="M379.258 601.342C382.604 601.342 385.316 598.629 385.316 595.283C385.316 591.937 382.604 589.225 379.258 589.225C375.912 589.225 373.199 591.937 373.199 595.283C373.199 598.629 375.912 601.342 379.258 601.342Z" fill="#DC8B12"/>
<path opacity="0.13" d="M247.183 583.166C250.529 583.166 253.242 580.454 253.242 577.108C253.242 573.762 250.529 571.049 247.183 571.049C243.837 571.049 241.125 573.762 241.125 577.108C241.125 580.454 243.837 583.166 247.183 583.166Z" fill="#DC8B12"/>
<path opacity="0.13" d="M141.767 499.56C145.113 499.56 147.826 496.848 147.826 493.502C147.826 490.156 145.113 487.444 141.767 487.444C138.421 487.444 135.709 490.156 135.709 493.502C135.709 496.848 138.421 499.56 141.767 499.56Z" fill="#DC8B12"/>
<path opacity="0.13" d="M94.512 372.334C97.858 372.334 100.57 369.621 100.57 366.275C100.57 362.929 97.858 360.217 94.512 360.217C91.1661 360.217 88.4536 362.929 88.4536 366.275C88.4536 369.621 91.1661 372.334 94.512 372.334Z" fill="#DC8B12"/>
<path opacity="0.13" d="M118.745 240.26C122.091 240.26 124.804 237.547 124.804 234.201C124.804 230.855 122.091 228.143 118.745 228.143C115.399 228.143 112.687 230.855 112.687 234.201C112.687 237.547 115.399 240.26 118.745 240.26Z" fill="#DC8B12"/>
<path opacity="0.12" d="M208.41 138.478C211.756 138.478 214.468 135.766 214.468 132.42C214.468 129.074 211.756 126.361 208.41 126.361C205.064 126.361 202.352 129.074 202.352 132.42C202.352 135.766 205.064 138.478 208.41 138.478Z" fill="#DC8B12"/>
<path opacity="0.12" d="M338.06 96.0691C341.406 96.0691 344.118 93.3566 344.118 90.0106C344.118 86.6647 341.406 83.9522 338.06 83.9522C334.714 83.9522 332.001 86.6647 332.001 90.0106C332.001 93.3566 334.714 96.0691 338.06 96.0691Z" fill="#DC8B12"/>
<path opacity="0.12" d="M470.134 127.573C473.48 127.573 476.192 124.86 476.192 121.514C476.192 118.168 473.48 115.456 470.134 115.456C466.788 115.456 464.075 118.168 464.075 121.514C464.075 124.86 466.788 127.573 470.134 127.573Z" fill="#DC8B12"/>
<path opacity="0.12" d="M568.28 223.296C571.626 223.296 574.339 220.584 574.339 217.238C574.339 213.892 571.626 211.179 568.28 211.179C564.934 211.179 562.222 213.892 562.222 217.238C562.222 220.584 564.934 223.296 568.28 223.296Z" fill="#DC8B12"/>
<path opacity="0.11" d="M603.42 355.37C606.766 355.37 609.478 352.657 609.478 349.311C609.478 345.965 606.766 343.253 603.42 343.253C600.074 343.253 597.361 345.965 597.361 349.311C597.361 352.657 600.074 355.37 603.42 355.37Z" fill="#DC8B12"/>
<path opacity="0.11" d="M565.857 487.444C569.203 487.444 571.915 484.731 571.915 481.385C571.915 478.039 569.203 475.327 565.857 475.327C562.511 475.327 559.798 478.039 559.798 481.385C559.798 484.731 562.511 487.444 565.857 487.444Z" fill="#DC8B12"/>
<path opacity="0.11" d="M465.286 581.955C468.632 581.955 471.345 579.242 471.345 575.896C471.345 572.55 468.632 569.838 465.286 569.838C461.94 569.838 459.228 572.55 459.228 575.896C459.228 579.242 461.94 581.955 465.286 581.955Z" fill="#DC8B12"/>
<path opacity="0.11" d="M329.578 611.035C332.924 611.035 335.637 608.323 335.637 604.977C335.637 601.631 332.924 598.918 329.578 598.918C326.232 598.918 323.52 601.631 323.52 604.977C323.52 608.323 326.232 611.035 329.578 611.035Z" fill="#DC8B12"/>
<path opacity="0.11" d="M198.716 566.203C202.062 566.203 204.775 563.491 204.775 560.145C204.775 556.799 202.062 554.086 198.716 554.086C195.37 554.086 192.658 556.799 192.658 560.145C192.658 563.491 195.37 566.203 198.716 566.203Z" fill="#DC8B12"/>
<path opacity="0.1" d="M109.052 459.575C112.398 459.575 115.111 456.862 115.111 453.516C115.111 450.17 112.398 447.458 109.052 447.458C105.706 447.458 102.994 450.17 102.994 453.516C102.994 456.862 105.706 459.575 109.052 459.575Z" fill="#DC8B12"/>
<path opacity="0.1" d="M87.241 322.654C90.587 322.654 93.2995 319.942 93.2995 316.596C93.2995 313.25 90.587 310.537 87.241 310.537C83.8951 310.537 81.1826 313.25 81.1826 316.596C81.1826 319.942 83.8951 322.654 87.241 322.654Z" fill="#DC8B12"/>
</g>
</svg>
