<svg width="919" height="947" viewBox="0 0 919 947" fill="none" xmlns="http://www.w3.org/2000/svg">
<g opacity="0.27">
<path d="M238.713 249.474C239.384 249.474 239.929 248.93 239.929 248.258C239.929 247.587 239.384 247.042 238.713 247.042C238.041 247.042 237.497 247.587 237.497 248.258C237.497 248.93 238.041 249.474 238.713 249.474Z" fill="#DC8B12"/>
<path d="M238.713 256.769C239.384 256.769 239.929 256.225 239.929 255.553C239.929 254.882 239.384 254.337 238.713 254.337C238.041 254.337 237.497 254.882 237.497 255.553C237.497 256.225 238.041 256.769 238.713 256.769Z" fill="#DC8B12"/>
<path d="M233.847 261.633C234.518 261.633 235.063 261.089 235.063 260.417C235.063 259.746 234.518 259.201 233.847 259.201C233.175 259.201 232.631 259.746 232.631 260.417C232.631 261.089 233.175 261.633 233.847 261.633Z" fill="#DC8B12"/>
<path opacity="0.99" d="M226.553 266.496C227.224 266.496 227.769 265.952 227.769 265.28C227.769 264.609 227.224 264.064 226.553 264.064C225.881 264.064 225.337 264.609 225.337 265.28C225.337 265.952 225.881 266.496 226.553 266.496Z" fill="#DC8B12"/>
<path opacity="0.99" d="M216.825 264.065C217.497 264.065 218.041 263.52 218.041 262.849C218.041 262.177 217.497 261.633 216.825 261.633C216.154 261.633 215.609 262.177 215.609 262.849C215.609 263.52 216.154 264.065 216.825 264.065Z" fill="#DC8B12"/>
<path opacity="0.99" d="M209.53 256.769C210.202 256.769 210.746 256.225 210.746 255.553C210.746 254.882 210.202 254.337 209.53 254.337C208.859 254.337 208.314 254.882 208.314 255.553C208.314 256.225 208.859 256.769 209.53 256.769Z" fill="#DC8B12"/>
<path opacity="0.99" d="M207.1 247.042C207.771 247.042 208.316 246.497 208.316 245.826C208.316 245.154 207.771 244.61 207.1 244.61C206.428 244.61 205.884 245.154 205.884 245.826C205.884 246.497 206.428 247.042 207.1 247.042Z" fill="#DC8B12"/>
<path opacity="0.98" d="M209.53 237.316C210.202 237.316 210.746 236.771 210.746 236.1C210.746 235.428 210.202 234.884 209.53 234.884C208.859 234.884 208.314 235.428 208.314 236.1C208.314 236.771 208.859 237.316 209.53 237.316Z" fill="#DC8B12"/>
<path opacity="0.98" d="M216.825 227.588C217.497 227.588 218.041 227.044 218.041 226.372C218.041 225.701 217.497 225.156 216.825 225.156C216.154 225.156 215.609 225.701 215.609 226.372C215.609 227.044 216.154 227.588 216.825 227.588Z" fill="#DC8B12"/>
<path opacity="0.98" d="M228.983 225.157C229.655 225.157 230.199 224.612 230.199 223.941C230.199 223.269 229.655 222.725 228.983 222.725C228.312 222.725 227.768 223.269 227.768 223.941C227.768 224.612 228.312 225.157 228.983 225.157Z" fill="#DC8B12"/>
<path opacity="0.98" d="M243.576 230.02C244.248 230.02 244.792 229.475 244.792 228.804C244.792 228.132 244.248 227.588 243.576 227.588C242.905 227.588 242.36 228.132 242.36 228.804C242.36 229.475 242.905 230.02 243.576 230.02Z" fill="#DC8B12"/>
<path opacity="0.97" d="M250.871 239.747C251.543 239.747 252.087 239.203 252.087 238.531C252.087 237.86 251.543 237.315 250.871 237.315C250.2 237.315 249.655 237.86 249.655 238.531C249.655 239.203 250.2 239.747 250.871 239.747Z" fill="#DC8B12"/>
<path opacity="0.97" d="M253.302 254.337C253.973 254.337 254.518 253.793 254.518 253.121C254.518 252.45 253.973 251.906 253.302 251.906C252.63 251.906 252.086 252.45 252.086 253.121C252.086 253.793 252.63 254.337 253.302 254.337Z" fill="#DC8B12"/>
<path opacity="0.97" d="M248.44 268.928C249.111 268.928 249.655 268.383 249.655 267.712C249.655 267.04 249.111 266.496 248.44 266.496C247.768 266.496 247.224 267.04 247.224 267.712C247.224 268.383 247.768 268.928 248.44 268.928Z" fill="#DC8B12"/>
<path opacity="0.97" d="M236.279 278.655C236.951 278.655 237.495 278.11 237.495 277.439C237.495 276.767 236.951 276.223 236.279 276.223C235.608 276.223 235.063 276.767 235.063 277.439C235.063 278.11 235.608 278.655 236.279 278.655Z" fill="#DC8B12"/>
<path opacity="0.97" d="M219.258 281.086C219.929 281.086 220.474 280.542 220.474 279.87C220.474 279.199 219.929 278.655 219.258 278.655C218.586 278.655 218.042 279.199 218.042 279.87C218.042 280.542 218.586 281.086 219.258 281.086Z" fill="#DC8B12"/>
<path opacity="0.96" d="M202.236 273.792C202.908 273.792 203.452 273.247 203.452 272.576C203.452 271.904 202.908 271.36 202.236 271.36C201.565 271.36 201.021 271.904 201.021 272.576C201.021 273.247 201.565 273.792 202.236 273.792Z" fill="#DC8B12"/>
<path opacity="0.96" d="M192.507 256.769C193.178 256.769 193.723 256.225 193.723 255.553C193.723 254.882 193.178 254.337 192.507 254.337C191.835 254.337 191.291 254.882 191.291 255.553C191.291 256.225 191.835 256.769 192.507 256.769Z" fill="#DC8B12"/>
<path opacity="0.96" d="M192.507 239.747C193.178 239.747 193.723 239.203 193.723 238.531C193.723 237.86 193.178 237.315 192.507 237.315C191.835 237.315 191.291 237.86 191.291 238.531C191.291 239.203 191.835 239.747 192.507 239.747Z" fill="#DC8B12"/>
<path opacity="0.96" d="M202.236 222.724C202.908 222.724 203.452 222.18 203.452 221.508C203.452 220.837 202.908 220.292 202.236 220.292C201.565 220.292 201.021 220.837 201.021 221.508C201.021 222.18 201.565 222.724 202.236 222.724Z" fill="#DC8B12"/>
<path opacity="0.95" d="M219.258 212.998C219.929 212.998 220.474 212.454 220.474 211.782C220.474 211.111 219.929 210.566 219.258 210.566C218.586 210.566 218.042 211.111 218.042 211.782C218.042 212.454 218.586 212.998 219.258 212.998Z" fill="#DC8B12"/>
<path opacity="0.95" d="M241.144 212.998C241.815 212.998 242.359 212.454 242.359 211.782C242.359 211.111 241.815 210.566 241.144 210.566C240.472 210.566 239.928 211.111 239.928 211.782C239.928 212.454 240.472 212.998 241.144 212.998Z" fill="#DC8B12"/>
<path opacity="0.95" d="M258.165 223.941C259.508 223.941 260.597 222.852 260.597 221.509C260.597 220.166 259.508 219.077 258.165 219.077C256.822 219.077 255.733 220.166 255.733 221.509C255.733 222.852 256.822 223.941 258.165 223.941Z" fill="#DC8B12"/>
<path opacity="0.95" d="M267.893 243.394C269.236 243.394 270.324 242.305 270.324 240.962C270.324 239.619 269.236 238.531 267.893 238.531C266.55 238.531 265.461 239.619 265.461 240.962C265.461 242.305 266.55 243.394 267.893 243.394Z" fill="#DC8B12"/>
<path opacity="0.94" d="M267.893 267.712C269.236 267.712 270.324 266.623 270.324 265.28C270.324 263.937 269.236 262.848 267.893 262.848C266.55 262.848 265.461 263.937 265.461 265.28C265.461 266.623 266.55 267.712 267.893 267.712Z" fill="#DC8B12"/>
<path opacity="0.94" d="M253.301 287.166C254.644 287.166 255.733 286.077 255.733 284.734C255.733 283.391 254.644 282.302 253.301 282.302C251.958 282.302 250.869 283.391 250.869 284.734C250.869 286.077 251.958 287.166 253.301 287.166Z" fill="#DC8B12"/>
<path opacity="0.94" d="M231.417 296.893C232.76 296.893 233.849 295.805 233.849 294.462C233.849 293.119 232.76 292.03 231.417 292.03C230.074 292.03 228.985 293.119 228.985 294.462C228.985 295.805 230.074 296.893 231.417 296.893Z" fill="#DC8B12"/>
<path opacity="0.94" d="M207.099 294.461C208.442 294.461 209.53 293.373 209.53 292.03C209.53 290.687 208.442 289.598 207.099 289.598C205.756 289.598 204.667 290.687 204.667 292.03C204.667 293.373 205.756 294.461 207.099 294.461Z" fill="#DC8B12"/>
<path opacity="0.94" d="M185.214 277.439C186.557 277.439 187.646 276.35 187.646 275.007C187.646 273.664 186.557 272.575 185.214 272.575C183.871 272.575 182.782 273.664 182.782 275.007C182.782 276.35 183.871 277.439 185.214 277.439Z" fill="#DC8B12"/>
<path opacity="0.93" d="M175.485 253.121C176.828 253.121 177.917 252.033 177.917 250.69C177.917 249.347 176.828 248.258 175.485 248.258C174.142 248.258 173.054 249.347 173.054 250.69C173.054 252.033 174.142 253.121 175.485 253.121Z" fill="#DC8B12"/>
<path opacity="0.93" d="M180.35 226.372C181.693 226.372 182.781 225.284 182.781 223.941C182.781 222.598 181.693 221.509 180.35 221.509C179.007 221.509 177.918 222.598 177.918 223.941C177.918 225.284 179.007 226.372 180.35 226.372Z" fill="#DC8B12"/>
<path opacity="0.93" d="M199.803 204.486C201.146 204.486 202.235 203.398 202.235 202.055C202.235 200.712 201.146 199.623 199.803 199.623C198.46 199.623 197.371 200.712 197.371 202.055C197.371 203.398 198.46 204.486 199.803 204.486Z" fill="#DC8B12"/>
<path opacity="0.93" d="M226.554 197.191C227.897 197.191 228.986 196.103 228.986 194.76C228.986 193.417 227.897 192.328 226.554 192.328C225.211 192.328 224.122 193.417 224.122 194.76C224.122 196.103 225.211 197.191 226.554 197.191Z" fill="#DC8B12"/>
<path opacity="0.92" d="M255.734 202.055C257.077 202.055 258.165 200.966 258.165 199.623C258.165 198.28 257.077 197.191 255.734 197.191C254.39 197.191 253.302 198.28 253.302 199.623C253.302 200.966 254.39 202.055 255.734 202.055Z" fill="#DC8B12"/>
<path opacity="0.92" d="M277.619 223.941C278.962 223.941 280.051 222.852 280.051 221.509C280.051 220.166 278.962 219.077 277.619 219.077C276.276 219.077 275.188 220.166 275.188 221.509C275.188 222.852 276.276 223.941 277.619 223.941Z" fill="#DC8B12"/>
<path opacity="0.92" d="M284.914 253.121C286.257 253.121 287.346 252.033 287.346 250.69C287.346 249.347 286.257 248.258 284.914 248.258C283.571 248.258 282.482 249.347 282.482 250.69C282.482 252.033 283.571 253.121 284.914 253.121Z" fill="#DC8B12"/>
<path opacity="0.92" d="M275.189 284.734C276.532 284.734 277.62 283.646 277.62 282.303C277.62 280.96 276.532 279.871 275.189 279.871C273.846 279.871 272.757 280.96 272.757 282.303C272.757 283.646 273.846 284.734 275.189 284.734Z" fill="#DC8B12"/>
<path opacity="0.91" d="M253.301 306.62C254.644 306.62 255.733 305.532 255.733 304.189C255.733 302.846 254.644 301.757 253.301 301.757C251.958 301.757 250.869 302.846 250.869 304.189C250.869 305.532 251.958 306.62 253.301 306.62Z" fill="#DC8B12"/>
<path opacity="0.91" d="M219.258 311.483C220.601 311.483 221.69 310.395 221.69 309.052C221.69 307.709 220.601 306.62 219.258 306.62C217.915 306.62 216.826 307.709 216.826 309.052C216.826 310.395 217.915 311.483 219.258 311.483Z" fill="#DC8B12"/>
<path opacity="0.91" d="M187.645 301.756C188.988 301.756 190.076 300.667 190.076 299.324C190.076 297.981 188.988 296.893 187.645 296.893C186.302 296.893 185.213 297.981 185.213 299.324C185.213 300.667 186.302 301.756 187.645 301.756Z" fill="#DC8B12"/>
<path opacity="0.91" d="M165.759 275.007C167.102 275.007 168.191 273.919 168.191 272.576C168.191 271.233 167.102 270.144 165.759 270.144C164.416 270.144 163.327 271.233 163.327 272.576C163.327 273.919 164.416 275.007 165.759 275.007Z" fill="#DC8B12"/>
<path opacity="0.91" d="M160.897 240.963C162.24 240.963 163.328 239.874 163.328 238.531C163.328 237.188 162.24 236.099 160.897 236.099C159.554 236.099 158.465 237.188 158.465 238.531C158.465 239.874 159.554 240.963 160.897 240.963Z" fill="#DC8B12"/>
<path opacity="0.9" d="M175.485 206.918C176.828 206.918 177.917 205.829 177.917 204.486C177.917 203.143 176.828 202.054 175.485 202.054C174.142 202.054 173.054 203.143 173.054 204.486C173.054 205.829 174.142 206.918 175.485 206.918Z" fill="#DC8B12"/>
<path opacity="0.9" d="M204.666 185.033C206.009 185.033 207.098 183.944 207.098 182.601C207.098 181.258 206.009 180.169 204.666 180.169C203.323 180.169 202.234 181.258 202.234 182.601C202.234 183.944 203.323 185.033 204.666 185.033Z" fill="#DC8B12"/>
<path opacity="0.9" d="M241.143 182.6C242.486 182.6 243.574 181.512 243.574 180.169C243.574 178.826 242.486 177.737 241.143 177.737C239.8 177.737 238.711 178.826 238.711 180.169C238.711 181.512 239.8 182.6 241.143 182.6Z" fill="#DC8B12"/>
<path opacity="0.9" d="M275.189 197.191C276.532 197.191 277.62 196.103 277.62 194.76C277.62 193.417 276.532 192.328 275.189 192.328C273.846 192.328 272.757 193.417 272.757 194.76C272.757 196.103 273.846 197.191 275.189 197.191Z" fill="#DC8B12"/>
<path opacity="0.89" d="M297.072 228.804C298.415 228.804 299.504 227.715 299.504 226.372C299.504 225.029 298.415 223.94 297.072 223.94C295.729 223.94 294.641 225.029 294.641 226.372C294.641 227.715 295.729 228.804 297.072 228.804Z" fill="#DC8B12"/>
<path opacity="0.89" d="M297.072 267.712C298.415 267.712 299.504 266.623 299.504 265.28C299.504 263.937 298.415 262.848 297.072 262.848C295.729 262.848 294.641 263.937 294.641 265.28C294.641 266.623 295.729 267.712 297.072 267.712Z" fill="#DC8B12"/>
<path opacity="0.89" d="M280.052 304.188C281.395 304.188 282.484 303.099 282.484 301.756C282.484 300.413 281.395 299.324 280.052 299.324C278.709 299.324 277.62 300.413 277.62 301.756C277.62 303.099 278.709 304.188 280.052 304.188Z" fill="#DC8B12"/>
<path opacity="0.89" d="M246.007 326.074C247.35 326.074 248.439 324.985 248.439 323.642C248.439 322.299 247.35 321.21 246.007 321.21C244.664 321.21 243.575 322.299 243.575 323.642C243.575 324.985 244.664 326.074 246.007 326.074Z" fill="#DC8B12"/>
<path opacity="0.88" d="M204.666 326.074C206.009 326.074 207.098 324.985 207.098 323.642C207.098 322.299 206.009 321.21 204.666 321.21C203.323 321.21 202.234 322.299 202.234 323.642C202.234 324.985 203.323 326.074 204.666 326.074Z" fill="#DC8B12"/>
<path opacity="0.88" d="M168.19 304.188C169.533 304.188 170.621 303.099 170.621 301.756C170.621 300.413 169.533 299.324 168.19 299.324C166.847 299.324 165.758 300.413 165.758 301.756C165.758 303.099 166.847 304.188 168.19 304.188Z" fill="#DC8B12"/>
<path opacity="0.88" d="M148.737 265.28C150.08 265.28 151.169 264.191 151.169 262.848C151.169 261.505 150.08 260.417 148.737 260.417C147.394 260.417 146.306 261.505 146.306 262.848C146.306 264.191 147.394 265.28 148.737 265.28Z" fill="#DC8B12"/>
<path opacity="0.88" d="M148.737 223.941C150.08 223.941 151.169 222.852 151.169 221.509C151.169 220.166 150.08 219.077 148.737 219.077C147.394 219.077 146.306 220.166 146.306 221.509C146.306 222.852 147.394 223.941 148.737 223.941Z" fill="#DC8B12"/>
<path opacity="0.88" d="M173.055 187.464C174.398 187.464 175.487 186.375 175.487 185.032C175.487 183.689 174.398 182.601 173.055 182.601C171.712 182.601 170.623 183.689 170.623 185.032C170.623 186.375 171.712 187.464 173.055 187.464Z" fill="#DC8B12"/>
<path opacity="0.87" d="M214.394 168.01C215.737 168.01 216.825 166.921 216.825 165.578C216.825 164.235 215.737 163.147 214.394 163.147C213.051 163.147 211.962 164.235 211.962 165.578C211.962 166.921 213.051 168.01 214.394 168.01Z" fill="#DC8B12"/>
<path opacity="0.87" d="M260.596 170.442C261.939 170.442 263.028 169.353 263.028 168.01C263.028 166.667 261.939 165.578 260.596 165.578C259.253 165.578 258.164 166.667 258.164 168.01C258.164 169.353 259.253 170.442 260.596 170.442Z" fill="#DC8B12"/>
<path opacity="0.87" d="M297.072 199.623C298.415 199.623 299.504 198.534 299.504 197.191C299.504 195.848 298.415 194.76 297.072 194.76C295.729 194.76 294.641 195.848 294.641 197.191C294.641 198.534 295.729 199.623 297.072 199.623Z" fill="#DC8B12"/>
<path opacity="0.87" d="M314.096 243.394C315.439 243.394 316.528 242.305 316.528 240.962C316.528 239.619 315.439 238.531 314.096 238.531C312.753 238.531 311.664 239.619 311.664 240.962C311.664 242.305 312.753 243.394 314.096 243.394Z" fill="#DC8B12"/>
<path opacity="0.86" d="M306.802 289.597C308.145 289.597 309.234 288.509 309.234 287.166C309.234 285.823 308.145 284.734 306.802 284.734C305.459 284.734 304.37 285.823 304.37 287.166C304.37 288.509 305.459 289.597 306.802 289.597Z" fill="#DC8B12"/>
<path opacity="0.86" d="M277.619 326.074C278.962 326.074 280.051 324.985 280.051 323.642C280.051 322.299 278.962 321.21 277.619 321.21C276.276 321.21 275.188 322.299 275.188 323.642C275.188 324.985 276.276 326.074 277.619 326.074Z" fill="#DC8B12"/>
<path opacity="0.86" d="M231.417 343.096C232.76 343.096 233.849 342.008 233.849 340.665C233.849 339.322 232.76 338.233 231.417 338.233C230.074 338.233 228.985 339.322 228.985 340.665C228.985 342.008 230.074 343.096 231.417 343.096Z" fill="#DC8B12"/>
<path opacity="0.86" d="M182.782 333.369C184.125 333.369 185.214 332.281 185.214 330.938C185.214 329.595 184.125 328.506 182.782 328.506C181.439 328.506 180.351 329.595 180.351 330.938C180.351 332.281 181.439 333.369 182.782 333.369Z" fill="#DC8B12"/>
<path opacity="0.85" d="M143.873 299.325C145.216 299.325 146.305 298.236 146.305 296.893C146.305 295.55 145.216 294.461 143.873 294.461C142.53 294.461 141.441 295.55 141.441 296.893C141.441 298.236 142.53 299.325 143.873 299.325Z" fill="#DC8B12"/>
<path opacity="0.85" d="M129.282 250.69C130.625 250.69 131.714 249.601 131.714 248.258C131.714 246.915 130.625 245.826 129.282 245.826C127.939 245.826 126.851 246.915 126.851 248.258C126.851 249.601 127.939 250.69 129.282 250.69Z" fill="#DC8B12"/>
<path opacity="0.85" d="M143.873 199.623C145.216 199.623 146.305 198.534 146.305 197.191C146.305 195.848 145.216 194.76 143.873 194.76C142.53 194.76 141.441 195.848 141.441 197.191C141.441 198.534 142.53 199.623 143.873 199.623Z" fill="#DC8B12"/>
<path opacity="0.85" d="M180.35 164.363C182.364 164.363 183.997 162.729 183.997 160.715C183.997 158.7 182.364 157.067 180.35 157.067C178.335 157.067 176.702 158.7 176.702 160.715C176.702 162.729 178.335 164.363 180.35 164.363Z" fill="#DC8B12"/>
<path opacity="0.85" d="M231.415 152.204C233.43 152.204 235.063 150.57 235.063 148.556C235.063 146.541 233.43 144.908 231.415 144.908C229.401 144.908 227.768 146.541 227.768 148.556C227.768 150.57 229.401 152.204 231.415 152.204Z" fill="#DC8B12"/>
<path opacity="0.84" d="M282.483 166.794C284.497 166.794 286.13 165.161 286.13 163.146C286.13 161.132 284.497 159.499 282.483 159.499C280.468 159.499 278.835 161.132 278.835 163.146C278.835 165.161 280.468 166.794 282.483 166.794Z" fill="#DC8B12"/>
<path opacity="0.84" d="M318.959 208.134C320.974 208.134 322.607 206.501 322.607 204.487C322.607 202.472 320.974 200.839 318.959 200.839C316.945 200.839 315.312 202.472 315.312 204.487C315.312 206.501 316.945 208.134 318.959 208.134Z" fill="#DC8B12"/>
<path opacity="0.84" d="M331.119 261.632C333.134 261.632 334.767 259.999 334.767 257.985C334.767 255.97 333.134 254.337 331.119 254.337C329.105 254.337 327.472 255.97 327.472 257.985C327.472 259.999 329.105 261.632 331.119 261.632Z" fill="#DC8B12"/>
<path opacity="0.84" d="M311.664 315.131C313.679 315.131 315.312 313.498 315.312 311.484C315.312 309.469 313.679 307.836 311.664 307.836C309.65 307.836 308.017 309.469 308.017 311.484C308.017 313.498 309.65 315.131 311.664 315.131Z" fill="#DC8B12"/>
<path opacity="0.83" d="M267.892 351.608C269.906 351.608 271.539 349.975 271.539 347.96C271.539 345.946 269.906 344.312 267.892 344.312C265.877 344.312 264.244 345.946 264.244 347.96C264.244 349.975 265.877 351.608 267.892 351.608Z" fill="#DC8B12"/>
<path opacity="0.83" d="M209.531 358.902C211.546 358.902 213.179 357.269 213.179 355.255C213.179 353.24 211.546 351.607 209.531 351.607C207.517 351.607 205.884 353.24 205.884 355.255C205.884 357.269 207.517 358.902 209.531 358.902Z" fill="#DC8B12"/>
<path opacity="0.83" d="M156.032 337.016C158.047 337.016 159.68 335.383 159.68 333.369C159.68 331.354 158.047 329.721 156.032 329.721C154.018 329.721 152.385 331.354 152.385 333.369C152.385 335.383 154.018 337.016 156.032 337.016Z" fill="#DC8B12"/>
<path opacity="0.83" d="M121.987 288.382C124.002 288.382 125.635 286.749 125.635 284.734C125.635 282.72 124.002 281.086 121.987 281.086C119.973 281.086 118.34 282.72 118.34 284.734C118.34 286.749 119.973 288.382 121.987 288.382Z" fill="#DC8B12"/>
<path opacity="0.82" d="M117.125 230.02C119.14 230.02 120.773 228.387 120.773 226.372C120.773 224.358 119.14 222.725 117.125 222.725C115.111 222.725 113.478 224.358 113.478 226.372C113.478 228.387 115.111 230.02 117.125 230.02Z" fill="#DC8B12"/>
<path opacity="0.82" d="M143.874 176.521C145.889 176.521 147.522 174.888 147.522 172.873C147.522 170.859 145.889 169.226 143.874 169.226C141.86 169.226 140.227 170.859 140.227 172.873C140.227 174.888 141.86 176.521 143.874 176.521Z" fill="#DC8B12"/>
<path opacity="0.82" d="M192.509 142.476C194.523 142.476 196.157 140.843 196.157 138.829C196.157 136.814 194.523 135.181 192.509 135.181C190.494 135.181 188.861 136.814 188.861 138.829C188.861 140.843 190.494 142.476 192.509 142.476Z" fill="#DC8B12"/>
<path opacity="0.82" d="M255.734 140.045C257.748 140.045 259.381 138.412 259.381 136.397C259.381 134.383 257.748 132.75 255.734 132.75C253.719 132.75 252.086 134.383 252.086 136.397C252.086 138.412 253.719 140.045 255.734 140.045Z" fill="#DC8B12"/>
<path opacity="0.82" d="M309.232 169.227C311.246 169.227 312.879 167.593 312.879 165.579C312.879 163.564 311.246 161.931 309.232 161.931C307.217 161.931 305.584 163.564 305.584 165.579C305.584 167.593 307.217 169.227 309.232 169.227Z" fill="#DC8B12"/>
<path opacity="0.81" d="M340.845 222.725C342.859 222.725 344.493 221.092 344.493 219.077C344.493 217.063 342.859 215.429 340.845 215.429C338.83 215.429 337.197 217.063 337.197 219.077C337.197 221.092 338.83 222.725 340.845 222.725Z" fill="#DC8B12"/>
<path opacity="0.81" d="M340.845 285.95C342.859 285.95 344.493 284.317 344.493 282.302C344.493 280.288 342.859 278.655 340.845 278.655C338.83 278.655 337.197 280.288 337.197 282.302C337.197 284.317 338.83 285.95 340.845 285.95Z" fill="#DC8B12"/>
<path opacity="0.81" d="M306.801 341.88C308.815 341.88 310.449 340.247 310.449 338.233C310.449 336.218 308.815 334.585 306.801 334.585C304.786 334.585 303.153 336.218 303.153 338.233C303.153 340.247 304.786 341.88 306.801 341.88Z" fill="#DC8B12"/>
<path opacity="0.81" d="M250.871 371.061C252.886 371.061 254.519 369.428 254.519 367.414C254.519 365.399 252.886 363.766 250.871 363.766C248.857 363.766 247.224 365.399 247.224 367.414C247.224 369.428 248.857 371.061 250.871 371.061Z" fill="#DC8B12"/>
<path opacity="0.8" d="M185.213 368.629C187.228 368.629 188.861 366.996 188.861 364.982C188.861 362.967 187.228 361.334 185.213 361.334C183.199 361.334 181.565 362.967 181.565 364.982C181.565 366.996 183.199 368.629 185.213 368.629Z" fill="#DC8B12"/>
<path opacity="0.8" d="M129.283 332.153C131.298 332.153 132.931 330.52 132.931 328.506C132.931 326.491 131.298 324.858 129.283 324.858C127.269 324.858 125.636 326.491 125.636 328.506C125.636 330.52 127.269 332.153 129.283 332.153Z" fill="#DC8B12"/>
<path opacity="0.8" d="M102.532 268.928C104.547 268.928 106.18 267.295 106.18 265.28C106.18 263.266 104.547 261.633 102.532 261.633C100.518 261.633 98.8848 263.266 98.8848 265.28C98.8848 267.295 100.518 268.928 102.532 268.928Z" fill="#DC8B12"/>
<path opacity="0.8" d="M109.828 203.27C111.843 203.27 113.476 201.637 113.476 199.623C113.476 197.608 111.843 195.975 109.828 195.975C107.814 195.975 106.181 197.608 106.181 199.623C106.181 201.637 107.814 203.27 109.828 203.27Z" fill="#DC8B12"/>
<path opacity="0.79" d="M151.167 147.34C153.182 147.34 154.815 145.707 154.815 143.693C154.815 141.678 153.182 140.045 151.167 140.045C149.153 140.045 147.52 141.678 147.52 143.693C147.52 145.707 149.153 147.34 151.167 147.34Z" fill="#DC8B12"/>
<path opacity="0.79" d="M214.395 123.023C216.409 123.023 218.042 121.39 218.042 119.375C218.042 117.361 216.409 115.728 214.395 115.728C212.38 115.728 210.747 117.361 210.747 119.375C210.747 121.39 212.38 123.023 214.395 123.023Z" fill="#DC8B12"/>
<path opacity="0.79" d="M282.483 132.75C284.497 132.75 286.13 131.117 286.13 129.103C286.13 127.088 284.497 125.455 282.483 125.455C280.468 125.455 278.835 127.088 278.835 129.103C278.835 131.117 280.468 132.75 282.483 132.75Z" fill="#DC8B12"/>
<path opacity="0.79" d="M338.414 178.953C340.429 178.953 342.062 177.32 342.062 175.305C342.062 173.29 340.429 171.657 338.414 171.657C336.4 171.657 334.767 173.29 334.767 175.305C334.767 177.32 336.4 178.953 338.414 178.953Z" fill="#DC8B12"/>
<path opacity="0.79" d="M360.298 244.61C362.313 244.61 363.946 242.977 363.946 240.963C363.946 238.948 362.313 237.315 360.298 237.315C358.283 237.315 356.65 238.948 356.65 240.963C356.65 242.977 358.283 244.61 360.298 244.61Z" fill="#DC8B12"/>
<path opacity="0.78" d="M345.708 315.131C347.723 315.131 349.356 313.498 349.356 311.484C349.356 309.469 347.723 307.836 345.708 307.836C343.694 307.836 342.061 309.469 342.061 311.484C342.061 313.498 343.694 315.131 345.708 315.131Z" fill="#DC8B12"/>
<path opacity="0.78" d="M297.073 368.629C299.088 368.629 300.721 366.996 300.721 364.982C300.721 362.967 299.088 361.334 297.073 361.334C295.059 361.334 293.426 362.967 293.426 364.982C293.426 366.996 295.059 368.629 297.073 368.629Z" fill="#DC8B12"/>
<path opacity="0.78" d="M226.553 390.515C228.567 390.515 230.201 388.882 230.201 386.868C230.201 384.853 228.567 383.22 226.553 383.22C224.538 383.22 222.905 384.853 222.905 386.868C222.905 388.882 224.538 390.515 226.553 390.515Z" fill="#DC8B12"/>
<path opacity="0.78" d="M153.6 371.061C155.614 371.061 157.247 369.428 157.247 367.414C157.247 365.399 155.614 363.766 153.6 363.766C151.585 363.766 149.952 365.399 149.952 367.414C149.952 369.428 151.585 371.061 153.6 371.061Z" fill="#DC8B12"/>
<path opacity="0.77" d="M102.532 317.563C104.547 317.563 106.18 315.93 106.18 313.915C106.18 311.901 104.547 310.268 102.532 310.268C100.518 310.268 98.8848 311.901 98.8848 313.915C98.8848 315.93 100.518 317.563 102.532 317.563Z" fill="#DC8B12"/>
<path opacity="0.77" d="M85.5119 244.61C87.5264 244.61 89.1595 242.977 89.1595 240.963C89.1595 238.948 87.5264 237.315 85.5119 237.315C83.4974 237.315 81.8643 238.948 81.8643 240.963C81.8643 242.977 83.4974 244.61 85.5119 244.61Z" fill="#DC8B12"/>
<path opacity="0.77" d="M107.398 171.658C109.412 171.658 111.045 170.025 111.045 168.01C111.045 165.996 109.412 164.363 107.398 164.363C105.383 164.363 103.75 165.996 103.75 168.01C103.75 170.025 105.383 171.658 107.398 171.658Z" fill="#DC8B12"/>
<path opacity="0.77" d="M165.76 120.591C167.774 120.591 169.408 118.958 169.408 116.944C169.408 114.929 167.774 113.296 165.76 113.296C163.745 113.296 162.112 114.929 162.112 116.944C162.112 118.958 163.745 120.591 165.76 120.591Z" fill="#DC8B12"/>
<path opacity="0.76" d="M241.145 106C243.159 106 244.792 104.367 244.792 102.352C244.792 100.338 243.159 98.7048 241.145 98.7048C239.13 98.7048 237.497 100.338 237.497 102.352C237.497 104.367 239.13 106 241.145 106Z" fill="#DC8B12"/>
<path opacity="0.76" d="M314.096 132.75C316.11 132.75 317.743 131.117 317.743 129.103C317.743 127.088 316.11 125.455 314.096 125.455C312.081 125.455 310.448 127.088 310.448 129.103C310.448 131.117 312.081 132.75 314.096 132.75Z" fill="#DC8B12"/>
<path opacity="0.76" d="M365.161 195.976C367.176 195.976 368.809 194.342 368.809 192.328C368.809 190.313 367.176 188.68 365.161 188.68C363.147 188.68 361.514 190.313 361.514 192.328C361.514 194.342 363.147 195.976 365.161 195.976Z" fill="#DC8B12"/>
<path opacity="0.76" d="M374.891 273.791C376.905 273.791 378.538 272.158 378.538 270.144C378.538 268.129 376.905 266.496 374.891 266.496C372.876 266.496 371.243 268.129 371.243 270.144C371.243 272.158 372.876 273.791 374.891 273.791Z" fill="#DC8B12"/>
<path opacity="0.76" d="M343.278 349.175C345.292 349.175 346.925 347.542 346.925 345.528C346.925 343.513 345.292 341.88 343.278 341.88C341.263 341.88 339.63 343.513 339.63 345.528C339.63 347.542 341.263 349.175 343.278 349.175Z" fill="#DC8B12"/>
<path opacity="0.75" d="M277.619 395.379C279.634 395.379 281.267 393.746 281.267 391.731C281.267 389.717 279.634 388.083 277.619 388.083C275.605 388.083 273.972 389.717 273.972 391.731C273.972 393.746 275.605 395.379 277.619 395.379Z" fill="#DC8B12"/>
<path opacity="0.75" d="M194.939 402.674C196.953 402.674 198.586 401.041 198.586 399.027C198.586 397.012 196.953 395.379 194.939 395.379C192.924 395.379 191.291 397.012 191.291 399.027C191.291 401.041 192.924 402.674 194.939 402.674Z" fill="#DC8B12"/>
<path opacity="0.75" d="M121.987 367.414C124.673 367.414 126.85 365.236 126.85 362.55C126.85 359.864 124.673 357.687 121.987 357.687C119.301 357.687 117.123 359.864 117.123 362.55C117.123 365.236 119.301 367.414 121.987 367.414Z" fill="#DC8B12"/>
<path opacity="0.75" d="M75.7844 296.893C78.4704 296.893 80.6479 294.715 80.6479 292.029C80.6479 289.343 78.4704 287.166 75.7844 287.166C73.0984 287.166 70.9209 289.343 70.9209 292.029C70.9209 294.715 73.0984 296.893 75.7844 296.893Z" fill="#DC8B12"/>
<path opacity="0.74" d="M73.3518 214.214C76.0378 214.214 78.2153 212.036 78.2153 209.35C78.2153 206.664 76.0378 204.487 73.3518 204.487C70.6657 204.487 68.4883 206.664 68.4883 209.35C68.4883 212.036 70.6657 214.214 73.3518 214.214Z" fill="#DC8B12"/>
<path opacity="0.74" d="M114.694 138.829C117.38 138.829 119.557 136.651 119.557 133.965C119.557 131.279 117.38 129.102 114.694 129.102C112.008 129.102 109.83 131.279 109.83 133.965C109.83 136.651 112.008 138.829 114.694 138.829Z" fill="#DC8B12"/>
<path opacity="0.74" d="M187.646 97.4894C190.332 97.4894 192.509 95.312 192.509 92.626C192.509 89.9399 190.332 87.7625 187.646 87.7625C184.96 87.7625 182.782 89.9399 182.782 92.626C182.782 95.312 184.96 97.4894 187.646 97.4894Z" fill="#DC8B12"/>
<path opacity="0.74" d="M275.188 97.4894C277.874 97.4894 280.051 95.312 280.051 92.626C280.051 89.9399 277.874 87.7625 275.188 87.7625C272.502 87.7625 270.324 89.9399 270.324 92.626C270.324 95.312 272.502 97.4894 275.188 97.4894Z" fill="#DC8B12"/>
<path opacity="0.73" d="M348.141 143.693C350.827 143.693 353.004 141.515 353.004 138.829C353.004 136.143 350.827 133.966 348.141 133.966C345.455 133.966 343.277 136.143 343.277 138.829C343.277 141.515 345.455 143.693 348.141 143.693Z" fill="#DC8B12"/>
<path opacity="0.73" d="M387.048 221.508C389.734 221.508 391.912 219.331 391.912 216.645C391.912 213.959 389.734 211.781 387.048 211.781C384.362 211.781 382.185 213.959 382.185 216.645C382.185 219.331 384.362 221.508 387.048 221.508Z" fill="#DC8B12"/>
<path opacity="0.73" d="M382.185 309.051C384.871 309.051 387.048 306.874 387.048 304.188C387.048 301.502 384.871 299.324 382.185 299.324C379.499 299.324 377.321 301.502 377.321 304.188C377.321 306.874 379.499 309.051 382.185 309.051Z" fill="#DC8B12"/>
<path opacity="0.73" d="M331.117 382.004C333.803 382.004 335.981 379.826 335.981 377.14C335.981 374.454 333.803 372.277 331.117 372.277C328.431 372.277 326.254 374.454 326.254 377.14C326.254 379.826 328.431 382.004 331.117 382.004Z" fill="#DC8B12"/>
<path opacity="0.73" d="M250.869 420.912C253.555 420.912 255.733 418.735 255.733 416.049C255.733 413.363 253.555 411.185 250.869 411.185C248.183 411.185 246.006 413.363 246.006 416.049C246.006 418.735 248.183 420.912 250.869 420.912Z" fill="#DC8B12"/>
<path opacity="0.72" d="M160.896 408.754C163.582 408.754 165.759 406.576 165.759 403.89C165.759 401.204 163.582 399.027 160.896 399.027C158.21 399.027 156.032 401.204 156.032 403.89C156.032 406.576 158.21 408.754 160.896 408.754Z" fill="#DC8B12"/>
<path opacity="0.72" d="M87.9426 355.255C90.6286 355.255 92.8061 353.077 92.8061 350.391C92.8061 347.705 90.6286 345.528 87.9426 345.528C85.2566 345.528 83.0791 347.705 83.0791 350.391C83.0791 353.077 85.2566 355.255 87.9426 355.255Z" fill="#DC8B12"/>
<path opacity="0.72" d="M53.8987 270.144C56.5847 270.144 58.7622 267.966 58.7622 265.28C58.7622 262.594 56.5847 260.417 53.8987 260.417C51.2126 260.417 49.0352 262.594 49.0352 265.28C49.0352 267.966 51.2126 270.144 53.8987 270.144Z" fill="#DC8B12"/>
<path opacity="0.72" d="M70.9211 177.738C73.6072 177.738 75.7846 175.56 75.7846 172.874C75.7846 170.188 73.6072 168.011 70.9211 168.011C68.2351 168.011 66.0576 170.188 66.0576 172.874C66.0576 175.56 68.2351 177.738 70.9211 177.738Z" fill="#DC8B12"/>
<path opacity="0.71" d="M129.282 107.217C131.968 107.217 134.146 105.039 134.146 102.353C134.146 99.6671 131.968 97.4896 129.282 97.4896C126.596 97.4896 124.419 99.6671 124.419 102.353C124.419 105.039 126.596 107.217 129.282 107.217Z" fill="#DC8B12"/>
<path opacity="0.71" d="M219.256 78.0352C221.942 78.0352 224.12 75.8578 224.12 73.1717C224.12 70.4857 221.942 68.3082 219.256 68.3082C216.57 68.3082 214.393 70.4857 214.393 73.1717C214.393 75.8578 216.57 78.0352 219.256 78.0352Z" fill="#DC8B12"/>
<path opacity="0.71" d="M311.664 97.4894C314.35 97.4894 316.528 95.312 316.528 92.626C316.528 89.9399 314.35 87.7625 311.664 87.7625C308.978 87.7625 306.801 89.9399 306.801 92.626C306.801 95.312 308.978 97.4894 311.664 97.4894Z" fill="#DC8B12"/>
<path opacity="0.71" d="M379.752 160.715C382.438 160.715 384.616 158.537 384.616 155.851C384.616 153.165 382.438 150.988 379.752 150.988C377.066 150.988 374.889 153.165 374.889 155.851C374.889 158.537 377.066 160.715 379.752 160.715Z" fill="#DC8B12"/>
<path opacity="0.7" d="M406.503 253.122C409.189 253.122 411.367 250.944 411.367 248.258C411.367 245.572 409.189 243.395 406.503 243.395C403.817 243.395 401.64 245.572 401.64 248.258C401.64 250.944 403.817 253.122 406.503 253.122Z" fill="#DC8B12"/>
<path opacity="0.7" d="M382.185 347.96C384.871 347.96 387.048 345.782 387.048 343.096C387.048 340.41 384.871 338.233 382.185 338.233C379.499 338.233 377.321 340.41 377.321 343.096C377.321 345.782 379.499 347.96 382.185 347.96Z" fill="#DC8B12"/>
<path opacity="0.7" d="M311.664 413.617C314.35 413.617 316.528 411.439 316.528 408.753C316.528 406.067 314.35 403.89 311.664 403.89C308.978 403.89 306.801 406.067 306.801 408.753C306.801 411.439 308.978 413.617 311.664 413.617Z" fill="#DC8B12"/>
<path opacity="0.7" d="M216.825 437.935C219.511 437.935 221.689 435.757 221.689 433.071C221.689 430.385 219.511 428.208 216.825 428.208C214.139 428.208 211.962 430.385 211.962 433.071C211.962 435.757 214.139 437.935 216.825 437.935Z" fill="#DC8B12"/>
<path opacity="0.7" d="M121.987 406.321C124.673 406.321 126.85 404.144 126.85 401.458C126.85 398.772 124.673 396.594 121.987 396.594C119.301 396.594 117.123 398.772 117.123 401.458C117.123 404.144 119.301 406.321 121.987 406.321Z" fill="#DC8B12"/>
<path opacity="0.69" d="M56.3313 330.937C59.0173 330.937 61.1948 328.76 61.1948 326.074C61.1948 323.388 59.0173 321.21 56.3313 321.21C53.6452 321.21 51.4678 323.388 51.4678 326.074C51.4678 328.76 53.6452 330.937 56.3313 330.937Z" fill="#DC8B12"/>
<path opacity="0.69" d="M39.3078 233.667C41.9939 233.667 44.1713 231.49 44.1713 228.804C44.1713 226.118 41.9939 223.94 39.3078 223.94C36.6218 223.94 34.4443 226.118 34.4443 228.804C34.4443 231.49 36.6218 233.667 39.3078 233.667Z" fill="#DC8B12"/>
<path opacity="0.69" d="M75.7844 138.829C78.4704 138.829 80.6479 136.651 80.6479 133.965C80.6479 131.279 78.4704 129.102 75.7844 129.102C73.0984 129.102 70.9209 131.279 70.9209 133.965C70.9209 136.651 73.0984 138.829 75.7844 138.829Z" fill="#DC8B12"/>
<path opacity="0.69" d="M153.6 75.6035C156.286 75.6035 158.463 73.426 158.463 70.74C158.463 68.0539 156.286 65.8765 153.6 65.8765C150.914 65.8765 148.736 68.0539 148.736 70.74C148.736 73.426 150.914 75.6035 153.6 75.6035Z" fill="#DC8B12"/>
<path opacity="0.68" d="M255.733 63.4448C258.419 63.4448 260.596 61.2673 260.596 58.5813C260.596 55.8952 258.419 53.7178 255.733 53.7178C253.047 53.7178 250.869 55.8952 250.869 58.5813C250.869 61.2673 253.047 63.4448 255.733 63.4448Z" fill="#DC8B12"/>
<path opacity="0.68" d="M350.573 104.785C353.259 104.785 355.437 102.608 355.437 99.9216C355.437 97.2356 353.259 95.0581 350.573 95.0581C347.887 95.0581 345.71 97.2356 345.71 99.9216C345.71 102.608 347.887 104.785 350.573 104.785Z" fill="#DC8B12"/>
<path opacity="0.68" d="M411.366 187.464C414.052 187.464 416.23 185.286 416.23 182.6C416.23 179.914 414.052 177.737 411.366 177.737C408.68 177.737 406.503 179.914 406.503 182.6C406.503 185.286 408.68 187.464 411.366 187.464Z" fill="#DC8B12"/>
<path opacity="0.68" d="M418.661 292.029C421.347 292.029 423.525 289.852 423.525 287.166C423.525 284.48 421.347 282.302 418.661 282.302C415.975 282.302 413.798 284.48 413.798 287.166C413.798 289.852 415.975 292.029 418.661 292.029Z" fill="#DC8B12"/>
<path opacity="0.68" d="M372.457 386.868C375.143 386.868 377.321 384.69 377.321 382.004C377.321 379.318 375.143 377.141 372.457 377.141C369.771 377.141 367.594 379.318 367.594 382.004C367.594 384.69 369.771 386.868 372.457 386.868Z" fill="#DC8B12"/>
<path opacity="0.67" d="M282.484 442.798C285.17 442.798 287.347 440.62 287.347 437.934C287.347 435.248 285.17 433.071 282.484 433.071C279.798 433.071 277.62 435.248 277.62 437.934C277.62 440.62 279.798 442.798 282.484 442.798Z" fill="#DC8B12"/>
<path opacity="0.67" d="M177.917 447.662C180.603 447.662 182.781 445.484 182.781 442.798C182.781 440.112 180.603 437.935 177.917 437.935C175.231 437.935 173.054 440.112 173.054 442.798C173.054 445.484 175.231 447.662 177.917 447.662Z" fill="#DC8B12"/>
<path opacity="0.67" d="M83.0793 394.163C85.7654 394.163 87.9428 391.985 87.9428 389.299C87.9428 386.613 85.7654 384.436 83.0793 384.436C80.3933 384.436 78.2158 386.613 78.2158 389.299C78.2158 391.985 80.3933 394.163 83.0793 394.163Z" fill="#DC8B12"/>
<path opacity="0.67" d="M29.5822 301.757C32.2683 301.757 34.4457 299.579 34.4457 296.893C34.4457 294.207 32.2683 292.03 29.5822 292.03C26.8962 292.03 24.7188 294.207 24.7188 296.893C24.7188 299.579 26.8962 301.757 29.5822 301.757Z" fill="#DC8B12"/>
<path opacity="0.66" d="M32.0129 192.328C34.6989 192.328 36.8764 190.15 36.8764 187.464C36.8764 184.778 34.6989 182.601 32.0129 182.601C29.3269 182.601 27.1494 184.778 27.1494 187.464C27.1494 190.15 29.3269 192.328 32.0129 192.328Z" fill="#DC8B12"/>
<path opacity="0.66" d="M90.3752 99.9211C93.0613 99.9211 95.2387 97.7436 95.2387 95.0576C95.2387 92.3716 93.0613 90.1941 90.3752 90.1941C87.6892 90.1941 85.5117 92.3716 85.5117 95.0576C85.5117 97.7436 87.6892 99.9211 90.3752 99.9211Z" fill="#DC8B12"/>
<path opacity="0.66" d="M187.646 51.286C190.332 51.286 192.509 49.1085 192.509 46.4225C192.509 43.7364 190.332 41.559 187.646 41.559C184.96 41.559 182.782 43.7364 182.782 46.4225C182.782 49.1085 184.96 51.286 187.646 51.286Z" fill="#DC8B12"/>
<path opacity="0.66" d="M297.073 58.5816C299.759 58.5816 301.937 56.4042 301.937 53.7181C301.937 51.0321 299.759 48.8546 297.073 48.8546C294.387 48.8546 292.21 51.0321 292.21 53.7181C292.21 56.4042 294.387 58.5816 297.073 58.5816Z" fill="#DC8B12"/>
<path opacity="0.65" d="M389.481 121.807C392.167 121.807 394.344 119.629 394.344 116.943C394.344 114.257 392.167 112.08 389.481 112.08C386.795 112.08 384.617 114.257 384.617 116.943C384.617 119.629 386.795 121.807 389.481 121.807Z" fill="#DC8B12"/>
<path opacity="0.65" d="M435.684 223.94C438.37 223.94 440.547 221.763 440.547 219.077C440.547 216.391 438.37 214.213 435.684 214.213C432.998 214.213 430.82 216.391 430.82 219.077C430.82 221.763 432.998 223.94 435.684 223.94Z" fill="#DC8B12"/>
<path opacity="0.65" d="M421.093 337.017C424.451 337.017 427.172 334.295 427.172 330.938C427.172 327.58 424.451 324.858 421.093 324.858C417.736 324.858 415.014 327.58 415.014 330.938C415.014 334.295 417.736 337.017 421.093 337.017Z" fill="#DC8B12"/>
<path opacity="0.65" d="M353.004 426.991C356.362 426.991 359.084 424.269 359.084 420.912C359.084 417.554 356.362 414.833 353.004 414.833C349.647 414.833 346.925 417.554 346.925 420.912C346.925 424.269 349.647 426.991 353.004 426.991Z" fill="#DC8B12"/>
<path opacity="0.65" d="M246.007 468.331C249.365 468.331 252.086 465.61 252.086 462.252C252.086 458.894 249.365 456.173 246.007 456.173C242.65 456.173 239.928 458.894 239.928 462.252C239.928 465.61 242.65 468.331 246.007 468.331Z" fill="#DC8B12"/>
<path opacity="0.64" d="M134.148 448.877C137.505 448.877 140.227 446.155 140.227 442.798C140.227 439.44 137.505 436.719 134.148 436.719C130.79 436.719 128.068 439.44 128.068 442.798C128.068 446.155 130.79 448.877 134.148 448.877Z" fill="#DC8B12"/>
<path opacity="0.64" d="M46.6038 373.493C49.9613 373.493 52.6832 370.771 52.6832 367.414C52.6832 364.056 49.9613 361.334 46.6038 361.334C43.2462 361.334 40.5244 364.056 40.5244 367.414C40.5244 370.771 43.2462 373.493 46.6038 373.493Z" fill="#DC8B12"/>
<path opacity="0.64" d="M7.69461 264.064C11.0522 264.064 13.774 261.342 13.774 257.985C13.774 254.627 11.0522 251.906 7.69461 251.906C4.33706 251.906 1.61523 254.627 1.61523 257.985C1.61523 261.342 4.33706 264.064 7.69461 264.064Z" fill="#DC8B12"/>
<path opacity="0.64" d="M34.4436 149.772C37.8012 149.772 40.523 147.051 40.523 143.693C40.523 140.335 37.8012 137.614 34.4436 137.614C31.0861 137.614 28.3643 140.335 28.3643 143.693C28.3643 147.051 31.0861 149.772 34.4436 149.772Z" fill="#DC8B12"/>
<path opacity="0.63" d="M114.692 64.6612C118.049 64.6612 120.771 61.9394 120.771 58.5818C120.771 55.2243 118.049 52.5024 114.692 52.5024C111.334 52.5024 108.612 55.2243 108.612 58.5818C108.612 61.9394 111.334 64.6612 114.692 64.6612Z" fill="#DC8B12"/>
<path opacity="0.63" d="M228.985 33.0482C232.342 33.0482 235.064 30.3263 235.064 26.9688C235.064 23.6112 232.342 20.8894 228.985 20.8894C225.627 20.8894 222.905 23.6112 222.905 26.9688C222.905 30.3263 225.627 33.0482 228.985 33.0482Z" fill="#DC8B12"/>
<path opacity="0.63" d="M343.277 62.2287C346.634 62.2287 349.356 59.5069 349.356 56.1493C349.356 52.7918 346.634 50.0699 343.277 50.0699C339.919 50.0699 337.197 52.7918 337.197 56.1493C337.197 59.5069 339.919 62.2287 343.277 62.2287Z" fill="#DC8B12"/>
<path opacity="0.63" d="M425.957 149.772C429.315 149.772 432.037 147.051 432.037 143.693C432.037 140.335 429.315 137.614 425.957 137.614C422.6 137.614 419.878 140.335 419.878 143.693C419.878 147.051 422.6 149.772 425.957 149.772Z" fill="#DC8B12"/>
<path opacity="0.62" d="M452.706 266.496C456.064 266.496 458.786 263.774 458.786 260.417C458.786 257.059 456.064 254.337 452.706 254.337C449.349 254.337 446.627 257.059 446.627 260.417C446.627 263.774 449.349 266.496 452.706 266.496Z" fill="#DC8B12"/>
<path opacity="0.62" d="M413.799 380.789C417.157 380.789 419.878 378.067 419.878 374.709C419.878 371.352 417.157 368.63 413.799 368.63C410.442 368.63 407.72 371.352 407.72 374.709C407.72 378.067 410.442 380.789 413.799 380.789Z" fill="#DC8B12"/>
<path opacity="0.62" d="M323.822 461.036C327.179 461.036 329.901 458.314 329.901 454.957C329.901 451.599 327.179 448.877 323.822 448.877C320.464 448.877 317.742 451.599 317.742 454.957C317.742 458.314 320.464 461.036 323.822 461.036Z" fill="#DC8B12"/>
<path opacity="0.62" d="M202.236 482.922C205.593 482.922 208.315 480.2 208.315 476.843C208.315 473.485 205.593 470.763 202.236 470.763C198.878 470.763 196.156 473.485 196.156 476.843C196.156 480.2 198.878 482.922 202.236 482.922Z" fill="#DC8B12"/>
<path opacity="0.62" d="M87.9436 439.15C91.3012 439.15 94.023 436.428 94.023 433.071C94.023 429.713 91.3012 426.991 87.9436 426.991C84.5861 426.991 81.8643 429.713 81.8643 433.071C81.8643 436.428 84.5861 439.15 87.9436 439.15Z" fill="#DC8B12"/>
<path opacity="0.61" d="M10.1272 341.88C13.4848 341.88 16.2066 339.158 16.2066 335.801C16.2066 332.443 13.4848 329.721 10.1272 329.721C6.76968 329.721 4.04785 332.443 4.04785 335.801C4.04785 339.158 6.76968 341.88 10.1272 341.88Z" fill="#DC8B12"/>
<path opacity="0.61" d="M-4.46359 217.861C-1.10605 217.861 1.61578 215.139 1.61578 211.782C1.61578 208.424 -1.10605 205.702 -4.46359 205.702C-7.82114 205.702 -10.543 208.424 -10.543 211.782C-10.543 215.139 -7.82114 217.861 -4.46359 217.861Z" fill="#DC8B12"/>
<path opacity="0.61" d="M46.6038 103.569C49.9613 103.569 52.6832 100.847 52.6832 97.4897C52.6832 94.1321 49.9613 91.4103 46.6038 91.4103C43.2462 91.4103 40.5244 94.1321 40.5244 97.4897C40.5244 100.847 43.2462 103.569 46.6038 103.569Z" fill="#DC8B12"/>
<path opacity="0.61" d="M148.737 30.6165C152.094 30.6165 154.816 27.8947 154.816 24.5371C154.816 21.1796 152.094 18.4578 148.737 18.4578C145.379 18.4578 142.657 21.1796 142.657 24.5371C142.657 27.8947 145.379 30.6165 148.737 30.6165Z" fill="#DC8B12"/>
<path opacity="0.6" d="M275.187 20.8893C278.544 20.8893 281.266 18.1675 281.266 14.81C281.266 11.4524 278.544 8.73059 275.187 8.73059C271.829 8.73059 269.107 11.4524 269.107 14.81C269.107 18.1675 271.829 20.8893 275.187 20.8893Z" fill="#DC8B12"/>
<path opacity="0.6" d="M389.481 79.2514C392.838 79.2514 395.56 76.5296 395.56 73.172C395.56 69.8145 392.838 67.0927 389.481 67.0927C386.123 67.0927 383.401 69.8145 383.401 73.172C383.401 76.5296 386.123 79.2514 389.481 79.2514Z" fill="#DC8B12"/>
<path opacity="0.6" d="M457.569 186.249C460.926 186.249 463.648 183.527 463.648 180.169C463.648 176.812 460.926 174.09 457.569 174.09C454.211 174.09 451.489 176.812 451.489 180.169C451.489 183.527 454.211 186.249 457.569 186.249Z" fill="#DC8B12"/>
<path opacity="0.6" d="M460.001 315.131C463.359 315.131 466.081 312.409 466.081 309.052C466.081 305.694 463.359 302.972 460.001 302.972C456.644 302.972 453.922 305.694 453.922 309.052C453.922 312.409 456.644 315.131 460.001 315.131Z" fill="#DC8B12"/>
<path opacity="0.59" d="M396.775 426.991C400.132 426.991 402.854 424.269 402.854 420.912C402.854 417.554 400.132 414.833 396.775 414.833C393.417 414.833 390.695 417.554 390.695 420.912C390.695 424.269 393.417 426.991 396.775 426.991Z" fill="#DC8B12"/>
<path opacity="0.59" d="M284.914 492.649C288.272 492.649 290.994 489.927 290.994 486.57C290.994 483.212 288.272 480.49 284.914 480.49C281.557 480.49 278.835 483.212 278.835 486.57C278.835 489.927 281.557 492.649 284.914 492.649Z" fill="#DC8B12"/>
<path opacity="0.59" d="M153.599 490.217C156.956 490.217 159.678 487.496 159.678 484.138C159.678 480.78 156.956 478.059 153.599 478.059C150.241 478.059 147.52 480.78 147.52 484.138C147.52 487.496 150.241 490.217 153.599 490.217Z" fill="#DC8B12"/>
<path opacity="0.59" d="M41.7405 419.696C45.0981 419.696 47.8199 416.975 47.8199 413.617C47.8199 410.259 45.0981 407.538 41.7405 407.538C38.383 407.538 35.6611 410.259 35.6611 413.617C35.6611 416.975 38.383 419.696 41.7405 419.696Z" fill="#DC8B12"/>
<path opacity="0.58" d="M68.4876 59.7972C71.8451 59.7972 74.567 57.0753 74.567 53.7178C74.567 50.3603 71.8451 47.6384 68.4876 47.6384C65.13 47.6384 62.4082 50.3603 62.4082 53.7178C62.4082 57.0753 65.13 59.7972 68.4876 59.7972Z" fill="#DC8B12"/>
<path opacity="0.58" d="M190.075 3.86749C193.433 3.86749 196.155 1.14566 196.155 -2.21189C196.155 -5.56943 193.433 -8.29126 190.075 -8.29126C186.718 -8.29126 183.996 -5.56943 183.996 -2.21189C183.996 1.14566 186.718 3.86749 190.075 3.86749Z" fill="#DC8B12"/>
<path opacity="0.58" d="M326.254 20.8893C329.612 20.8893 332.334 18.1675 332.334 14.81C332.334 11.4524 329.612 8.73059 326.254 8.73059C322.897 8.73059 320.175 11.4524 320.175 14.81C320.175 18.1675 322.897 20.8893 326.254 20.8893Z" fill="#DC8B12"/>
<path opacity="0.57" d="M433.251 103.569C436.609 103.569 439.331 100.847 439.331 97.4897C439.331 94.1321 436.609 91.4103 433.251 91.4103C429.894 91.4103 427.172 94.1321 427.172 97.4897C427.172 100.847 429.894 103.569 433.251 103.569Z" fill="#DC8B12"/>
<path opacity="0.57" d="M481.886 230.02C485.244 230.02 487.965 227.298 487.965 223.94C487.965 220.583 485.244 217.861 481.886 217.861C478.528 217.861 475.807 220.583 475.807 223.94C475.807 227.298 478.528 230.02 481.886 230.02Z" fill="#DC8B12"/>
<path opacity="0.57" d="M457.569 366.198C460.926 366.198 463.648 363.476 463.648 360.118C463.648 356.761 460.926 354.039 457.569 354.039C454.211 354.039 451.489 356.761 451.489 360.118C451.489 363.476 454.211 366.198 457.569 366.198Z" fill="#DC8B12"/>
<path opacity="0.57" d="M370.028 470.763C373.385 470.763 376.107 468.041 376.107 464.684C376.107 461.326 373.385 458.604 370.028 458.604C366.67 458.604 363.948 461.326 363.948 464.684C363.948 468.041 366.67 470.763 370.028 470.763Z" fill="#DC8B12"/>
<path opacity="0.56" d="M236.28 514.535C239.637 514.535 242.359 511.813 242.359 508.455C242.359 505.098 239.637 502.376 236.28 502.376C232.922 502.376 230.2 505.098 230.2 508.455C230.2 511.813 232.922 514.535 236.28 514.535Z" fill="#DC8B12"/>
<path opacity="0.56" d="M102.533 485.353C105.891 485.353 108.613 482.632 108.613 479.274C108.613 475.916 105.891 473.195 102.533 473.195C99.1759 473.195 96.4541 475.916 96.4541 479.274C96.4541 482.632 99.1759 485.353 102.533 485.353Z" fill="#DC8B12"/>
<path opacity="0.56" d="M0.40164 388.084C3.75919 388.084 6.48101 385.362 6.48101 382.004C6.48101 378.647 3.75919 375.925 0.40164 375.925C-2.95591 375.925 -5.67773 378.647 -5.67773 382.004C-5.67773 385.362 -2.95591 388.084 0.40164 388.084Z" fill="#DC8B12"/>
<path opacity="0.56" d="M0.40164 115.728C3.75919 115.728 6.48101 113.006 6.48101 109.648C6.48101 106.291 3.75919 103.569 0.40164 103.569C-2.95591 103.569 -5.67773 106.291 -5.67773 109.648C-5.67773 113.006 -2.95591 115.728 0.40164 115.728Z" fill="#DC8B12"/>
<path opacity="0.55" d="M102.533 18.4578C105.891 18.4578 108.613 15.736 108.613 12.3784C108.613 9.0209 105.891 6.29907 102.533 6.29907C99.1759 6.29907 96.4541 9.0209 96.4541 12.3784C96.4541 15.736 99.1759 18.4578 102.533 18.4578Z" fill="#DC8B12"/>
<path opacity="0.55" d="M377.322 31.8321C381.351 31.8321 384.617 28.5659 384.617 24.5368C384.617 20.5078 381.351 17.2416 377.322 17.2416C373.293 17.2416 370.026 20.5078 370.026 24.5368C370.026 28.5659 373.293 31.8321 377.322 31.8321Z" fill="#DC8B12"/>
<path opacity="0.55" d="M472.159 141.261C476.188 141.261 479.454 137.995 479.454 133.966C479.454 129.936 476.188 126.67 472.159 126.67C468.129 126.67 464.863 129.936 464.863 133.966C464.863 137.995 468.129 141.261 472.159 141.261Z" fill="#DC8B12"/>
<path opacity="0.54" d="M496.477 284.734C500.506 284.734 503.772 281.468 503.772 277.439C503.772 273.41 500.506 270.144 496.477 270.144C492.448 270.144 489.182 273.41 489.182 277.439C489.182 281.468 492.448 284.734 496.477 284.734Z" fill="#DC8B12"/>
<path opacity="0.54" d="M445.411 420.912C449.441 420.912 452.707 417.646 452.707 413.617C452.707 409.588 449.441 406.322 445.411 406.322C441.382 406.322 438.116 409.588 438.116 413.617C438.116 417.646 441.382 420.912 445.411 420.912Z" fill="#DC8B12"/>
<path opacity="0.54" d="M328.687 510.887C332.716 510.887 335.982 507.621 335.982 503.592C335.982 499.563 332.716 496.297 328.687 496.297C324.658 496.297 321.392 499.563 321.392 503.592C321.392 507.621 324.658 510.887 328.687 510.887Z" fill="#DC8B12"/>
<path opacity="0.54" d="M182.781 527.909C186.81 527.909 190.076 524.643 190.076 520.614C190.076 516.585 186.81 513.319 182.781 513.319C178.752 513.319 175.485 516.585 175.485 520.614C175.485 524.643 178.752 527.909 182.781 527.909Z" fill="#DC8B12"/>
<path opacity="0.53" d="M49.0345 469.547C53.0636 469.547 56.3298 466.281 56.3298 462.252C56.3298 458.223 53.0636 454.957 49.0345 454.957C45.0055 454.957 41.7393 458.223 41.7393 462.252C41.7393 466.281 45.0055 469.547 49.0345 469.547Z" fill="#DC8B12"/>
<path opacity="0.53" d="M19.8558 65.8766C23.8849 65.8766 27.151 62.6104 27.151 58.5814C27.151 54.5523 23.8849 51.2861 19.8558 51.2861C15.8267 51.2861 12.5605 54.5523 12.5605 58.5814C12.5605 62.6104 15.8267 65.8766 19.8558 65.8766Z" fill="#DC8B12"/>
<path opacity="0.52" d="M430.819 56.1495C434.848 56.1495 438.114 52.8833 438.114 48.8542C438.114 44.8252 434.848 41.559 430.819 41.559C426.79 41.559 423.523 44.8252 423.523 48.8542C423.523 52.8833 426.79 56.1495 430.819 56.1495Z" fill="#DC8B12"/>
<path opacity="0.52" d="M506.204 187.464C510.233 187.464 513.5 184.198 513.5 180.169C513.5 176.14 510.233 172.874 506.204 172.874C502.175 172.874 498.909 176.14 498.909 180.169C498.909 184.198 502.175 187.464 506.204 187.464Z" fill="#DC8B12"/>
<path opacity="0.52" d="M501.339 340.665C505.368 340.665 508.634 337.399 508.634 333.369C508.634 329.34 505.368 326.074 501.339 326.074C497.31 326.074 494.044 329.34 494.044 333.369C494.044 337.399 497.31 340.665 501.339 340.665Z" fill="#DC8B12"/>
<path opacity="0.51" d="M418.66 471.979C422.69 471.979 425.956 468.712 425.956 464.683C425.956 460.654 422.69 457.388 418.66 457.388C414.631 457.388 411.365 460.654 411.365 464.683C411.365 468.712 414.631 471.979 418.66 471.979Z" fill="#DC8B12"/>
<path opacity="0.51" d="M280.052 540.068C284.081 540.068 287.347 536.802 287.347 532.773C287.347 528.743 284.081 525.477 280.052 525.477C276.023 525.477 272.757 528.743 272.757 532.773C272.757 536.802 276.023 540.068 280.052 540.068Z" fill="#DC8B12"/>
<path opacity="0.51" d="M126.851 530.341C130.88 530.341 134.146 527.075 134.146 523.045C134.146 519.016 130.88 515.75 126.851 515.75C122.822 515.75 119.556 519.016 119.556 523.045C119.556 527.075 122.822 530.341 126.851 530.341Z" fill="#DC8B12"/>
<path opacity="0.51" d="M-2.0319 440.366C1.99716 440.366 5.26335 437.1 5.26335 433.071C5.26335 429.042 1.99716 425.776 -2.0319 425.776C-6.06095 425.776 -9.32715 429.042 -9.32715 433.071C-9.32715 437.1 -6.06095 440.366 -2.0319 440.366Z" fill="#DC8B12"/>
<path opacity="0.5" d="M51.4652 14.8102C55.4942 14.8102 58.7604 11.544 58.7604 7.51498C58.7604 3.48592 55.4942 0.219727 51.4652 0.219727C47.4361 0.219727 44.1699 3.48592 44.1699 7.51498C44.1699 11.544 47.4361 14.8102 51.4652 14.8102Z" fill="#DC8B12"/>
<path opacity="0.49" d="M479.455 90.1943C483.484 90.1943 486.751 86.9281 486.751 82.899C486.751 78.87 483.484 75.6038 479.455 75.6038C475.426 75.6038 472.16 78.87 472.16 82.899C472.16 86.9281 475.426 90.1943 479.455 90.1943Z" fill="#DC8B12"/>
<path opacity="0.49" d="M528.09 243.395C532.119 243.395 535.385 240.129 535.385 236.1C535.385 232.071 532.119 228.804 528.09 228.804C524.061 228.804 520.795 232.071 520.795 236.1C520.795 240.129 524.061 243.395 528.09 243.395Z" fill="#DC8B12"/>
<path opacity="0.49" d="M494.046 401.459C498.075 401.459 501.341 398.192 501.341 394.163C501.341 390.134 498.075 386.868 494.046 386.868C490.017 386.868 486.751 390.134 486.751 394.163C486.751 398.192 490.017 401.459 494.046 401.459Z" fill="#DC8B12"/>
<path opacity="0.49" d="M382.184 518.182C386.213 518.182 389.479 514.916 389.479 510.887C389.479 506.858 386.213 503.591 382.184 503.591C378.155 503.591 374.889 506.858 374.889 510.887C374.889 514.916 378.155 518.182 382.184 518.182Z" fill="#DC8B12"/>
<path opacity="0.48" d="M224.121 561.954C228.15 561.954 231.417 558.688 231.417 554.659C231.417 550.629 228.15 547.363 224.121 547.363C220.092 547.363 216.826 550.629 216.826 554.659C216.826 558.688 220.092 561.954 224.121 561.954Z" fill="#DC8B12"/>
<path opacity="0.48" d="M66.0579 518.182C70.087 518.182 73.3532 514.916 73.3532 510.887C73.3532 506.858 70.087 503.591 66.0579 503.591C62.0289 503.591 58.7627 506.858 58.7627 510.887C58.7627 514.916 62.0289 518.182 66.0579 518.182Z" fill="#DC8B12"/>
<path opacity="0.47" d="M416.229 2.65129C420.258 2.65129 423.524 -0.614905 423.524 -4.64396C423.524 -8.67301 420.258 -11.9392 416.229 -11.9392C412.2 -11.9392 408.934 -8.67301 408.934 -4.64396C408.934 -0.614905 412.2 2.65129 416.229 2.65129Z" fill="#DC8B12"/>
<path opacity="0.47" d="M520.795 136.398C524.824 136.398 528.09 133.131 528.09 129.102C528.09 125.073 524.824 121.807 520.795 121.807C516.766 121.807 513.5 125.073 513.5 129.102C513.5 133.131 516.766 136.398 520.795 136.398Z" fill="#DC8B12"/>
<path opacity="0.46" d="M540.248 304.188C544.277 304.188 547.544 300.922 547.544 296.893C547.544 292.864 544.277 289.598 540.248 289.598C536.219 289.598 532.953 292.864 532.953 296.893C532.953 300.922 536.219 304.188 540.248 304.188Z" fill="#DC8B12"/>
<path opacity="0.46" d="M472.159 459.82C476.188 459.82 479.454 456.554 479.454 452.524C479.454 448.495 476.188 445.229 472.159 445.229C468.129 445.229 464.863 448.495 464.863 452.524C464.863 456.554 468.129 459.82 472.159 459.82Z" fill="#DC8B12"/>
<path opacity="0.46" d="M331.118 559.522C335.147 559.522 338.413 556.256 338.413 552.227C338.413 548.198 335.147 544.932 331.118 544.932C327.088 544.932 323.822 548.198 323.822 552.227C323.822 556.256 327.088 559.522 331.118 559.522Z" fill="#DC8B12"/>
<path opacity="0.46" d="M160.895 571.681C164.924 571.681 168.19 568.415 168.19 564.386C168.19 560.357 164.924 557.091 160.895 557.091C156.866 557.091 153.6 560.357 153.6 564.386C153.6 568.415 156.866 571.681 160.895 571.681Z" fill="#DC8B12"/>
<path opacity="0.45" d="M7.69564 493.864C11.7247 493.864 14.9909 490.598 14.9909 486.569C14.9909 482.54 11.7247 479.274 7.69564 479.274C3.66658 479.274 0.400391 482.54 0.400391 486.569C0.400391 490.598 3.66658 493.864 7.69564 493.864Z" fill="#DC8B12"/>
<path opacity="0.45" d="M-2.03185 23.3213C2.66872 23.3213 6.47928 19.5108 6.47928 14.8102C6.47928 10.1096 2.66872 6.29907 -2.03185 6.29907C-6.73241 6.29907 -10.543 10.1096 -10.543 14.8102C-10.543 19.5108 -6.73241 23.3213 -2.03185 23.3213Z" fill="#DC8B12"/>
<path opacity="0.44" d="M474.591 35.48C479.292 35.48 483.102 31.6695 483.102 26.9689C483.102 22.2683 479.292 18.4578 474.591 18.4578C469.891 18.4578 466.08 22.2683 466.08 26.9689C466.08 31.6695 469.891 35.48 474.591 35.48Z" fill="#DC8B12"/>
<path opacity="0.44" d="M552.408 195.975C557.108 195.975 560.919 192.165 560.919 187.464C560.919 182.764 557.108 178.953 552.408 178.953C547.707 178.953 543.896 182.764 543.896 187.464C543.896 192.165 547.707 195.975 552.408 195.975Z" fill="#DC8B12"/>
<path opacity="0.44" d="M540.249 371.061C544.95 371.061 548.761 367.251 548.761 362.55C548.761 357.849 544.95 354.039 540.249 354.039C535.549 354.039 531.738 357.849 531.738 362.55C531.738 367.251 535.549 371.061 540.249 371.061Z" fill="#DC8B12"/>
<path opacity="0.43" d="M435.683 516.966C440.384 516.966 444.194 513.156 444.194 508.455C444.194 503.754 440.384 499.944 435.683 499.944C430.982 499.944 427.172 503.754 427.172 508.455C427.172 513.156 430.982 516.966 435.683 516.966Z" fill="#DC8B12"/>
<path opacity="0.43" d="M272.755 589.918C277.456 589.918 281.266 586.108 281.266 581.407C281.266 576.707 277.456 572.896 272.755 572.896C268.055 572.896 264.244 576.707 264.244 581.407C264.244 586.108 268.055 589.918 272.755 589.918Z" fill="#DC8B12"/>
<path opacity="0.43" d="M95.2377 568.033C99.9382 568.033 103.749 564.223 103.749 559.522C103.749 554.822 99.9382 551.011 95.2377 551.011C90.5371 551.011 86.7266 554.822 86.7266 559.522C86.7266 564.223 90.5371 568.033 95.2377 568.033Z" fill="#DC8B12"/>
<path opacity="0.41" d="M525.659 81.6834C530.359 81.6834 534.17 77.8728 534.17 73.1723C534.17 68.4717 530.359 64.6611 525.659 64.6611C520.958 64.6611 517.147 68.4717 517.147 73.1723C517.147 77.8728 520.958 81.6834 525.659 81.6834Z" fill="#DC8B12"/>
<path opacity="0.41" d="M574.293 259.201C578.994 259.201 582.804 255.39 582.804 250.69C582.804 245.989 578.994 242.178 574.293 242.178C569.593 242.178 565.782 245.989 565.782 250.69C565.782 255.39 569.593 259.201 574.293 259.201Z" fill="#DC8B12"/>
<path opacity="0.41" d="M525.659 439.15C530.359 439.15 534.17 435.34 534.17 430.639C534.17 425.939 530.359 422.128 525.659 422.128C520.958 422.128 517.147 425.939 517.147 430.639C517.147 435.34 520.958 439.15 525.659 439.15Z" fill="#DC8B12"/>
<path opacity="0.41" d="M389.48 568.033C394.18 568.033 397.991 564.223 397.991 559.522C397.991 554.822 394.18 551.011 389.48 551.011C384.779 551.011 380.969 554.822 380.969 559.522C380.969 564.223 384.779 568.033 389.48 568.033Z" fill="#DC8B12"/>
<path opacity="0.4" d="M204.667 609.373C209.368 609.373 213.178 605.562 213.178 600.862C213.178 596.161 209.368 592.351 204.667 592.351C199.967 592.351 196.156 596.161 196.156 600.862C196.156 605.562 199.967 609.373 204.667 609.373Z" fill="#DC8B12"/>
<path opacity="0.4" d="M27.1498 548.579C31.8504 548.579 35.6609 544.769 35.6609 540.068C35.6609 535.367 31.8504 531.557 27.1498 531.557C22.4492 531.557 18.6387 535.367 18.6387 540.068C18.6387 544.769 22.4492 548.579 27.1498 548.579Z" fill="#DC8B12"/>
<path opacity="0.38" d="M569.428 137.613C574.129 137.613 577.939 133.803 577.939 129.102C577.939 124.402 574.129 120.591 569.428 120.591C564.728 120.591 560.917 124.402 560.917 129.102C560.917 133.803 564.728 137.613 569.428 137.613Z" fill="#DC8B12"/>
<path opacity="0.38" d="M584.021 332.153C588.721 332.153 592.532 328.343 592.532 323.642C592.532 318.941 588.721 315.131 584.021 315.131C579.32 315.131 575.51 318.941 575.51 323.642C575.51 328.343 579.32 332.153 584.021 332.153Z" fill="#DC8B12"/>
<path opacity="0.38" d="M494.045 504.807C498.746 504.807 502.556 500.997 502.556 496.296C502.556 491.595 498.746 487.785 494.045 487.785C489.345 487.785 485.534 491.595 485.534 496.296C485.534 500.997 489.345 504.807 494.045 504.807Z" fill="#DC8B12"/>
<path opacity="0.38" d="M328.686 609.373C333.386 609.373 337.197 605.562 337.197 600.862C337.197 596.161 333.386 592.351 328.686 592.351C323.985 592.351 320.175 596.161 320.175 600.862C320.175 605.562 323.985 609.373 328.686 609.373Z" fill="#DC8B12"/>
<path opacity="0.38" d="M134.147 611.804C138.847 611.804 142.658 607.994 142.658 603.293C142.658 598.593 138.847 594.782 134.147 594.782C129.446 594.782 125.636 598.593 125.636 603.293C125.636 607.994 129.446 611.804 134.147 611.804Z" fill="#DC8B12"/>
<path opacity="0.36" d="M520.793 20.8897C525.494 20.8897 529.304 17.0791 529.304 12.3786C529.304 7.67799 525.494 3.86743 520.793 3.86743C516.093 3.86743 512.282 7.67799 512.282 12.3786C512.282 17.0791 516.093 20.8897 520.793 20.8897Z" fill="#DC8B12"/>
<path opacity="0.36" d="M601.042 205.703C605.743 205.703 609.553 201.892 609.553 197.191C609.553 192.491 605.743 188.68 601.042 188.68C596.342 188.68 592.531 192.491 592.531 197.191C592.531 201.892 596.342 205.703 601.042 205.703Z" fill="#DC8B12"/>
<path opacity="0.35" d="M576.724 405.106C581.425 405.106 585.235 401.295 585.235 396.595C585.235 391.894 581.425 388.083 576.724 388.083C572.023 388.083 568.213 391.894 568.213 396.595C568.213 401.295 572.023 405.106 576.724 405.106Z" fill="#DC8B12"/>
<path opacity="0.35" d="M450.273 565.601C454.973 565.601 458.784 561.79 458.784 557.09C458.784 552.389 454.973 548.579 450.273 548.579C445.572 548.579 441.762 552.389 441.762 557.09C441.762 561.79 445.572 565.601 450.273 565.601Z" fill="#DC8B12"/>
<path opacity="0.35" d="M260.597 638.553C265.298 638.553 269.108 634.743 269.108 630.042C269.108 625.342 265.298 621.531 260.597 621.531C255.896 621.531 252.086 625.342 252.086 630.042C252.086 634.743 255.896 638.553 260.597 638.553Z" fill="#DC8B12"/>
<path opacity="0.35" d="M58.7622 603.294C64.1342 603.294 68.4892 598.939 68.4892 593.567C68.4892 588.195 64.1342 583.84 58.7622 583.84C53.3901 583.84 49.0352 588.195 49.0352 593.567C49.0352 598.939 53.3901 603.294 58.7622 603.294Z" fill="#DC8B12"/>
<path opacity="0.33" d="M574.293 75.6033C579.665 75.6033 584.02 71.2484 584.02 65.8763C584.02 60.5042 579.665 56.1493 574.293 56.1493C568.921 56.1493 564.566 60.5042 564.566 65.8763C564.566 71.2484 568.921 75.6033 574.293 75.6033Z" fill="#DC8B12"/>
<path opacity="0.33" d="M620.497 282.302C625.869 282.302 630.224 277.947 630.224 272.575C630.224 267.203 625.869 262.848 620.497 262.848C615.124 262.848 610.77 267.203 610.77 272.575C610.77 277.947 615.124 282.302 620.497 282.302Z" fill="#DC8B12"/>
<path opacity="0.33" d="M552.406 481.706C557.778 481.706 562.133 477.351 562.133 471.979C562.133 466.607 557.778 462.252 552.406 462.252C547.034 462.252 542.679 466.607 542.679 471.979C542.679 477.351 547.034 481.706 552.406 481.706Z" fill="#DC8B12"/>
<path opacity="0.32" d="M391.912 617.884C397.284 617.884 401.639 613.529 401.639 608.157C401.639 602.785 397.284 598.43 391.912 598.43C386.539 598.43 382.185 602.785 382.185 608.157C382.185 613.529 386.539 617.884 391.912 617.884Z" fill="#DC8B12"/>
<path opacity="0.32" d="M182.781 654.36C188.153 654.36 192.508 650.005 192.508 644.633C192.508 639.261 188.153 634.906 182.781 634.906C177.409 634.906 173.054 639.261 173.054 644.633C173.054 650.005 177.409 654.36 182.781 654.36Z" fill="#DC8B12"/>
<path opacity="0.3" d="M618.065 143.693C623.437 143.693 627.792 139.338 627.792 133.966C627.792 128.594 623.437 124.239 618.065 124.239C612.693 124.239 608.338 128.594 608.338 133.966C608.338 139.338 612.693 143.693 618.065 143.693Z" fill="#DC8B12"/>
<path opacity="0.3" d="M622.928 362.55C628.3 362.55 632.655 358.195 632.655 352.823C632.655 347.451 628.3 343.096 622.928 343.096C617.556 343.096 613.201 347.451 613.201 352.823C613.201 358.195 617.556 362.55 622.928 362.55Z" fill="#DC8B12"/>
<path opacity="0.3" d="M513.498 552.227C518.871 552.227 523.225 547.872 523.225 542.5C523.225 537.128 518.871 532.773 513.498 532.773C508.126 532.773 503.771 537.128 503.771 542.5C503.771 547.872 508.126 552.227 513.498 552.227Z" fill="#DC8B12"/>
<path opacity="0.3" d="M321.391 659.223C326.763 659.223 331.118 654.868 331.118 649.496C331.118 644.124 326.763 639.769 321.391 639.769C316.019 639.769 311.664 644.124 311.664 649.496C311.664 654.868 316.019 659.223 321.391 659.223Z" fill="#DC8B12"/>
<path opacity="0.29" d="M102.534 651.929C107.906 651.929 112.261 647.574 112.261 642.202C112.261 636.83 107.906 632.475 102.534 632.475C97.1616 632.475 92.8066 636.83 92.8066 642.202C92.8066 647.574 97.1616 651.929 102.534 651.929Z" fill="#DC8B12"/>
<path opacity="0.28" d="M569.431 9.94655C574.803 9.94655 579.158 5.59163 579.158 0.219552C579.158 -5.15252 574.803 -9.50745 569.431 -9.50745C564.059 -9.50745 559.704 -5.15252 559.704 0.219552C559.704 5.59163 564.059 9.94655 569.431 9.94655Z" fill="#DC8B12"/>
<path opacity="0.28" d="M649.677 221.508C655.049 221.508 659.404 217.153 659.404 211.781C659.404 206.409 655.049 202.054 649.677 202.054C644.305 202.054 639.95 206.409 639.95 211.781C639.95 217.153 644.305 221.508 649.677 221.508Z" fill="#DC8B12"/>
<path opacity="0.27" d="M608.337 445.23C613.709 445.23 618.064 440.875 618.064 435.503C618.064 430.131 613.709 425.776 608.337 425.776C602.965 425.776 598.61 430.131 598.61 435.503C598.61 440.875 602.965 445.23 608.337 445.23Z" fill="#DC8B12"/>
<path opacity="0.27" d="M460.001 615.452C465.373 615.452 469.728 611.097 469.728 605.725C469.728 600.353 465.373 595.998 460.001 595.998C454.629 595.998 450.274 600.353 450.274 605.725C450.274 611.097 454.629 615.452 460.001 615.452Z" fill="#DC8B12"/>
<path opacity="0.27" d="M241.144 685.973C246.516 685.973 250.871 681.618 250.871 676.246C250.871 670.874 246.516 666.519 241.144 666.519C235.772 666.519 231.417 670.874 231.417 676.246C231.417 681.618 235.772 685.973 241.144 685.973Z" fill="#DC8B12"/>
<path opacity="0.27" d="M19.8549 634.906C25.227 634.906 29.5819 630.551 29.5819 625.179C29.5819 619.807 25.227 615.452 19.8549 615.452C14.4829 615.452 10.1279 619.807 10.1279 625.179C10.1279 630.551 14.4829 634.906 19.8549 634.906Z" fill="#DC8B12"/>
<path opacity="0.25" d="M625.359 75.6033C630.731 75.6033 635.086 71.2484 635.086 65.8763C635.086 60.5042 630.731 56.1493 625.359 56.1493C619.987 56.1493 615.632 60.5042 615.632 65.8763C615.632 71.2484 619.987 75.6033 625.359 75.6033Z" fill="#DC8B12"/>
<path opacity="0.25" d="M664.268 307.836C670.312 307.836 675.211 302.937 675.211 296.893C675.211 290.849 670.312 285.95 664.268 285.95C658.224 285.95 653.325 290.849 653.325 296.893C653.325 302.937 658.224 307.836 664.268 307.836Z" fill="#DC8B12"/>
<path opacity="0.25" d="M576.725 526.693C582.769 526.693 587.668 521.794 587.668 515.75C587.668 509.707 582.769 504.808 576.725 504.808C570.682 504.808 565.782 509.707 565.782 515.75C565.782 521.794 570.682 526.693 576.725 526.693Z" fill="#DC8B12"/>
<path opacity="0.24" d="M391.912 670.167C397.955 670.167 402.854 665.267 402.854 659.224C402.854 653.18 397.955 648.281 391.912 648.281C385.868 648.281 380.969 653.18 380.969 659.224C380.969 665.267 385.868 670.167 391.912 670.167Z" fill="#DC8B12"/>
<path opacity="0.24" d="M156.032 696.916C162.075 696.916 166.975 692.017 166.975 685.973C166.975 679.93 162.075 675.03 156.032 675.03C149.988 675.03 145.089 679.93 145.089 685.973C145.089 692.017 149.988 696.916 156.032 696.916Z" fill="#DC8B12"/>
<path opacity="0.22" d="M669.131 154.635C675.175 154.635 680.074 149.736 680.074 143.693C680.074 137.649 675.175 132.75 669.131 132.75C663.088 132.75 658.188 137.649 658.188 143.693C658.188 149.736 663.088 154.635 669.131 154.635Z" fill="#DC8B12"/>
<path opacity="0.22" d="M661.836 397.811C667.88 397.811 672.779 392.911 672.779 386.868C672.779 380.824 667.88 375.925 661.836 375.925C655.793 375.925 650.894 380.824 650.894 386.868C650.894 392.911 655.793 397.811 661.836 397.811Z" fill="#DC8B12"/>
<path opacity="0.22" d="M528.09 602.078C534.134 602.078 539.033 597.178 539.033 591.135C539.033 585.091 534.134 580.192 528.09 580.192C522.047 580.192 517.147 585.091 517.147 591.135C517.147 597.178 522.047 602.078 528.09 602.078Z" fill="#DC8B12"/>
<path opacity="0.22" d="M309.233 709.075C315.276 709.075 320.176 704.175 320.176 698.132C320.176 692.088 315.276 687.189 309.233 687.189C303.189 687.189 298.29 692.088 298.29 698.132C298.29 704.175 303.189 709.075 309.233 709.075Z" fill="#DC8B12"/>
<path opacity="0.21" d="M66.0581 689.62C72.1017 689.62 77.001 684.721 77.001 678.677C77.001 672.634 72.1017 667.735 66.0581 667.735C60.0145 667.735 55.1152 672.634 55.1152 678.677C55.1152 684.721 60.0145 689.62 66.0581 689.62Z" fill="#DC8B12"/>
<path opacity="0.2" d="M620.495 3.86719C626.538 3.86719 631.438 -1.0321 631.438 -7.07568C631.438 -13.1193 626.538 -18.0186 620.495 -18.0186C614.451 -18.0186 609.552 -13.1193 609.552 -7.07568C609.552 -1.0321 614.451 3.86719 620.495 3.86719Z" fill="#DC8B12"/>
<path opacity="0.2" d="M695.88 242.178C701.924 242.178 706.823 237.279 706.823 231.235C706.823 225.192 701.924 220.292 695.88 220.292C689.837 220.292 684.938 225.192 684.938 231.235C684.938 237.279 689.837 242.178 695.88 242.178Z" fill="#DC8B12"/>
<path opacity="0.19" d="M639.95 487.786C645.993 487.786 650.893 482.886 650.893 476.843C650.893 470.799 645.993 465.9 639.95 465.9C633.906 465.9 629.007 470.799 629.007 476.843C629.007 482.886 633.906 487.786 639.95 487.786Z" fill="#DC8B12"/>
<path opacity="0.19" d="M464.865 667.734C470.908 667.734 475.808 662.835 475.808 656.792C475.808 650.748 470.908 645.849 464.865 645.849C458.821 645.849 453.922 650.748 453.922 656.792C453.922 662.835 458.821 667.734 464.865 667.734Z" fill="#DC8B12"/>
<path opacity="0.19" d="M219.257 733.392C225.301 733.392 230.2 728.493 230.2 722.449C230.2 716.406 225.301 711.506 219.257 711.506C213.214 711.506 208.314 716.406 208.314 722.449C208.314 728.493 213.214 733.392 219.257 733.392Z" fill="#DC8B12"/>
<path opacity="0.17" d="M676.426 79.2512C682.47 79.2512 687.369 74.3519 687.369 68.3084C687.369 62.2648 682.47 57.3655 676.426 57.3655C670.383 57.3655 665.483 62.2648 665.483 68.3084C665.483 74.3519 670.383 79.2512 676.426 79.2512Z" fill="#DC8B12"/>
<path opacity="0.17" d="M705.606 337.017C711.65 337.017 716.549 332.117 716.549 326.074C716.549 320.03 711.65 315.131 705.606 315.131C699.562 315.131 694.663 320.03 694.663 326.074C694.663 332.117 699.562 337.017 705.606 337.017Z" fill="#DC8B12"/>
<path opacity="0.17" d="M598.611 572.897C604.654 572.897 609.554 567.998 609.554 561.954C609.554 555.911 604.654 551.011 598.611 551.011C592.567 551.011 587.668 555.911 587.668 561.954C587.668 567.998 592.567 572.897 598.611 572.897Z" fill="#DC8B12"/>
<path opacity="0.16" d="M384.617 721.233C390.66 721.233 395.56 716.334 395.56 710.291C395.56 704.247 390.66 699.348 384.617 699.348C378.573 699.348 373.674 704.247 373.674 710.291C373.674 716.334 378.573 721.233 384.617 721.233Z" fill="#DC8B12"/>
<path opacity="0.16" d="M124.42 738.255C130.464 738.255 135.363 733.356 135.363 727.313C135.363 721.269 130.464 716.37 124.42 716.37C118.377 716.37 113.478 721.269 113.478 727.313C113.478 733.356 118.377 738.255 124.42 738.255Z" fill="#DC8B12"/>
<path opacity="0.14" d="M717.766 170.442C724.481 170.442 729.925 164.999 729.925 158.284C729.925 151.568 724.481 146.125 717.766 146.125C711.051 146.125 705.607 151.568 705.607 158.284C705.607 164.999 711.051 170.442 717.766 170.442Z" fill="#DC8B12"/>
<path opacity="0.14" d="M695.88 435.503C702.596 435.503 708.039 430.059 708.039 423.344C708.039 416.629 702.596 411.185 695.88 411.185C689.165 411.185 683.722 416.629 683.722 423.344C683.722 430.059 689.165 435.503 695.88 435.503Z" fill="#DC8B12"/>
<path opacity="0.14" d="M540.249 654.36C546.964 654.36 552.407 648.917 552.407 642.202C552.407 635.487 546.964 630.043 540.249 630.043C533.534 630.043 528.09 635.487 528.09 642.202C528.09 648.917 533.534 654.36 540.249 654.36Z" fill="#DC8B12"/>
<path opacity="0.14" d="M292.211 761.357C298.926 761.357 304.369 755.913 304.369 749.198C304.369 742.483 298.926 737.04 292.211 737.04C285.495 737.04 280.052 742.483 280.052 749.198C280.052 755.913 285.495 761.357 292.211 761.357Z" fill="#DC8B12"/>
<path opacity="0.13" d="M27.15 724.88C33.8651 724.88 39.3087 719.437 39.3087 712.722C39.3087 706.007 33.8651 700.563 27.15 700.563C20.4349 700.563 14.9912 706.007 14.9912 712.722C14.9912 719.437 20.4349 724.88 27.15 724.88Z" fill="#DC8B12"/>
<path opacity="0.12" d="M671.562 2.65112C678.277 2.65112 683.721 -2.79254 683.721 -9.50763C683.721 -16.2227 678.277 -21.6664 671.562 -21.6664C664.847 -21.6664 659.403 -16.2227 659.403 -9.50763C659.403 -2.79254 664.847 2.65112 671.562 2.65112Z" fill="#DC8B12"/>
<path opacity="0.11" d="M742.085 267.712C748.8 267.712 754.243 262.268 754.243 255.553C754.243 248.838 748.8 243.395 742.085 243.395C735.369 243.395 729.926 248.838 729.926 255.553C729.926 262.268 735.369 267.712 742.085 267.712Z" fill="#DC8B12"/>
<path opacity="0.11" d="M666.7 532.773C673.415 532.773 678.859 527.329 678.859 520.614C678.859 513.899 673.415 508.456 666.7 508.456C659.985 508.456 654.541 513.899 654.541 520.614C654.541 527.329 659.985 532.773 666.7 532.773Z" fill="#DC8B12"/>
<path opacity="0.11" d="M464.864 722.449C471.579 722.449 477.023 717.005 477.023 710.29C477.023 703.575 471.579 698.132 464.864 698.132C458.149 698.132 452.705 703.575 452.705 710.29C452.705 717.005 458.149 722.449 464.864 722.449Z" fill="#DC8B12"/>
<path opacity="0.11" d="M192.509 780.811C199.224 780.811 204.668 775.367 204.668 768.652C204.668 761.937 199.224 756.494 192.509 756.494C185.794 756.494 180.351 761.937 180.351 768.652C180.351 775.367 185.794 780.811 192.509 780.811Z" fill="#DC8B12"/>
</g>
</svg>
