<svg width="32" height="32" viewBox="0 0 32 32" fill="none" xmlns="http://www.w3.org/2000/svg">
<path d="M28 9.33317V22.6665C28 26.6665 26 29.3332 21.3333 29.3332H10.6667C6 29.3332 4 26.6665 4 22.6665V9.33317C4 5.33317 6 2.6665 10.6667 2.6665H21.3333C26 2.6665 28 5.33317 28 9.33317Z" stroke="#DC8B12" stroke-width="2" stroke-miterlimit="10" stroke-linecap="round" stroke-linejoin="round"/>
<path d="M20.6663 2.6665V13.1465C20.6663 13.7332 19.973 14.0265 19.5463 13.6398L16.453 10.7865C16.1997 10.5465 15.7996 10.5465 15.5463 10.7865L12.453 13.6398C12.0264 14.0265 11.333 13.7332 11.333 13.1465V2.6665H20.6663Z" stroke="#DC8B12" stroke-width="2" stroke-miterlimit="10" stroke-linecap="round" stroke-linejoin="round"/>
<path d="M17.667 18.6665H23.3337" stroke="#DC8B12" stroke-width="2" stroke-miterlimit="10" stroke-linecap="round" stroke-linejoin="round"/>
<path d="M12 24H23.3333" stroke="#DC8B12" stroke-width="2" stroke-miterlimit="10" stroke-linecap="round" stroke-linejoin="round"/>
</svg>
