<svg width="47" height="11" viewBox="0 0 47 11" fill="none" xmlns="http://www.w3.org/2000/svg">
<g clip-path="url(#clip0_34_1065)">
<path fill-rule="evenodd" clip-rule="evenodd" d="M1.49225 1.09595H2.99114C5.3031 1.09595 7.17671 2.15648 7.17671 5.34515C7.17671 8.53382 5.23947 9.72162 2.30533 9.72162H1.42862V1.09595H1.49225ZM0.488281 10.5913H2.29826C5.73439 10.5913 8.23018 9.156 8.23018 5.40878C8.23018 1.66156 6.73836 0.219238 3.05477 0.219238H0.488281V10.5913Z" fill="#DC8B12"/>
<path d="M10.3584 10.5913H11.3553V0.219238H10.3584V10.5913Z" fill="#DC8B12"/>
<path fill-rule="evenodd" clip-rule="evenodd" d="M12.6699 10.5913H13.6668L14.791 7.77731H20.0371L21.1613 10.5913H22.2218L18.1069 0.219238H16.9191L12.6699 10.5913ZM19.7331 6.90767H15.2364L17.4847 1.15958L19.7331 6.90767Z" fill="#DC8B12"/>
<path d="M23.6064 10.5913H28.8526V9.71455H24.667V0.219238H23.6064V10.5913ZM37.0964 2.96955H35.0956V6.71677C35.0956 7.71367 34.7845 9.27619 33.3492 9.27619C31.914 9.27619 32.0342 8.02476 32.0342 7.09149V2.96955H30.0333V7.77731C30.0333 9.52365 30.8464 10.7751 32.6563 10.7751C34.4663 10.7751 34.5936 10.2731 35.1521 9.52365V10.5842H37.0257V2.90592L37.0894 2.96955H37.0964ZM40.9073 6.58951L38.2842 10.5913H40.4689L42.1587 7.72074L43.9051 10.5913H46.2807L43.7212 6.58951L45.9696 2.96248H43.8485L42.4132 5.45827L40.9144 2.96248H38.5388L40.9144 6.58951H40.9073Z" fill="#DC8B12"/>
</g>
<defs>
<clipPath id="clip0_34_1065">
<rect width="46.31" height="10.9588" fill="white"/>
</clipPath>
</defs>
</svg>
