<svg width="32" height="32" viewBox="0 0 32 32" fill="none" xmlns="http://www.w3.org/2000/svg">
<path d="M18.667 21.3333C18.667 23.6933 17.6403 25.8266 16.0003 27.2799C14.587 28.5599 12.7203 29.3333 10.667 29.3333C6.25366 29.3333 2.66699 25.7466 2.66699 21.3333C2.66699 17.6533 5.17366 14.5333 8.56033 13.6133C9.48033 15.9333 11.4537 17.7199 13.8937 18.3866C14.5603 18.5733 15.267 18.6666 16.0003 18.6666C16.7337 18.6666 17.4403 18.5733 18.107 18.3866C18.467 19.2933 18.667 20.2933 18.667 21.3333Z" stroke="#DC8B12" stroke-width="2" stroke-linecap="round" stroke-linejoin="round"/>
<path d="M24 10.6665C24 11.7065 23.8 12.7065 23.44 13.6132C22.52 15.9332 20.5467 17.7198 18.1067 18.3865C17.44 18.5732 16.7333 18.6665 16 18.6665C15.2667 18.6665 14.56 18.5732 13.8933 18.3865C11.4533 17.7198 9.48 15.9332 8.56 13.6132C8.2 12.7065 8 11.7065 8 10.6665C8 6.25317 11.5867 2.6665 16 2.6665C20.4133 2.6665 24 6.25317 24 10.6665Z" stroke="#DC8B12" stroke-width="2" stroke-linecap="round" stroke-linejoin="round"/>
<path d="M29.3333 21.3333C29.3333 25.7466 25.7467 29.3333 21.3333 29.3333C19.28 29.3333 17.4133 28.5599 16 27.2799C17.64 25.8266 18.6667 23.6933 18.6667 21.3333C18.6667 20.2933 18.4667 19.2933 18.1067 18.3866C20.5467 17.7199 22.52 15.9333 23.44 13.6133C26.8267 14.5333 29.3333 17.6533 29.3333 21.3333Z" stroke="#DC8B12" stroke-width="2" stroke-linecap="round" stroke-linejoin="round"/>
</svg>
