<svg width="32" height="32" viewBox="0 0 32 32" fill="none" xmlns="http://www.w3.org/2000/svg">
<path d="M8.97366 26.2665C10.067 25.0932 11.7337 25.1865 12.6937 26.4665L14.0403 28.2665C15.1203 29.6932 16.867 29.6932 17.947 28.2665L19.2937 26.4665C20.2537 25.1865 21.9203 25.0932 23.0137 26.2665C25.387 28.7998 27.3203 27.9598 27.3203 24.4132V9.3865C27.3337 4.01317 26.0803 2.6665 21.0403 2.6665H10.9603C5.92033 2.6665 4.66699 4.01317 4.66699 9.3865V24.3998C4.66699 27.9598 6.61366 28.7865 8.97366 26.2665Z" stroke="#DC8B12" stroke-width="2" stroke-linecap="round" stroke-linejoin="round"/>
<path d="M12 17.3335L20 9.3335" stroke="#DC8B12" stroke-width="2" stroke-linecap="round" stroke-linejoin="round"/>
<path d="M19.9924 17.3332H20.0043" stroke="#DC8B12" stroke-width="2.66667" stroke-linecap="round" stroke-linejoin="round"/>
<path d="M11.9924 10.0002H12.0043" stroke="#DC8B12" stroke-width="2.66667" stroke-linecap="round" stroke-linejoin="round"/>
</svg>
