<svg width="32" height="32" viewBox="0 0 32 32" fill="none" xmlns="http://www.w3.org/2000/svg">
<path d="M29.3337 8.33317V15.1331C29.3337 16.8265 28.7737 18.2532 27.7737 19.2398C26.787 20.2398 25.3603 20.7998 23.667 20.7998V23.2131C23.667 24.1198 22.6536 24.6665 21.907 24.1598L20.6137 23.3065C20.7337 22.8931 20.787 22.4398 20.787 21.9598V16.5332C20.787 13.8132 18.9737 11.9998 16.2537 11.9998H7.20032C7.01365 11.9998 6.84033 12.0132 6.66699 12.0265V8.33317C6.66699 4.93317 8.93366 2.6665 12.3337 2.6665H23.667C27.067 2.6665 29.3337 4.93317 29.3337 8.33317Z" stroke="#DC8B12" stroke-width="2" stroke-miterlimit="10" stroke-linecap="round" stroke-linejoin="round"/>
<path d="M20.787 16.5334V21.96C20.787 22.44 20.7337 22.8933 20.6137 23.3066C20.1203 25.2666 18.4937 26.4933 16.2537 26.4933H12.627L8.60032 29.1733C8.00032 29.5867 7.20032 29.1467 7.20032 28.4267V26.4933C5.84032 26.4933 4.707 26.04 3.92033 25.2533C3.12033 24.4533 2.66699 23.32 2.66699 21.96V16.5334C2.66699 14 4.24033 12.2534 6.66699 12.0267C6.84033 12.0134 7.01365 12 7.20032 12H16.2537C18.9737 12 20.787 13.8134 20.787 16.5334Z" stroke="#DC8B12" stroke-width="2" stroke-miterlimit="10" stroke-linecap="round" stroke-linejoin="round"/>
</svg>
